;TYPE=PLATED
;Layer: PTH_Through_Via
;EasyEDA Pro v2.1.64.d1969c9c.217bcf, 2024-11-09 23:40:02
;Gerber Generator version 0.3
M48
METRIC,LZ,000.00000
;Hole size 1 = 0.30480 METRIC
T01C0.30480
;Hole size 2 = 0.30500 METRIC
T02C0.30500
;Hole size 3 = 0.40000 METRIC
T03C0.40000
%
G05
G90
T01
X00774700Y-02590800
X-00736600Y-05194300
X00190500Y-04762500
X00685800Y-04635500
X00605519Y-04635500
X00685800Y-04699000
X00647700Y-04305300
X01092200Y-04064000
X01117600Y-03530600
X00876300Y-00482600
X00901700Y-03479800
X00255009Y-02924180
X01879600Y-04965700
X00977900Y-04699000
X00687339Y-02924180
X01016000Y-03251200
X-00469900Y-04064000
X-00393700Y-04800600
X-00012700Y-02222500
T02
X00540695Y-04826928
X00464495Y-04826928
X00406400Y-02108200
X00596900Y-00520700
X01860728Y-04641390
X00857428Y-04748209
X01860728Y-04209590
X00273228Y-04748209
T03
X01206500Y-05194300
X01206500Y-05277696
X00774700Y-04838700
M30