G04 Layer: BottomLayer*
G04 EasyEDA Pro v2.1.64.d1969c9c.217bcf, 2024-11-09 23:40:01*
G04 Gerber Generator version 0.3*
G04 Scale: 100 percent, Rotated: No, Reflected: No*
G04 Dimensions in millimeters*
G04 Leading zeros omitted, absolute positions, 3 integers and 5 decimals*
%FSLAX35Y35*%
%MOMM*%
%ADD8191C,0.2032*%
%ADD10C,0.254*%
%ADD11R,2.99999X2.1*%
%ADD12R,1.6X0.8*%
%ADD13C,0.61*%
%ADD14C,0.8*%
%ADD15C,0.6115*%
%ADD16C,0.6096*%
%ADD17C,0.2554*%
%ADD18C,1.0*%
%ADD19C,0.3*%
G75*


G04 Copper Start*
G36*
G01X2214188Y-5358674D02*
G02X2050002Y-5522860I-164186J0D01*
G01X1119728D01*
G03X1142710Y-5506450I-37698J77090D01*
G01X1267180Y-5381980D01*
G03X1292314Y-5321300I-60680J60680D01*
G01Y-5277696D01*
G01Y-5194300D01*
G03X1206500Y-5108486I-85814J0D01*
G03X1120686Y-5194300I0J-85814D01*
G01Y-5277696D01*
G01Y-5285755D01*
G01X1046485Y-5359956D01*
G01X-135943D01*
G01X-434886Y-5061013D01*
G01Y-4762500D01*
G03X-460020Y-4701820I-85814J0D01*
G01X-626111Y-4535730D01*
G03X-686791Y-4510595I-60680J-60680D01*
G01X-1019782D01*
G01Y-4431391D01*
G03X-1055596Y-4395577I-35814J0D01*
G01X-1214548D01*
G01X-1214945Y-3348923D01*
G01X-590372D01*
G03X-554558Y-3313109I0J35814D01*
G01Y-287262D01*
G01Y25117D01*
G03X-553784Y32526I-35039J7409D01*
G02X-389598Y196712I164186J0D01*
G01X2050002D01*
G02X2214188Y32526I0J-164186D01*
G01Y-5358674D01*
G37*
%LPC*%
G36*
G01X327773Y-4973063D02*
G03X362128Y-4987293I34354J34354D01*
G01X1721028D01*
G03X1755382Y-4973063I0J48584D01*
G01X1958582Y-4769863D01*
G03X1972812Y-4735509I-34354J34354D01*
G01Y-4595809D01*
G03X1958582Y-4561455I-48584J0D01*
G01X1909312Y-4512185D01*
G01Y-4254909D01*
G01X1909455Y-4254705D01*
G01X1910260Y-4253693D01*
G01X1910638Y-4253254D01*
G03X1927042Y-4209590I-49910J43664D01*
G03X1860728Y-4143276I-66314J0D01*
G03X1794413Y-4209590I0J-66314D01*
G03X1810638Y-4253048I66314J0D01*
G01X1811677Y-4254288D01*
G01X1812144Y-4254909D01*
G01Y-4532309D01*
G03X1826373Y-4566663I48584J0D01*
G01X1838591Y-4578880D01*
G03X1794413Y-4641390I22137J-62510D01*
G03X1810638Y-4684848I66314J0D01*
G01X1811677Y-4686088D01*
G01X1812144Y-4686709D01*
G01Y-4689985D01*
G01X1650103Y-4852025D01*
G01X979152D01*
G01X912410Y-4785283D01*
G03X923742Y-4748209I-54982J37074D01*
G03X857428Y-4681895I-66314J0D01*
G03X825514Y-4690079I0J-66314D01*
G01Y-2634050D01*
G01X825747Y-2633342D01*
G01X825939Y-2632865D01*
G03X840994Y-2590800I-51239J42065D01*
G03X774700Y-2524506I-66294J0D01*
G03X708406Y-2590800I0J-66294D01*
G03X723461Y-2632865I66294J0D01*
G01X723653Y-2633342D01*
G01X723886Y-2634050D01*
G01Y-4781367D01*
G01X723417Y-4782004D01*
G01X717610Y-4788815D01*
G03X698886Y-4838700I57090J-49885D01*
G03X718993Y-4890125I75814J0D01*
G01X560789D01*
G03X607009Y-4826928I-20094J63196D01*
G03X590943Y-4783653I-66314J0D01*
G01X589209Y-4781536D01*
G01X589156Y-4781462D01*
G03X574999Y-4749423I-48461J-2266D01*
G01X571429Y-4745853D01*
G01Y-1938789D01*
G01Y-614781D01*
G01X599108Y-587101D01*
G01X601831Y-586831D01*
G03X663214Y-520700I-4931J66131D01*
G03X596900Y-454386I-66314J0D01*
G03X530769Y-515769I0J-66314D01*
G01X530499Y-518492D01*
G01X488610Y-560381D01*
G03X474401Y-594685I34305J-34305D01*
G01Y-1883564D01*
G02X434015Y-1892995I-40386J81755D01*
G01X230191D01*
G03X195887Y-1907204I0J-48514D01*
G01X-47005Y-2150095D01*
G03X-60581Y-2176587I34305J-34305D01*
G01X-62010Y-2178189D01*
G01X-62420Y-2178651D01*
G03X-78994Y-2222500I49721J-43849D01*
G03X-12700Y-2288794I66294J0D01*
G03X53594Y-2222500I0J66294D01*
G03X46880Y-2193429I-66294J0D01*
G01X250286Y-1990023D01*
G01X434015D01*
G02X474401Y-1999454I0J-91186D01*
G01Y-2107591D01*
G01X472801Y-2105992D01*
G01X472531Y-2103269D01*
G03X406400Y-2041886I-66131J-4931D01*
G03X340086Y-2108200I0J-66314D01*
G03X401469Y-2174331I66314J0D01*
G01X404192Y-2174601D01*
G01X433761Y-2204170D01*
G01Y-4745853D01*
G01X430190Y-4749424D01*
G03X416034Y-4781462I34305J-34305D01*
G01X415981Y-4781536D01*
G01X414247Y-4783653D01*
G03X398181Y-4826928I50248J-43275D01*
G03X444400Y-4890125I66314J0D01*
G01X382252D01*
G01X321812Y-4829685D01*
G01Y-4793527D01*
G01X321955Y-4793324D01*
G01X322760Y-4792311D01*
G01X323138Y-4791873D01*
G03X339542Y-4748209I-49910J43664D01*
G03X273228Y-4681895I-66314J0D01*
G03X206913Y-4748209I0J-66314D01*
G03X223138Y-4791667I66314J0D01*
G01X224177Y-4792906D01*
G01X224644Y-4793527D01*
G01Y-4849809D01*
G03X238873Y-4884163I48584J0D01*
G01X327773Y-4973063D01*
G37*
G36*
G01X-1031418Y-4321400D02*
G03X-995604Y-4357214I35814J0D01*
G01X-695604D01*
G03X-659790Y-4321400I0J35814D01*
G01Y-4111400D01*
G03X-695604Y-4075586I-35814J0D01*
G01X-995604D01*
G03X-1031418Y-4111400I0J-35814D01*
G01Y-4321400D01*
G37*
G36*
G01X2005202Y-5458288D02*
G03X2146016Y-5317474I0J140814D01*
G03X2005202Y-5176660I-140814J0D01*
G03X1864388Y-5317474I0J-140814D01*
G03X2005202Y-5458288I140814J0D01*
G37*
G36*
G01X-338098Y-167088D02*
G03X-197284Y-26274I0J140814D01*
G03X-338098Y114540I-140814J0D01*
G03X-478912Y-26274I0J-140814D01*
G03X-338098Y-167088I140814J0D01*
G37*
G36*
G01X1864388Y-26274D02*
G03X2005202Y-167088I140814J0D01*
G03X2146016Y-26274I0J140814D01*
G03X2005202Y114540I-140814J0D01*
G03X1864388Y-26274I0J-140814D01*
G37*
%LPD*%
G36*
G01X-232168Y-5506450D02*
G03X-209187Y-5522860I60680J60680D01*
G01X-1049998D01*
G02X-1214184Y-5358674I0J164186D01*
G01Y-5358660D01*
G01X-1214444Y-4672223D01*
G01X-1175799D01*
G03X-1135596Y-4682223I40203J75814D01*
G01X-722336D01*
G01X-693934Y-4710625D01*
G01X-695604Y-4710586D01*
G01X-995604D01*
G03X-1031418Y-4746400I0J-35814D01*
G01Y-4956400D01*
G03X-995604Y-4992214I35814J0D01*
G01X-695604D01*
G03X-659790Y-4956400I0J35814D01*
G01Y-4746400D01*
G01X-659829Y-4744730D01*
G01X-606514Y-4798045D01*
G01Y-5096559D01*
G03X-581380Y-5157238I85814J0D01*
G01X-232168Y-5506450D01*
G37*
%LPC*%
G36*
G01X-1140812Y-5317474D02*
G03X-999998Y-5458288I140814J0D01*
G03X-859184Y-5317474I0J140814D01*
G03X-999998Y-5176660I-140814J0D01*
G03X-1140812Y-5317474I0J-140814D01*
G37*
%LPD*%
G54D8191*
G01X2214188Y-5358674D02*
G02X2050002Y-5522860I-164186J0D01*
G01X1119728D01*
G03X1142710Y-5506450I-37698J77090D01*
G01X1267180Y-5381980D01*
G03X1292314Y-5321300I-60680J60680D01*
G01Y-5277696D01*
G01Y-5194300D01*
G03X1206500Y-5108486I-85814J0D01*
G03X1120686Y-5194300I0J-85814D01*
G01Y-5277696D01*
G01Y-5285755D01*
G01X1046485Y-5359956D01*
G01X-135943D01*
G01X-434886Y-5061013D01*
G01Y-4762500D01*
G03X-460020Y-4701820I-85814J0D01*
G01X-626111Y-4535730D01*
G03X-686791Y-4510595I-60680J-60680D01*
G01X-1019782D01*
G01Y-4431391D01*
G03X-1055596Y-4395577I-35814J0D01*
G01X-1214548D01*
G01X-1214945Y-3348923D01*
G01X-590372D01*
G03X-554558Y-3313109I0J35814D01*
G01Y-287262D01*
G01Y25117D01*
G03X-553784Y32526I-35039J7409D01*
G02X-389598Y196712I164186J0D01*
G01X2050002D01*
G02X2214188Y32526I0J-164186D01*
G01Y-5358674D01*
G01X327773Y-4973063D02*
G03X362128Y-4987293I34354J34354D01*
G01X1721028D01*
G03X1755382Y-4973063I0J48584D01*
G01X1958582Y-4769863D01*
G03X1972812Y-4735509I-34354J34354D01*
G01Y-4595809D01*
G03X1958582Y-4561455I-48584J0D01*
G01X1909312Y-4512185D01*
G01Y-4254909D01*
G01X1909455Y-4254705D01*
G01X1910260Y-4253693D01*
G01X1910638Y-4253254D01*
G03X1927042Y-4209590I-49910J43664D01*
G03X1860728Y-4143276I-66314J0D01*
G03X1794413Y-4209590I0J-66314D01*
G03X1810638Y-4253048I66314J0D01*
G01X1811677Y-4254288D01*
G01X1812144Y-4254909D01*
G01Y-4532309D01*
G03X1826373Y-4566663I48584J0D01*
G01X1838591Y-4578880D01*
G03X1794413Y-4641390I22137J-62510D01*
G03X1810638Y-4684848I66314J0D01*
G01X1811677Y-4686088D01*
G01X1812144Y-4686709D01*
G01Y-4689985D01*
G01X1650103Y-4852025D01*
G01X979152D01*
G01X912410Y-4785283D01*
G03X923742Y-4748209I-54982J37074D01*
G03X857428Y-4681895I-66314J0D01*
G03X825514Y-4690079I0J-66314D01*
G01Y-2634050D01*
G01X825747Y-2633342D01*
G01X825939Y-2632865D01*
G03X840994Y-2590800I-51239J42065D01*
G03X774700Y-2524506I-66294J0D01*
G03X708406Y-2590800I0J-66294D01*
G03X723461Y-2632865I66294J0D01*
G01X723653Y-2633342D01*
G01X723886Y-2634050D01*
G01Y-4781367D01*
G01X723417Y-4782004D01*
G01X717610Y-4788815D01*
G03X698886Y-4838700I57090J-49885D01*
G03X718993Y-4890125I75814J0D01*
G01X560789D01*
G03X607009Y-4826928I-20094J63196D01*
G03X590943Y-4783653I-66314J0D01*
G01X589209Y-4781536D01*
G01X589156Y-4781462D01*
G03X574999Y-4749423I-48461J-2266D01*
G01X571429Y-4745853D01*
G01Y-1938789D01*
G01Y-614781D01*
G01X599108Y-587101D01*
G01X601831Y-586831D01*
G03X663214Y-520700I-4931J66131D01*
G03X596900Y-454386I-66314J0D01*
G03X530769Y-515769I0J-66314D01*
G01X530499Y-518492D01*
G01X488610Y-560381D01*
G03X474401Y-594685I34305J-34305D01*
G01Y-1883564D01*
G02X434015Y-1892995I-40386J81755D01*
G01X230191D01*
G03X195887Y-1907204I0J-48514D01*
G01X-47005Y-2150095D01*
G03X-60581Y-2176587I34305J-34305D01*
G01X-62010Y-2178189D01*
G01X-62420Y-2178651D01*
G03X-78994Y-2222500I49721J-43849D01*
G03X-12700Y-2288794I66294J0D01*
G03X53594Y-2222500I0J66294D01*
G03X46880Y-2193429I-66294J0D01*
G01X250286Y-1990023D01*
G01X434015D01*
G02X474401Y-1999454I0J-91186D01*
G01Y-2107591D01*
G01X472801Y-2105992D01*
G01X472531Y-2103269D01*
G03X406400Y-2041886I-66131J-4931D01*
G03X340086Y-2108200I0J-66314D01*
G03X401469Y-2174331I66314J0D01*
G01X404192Y-2174601D01*
G01X433761Y-2204170D01*
G01Y-4745853D01*
G01X430190Y-4749424D01*
G03X416034Y-4781462I34305J-34305D01*
G01X415981Y-4781536D01*
G01X414247Y-4783653D01*
G03X398181Y-4826928I50248J-43275D01*
G03X444400Y-4890125I66314J0D01*
G01X382252D01*
G01X321812Y-4829685D01*
G01Y-4793527D01*
G01X321955Y-4793324D01*
G01X322760Y-4792311D01*
G01X323138Y-4791873D01*
G03X339542Y-4748209I-49910J43664D01*
G03X273228Y-4681895I-66314J0D01*
G03X206913Y-4748209I0J-66314D01*
G03X223138Y-4791667I66314J0D01*
G01X224177Y-4792906D01*
G01X224644Y-4793527D01*
G01Y-4849809D01*
G03X238873Y-4884163I48584J0D01*
G01X327773Y-4973063D01*
G01X-1031418Y-4321400D02*
G03X-995604Y-4357214I35814J0D01*
G01X-695604D01*
G03X-659790Y-4321400I0J35814D01*
G01Y-4111400D01*
G03X-695604Y-4075586I-35814J0D01*
G01X-995604D01*
G03X-1031418Y-4111400I0J-35814D01*
G01Y-4321400D01*
G01X2005202Y-5458288D02*
G03X2146016Y-5317474I0J140814D01*
G03X2005202Y-5176660I-140814J0D01*
G03X1864388Y-5317474I0J-140814D01*
G03X2005202Y-5458288I140814J0D01*
G01X-338098Y-167088D02*
G03X-197284Y-26274I0J140814D01*
G03X-338098Y114540I-140814J0D01*
G03X-478912Y-26274I0J-140814D01*
G03X-338098Y-167088I140814J0D01*
G01X1864388Y-26274D02*
G03X2005202Y-167088I140814J0D01*
G03X2146016Y-26274I0J140814D01*
G03X2005202Y114540I-140814J0D01*
G03X1864388Y-26274I0J-140814D01*
G01X-232168Y-5506450D02*
G03X-209187Y-5522860I60680J60680D01*
G01X-1049998D01*
G02X-1214184Y-5358674I0J164186D01*
G01Y-5358660D01*
G01X-1214444Y-4672223D01*
G01X-1175799D01*
G03X-1135596Y-4682223I40203J75814D01*
G01X-722336D01*
G01X-693934Y-4710625D01*
G01X-695604Y-4710586D01*
G01X-995604D01*
G03X-1031418Y-4746400I0J-35814D01*
G01Y-4956400D01*
G03X-995604Y-4992214I35814J0D01*
G01X-695604D01*
G03X-659790Y-4956400I0J35814D01*
G01Y-4746400D01*
G01X-659829Y-4744730D01*
G01X-606514Y-4798045D01*
G01Y-5096559D01*
G03X-581380Y-5157238I85814J0D01*
G01X-232168Y-5506450D01*
G01X-1140812Y-5317474D02*
G03X-999998Y-5458288I140814J0D01*
G03X-859184Y-5317474I0J140814D01*
G03X-999998Y-5176660I-140814J0D01*
G03X-1140812Y-5317474I0J-140814D01*
G54D10*
G01X-1135596Y-4471391D02*
G01X-1135596Y-4405483D01*
G01X-1135596Y-4471391D02*
G01X-1029688Y-4471391D01*
G01X-845604Y-4851400D02*
G01X-845604Y-4720492D01*
G01X-845604Y-4851400D02*
G01X-845604Y-4982308D01*
G01X-845604Y-4851400D02*
G01X-669696Y-4851400D01*
G01X-845604Y-4851400D02*
G01X-1021512Y-4851400D01*
G01X-845604Y-4216400D02*
G01X-845604Y-4085492D01*
G01X-845604Y-4216400D02*
G01X-845604Y-4347308D01*
G01X-845604Y-4216400D02*
G01X-669696Y-4216400D01*
G01X-845604Y-4216400D02*
G01X-1021512Y-4216400D01*
G04 Copper End*

G04 Rect Start*
G36*
G01X-1219200Y-4419600D02*
G01X-1219200Y-4508500D01*
G01X-889000D01*
G01Y-4419600D01*
G01X-1219200D01*
G37*
G04 Rect End*

G04 Tear Start*
G36*
G01X553395Y-4785404D02*
G01X527995Y-4785404D01*
G01X527937Y-4786848D01*
G01X527766Y-4788294D01*
G01X527492Y-4789737D01*
G01X527120Y-4791174D01*
G01X526660Y-4792603D01*
G01X525500Y-4795419D01*
G01X524071Y-4798159D01*
G01X522434Y-4800796D01*
G01X520648Y-4803301D01*
G01X517820Y-4806754D01*
G01X563570D01*
G01X560742Y-4803301D01*
G01X558956Y-4800796D01*
G01X557319Y-4798159D01*
G01X555890Y-4795419D01*
G01X554730Y-4792603D01*
G01X554269Y-4791174D01*
G01X553898Y-4789737D01*
G01X553623Y-4788294D01*
G01X553453Y-4786848D01*
G01X553395Y-4785404D01*
G37*
G36*
G01X477195Y-4785404D02*
G01X451795Y-4785404D01*
G01X451736Y-4786848D01*
G01X451566Y-4788294D01*
G01X451292Y-4789737D01*
G01X450920Y-4791174D01*
G01X450459Y-4792603D01*
G01X449299Y-4795419D01*
G01X447871Y-4798159D01*
G01X446234Y-4800796D01*
G01X444448Y-4803301D01*
G01X441620Y-4806754D01*
G01X487370D01*
G01X484541Y-4803301D01*
G01X482755Y-4800796D01*
G01X481118Y-4798159D01*
G01X479690Y-4795419D01*
G01X478530Y-4792603D01*
G01X478069Y-4791174D01*
G01X477698Y-4789737D01*
G01X477423Y-4788294D01*
G01X477253Y-4786848D01*
G01X477195Y-4785404D01*
G37*
G36*
G01X426782Y-2146542D02*
G01X444742Y-2128582D01*
G01X443762Y-2127519D01*
G01X442861Y-2126377D01*
G01X442035Y-2125163D01*
G01X441281Y-2123884D01*
G01X440596Y-2122548D01*
G01X439425Y-2119736D01*
G01X438498Y-2116788D01*
G01X437791Y-2113766D01*
G01X437282Y-2110732D01*
G01X436840Y-2106290D01*
G01X404490Y-2138640D01*
G01X408932Y-2139082D01*
G01X411966Y-2139591D01*
G01X414988Y-2140298D01*
G01X417936Y-2141225D01*
G01X420748Y-2142396D01*
G01X422084Y-2143081D01*
G01X423363Y-2143835D01*
G01X424577Y-2144661D01*
G01X425719Y-2145562D01*
G01X426782Y-2146542D01*
G37*
G36*
G01X558558Y-541082D02*
G01X576518Y-559042D01*
G01X577581Y-558062D01*
G01X578723Y-557161D01*
G01X579937Y-556335D01*
G01X581216Y-555581D01*
G01X582552Y-554896D01*
G01X585364Y-553725D01*
G01X588312Y-552798D01*
G01X591334Y-552091D01*
G01X594368Y-551582D01*
G01X598810Y-551140D01*
G01X566460Y-518790D01*
G01X566018Y-523232D01*
G01X565509Y-526266D01*
G01X564802Y-529288D01*
G01X563875Y-532236D01*
G01X562704Y-535048D01*
G01X562019Y-536384D01*
G01X561265Y-537663D01*
G01X560439Y-538877D01*
G01X559538Y-540019D01*
G01X558558Y-541082D01*
G37*
G36*
G01X1847958Y-4682914D02*
G01X1873498Y-4682914D01*
G01X1873555Y-4681479D01*
G01X1873724Y-4680039D01*
G01X1873997Y-4678598D01*
G01X1874366Y-4677161D01*
G01X1874824Y-4675731D01*
G01X1875976Y-4672909D01*
G01X1877394Y-4670160D01*
G01X1879020Y-4667516D01*
G01X1880794Y-4665007D01*
G01X1882656Y-4662664D01*
G01X1883603Y-4661564D01*
G01X1837852D01*
G01X1839737Y-4663813D01*
G01X1841563Y-4666243D01*
G01X1843270Y-4668823D01*
G01X1844800Y-4671523D01*
G01X1846092Y-4674313D01*
G01X1846632Y-4675731D01*
G01X1847089Y-4677161D01*
G01X1847458Y-4678598D01*
G01X1847731Y-4680039D01*
G01X1847900Y-4681479D01*
G01X1847958Y-4682914D01*
G37*
G36*
G01X844658Y-4789733D02*
G01X870198Y-4789733D01*
G01X870255Y-4788297D01*
G01X870424Y-4786857D01*
G01X870697Y-4785417D01*
G01X871066Y-4783980D01*
G01X871524Y-4782550D01*
G01X872676Y-4779727D01*
G01X874094Y-4776978D01*
G01X875720Y-4774334D01*
G01X877494Y-4771826D01*
G01X879356Y-4769483D01*
G01X880303Y-4768383D01*
G01X834552D01*
G01X836437Y-4770632D01*
G01X838263Y-4773061D01*
G01X839970Y-4775641D01*
G01X841500Y-4778341D01*
G01X842792Y-4781131D01*
G01X843332Y-4782550D01*
G01X843789Y-4783980D01*
G01X844158Y-4785417D01*
G01X844431Y-4786857D01*
G01X844600Y-4788297D01*
G01X844658Y-4789733D01*
G37*
G36*
G01X1847958Y-4251114D02*
G01X1873498Y-4251114D01*
G01X1873555Y-4249679D01*
G01X1873724Y-4248239D01*
G01X1873997Y-4246798D01*
G01X1874366Y-4245361D01*
G01X1874824Y-4243931D01*
G01X1875976Y-4241109D01*
G01X1877394Y-4238360D01*
G01X1879020Y-4235716D01*
G01X1880794Y-4233207D01*
G01X1882656Y-4230864D01*
G01X1883603Y-4229764D01*
G01X1837852D01*
G01X1839737Y-4232013D01*
G01X1841563Y-4234443D01*
G01X1843270Y-4237023D01*
G01X1844800Y-4239723D01*
G01X1846092Y-4242513D01*
G01X1846632Y-4243931D01*
G01X1847089Y-4245361D01*
G01X1847458Y-4246798D01*
G01X1847731Y-4248239D01*
G01X1847900Y-4249679D01*
G01X1847958Y-4251114D01*
G37*
G36*
G01X260458Y-4789733D02*
G01X285998Y-4789733D01*
G01X286055Y-4788297D01*
G01X286224Y-4786857D01*
G01X286497Y-4785417D01*
G01X286866Y-4783980D01*
G01X287324Y-4782550D01*
G01X288476Y-4779727D01*
G01X289894Y-4776978D01*
G01X291520Y-4774334D01*
G01X293294Y-4771826D01*
G01X295156Y-4769483D01*
G01X296103Y-4768383D01*
G01X250352D01*
G01X252237Y-4770632D01*
G01X254063Y-4773061D01*
G01X255770Y-4775641D01*
G01X257300Y-4778341D01*
G01X258592Y-4781131D01*
G01X259132Y-4782550D01*
G01X259589Y-4783980D01*
G01X259958Y-4785417D01*
G01X260231Y-4786857D01*
G01X260400Y-4788297D01*
G01X260458Y-4789733D01*
G37*
G36*
G01X789700Y-4784243D02*
G01X759700Y-4784243D01*
G01X759614Y-4786332D01*
G01X759363Y-4788352D01*
G01X758958Y-4790308D01*
G01X758411Y-4792205D01*
G01X757732Y-4794048D01*
G01X756931Y-4795843D01*
G01X756021Y-4797593D01*
G01X753916Y-4800985D01*
G01X751502Y-4804264D01*
G01X744700Y-4812243D01*
G01X804700D01*
G01X797898Y-4804264D01*
G01X795484Y-4800985D01*
G01X793379Y-4797593D01*
G01X792469Y-4795843D01*
G01X791668Y-4794048D01*
G01X790989Y-4792205D01*
G01X790442Y-4790308D01*
G01X790037Y-4788352D01*
G01X789786Y-4786332D01*
G01X789700Y-4784243D01*
G37*
G36*
G01X759700Y-2632297D02*
G01X789700Y-2632297D01*
G01X789869Y-2629787D01*
G01X790350Y-2626997D01*
G01X791104Y-2624044D01*
G01X792089Y-2621046D01*
G01X793267Y-2618121D01*
G01X794599Y-2615386D01*
G01X796043Y-2612960D01*
G01X797560Y-2610961D01*
G01X751840D01*
G01X753357Y-2612960D01*
G01X754801Y-2615386D01*
G01X756133Y-2618121D01*
G01X757311Y-2621046D01*
G01X758296Y-2624044D01*
G01X759050Y-2626997D01*
G01X759531Y-2629787D01*
G01X759700Y-2632297D01*
G37*
G36*
G01X0Y-2184400D02*
G01X-25400Y-2184400D01*
G01X-25458Y-2185804D01*
G01X-25628Y-2187140D01*
G01X-25902Y-2188414D01*
G01X-26273Y-2189633D01*
G01X-26733Y-2190804D01*
G01X-27275Y-2191932D01*
G01X-27892Y-2193026D01*
G01X-29318Y-2195131D01*
G01X-30953Y-2197173D01*
G01X-35560Y-2202339D01*
G01X10160D01*
G01X5553Y-2197173D01*
G01X3918Y-2195131D01*
G01X2492Y-2193026D01*
G01X1875Y-2191932D01*
G01X1333Y-2190804D01*
G01X873Y-2189633D01*
G01X502Y-2188414D01*
G01X228Y-2187140D01*
G01X58Y-2185804D01*
G01X0Y-2184400D01*
G37*
G36*
G01X434015Y-1954209D02*
G01X434015Y-1928809D01*
G03X510215Y-1903409I0J127000D01*
G01Y-1979609D01*
G03X434015Y-1954209I-76200J-101600D01*
G37*
G04 Tear End*

G04 Pad Start*
G54D11*
G01X-845604Y-4851400D03*
G01X-845604Y-4216400D03*
G54D12*
G01X-1135596Y-4471391D03*
G01X-1135596Y-4596409D03*
G04 Pad End*

G04 Via Start*
G54D13*
G01X540695Y-4826928D03*
G01X464495Y-4826928D03*
G01X406400Y-2108200D03*
G01X596900Y-520700D03*
G01X1860728Y-4641390D03*
G01X857428Y-4748209D03*
G01X1860728Y-4209590D03*
G01X273228Y-4748209D03*
G54D14*
G01X1206500Y-5194300D03*
G01X1206500Y-5277696D03*
G01X774700Y-4838700D03*
G54D16*
G01X774700Y-2590800D03*
G01X-736600Y-5194300D03*
G01X190500Y-4762500D03*
G01X685800Y-4635500D03*
G01X605519Y-4635500D03*
G01X685800Y-4699000D03*
G01X647700Y-4305300D03*
G01X1092200Y-4064000D03*
G01X1117600Y-3530600D03*
G01X876300Y-482600D03*
G01X901700Y-3479800D03*
G01X255009Y-2924180D03*
G01X1879600Y-4965700D03*
G01X977900Y-4699000D03*
G01X687339Y-2924180D03*
G01X1016000Y-3251200D03*
G01X-469900Y-4064000D03*
G01X-393700Y-4800600D03*
G01X-12700Y-2222500D03*
G04 Via End*

G04 Track Start*
G54D10*
G01X540695Y-4826928D02*
G01X540695Y-4783728D01*
G01X522915Y-4765948D01*
G01X464495Y-4783728D02*
G01X464495Y-4826928D01*
G01X482275Y-4765948D02*
G01X464495Y-4783728D01*
G01X406400Y-2108200D02*
G01X482275Y-2184075D01*
G01Y-4765948D01*
G01X596900Y-520700D02*
G01X522915Y-594685D01*
G01X520195Y-1941509D02*
G01X522915Y-1938789D01*
G01X522915Y-594685D02*
G01X522915Y-1938789D01*
G01Y-4765948D01*
G54D17*
G01X1860728Y-4710109D02*
G01X1860728Y-4641390D01*
G01X1670228Y-4900609D02*
G01X1860728Y-4710109D01*
G01X857428Y-4748209D02*
G01X857428Y-4799009D01*
G01X959028Y-4900609D01*
G01X1670228D01*
G01X1860728Y-4209590D02*
G01X1860728Y-4532309D01*
G01X1924228Y-4595809D01*
G01X1924228Y-4735509D02*
G01X1721028Y-4938709D01*
G01X362128D01*
G01X273228Y-4849809D01*
G01Y-4748209D01*
G01X1924228Y-4595809D02*
G01X1924228Y-4735509D01*
G54D18*
G01X1082030Y-5445770D02*
G01X-171488Y-5445770D01*
G01X1206500Y-5321300D02*
G01X1082030Y-5445770D01*
G01X1206500Y-5277696D02*
G01X1206500Y-5321300D01*
G01X1206500Y-5277696D02*
G01X1206500Y-5194300D01*
G54D19*
G01X774700Y-2590800D02*
G01X774700Y-4838700D01*
G54D18*
G01X-171488Y-5445770D02*
G01X-520700Y-5096559D01*
G01Y-4762500D01*
G01X-686791Y-4596409D01*
G01X-1135596D01*
G54D10*
G01X-12700Y-2222500D02*
G01X-12700Y-2184400D01*
G01X230191Y-1941509D01*
G01X520195D01*
G04 Track End*

M02*
