G04 Layer: TopSilkscreenLayer*
G04 EasyEDA Pro v2.1.64.d1969c9c.217bcf, 2024-11-09 23:40:01*
G04 Gerber Generator version 0.3*
G04 Scale: 100 percent, Rotated: No, Reflected: No*
G04 Dimensions in millimeters*
G04 Leading zeros omitted, absolute positions, 3 integers and 5 decimals*
%FSLAX35Y35*%
%MOMM*%
%ADD10C,0.2032*%
%ADD11C,0.1524*%
%ADD12C,0.254*%
%ADD13C,0.14986*%
%ADD14C,0.6*%
%ADD15C,0.127*%
%ADD16C,0.2064*%
%ADD17C,0.2*%
%ADD18C,0.08001*%
G75*


G04 Text Start*
G36*
G01X-623672Y-5251806D02*
G01X-627126Y-5252009D01*
G01X-628040Y-5252212D01*
G01X-628853Y-5252263D01*
G01X-629768Y-5252568D01*
G01X-630885Y-5252822D01*
G01X-632511Y-5253380D01*
G01X-633222Y-5253634D01*
G01X-634848Y-5254447D01*
G01X-635762Y-5255006D01*
G01X-636524Y-5255463D01*
G01X-637032Y-5255819D01*
G01X-637794Y-5256378D01*
G01X-638404Y-5256987D01*
G01X-639318Y-5257749D01*
G01X-640690Y-5259121D01*
G01X-642061Y-5260746D01*
G01X-642417Y-5261305D01*
G01X-642874Y-5261915D01*
G01X-643433Y-5262829D01*
G01X-643890Y-5263744D01*
G01X-644246Y-5264353D01*
G01X-644754Y-5265623D01*
G01X-645058Y-5266182D01*
G01X-645211Y-5266842D01*
G01X-645770Y-5268671D01*
G01X-646125Y-5270449D01*
G01X-646328Y-5271211D01*
G01X-646430Y-5272176D01*
G01X-646481Y-5272989D01*
G01X-646684Y-5273751D01*
G01X-646786Y-5276393D01*
G01X-646684Y-5278831D01*
G01X-646481Y-5279746D01*
G01X-646430Y-5280812D01*
G01X-646227Y-5281625D01*
G01X-646074Y-5282387D01*
G01X-645973Y-5282997D01*
G01X-645617Y-5284267D01*
G01X-645312Y-5285080D01*
G01X-644601Y-5286908D01*
G01X-644246Y-5287670D01*
G01X-643941Y-5288077D01*
G01X-643687Y-5288636D01*
G01X-643331Y-5289296D01*
G01X-642772Y-5290109D01*
G01X-642163Y-5291023D01*
G01X-641604Y-5291633D01*
G01X-639318Y-5293919D01*
G01X-638759Y-5294376D01*
G01X-638251Y-5294732D01*
G01X-637794Y-5295087D01*
G01X-637235Y-5295443D01*
G01X-635965Y-5296205D01*
G01X-634492Y-5296916D01*
G01X-633070Y-5297475D01*
G01X-632257Y-5297729D01*
G01X-631342Y-5298034D01*
G01X-630428Y-5298186D01*
G01X-629615Y-5298288D01*
G01X-628853Y-5298440D01*
G01X-627685Y-5298542D01*
G01X-626872Y-5298643D01*
G01X-625348Y-5298745D01*
G01X-623621Y-5298643D01*
G01X-620674Y-5298440D01*
G01X-619963Y-5298288D01*
G01X-619150Y-5298186D01*
G01X-618490Y-5298084D01*
G01X-617576Y-5297830D01*
G01X-616610Y-5297576D01*
G01X-615340Y-5297170D01*
G01X-613410Y-5296357D01*
G01X-612953Y-5296103D01*
G01X-612699Y-5295392D01*
G01X-612597Y-5292750D01*
G01X-612648Y-5291226D01*
G01X-612851Y-5290668D01*
G01X-613410Y-5290718D01*
G01X-615239Y-5291633D01*
G01X-616255Y-5291988D01*
G01X-617423Y-5292395D01*
G01X-618338Y-5292649D01*
G01X-620522Y-5293004D01*
G01X-621436Y-5293208D01*
G01X-624688Y-5293258D01*
G01X-627583Y-5293208D01*
G01X-629209Y-5292852D01*
G01X-629869Y-5292649D01*
G01X-630580Y-5292395D01*
G01X-631850Y-5291836D01*
G01X-632663Y-5291379D01*
G01X-633425Y-5290922D01*
G01X-633984Y-5290566D01*
G01X-634695Y-5290007D01*
G01X-636676Y-5288026D01*
G01X-637032Y-5287569D01*
G01X-637337Y-5287112D01*
G01X-637692Y-5286553D01*
G01X-638048Y-5285943D01*
G01X-638759Y-5284470D01*
G01X-639166Y-5283657D01*
G01X-639674Y-5282032D01*
G01X-639978Y-5280812D01*
G01X-640131Y-5279542D01*
G01X-640334Y-5278628D01*
G01X-640486Y-5275732D01*
G01Y-5275174D01*
G01X-640334Y-5272278D01*
G01X-640131Y-5271364D01*
G01X-639978Y-5270195D01*
G01X-639674Y-5269281D01*
G01X-639521Y-5268570D01*
G01X-639318Y-5267909D01*
G01X-638505Y-5266030D01*
G01X-638251Y-5265471D01*
G01X-637845Y-5264810D01*
G01X-637438Y-5264201D01*
G01X-637032Y-5263744D01*
G01X-636778Y-5263286D01*
G01X-636067Y-5262372D01*
G01X-635610Y-5261915D01*
G01X-635051Y-5261458D01*
G01X-634594Y-5261000D01*
G01X-633984Y-5260442D01*
G01X-632663Y-5259578D01*
G01X-631800Y-5259019D01*
G01X-630936Y-5258664D01*
G01X-630428Y-5258359D01*
G01X-629666Y-5258105D01*
G01X-628802Y-5257851D01*
G01X-627685Y-5257546D01*
G01X-626669Y-5257394D01*
G01X-625602Y-5257190D01*
G01X-622706Y-5257089D01*
G01X-620319Y-5257190D01*
G01X-618490Y-5257546D01*
G01X-617677Y-5257749D01*
G01X-616763Y-5258003D01*
G01X-616052Y-5258257D01*
G01X-615391Y-5258460D01*
G01X-614680Y-5258714D01*
G01X-613258Y-5259476D01*
G01X-612800Y-5259629D01*
G01X-612699Y-5259172D01*
G01X-612597Y-5256276D01*
G01Y-5253838D01*
G01X-613054Y-5253533D01*
G01X-613969Y-5253177D01*
G01X-614680Y-5252923D01*
G01X-615340Y-5252720D01*
G01X-615950Y-5252669D01*
G01X-617423Y-5252263D01*
G01X-619049Y-5252110D01*
G01X-619963Y-5251907D01*
G37*
G36*
G01X-603707Y-5252568D02*
G01X-603707Y-5257648D01*
G01X-597713D01*
G01X-593852D01*
G01X-589788Y-5257749D01*
G01X-588518Y-5257902D01*
G01X-587604Y-5258206D01*
G01X-586486Y-5258664D01*
G01X-585673Y-5259121D01*
G01X-585165Y-5259578D01*
G01X-584708Y-5259984D01*
G01X-584302Y-5260442D01*
G01X-584048Y-5261000D01*
G01X-583692Y-5261813D01*
G01X-583489Y-5262728D01*
G01X-583438Y-5263388D01*
G01X-583336Y-5264455D01*
G01X-583438Y-5265572D01*
G01X-583590Y-5266385D01*
G01X-583844Y-5267198D01*
G01X-584403Y-5268265D01*
G01X-584759Y-5268824D01*
G01X-585673Y-5269738D01*
G01X-586232Y-5270195D01*
G01X-586892Y-5270551D01*
G01X-587604Y-5270906D01*
G01X-588416Y-5271262D01*
G01X-589483Y-5271567D01*
G01X-590499Y-5271719D01*
G01X-594157Y-5271821D01*
G01X-597611Y-5271719D01*
G01X-597713Y-5264658D01*
G01Y-5257648D01*
G01X-603707D01*
G01Y-5276901D01*
G01X-597713D01*
G01X-593852D01*
G01X-589788Y-5277002D01*
G01X-588162Y-5277206D01*
G01X-587248Y-5277358D01*
G01X-586232Y-5277663D01*
G01X-585521Y-5277917D01*
G01X-584860Y-5278171D01*
G01X-584149Y-5278628D01*
G01X-583235Y-5279288D01*
G01X-582574Y-5280000D01*
G01X-582117Y-5280762D01*
G01X-581711Y-5281625D01*
G01X-581406Y-5282641D01*
G01X-581254Y-5283556D01*
G01X-581152Y-5285080D01*
G01X-581254Y-5286451D01*
G01X-581406Y-5287264D01*
G01X-581711Y-5288077D01*
G01X-582066Y-5288839D01*
G01X-582524Y-5289448D01*
G01X-583235Y-5290363D01*
G01X-583946Y-5290922D01*
G01X-584860Y-5291480D01*
G01X-585572Y-5291836D01*
G01X-586435Y-5292192D01*
G01X-587604Y-5292446D01*
G01X-588670Y-5292649D01*
G01X-593344Y-5292750D01*
G01X-597611Y-5292649D01*
G01X-597713Y-5284724D01*
G01Y-5276901D01*
G01X-603707D01*
G01Y-5297830D01*
G01X-595427D01*
G01X-586892Y-5297729D01*
G01X-585876Y-5297576D01*
G01X-584759Y-5297272D01*
G01X-583844Y-5297018D01*
G01X-583032Y-5296713D01*
G01X-582219Y-5296357D01*
G01X-581508Y-5296002D01*
G01X-580949Y-5295646D01*
G01X-580238Y-5295189D01*
G01X-579577Y-5294732D01*
G01X-579120Y-5294274D01*
G01X-578663Y-5293919D01*
G01X-578155Y-5293360D01*
G01X-577596Y-5292750D01*
G01X-577139Y-5292192D01*
G01X-576682Y-5291480D01*
G01X-576224Y-5290668D01*
G01X-575513Y-5288940D01*
G01X-575208Y-5287721D01*
G01X-575056Y-5286807D01*
G01X-574954Y-5284622D01*
G01X-575056Y-5282489D01*
G01X-575208Y-5281625D01*
G01X-575513Y-5280762D01*
G01X-575869Y-5279898D01*
G01X-576224Y-5279187D01*
G01X-576682Y-5278476D01*
G01X-577240Y-5277815D01*
G01X-577952Y-5276901D01*
G01X-578663Y-5276393D01*
G01X-579526Y-5275732D01*
G01X-580339Y-5275275D01*
G01X-581050Y-5274920D01*
G01X-581863Y-5274564D01*
G01X-583032Y-5274208D01*
G01X-584251Y-5273904D01*
G01X-584606Y-5273802D01*
G01X-584708Y-5273650D01*
G01X-584251Y-5273396D01*
G01X-583590Y-5273091D01*
G01X-582879Y-5272735D01*
G01X-582066Y-5272278D01*
G01X-581406Y-5271821D01*
G01X-580492Y-5271110D01*
G01X-579425Y-5269840D01*
G01X-579069Y-5269382D01*
G01X-578663Y-5268722D01*
G01X-577850Y-5267096D01*
G01X-577596Y-5266284D01*
G01X-577393Y-5265572D01*
G01X-577240Y-5264658D01*
G01X-577139Y-5262575D01*
G01X-577240Y-5260848D01*
G01X-577494Y-5259934D01*
G01X-577850Y-5258816D01*
G01X-578307Y-5258003D01*
G01X-578764Y-5257394D01*
G01X-579323Y-5256632D01*
G01X-579984Y-5256022D01*
G01X-580847Y-5255260D01*
G01X-581508Y-5254803D01*
G01X-582320Y-5254396D01*
G01X-583032Y-5253990D01*
G01X-583844Y-5253634D01*
G01X-584708Y-5253380D01*
G01X-585572Y-5253076D01*
G01X-587045Y-5252822D01*
G01X-588518Y-5252669D01*
G01X-596392Y-5252568D01*
G37*
G36*
G01X-548234Y-5252568D02*
G01X-548234Y-5257648D01*
G01X-542239D01*
G01X-538429D01*
G01X-534314Y-5257749D01*
G01X-533044Y-5257902D01*
G01X-532232Y-5258206D01*
G01X-531216Y-5258562D01*
G01X-530301Y-5259121D01*
G01X-529590Y-5259629D01*
G01X-529234Y-5260086D01*
G01X-528980Y-5260543D01*
G01X-528574Y-5261204D01*
G01X-528218Y-5262270D01*
G01X-528066Y-5264353D01*
G01X-528117Y-5266080D01*
G01X-528422Y-5266944D01*
G01X-528777Y-5267808D01*
G01X-529336Y-5268671D01*
G01X-529844Y-5269382D01*
G01X-530403Y-5269840D01*
G01X-530962Y-5270195D01*
G01X-531622Y-5270652D01*
G01X-532587Y-5271110D01*
G01X-533705Y-5271465D01*
G01X-534619Y-5271668D01*
G01X-535229Y-5271719D01*
G01X-538785Y-5271821D01*
G01X-542138Y-5271719D01*
G01X-542239Y-5264658D01*
G01Y-5257648D01*
G01X-548234D01*
G01Y-5276901D01*
G01X-542239D01*
G01X-538429D01*
G01X-534314Y-5277002D01*
G01X-532689Y-5277206D01*
G01X-531876Y-5277358D01*
G01X-530962Y-5277663D01*
G01X-530250Y-5277917D01*
G01X-529590Y-5278171D01*
G01X-528980Y-5278577D01*
G01X-528117Y-5279085D01*
G01X-527507Y-5279746D01*
G01X-527152Y-5280203D01*
G01X-526796Y-5280762D01*
G01X-526390Y-5281473D01*
G01X-526034Y-5282489D01*
G01X-525882Y-5283657D01*
G01X-525780Y-5284470D01*
G01Y-5285537D01*
G01X-525983Y-5286908D01*
G01X-526237Y-5287823D01*
G01X-526593Y-5288636D01*
G01X-526948Y-5289296D01*
G01X-527304Y-5289753D01*
G01X-528218Y-5290668D01*
G01X-528777Y-5291125D01*
G01X-529438Y-5291480D01*
G01X-530149Y-5291836D01*
G01X-531165Y-5292192D01*
G01X-532333Y-5292446D01*
G01X-533248Y-5292649D01*
G01X-537769Y-5292750D01*
G01X-542138Y-5292649D01*
G01X-542239Y-5284724D01*
G01Y-5276901D01*
G01X-548234D01*
G01Y-5297830D01*
G01X-540055D01*
G01X-531622Y-5297729D01*
G01X-530301Y-5297576D01*
G01X-529438Y-5297272D01*
G01X-528218Y-5296916D01*
G01X-527253Y-5296560D01*
G01X-526491Y-5296205D01*
G01X-525882Y-5295849D01*
G01X-525120Y-5295392D01*
G01X-524510Y-5294935D01*
G01X-523799Y-5294376D01*
G01X-522681Y-5293258D01*
G01X-522122Y-5292649D01*
G01X-521665Y-5291988D01*
G01X-521310Y-5291480D01*
G01X-520954Y-5290820D01*
G01X-520598Y-5290109D01*
G01X-520243Y-5289093D01*
G01X-519938Y-5288077D01*
G01X-519786Y-5287213D01*
G01X-519582Y-5286096D01*
G01X-519481Y-5284470D01*
G01X-519582Y-5283200D01*
G01X-519786Y-5281930D01*
G01X-520040Y-5281117D01*
G01X-520395Y-5280101D01*
G01X-520802Y-5279390D01*
G01X-521208Y-5278628D01*
G01X-521868Y-5277714D01*
G01X-522935Y-5276647D01*
G01X-523494Y-5276190D01*
G01X-524612Y-5275478D01*
G01X-525221Y-5275123D01*
G01X-526034Y-5274716D01*
G01X-527710Y-5274208D01*
G01X-528879Y-5273904D01*
G01X-529336Y-5273802D01*
G01X-529438Y-5273650D01*
G01X-528879Y-5273396D01*
G01X-528117Y-5273091D01*
G01X-526847Y-5272380D01*
G01X-526339Y-5272024D01*
G01X-525577Y-5271465D01*
G01X-524510Y-5270398D01*
G01X-524053Y-5269840D01*
G01X-523697Y-5269281D01*
G01X-523240Y-5268671D01*
G01X-522783Y-5267757D01*
G01X-522427Y-5266842D01*
G01X-522122Y-5265928D01*
G01X-521970Y-5265014D01*
G01X-521767Y-5263896D01*
G01X-521665Y-5262575D01*
G01X-521767Y-5261559D01*
G01X-521970Y-5260645D01*
G01X-522224Y-5259629D01*
G01X-522529Y-5258918D01*
G01X-522884Y-5258206D01*
G01X-523392Y-5257394D01*
G01X-523951Y-5256733D01*
G01X-525323Y-5255362D01*
G01X-525780Y-5255006D01*
G01X-526390Y-5254650D01*
G01X-527253Y-5254193D01*
G01X-528066Y-5253838D01*
G01X-528980Y-5253482D01*
G01X-530149Y-5253076D01*
G01X-531622Y-5252822D01*
G01X-533044Y-5252669D01*
G01X-540969Y-5252568D01*
G37*
G36*
G01X-680618Y-5252568D02*
G01X-680618Y-5257648D01*
G01X-674573D01*
G01X-670763D01*
G01X-666699Y-5257749D01*
G01X-665226Y-5257902D01*
G01X-664413Y-5258105D01*
G01X-663499Y-5258359D01*
G01X-662686Y-5258714D01*
G01X-661975Y-5259121D01*
G01X-661416Y-5259476D01*
G01X-660705Y-5259984D01*
G01X-660044Y-5260746D01*
G01X-659689Y-5261305D01*
G01X-659333Y-5261915D01*
G01X-658978Y-5262626D01*
G01X-658673Y-5263540D01*
G01X-658520Y-5264455D01*
G01X-658317Y-5265928D01*
G01X-658216Y-5266741D01*
G01X-658317Y-5267554D01*
G01X-658520Y-5269027D01*
G01X-658774Y-5269941D01*
G01X-659130Y-5270805D01*
G01X-659486Y-5271567D01*
G01X-659943Y-5272176D01*
G01X-660400Y-5272735D01*
G01X-660959Y-5273294D01*
G01X-661518Y-5273751D01*
G01X-661975Y-5274107D01*
G01X-662483Y-5274361D01*
G01X-663346Y-5274716D01*
G01X-664210Y-5275123D01*
G01X-665328Y-5275377D01*
G01X-666344Y-5275580D01*
G01X-667614Y-5275732D01*
G01X-671119Y-5275834D01*
G01X-674522Y-5275732D01*
G01X-674573Y-5266639D01*
G01Y-5257648D01*
G01X-680618D01*
G01Y-5297830D01*
G01X-674573D01*
G01Y-5280914D01*
G01X-670154D01*
G01X-665429Y-5280812D01*
G01X-664159Y-5280660D01*
G01X-663346Y-5280457D01*
G01X-662432Y-5280203D01*
G01X-661619Y-5279898D01*
G01X-660857Y-5279644D01*
G01X-659435Y-5278933D01*
G01X-658673Y-5278476D01*
G01X-657758Y-5277815D01*
G01X-657047Y-5277307D01*
G01X-655218Y-5275478D01*
G01X-654863Y-5275021D01*
G01X-654609Y-5274564D01*
G01X-654152Y-5273904D01*
G01X-653339Y-5272278D01*
G01X-652983Y-5271465D01*
G01X-652577Y-5270297D01*
G01X-652323Y-5269027D01*
G01X-652120Y-5267757D01*
G01X-652069Y-5265725D01*
G01X-652120Y-5264099D01*
G01X-652323Y-5262829D01*
G01X-652526Y-5262016D01*
G01X-652780Y-5261102D01*
G01X-653136Y-5260188D01*
G01X-653491Y-5259375D01*
G01X-653847Y-5258714D01*
G01X-654406Y-5257902D01*
G01X-655117Y-5256987D01*
G01X-655777Y-5256378D01*
G01X-656488Y-5255819D01*
G01X-657301Y-5255209D01*
G01X-658165Y-5254752D01*
G01X-659587Y-5253990D01*
G01X-660400Y-5253634D01*
G01X-661314Y-5253380D01*
G01X-662127Y-5253177D01*
G01X-663956Y-5252822D01*
G01X-665582Y-5252669D01*
G01X-673252Y-5252568D01*
G37*
G36*
G01X-470052Y-5264912D02*
G01X-471119Y-5265115D01*
G01X-471983Y-5265572D01*
G01X-472592Y-5266182D01*
G01X-472948Y-5266842D01*
G01X-473304Y-5267757D01*
G01X-473507Y-5268722D01*
G01X-473405Y-5269382D01*
G01X-473151Y-5270094D01*
G01X-472694Y-5270754D01*
G01X-472237Y-5271211D01*
G01X-471576Y-5271668D01*
G01X-470865Y-5272024D01*
G01X-469595Y-5272176D01*
G01X-468224Y-5272024D01*
G01X-467512Y-5271668D01*
G01X-466954Y-5271211D01*
G01X-466598Y-5270754D01*
G01X-466242Y-5270094D01*
G01X-465938Y-5269382D01*
G01X-465887Y-5268265D01*
G01X-466141Y-5266995D01*
G01X-466598Y-5266284D01*
G01X-467055Y-5265826D01*
G01X-467665Y-5265369D01*
G01X-468681Y-5265014D01*
G37*
G36*
G01X-513029Y-5265471D02*
G01X-515874Y-5265623D01*
G01Y-5266182D01*
G01X-515518Y-5267096D01*
G01X-515163Y-5267909D01*
G01X-514604Y-5269382D01*
G01X-514299Y-5269992D01*
G01X-514045Y-5270754D01*
G01X-513690Y-5271668D01*
G01X-513334Y-5272634D01*
G01X-512978Y-5273548D01*
G01X-512674Y-5274259D01*
G01X-512420Y-5274920D01*
G01X-511302Y-5277663D01*
G01X-510946Y-5278628D01*
G01X-510591Y-5279542D01*
G01X-510235Y-5280355D01*
G01X-509676Y-5281828D01*
G01X-508965Y-5283657D01*
G01X-508406Y-5285080D01*
G01X-508051Y-5285943D01*
G01X-507797Y-5286756D01*
G01X-507238Y-5288026D01*
G01X-506425Y-5290210D01*
G01X-505663Y-5291988D01*
G01X-505409Y-5292750D01*
G01X-504850Y-5294020D01*
G01X-504038Y-5296205D01*
G01X-503682Y-5297119D01*
G01X-503530Y-5298034D01*
G01X-503682Y-5298745D01*
G01X-504038Y-5299659D01*
G01X-504393Y-5300472D01*
G01X-505257Y-5302352D01*
G01X-505968Y-5304028D01*
G01X-506222Y-5304638D01*
G01X-507136Y-5306111D01*
G01X-507594Y-5306568D01*
G01X-508051Y-5306924D01*
G01X-508711Y-5307381D01*
G01X-509575Y-5307838D01*
G01X-510692Y-5308092D01*
G01X-512420Y-5308194D01*
G01X-513791Y-5308092D01*
G01X-514502Y-5307940D01*
G01X-514960Y-5307838D01*
G01Y-5310175D01*
G01X-514858Y-5312004D01*
G01X-514604Y-5312715D01*
G01X-513893Y-5312918D01*
G01X-513232Y-5313121D01*
G01X-511302Y-5313274D01*
G01X-509321Y-5313121D01*
G01X-508406Y-5312816D01*
G01X-507594Y-5312562D01*
G01X-506882Y-5312207D01*
G01X-506070Y-5311750D01*
G01X-505409Y-5311292D01*
G01X-504495Y-5310530D01*
G01X-503936Y-5310022D01*
G01X-503326Y-5309210D01*
G01X-502768Y-5308549D01*
G01X-502310Y-5307940D01*
G01X-501802Y-5307076D01*
G01X-500888Y-5305450D01*
G01X-500482Y-5304739D01*
G01X-500228Y-5304079D01*
G01X-499974Y-5303571D01*
G01X-499669Y-5302910D01*
G01X-498958Y-5301082D01*
G01X-498399Y-5299659D01*
G01X-498043Y-5298846D01*
G01X-497688Y-5297830D01*
G01X-496976Y-5296002D01*
G01X-496621Y-5294986D01*
G01X-496214Y-5294122D01*
G01X-495503Y-5292395D01*
G01X-495148Y-5291379D01*
G01X-494436Y-5289550D01*
G01X-493878Y-5288077D01*
G01X-493522Y-5287264D01*
G01X-493166Y-5286350D01*
G01X-492760Y-5285384D01*
G01X-492404Y-5284470D01*
G01X-492049Y-5283454D01*
G01X-491693Y-5282641D01*
G01X-491439Y-5282032D01*
G01X-491134Y-5281270D01*
G01X-490779Y-5280355D01*
G01X-490423Y-5279390D01*
G01X-490068Y-5278476D01*
G01X-489509Y-5277002D01*
G01X-489153Y-5276190D01*
G01X-488391Y-5274361D01*
G01X-487883Y-5272938D01*
G01X-487528Y-5272126D01*
G01X-487223Y-5271262D01*
G01X-486664Y-5269992D01*
G01X-485851Y-5267808D01*
G01X-485140Y-5266080D01*
G01X-485089Y-5265826D01*
G01X-485242Y-5265623D01*
G01X-488036Y-5265471D01*
G01X-490017Y-5265572D01*
G01X-490880Y-5265826D01*
G01X-491236Y-5266639D01*
G01X-491795Y-5268112D01*
G01X-492049Y-5268925D01*
G01X-492303Y-5269636D01*
G01X-492506Y-5270297D01*
G01X-492760Y-5271008D01*
G01X-493166Y-5272024D01*
G01X-493522Y-5272938D01*
G01X-493776Y-5273650D01*
G01X-494233Y-5275021D01*
G01X-494589Y-5275986D01*
G01X-494944Y-5276901D01*
G01X-495249Y-5277663D01*
G01X-495402Y-5278272D01*
G01X-495706Y-5279034D01*
G01X-496062Y-5280000D01*
G01X-496316Y-5280812D01*
G01X-497129Y-5282997D01*
G01X-497484Y-5284013D01*
G01X-497891Y-5284927D01*
G01X-498145Y-5285638D01*
G01X-498348Y-5286299D01*
G01X-498602Y-5287010D01*
G01X-498958Y-5288026D01*
G01X-499212Y-5288839D01*
G01X-499516Y-5289448D01*
G01X-499770Y-5290363D01*
G01X-500075Y-5291176D01*
G01X-500228Y-5291836D01*
G01X-500278Y-5292090D01*
G01X-500431D01*
G01X-500685Y-5291531D01*
G01X-500939Y-5290718D01*
G01X-501142Y-5290007D01*
G01X-501345Y-5289398D01*
G01X-502158Y-5287213D01*
G01X-502971Y-5284724D01*
G01X-503225Y-5284013D01*
G01X-503428Y-5283352D01*
G01X-503682Y-5282641D01*
G01X-504038Y-5281574D01*
G01X-504393Y-5280558D01*
G01X-504698Y-5279847D01*
G01X-504850Y-5279187D01*
G01X-505155Y-5278476D01*
G01X-505511Y-5277358D01*
G01X-505866Y-5276393D01*
G01X-506425Y-5274716D01*
G01X-506781Y-5273853D01*
G01X-507797Y-5270805D01*
G01X-508051Y-5270094D01*
G01X-508305Y-5269281D01*
G01X-509118Y-5267096D01*
G01X-509575Y-5265877D01*
G01X-509981Y-5265623D01*
G37*
G36*
G01X-469849Y-5291277D02*
G01X-471119Y-5291480D01*
G01X-471780Y-5291836D01*
G01X-472694Y-5292750D01*
G01X-473050Y-5293258D01*
G01X-473253Y-5293919D01*
G01X-473405Y-5294630D01*
G01Y-5295646D01*
G01X-473151Y-5296459D01*
G01X-472694Y-5297170D01*
G01X-472034Y-5297830D01*
G01X-471424Y-5298186D01*
G01X-470967Y-5298440D01*
G01X-469595Y-5298542D01*
G01X-468579Y-5298491D01*
G01X-467970Y-5298288D01*
G01X-467258Y-5297830D01*
G01X-466801Y-5297373D01*
G01X-466395Y-5296916D01*
G01X-466039Y-5296205D01*
G01X-465887Y-5294732D01*
G01X-466039Y-5293563D01*
G01X-466395Y-5292903D01*
G01X-466852Y-5292395D01*
G01X-467309Y-5291988D01*
G01X-467970Y-5291633D01*
G01X-468681Y-5291379D01*
G37*
G36*
G01X-477774Y-5327396D02*
G01X-478434Y-5327650D01*
G01X-478892Y-5327904D01*
G01X-481076Y-5329022D01*
G01X-481330Y-5329326D01*
G01Y-5329733D01*
G01X-480974Y-5330393D01*
G01X-480619Y-5330901D01*
G01X-479704Y-5332578D01*
G01X-479349Y-5333187D01*
G01X-478942Y-5333898D01*
G01X-478587Y-5334559D01*
G01X-478333Y-5335016D01*
G01X-474066Y-5343550D01*
G01X-473304Y-5345176D01*
G01X-472846Y-5345989D01*
G01X-472592Y-5346243D01*
G01X-472237Y-5346192D01*
G01X-470611Y-5345278D01*
G01X-469951Y-5344922D01*
G01X-469240Y-5344566D01*
G01X-468427Y-5344008D01*
G01X-468173Y-5343652D01*
G01X-468224Y-5343398D01*
G01X-468579Y-5342636D01*
G01X-468986Y-5342026D01*
G01X-469240Y-5341569D01*
G01X-469849Y-5340299D01*
G01X-470764Y-5338623D01*
G01X-471119Y-5338013D01*
G01X-471424Y-5337556D01*
G01X-471678Y-5336997D01*
G01X-473507Y-5333848D01*
G01X-473964Y-5333086D01*
G01X-474675Y-5331816D01*
G01X-475132Y-5331003D01*
G01X-476250Y-5329123D01*
G01X-476707Y-5328463D01*
G01X-477164Y-5327650D01*
G01X-477368Y-5327396D01*
G37*
G36*
G01X-589686Y-5327802D02*
G01X-590245Y-5327904D01*
G01X-590499Y-5328564D01*
G01X-591058Y-5330190D01*
G01X-591871Y-5332933D01*
G01X-592125Y-5333746D01*
G01X-592430Y-5334457D01*
G01X-592684Y-5335118D01*
G01X-592938Y-5335829D01*
G01X-594055Y-5338572D01*
G01X-594309Y-5339385D01*
G01X-594614Y-5339994D01*
G01X-594970Y-5340756D01*
G01X-595325Y-5341569D01*
G01X-596036Y-5342992D01*
G01X-596798Y-5344668D01*
G01X-597713Y-5346294D01*
G01X-598780Y-5348173D01*
G01X-599135Y-5348732D01*
G01X-599338Y-5349291D01*
G01X-598983Y-5349646D01*
G01X-597510Y-5350358D01*
G01X-595884Y-5351272D01*
G01X-595528Y-5351323D01*
G01X-595224Y-5351018D01*
G01X-594665Y-5350205D01*
G01X-594208Y-5349392D01*
G01X-593496Y-5348122D01*
G01X-592582Y-5346446D01*
G01X-590855Y-5342992D01*
G01X-590499Y-5342179D01*
G01X-590347Y-5341874D01*
G01X-590042Y-5341722D01*
G01X-589432D01*
G01X-582219Y-5341823D01*
G01X-575056Y-5341722D01*
G01X-574802Y-5341772D01*
G01X-574700Y-5342077D01*
G01X-574599Y-5345379D01*
G01X-574700Y-5348478D01*
G01X-574853Y-5359552D01*
G01X-575056Y-5363718D01*
G01X-575208Y-5369916D01*
G01X-575412Y-5372100D01*
G01X-575513Y-5373624D01*
G01X-575666Y-5375300D01*
G01X-575869Y-5376012D01*
G01X-576072Y-5376621D01*
G01X-576428Y-5377282D01*
G01X-576783Y-5377840D01*
G01X-577139Y-5378196D01*
G01X-577799Y-5378653D01*
G01X-578663Y-5379110D01*
G01X-579577Y-5379263D01*
G01X-580339Y-5379364D01*
G01X-582778Y-5379466D01*
G01X-585216Y-5379364D01*
G01X-588670Y-5379212D01*
G01X-589585Y-5379009D01*
G01X-590855Y-5378907D01*
G01X-591668Y-5378806D01*
G01X-591871Y-5378856D01*
G01X-591972Y-5379212D01*
G01Y-5379923D01*
G01X-591769Y-5380634D01*
G01X-591617Y-5381752D01*
G01X-591414Y-5382666D01*
G01X-591312Y-5383276D01*
G01X-591058Y-5383835D01*
G01X-590042Y-5383987D01*
G01X-589026Y-5384089D01*
G01X-585876Y-5384190D01*
G01X-582879Y-5384292D01*
G01X-581304Y-5384394D01*
G01X-579577Y-5384292D01*
G01X-578409Y-5384190D01*
G01X-577139Y-5383987D01*
G01X-575513Y-5383479D01*
G01X-574802Y-5383124D01*
G01X-573938Y-5382565D01*
G01X-572872Y-5381447D01*
G01X-572313Y-5380838D01*
G01X-571500Y-5379212D01*
G01X-571246Y-5378450D01*
G01X-571043Y-5377739D01*
G01X-570687Y-5375910D01*
G01X-570484Y-5372303D01*
G01X-570332Y-5370119D01*
G01X-570128Y-5362448D01*
G01X-569976Y-5359552D01*
G01X-569773Y-5349392D01*
G01X-569620Y-5346446D01*
G01X-569519Y-5341722D01*
G01Y-5337302D01*
G01X-588213D01*
G01X-588162Y-5336743D01*
G01X-587858Y-5335930D01*
G01X-587299Y-5334457D01*
G01X-587045Y-5333848D01*
G01X-586892Y-5333187D01*
G01X-586588Y-5332476D01*
G01X-586232Y-5331562D01*
G01X-585978Y-5330749D01*
G01X-585775Y-5330088D01*
G01X-585521Y-5329479D01*
G01X-585419Y-5329123D01*
G01X-585572Y-5328920D01*
G01X-586486Y-5328666D01*
G01X-587502Y-5328361D01*
G37*
G36*
G01X-612851Y-5327904D02*
G01X-613512Y-5328006D01*
G01X-613766Y-5328564D01*
G01X-614223Y-5329936D01*
G01X-614528Y-5330749D01*
G01X-614782Y-5331460D01*
G01X-615036Y-5332273D01*
G01X-615340Y-5333035D01*
G01X-615594Y-5333644D01*
G01X-616407Y-5335829D01*
G01X-616763Y-5336743D01*
G01X-616966Y-5337302D01*
G01X-622757D01*
G01X-622859Y-5337759D01*
G01Y-5341823D01*
G01X-618236D01*
G01X-605130D01*
G01Y-5355844D01*
G01X-618236D01*
G01Y-5341823D01*
G01X-622859D01*
G01X-622960Y-5361280D01*
G01X-622910Y-5367630D01*
G01X-618236D01*
G01Y-5360365D01*
G01X-611937D01*
G01X-605485Y-5360264D01*
G01X-605333Y-5360314D01*
G01X-605231Y-5360670D01*
G01X-605130Y-5368087D01*
G01Y-5375097D01*
G01X-611581D01*
G01X-618134Y-5374996D01*
G01X-618236Y-5367630D01*
G01X-622910D01*
G01X-622859Y-5384444D01*
G01X-620573Y-5384546D01*
G01X-618439D01*
G01X-618338Y-5383936D01*
G01X-618236Y-5381447D01*
G01Y-5379669D01*
G01X-611937D01*
G01X-605485Y-5379568D01*
G01X-605333Y-5379618D01*
G01X-605231Y-5379923D01*
G01X-605130Y-5382209D01*
G01Y-5383987D01*
G01X-604520Y-5384089D01*
G01X-602234Y-5384190D01*
G01X-600608D01*
G01X-600507Y-5383733D01*
G01X-600405Y-5360365D01*
G01Y-5337454D01*
G01X-600862Y-5337353D01*
G01X-606603Y-5337302D01*
G01X-611886D01*
G01X-611784Y-5336743D01*
G01X-611530Y-5335930D01*
G01X-611226Y-5335372D01*
G01X-610972Y-5334762D01*
G01X-610616Y-5333848D01*
G01X-610159Y-5332832D01*
G01X-609803Y-5332019D01*
G01X-609498Y-5331308D01*
G01X-608787Y-5329479D01*
G01X-608584Y-5329123D01*
G37*
G36*
G01X-654050Y-5328006D02*
G01X-654050Y-5329123D01*
G01X-653948Y-5330444D01*
G01X-653796Y-5335727D01*
G01X-653593Y-5337912D01*
G01X-653390Y-5342636D01*
G01X-653237Y-5344668D01*
G01X-653339Y-5345125D01*
G01X-660756Y-5345278D01*
G01X-668071D01*
G01X-668122Y-5344668D01*
G01X-668223Y-5340198D01*
G01X-668071Y-5336083D01*
G01X-667410Y-5335727D01*
G01X-666496Y-5335626D01*
G01X-665785Y-5335575D01*
G01X-665074Y-5335372D01*
G01X-664159Y-5335270D01*
G01X-663397Y-5335168D01*
G01X-662686Y-5335016D01*
G01X-661772Y-5334914D01*
G01X-660959Y-5334762D01*
G01X-659892Y-5334559D01*
G01X-658876Y-5334356D01*
G01X-658317Y-5334102D01*
G01X-658165Y-5333898D01*
G01X-658216Y-5333390D01*
G01X-658978Y-5330850D01*
G01X-659435Y-5329834D01*
G01X-659740Y-5329580D01*
G01X-660248Y-5329530D01*
G01X-661060Y-5329733D01*
G01X-662330Y-5329936D01*
G01X-663042Y-5330088D01*
G01X-664159Y-5330292D01*
G01X-665074Y-5330444D01*
G01X-666496Y-5330647D01*
G01X-667258Y-5330850D01*
G01X-668122Y-5330901D01*
G01X-668884Y-5331003D01*
G01X-669595Y-5331206D01*
G01X-670408Y-5331308D01*
G01X-672338Y-5331562D01*
G01X-673964Y-5331714D01*
G01X-674878Y-5331917D01*
G01X-676046Y-5332019D01*
G01X-676859Y-5332120D01*
G01X-677977Y-5332273D01*
G01X-679348Y-5332374D01*
G01X-680161Y-5332476D01*
G01X-681431Y-5332628D01*
G01X-682600Y-5332730D01*
G01X-683768Y-5332933D01*
G01X-684073Y-5333543D01*
G01X-683870Y-5334203D01*
G01X-683666Y-5334762D01*
G01X-683158Y-5336896D01*
G01X-682854Y-5337454D01*
G01X-682346Y-5337658D01*
G01X-681584Y-5337556D01*
G01X-679044Y-5337353D01*
G01X-678332Y-5337200D01*
G01X-677215Y-5337099D01*
G01X-676300Y-5336997D01*
G01X-675437Y-5336845D01*
G01X-674167Y-5336743D01*
G01X-673252Y-5336642D01*
G01X-673049Y-5337658D01*
G01X-672948Y-5340909D01*
G01Y-5345278D01*
G01X-685495D01*
G01X-685597Y-5345938D01*
G01X-685698Y-5347919D01*
G01X-685597Y-5348986D01*
G01X-685394Y-5349443D01*
G01X-679044Y-5349646D01*
G01X-672948D01*
G01Y-5360213D01*
G01X-673506D01*
G01X-674319Y-5360264D01*
G01X-675030Y-5360467D01*
G01X-675894Y-5360568D01*
G01X-676605Y-5360721D01*
G01X-682041Y-5361635D01*
G01X-683057Y-5361737D01*
G01X-683768Y-5361940D01*
G01X-684581Y-5361991D01*
G01X-685241Y-5362194D01*
G01X-685495Y-5362804D01*
G01X-685394Y-5363566D01*
G01X-684682Y-5366461D01*
G01X-684327Y-5367122D01*
G01X-683412Y-5367172D01*
G01X-682346Y-5367020D01*
G01X-681584Y-5366817D01*
G01X-680974Y-5366715D01*
G01X-673862Y-5365293D01*
G01X-673151Y-5365191D01*
G01X-672998Y-5366715D01*
G01X-672948Y-5371440D01*
G01X-673049Y-5378094D01*
G01X-673303Y-5378806D01*
G01X-673862Y-5379466D01*
G01X-674573Y-5379822D01*
G01X-676605Y-5380025D01*
G01X-678485Y-5379923D01*
G01X-680314Y-5379720D01*
G01X-682701Y-5379568D01*
G01X-683158D01*
G01X-683209Y-5380279D01*
G01X-683057Y-5381193D01*
G01X-682854Y-5381904D01*
G01X-682803Y-5382717D01*
G01X-682701Y-5383378D01*
G01X-682498Y-5383987D01*
G01X-682244Y-5384292D01*
G01X-681584Y-5384444D01*
G01X-680161Y-5384546D01*
G01X-679247Y-5384648D01*
G01X-676402Y-5384749D01*
G01X-673608Y-5384648D01*
G01X-672694Y-5384444D01*
G01X-671779Y-5384190D01*
G01X-671220Y-5383936D01*
G01X-670611Y-5383530D01*
G01X-669950Y-5383124D01*
G01X-669493Y-5382565D01*
G01X-669138Y-5382006D01*
G01X-668782Y-5381295D01*
G01X-668426Y-5380177D01*
G01X-668223Y-5372100D01*
G01X-668172Y-5366360D01*
G01X-667969Y-5364277D01*
G01X-666852Y-5363921D01*
G01X-665531Y-5363667D01*
G01X-664413Y-5363464D01*
G01X-658978Y-5362397D01*
G01X-658165Y-5362296D01*
G01X-657403Y-5362092D01*
G01X-656488Y-5361940D01*
G01X-656133Y-5361737D01*
G01X-655980Y-5361280D01*
G01Y-5360467D01*
G01X-656031Y-5358740D01*
G01Y-5357266D01*
G01X-656946D01*
G01X-658165Y-5357368D01*
G01X-658876Y-5357571D01*
G01X-659892Y-5357724D01*
G01X-660705Y-5357927D01*
G01X-661975Y-5358079D01*
G01X-662686Y-5358282D01*
G01X-663499Y-5358384D01*
G01X-664210Y-5358536D01*
G01X-665124Y-5358740D01*
G01X-665937Y-5358841D01*
G01X-666699Y-5358994D01*
G01X-667614Y-5359095D01*
G01X-667969Y-5358943D01*
G01X-668122Y-5358486D01*
G01X-668223Y-5354015D01*
G01X-668172Y-5351069D01*
G01X-667969Y-5349900D01*
G01X-665937Y-5349697D01*
G01X-660400Y-5349646D01*
G01X-653136D01*
G01X-652983Y-5350104D01*
G01X-652780Y-5351729D01*
G01X-652678Y-5353202D01*
G01X-652526Y-5354625D01*
G01X-652323Y-5356454D01*
G01X-652120Y-5357571D01*
G01X-651967Y-5358994D01*
G01X-651764Y-5360111D01*
G01X-651510Y-5361178D01*
G01X-651307Y-5362194D01*
G01X-651256Y-5362804D01*
G01X-651053Y-5363566D01*
G01X-650850Y-5364480D01*
G01X-650342Y-5366664D01*
G01X-650037Y-5367477D01*
G01X-649935Y-5368392D01*
G01X-650392Y-5368900D01*
G01X-650951Y-5369357D01*
G01X-651408Y-5369712D01*
G01X-652069Y-5370119D01*
G01X-652882Y-5370627D01*
G01X-653491Y-5371186D01*
G01X-654050Y-5371541D01*
G01X-654761Y-5371897D01*
G01X-656438Y-5373014D01*
G01X-657149Y-5373472D01*
G01X-658419Y-5374183D01*
G01X-659232Y-5374640D01*
G01X-660146Y-5375199D01*
G01X-660959Y-5375656D01*
G01X-663854Y-5377078D01*
G01X-664515Y-5377485D01*
G01X-664667Y-5377688D01*
G01X-664616Y-5377942D01*
G01X-664159Y-5378348D01*
G01X-663600Y-5379009D01*
G01X-662940Y-5379923D01*
G01X-662229Y-5380838D01*
G01X-661822Y-5381142D01*
G01X-661416Y-5381092D01*
G01X-660502Y-5380634D01*
G01X-659689Y-5380177D01*
G01X-658876Y-5379822D01*
G01X-658216Y-5379466D01*
G01X-657758Y-5379212D01*
G01X-657250Y-5378907D01*
G01X-656590Y-5378552D01*
G01X-655879Y-5378094D01*
G01X-654609Y-5377383D01*
G01X-653796Y-5376824D01*
G01X-652323Y-5375910D01*
G01X-651408Y-5375351D01*
G01X-650799Y-5374843D01*
G01X-649122Y-5373726D01*
G01X-648614Y-5373472D01*
G01X-648056Y-5373370D01*
G01X-647751Y-5373522D01*
G01X-647598Y-5373827D01*
G01X-647243Y-5374640D01*
G01X-646481Y-5376113D01*
G01X-645973Y-5377028D01*
G01X-644855Y-5378653D01*
G01X-644246Y-5379568D01*
G01X-643230Y-5380533D01*
G01X-642772Y-5381193D01*
G01X-642163Y-5381803D01*
G01X-641045Y-5382717D01*
G01X-640334Y-5383276D01*
G01X-639420Y-5383835D01*
G01X-638759Y-5384190D01*
G01X-638251Y-5384444D01*
G01X-637591Y-5384648D01*
G01X-636981Y-5384902D01*
G01X-635051Y-5385105D01*
G01X-633222Y-5384902D01*
G01X-632612Y-5384648D01*
G01X-631850Y-5384292D01*
G01X-631241Y-5383835D01*
G01X-630784Y-5383378D01*
G01X-630326Y-5382717D01*
G01X-629869Y-5381904D01*
G01X-629514Y-5381092D01*
G01X-629209Y-5380279D01*
G01X-628701Y-5378094D01*
G01X-627939Y-5374843D01*
G01X-627888Y-5374183D01*
G01X-627685Y-5373472D01*
G01X-627482Y-5372456D01*
G01X-627431Y-5371541D01*
G01X-627228Y-5370830D01*
G01X-627329Y-5370170D01*
G01X-627939Y-5369916D01*
G01X-628701Y-5369712D01*
G01X-629412Y-5369458D01*
G01X-630326Y-5369103D01*
G01X-631139Y-5368747D01*
G01X-631495Y-5368544D01*
G01X-631698Y-5369204D01*
G01X-631952Y-5370474D01*
G01X-632054Y-5371541D01*
G01X-632155Y-5372303D01*
G01X-632308Y-5373014D01*
G01X-632409Y-5373929D01*
G01X-632612Y-5374742D01*
G01X-632765Y-5375656D01*
G01X-632866Y-5376469D01*
G01X-633324Y-5378298D01*
G01X-633679Y-5379263D01*
G01X-634238Y-5379923D01*
G01X-634949Y-5380279D01*
G01X-635610D01*
G01X-636219Y-5380076D01*
G01X-636880Y-5379822D01*
G01X-637489Y-5379466D01*
G01X-638048Y-5379009D01*
G01X-638962Y-5378298D01*
G01X-639978Y-5377282D01*
G01X-640588Y-5376469D01*
G01X-641147Y-5375758D01*
G01X-641604Y-5375097D01*
G01X-642163Y-5374284D01*
G01X-643026Y-5372659D01*
G01X-643433Y-5371897D01*
G01X-643585Y-5371389D01*
G01X-643890Y-5370728D01*
G01X-643941Y-5370017D01*
G01X-643433Y-5369306D01*
G01X-642315Y-5368188D01*
G01X-641604Y-5367630D01*
G01X-640588Y-5366664D01*
G01X-640131Y-5366258D01*
G01X-637438Y-5363566D01*
G01X-636778Y-5362804D01*
G01X-636118Y-5362194D01*
G01X-635406Y-5361280D01*
G01X-634136Y-5360010D01*
G01X-633679Y-5359349D01*
G01X-633120Y-5358638D01*
G01X-632663Y-5358181D01*
G01X-632308Y-5357724D01*
G01X-632054Y-5357266D01*
G01X-631698Y-5356809D01*
G01X-631139Y-5356098D01*
G01X-630682Y-5355488D01*
G01X-630784Y-5355031D01*
G01X-633527Y-5353202D01*
G01X-634035Y-5352898D01*
G01X-634492Y-5352644D01*
G01X-634746D01*
G01X-635406Y-5353456D01*
G01X-635762Y-5353914D01*
G01X-636118Y-5354574D01*
G01X-636676Y-5355387D01*
G01X-637235Y-5355996D01*
G01X-637692Y-5356555D01*
G01X-638048Y-5357114D01*
G01X-638404Y-5357571D01*
G01X-638861Y-5358028D01*
G01X-639318Y-5358536D01*
G01X-639775Y-5359197D01*
G01X-640436Y-5359908D01*
G01X-645363Y-5364836D01*
G01X-645617D01*
G01X-646074Y-5364175D01*
G01X-646227Y-5363261D01*
G01X-646430Y-5362550D01*
G01X-646582Y-5361635D01*
G01X-646684Y-5360822D01*
G01X-646887Y-5360111D01*
G01X-647040Y-5358994D01*
G01X-647243Y-5358079D01*
G01X-647395Y-5356301D01*
G01X-647598Y-5355539D01*
G01X-647700Y-5354371D01*
G01X-647802Y-5353355D01*
G01X-647954Y-5352288D01*
G01X-648056Y-5350561D01*
G01Y-5349646D01*
G01X-627126D01*
G01X-627075Y-5348834D01*
G01X-626974Y-5347005D01*
G01X-627075Y-5345735D01*
G01X-627431Y-5345379D01*
G01X-638048Y-5345278D01*
G01X-648411D01*
G01Y-5344211D01*
G01X-648513Y-5342839D01*
G01X-648665Y-5341010D01*
G01X-648868Y-5333390D01*
G01X-649072Y-5330088D01*
G01X-649122Y-5328920D01*
G01Y-5328006D01*
G37*
G36*
G01X-533349Y-5328717D02*
G01X-533400Y-5329174D01*
G01X-533502Y-5336896D01*
G01X-533603Y-5344465D01*
G01X-533756Y-5352440D01*
G01X-533959Y-5355742D01*
G01X-534162Y-5356809D01*
G01X-534213Y-5358028D01*
G01X-534416Y-5358740D01*
G01X-534772Y-5360721D01*
G01X-535127Y-5362194D01*
G01X-535686Y-5364023D01*
G01X-535940Y-5364836D01*
G01X-536245Y-5365547D01*
G01X-536600Y-5366360D01*
G01X-537058Y-5367274D01*
G01X-537769Y-5368544D01*
G01X-538226Y-5369306D01*
G01X-538582Y-5369814D01*
G01X-539039Y-5370474D01*
G01X-539598Y-5371084D01*
G01X-540309Y-5371998D01*
G01X-542138Y-5373827D01*
G01X-542595Y-5374183D01*
G01X-543255Y-5374742D01*
G01X-543865Y-5375351D01*
G01X-544424Y-5375808D01*
G01X-545236Y-5376367D01*
G01X-545948Y-5376926D01*
G01X-546506Y-5377282D01*
G01X-547167Y-5377739D01*
G01X-547980Y-5378298D01*
G01X-548894Y-5378806D01*
G01X-549605Y-5379263D01*
G01X-550215Y-5379669D01*
G01X-551891Y-5380533D01*
G01X-552247Y-5380939D01*
G01X-551942Y-5381295D01*
G01X-551231Y-5382209D01*
G01X-550774Y-5382666D01*
G01X-550418Y-5383124D01*
G01X-549961Y-5383733D01*
G01X-549250Y-5384749D01*
G01X-548792Y-5385105D01*
G01X-548335D01*
G01X-547573Y-5384749D01*
G01X-546964Y-5384394D01*
G01X-546151Y-5383936D01*
G01X-544322Y-5382819D01*
G01X-543509Y-5382260D01*
G01X-541579Y-5380939D01*
G01X-540868Y-5380380D01*
G01X-540258Y-5379822D01*
G01X-539801Y-5379466D01*
G01X-539344Y-5379009D01*
G01X-538226Y-5378094D01*
G01X-537312Y-5377180D01*
G01X-536804Y-5376469D01*
G01X-536143Y-5375808D01*
G01X-535229Y-5374742D01*
G01X-534873Y-5374284D01*
G01X-534416Y-5373573D01*
G01X-533756Y-5372659D01*
G01X-532892Y-5371186D01*
G01X-532028Y-5369560D01*
G01X-531774Y-5368900D01*
G01X-531419Y-5368087D01*
G01X-531063Y-5367172D01*
G01X-530504Y-5365547D01*
G01X-530250Y-5364632D01*
G01X-529946Y-5363667D01*
G01X-529438Y-5361178D01*
G01X-529234Y-5359756D01*
G01X-529031Y-5358994D01*
G01X-528980Y-5358028D01*
G01X-528879Y-5357216D01*
G01X-528676Y-5356098D01*
G01X-528574Y-5354117D01*
G01X-528523Y-5352644D01*
G01X-528320Y-5348986D01*
G01X-528218Y-5338826D01*
G01Y-5328920D01*
G01X-528676Y-5328818D01*
G01X-531216Y-5328717D01*
G37*
G36*
G01X-439674Y-5328818D02*
G01X-439877Y-5329022D01*
G01X-440944Y-5329936D01*
G01X-441401Y-5330393D01*
G01X-442163Y-5330901D01*
G01X-442671Y-5331663D01*
G01Y-5331968D01*
G01X-442519Y-5332171D01*
G01X-441604Y-5333086D01*
G01X-440893Y-5334000D01*
G01X-440436Y-5334457D01*
G01X-440030Y-5334914D01*
G01X-439522Y-5335575D01*
G01X-438404Y-5336642D01*
G01X-437845Y-5337353D01*
G01X-437134Y-5338267D01*
G01X-436524Y-5338928D01*
G01X-435051Y-5340756D01*
G01X-434594Y-5341264D01*
G01X-434391Y-5341518D01*
G01X-434137Y-5341569D01*
G01X-433222Y-5340807D01*
G01X-432765Y-5340553D01*
G01X-432308Y-5340198D01*
G01X-431851Y-5339740D01*
G01X-430936Y-5339029D01*
G01X-430530Y-5338572D01*
G01X-430327Y-5338369D01*
G01X-430428Y-5338115D01*
G01X-431140Y-5337200D01*
G01X-433070Y-5335270D01*
G01X-433680Y-5334457D01*
G01X-437591Y-5330546D01*
G01X-438252Y-5329733D01*
G01X-438861Y-5329123D01*
G01X-439420Y-5328818D01*
G37*
G36*
G01X-641299Y-5330292D02*
G01X-641706Y-5330444D01*
G01X-643941Y-5332730D01*
G01X-644246Y-5333187D01*
G01X-643941Y-5333543D01*
G01X-643484Y-5333898D01*
G01X-642620Y-5334813D01*
G01X-641502Y-5335727D01*
G01X-640232Y-5336845D01*
G01X-639318Y-5337759D01*
G01X-638251Y-5338623D01*
G01X-634594Y-5342280D01*
G01X-634238Y-5342179D01*
G01X-633679Y-5341722D01*
G01X-631393Y-5339486D01*
G01X-631038Y-5338928D01*
G01X-631139Y-5338470D01*
G01X-631800Y-5338013D01*
G01X-632663Y-5337302D01*
G01X-633679Y-5336286D01*
G01X-634340Y-5335829D01*
G01X-635254Y-5335118D01*
G01X-635864Y-5334457D01*
G01X-638150Y-5332628D01*
G01X-638607Y-5332374D01*
G01X-639064Y-5332019D01*
G01X-639521Y-5331562D01*
G01X-639978Y-5331206D01*
G01X-640436Y-5330901D01*
G01X-640893Y-5330546D01*
G37*
G36*
G01X-427685Y-5330393D02*
G01X-427787Y-5330850D01*
G01X-427888Y-5332832D01*
G01Y-5334356D01*
G01X-427431Y-5334457D01*
G01X-421894Y-5334559D01*
G01X-416763D01*
G01Y-5335118D01*
G01X-416865Y-5335930D01*
G01X-416966Y-5336896D01*
G01X-417119Y-5338013D01*
G01X-417525Y-5340553D01*
G01X-417779Y-5341214D01*
G01X-417982Y-5341366D01*
G01X-418490D01*
G01X-422605Y-5341264D01*
G01X-425247Y-5341366D01*
G01X-426314Y-5341569D01*
G01X-426517Y-5342179D01*
G01X-426618Y-5343550D01*
G01Y-5345278D01*
G01X-426161Y-5345379D01*
G01X-422046Y-5345481D01*
G01X-419303Y-5345532D01*
G01X-418338Y-5345836D01*
G01Y-5346446D01*
G01X-418440Y-5347360D01*
G01X-418592Y-5348376D01*
G01X-419151Y-5352186D01*
G01X-419202Y-5352948D01*
G01X-419303Y-5353202D01*
G01X-414680D01*
G01Y-5352644D01*
G01X-414528Y-5351932D01*
G01X-414426Y-5350815D01*
G01X-414325Y-5349900D01*
G01X-414122Y-5349189D01*
G01X-414071Y-5348122D01*
G01X-413969Y-5347208D01*
G01X-413614Y-5345735D01*
G01X-411734Y-5345532D01*
G01X-406349Y-5345481D01*
G01X-399136D01*
G01Y-5353456D01*
G01X-399593Y-5353558D01*
G01X-407213Y-5353660D01*
G01X-414528Y-5353558D01*
G01X-414680Y-5353202D01*
G01X-419303D01*
G01X-419405Y-5353355D01*
G01X-420776Y-5353558D01*
G01X-424434Y-5353660D01*
G01X-429158D01*
G01X-429209Y-5354269D01*
G01X-429311Y-5356098D01*
G01X-429209Y-5357571D01*
G01X-423977Y-5357774D01*
G01X-408330Y-5357825D01*
G01X-387502D01*
G01X-387401Y-5357368D01*
G01X-387299Y-5355387D01*
G01Y-5353812D01*
G01X-387756Y-5353761D01*
G01X-391312Y-5353660D01*
G01X-394411D01*
G01X-394513Y-5353202D01*
G01X-394614Y-5347208D01*
G01Y-5341671D01*
G01X-395122Y-5341468D01*
G01X-404063Y-5341264D01*
G01X-412699Y-5341366D01*
G01X-412902D01*
G01X-413055Y-5341214D01*
G01Y-5340655D01*
G01X-412852Y-5339385D01*
G01X-412699Y-5338267D01*
G01X-412496Y-5336845D01*
G01X-412344Y-5335727D01*
G01X-412140Y-5334914D01*
G01X-409296Y-5334660D01*
G01X-400964Y-5334559D01*
G01X-389890D01*
G01X-389788Y-5333898D01*
G01X-389687Y-5332120D01*
G01X-389738Y-5331155D01*
G01X-389941Y-5330647D01*
G01X-394868Y-5330444D01*
G01X-408940Y-5330393D01*
G37*
G36*
G01X-490220Y-5338928D02*
G01X-490322Y-5339385D01*
G01X-490423Y-5357724D01*
G01X-490322Y-5375910D01*
G01X-490118Y-5377028D01*
G01X-489864Y-5378094D01*
G01X-489610Y-5378755D01*
G01X-489255Y-5379568D01*
G01X-488798Y-5380279D01*
G01X-488036Y-5381193D01*
G01X-487578Y-5381549D01*
G01X-486308Y-5382260D01*
G01X-485699Y-5382565D01*
G01X-484683Y-5382819D01*
G01X-483768Y-5383022D01*
G01X-483311Y-5383174D01*
G01X-474218Y-5383276D01*
G01X-464972Y-5383124D01*
G01X-464160Y-5382920D01*
G01X-463398Y-5382717D01*
G01X-462686Y-5382463D01*
G01X-461874Y-5382108D01*
G01X-461162Y-5381650D01*
G01X-460604Y-5381193D01*
G01X-460146Y-5380736D01*
G01X-459588Y-5380076D01*
G01X-459029Y-5379263D01*
G01X-458572Y-5378450D01*
G01X-458216Y-5377536D01*
G01X-457962Y-5376621D01*
G01X-457759Y-5375910D01*
G01X-457403Y-5374284D01*
G01X-457251Y-5373014D01*
G01X-457048Y-5372100D01*
G01X-456692Y-5369916D01*
G01X-456489Y-5368646D01*
G01X-456336Y-5367833D01*
G01X-456489Y-5367477D01*
G01X-457048Y-5367172D01*
G01X-457759Y-5366918D01*
G01X-458673Y-5366563D01*
G01X-459486Y-5366258D01*
G01X-460959Y-5365750D01*
G01X-461264Y-5365801D01*
G01X-461416Y-5366106D01*
G01X-461518Y-5367376D01*
G01X-461620Y-5368442D01*
G01X-461772Y-5369712D01*
G01X-461975Y-5371541D01*
G01X-462128Y-5372303D01*
G01X-462229Y-5373167D01*
G01X-462331Y-5373929D01*
G01X-462483Y-5374843D01*
G01X-462788Y-5375758D01*
G01X-463144Y-5376367D01*
G01X-463601Y-5376926D01*
G01X-464058Y-5377383D01*
G01X-464515Y-5377739D01*
G01X-465226Y-5378094D01*
G01X-466141Y-5378348D01*
G01X-466852Y-5378450D01*
G01X-474574Y-5378552D01*
G01X-482346Y-5378450D01*
G01X-483057Y-5378196D01*
G01X-483972Y-5377637D01*
G01X-484530Y-5377028D01*
G01X-484784Y-5376469D01*
G01X-485038Y-5375758D01*
G01X-485242Y-5374996D01*
G01X-485343Y-5357012D01*
G01X-485394Y-5343652D01*
G01X-485699Y-5339080D01*
G01X-488137Y-5338928D01*
G37*
G36*
G01X-457403Y-5343601D02*
G01X-457759Y-5343652D01*
G01X-458673Y-5344109D01*
G01X-459486Y-5344465D01*
G01X-460146Y-5344719D01*
G01X-460858Y-5345125D01*
G01X-461416Y-5345481D01*
G01Y-5345989D01*
G01X-461162Y-5346649D01*
G01X-459130Y-5350662D01*
G01X-458775Y-5351475D01*
G01X-458419Y-5352186D01*
G01X-458064Y-5352999D01*
G01X-457302Y-5354472D01*
G01X-456946Y-5355387D01*
G01X-456336Y-5356657D01*
G01X-456032Y-5357266D01*
G01X-455676Y-5358079D01*
G01X-455320Y-5358994D01*
G01X-454863Y-5359908D01*
G01X-454508Y-5360721D01*
G01X-454254Y-5361483D01*
G01X-453847Y-5362397D01*
G01X-453492Y-5363210D01*
G01X-452679Y-5365090D01*
G01X-452425Y-5365852D01*
G01X-452069Y-5366664D01*
G01X-451815Y-5366969D01*
G01X-451510Y-5367122D01*
G01X-450952Y-5366918D01*
G01X-450494Y-5366664D01*
G01X-447599Y-5365191D01*
G01X-447142Y-5364836D01*
G01X-447091Y-5364531D01*
G01X-447243Y-5364124D01*
G01X-447599Y-5363261D01*
G01X-447853Y-5362651D01*
G01X-448208Y-5361940D01*
G01X-448970Y-5360264D01*
G01X-449428Y-5359349D01*
G01X-449783Y-5358536D01*
G01X-450037Y-5357927D01*
G01X-451256Y-5355539D01*
G01X-451510Y-5354930D01*
G01X-451866Y-5354117D01*
G01X-456794Y-5344262D01*
G01X-457149Y-5343754D01*
G37*
G36*
G01X-498754Y-5345379D02*
G01X-498958Y-5345481D01*
G01X-499059Y-5345938D01*
G01X-499313Y-5346903D01*
G01X-500431Y-5351831D01*
G01X-501498Y-5356200D01*
G01X-501802Y-5357216D01*
G01X-501955Y-5358079D01*
G01X-502209Y-5358943D01*
G01X-502514Y-5359908D01*
G01X-502666Y-5360670D01*
G01X-502971Y-5361483D01*
G01X-503326Y-5362651D01*
G01X-503682Y-5363921D01*
G01X-503936Y-5364836D01*
G01X-504241Y-5365547D01*
G01X-504495Y-5366360D01*
G01X-504698Y-5367020D01*
G01X-504952Y-5367833D01*
G01X-505257Y-5368747D01*
G01X-505206Y-5369052D01*
G01X-504850Y-5369204D01*
G01X-501955Y-5370271D01*
G01X-501345Y-5370576D01*
G01X-500888Y-5370627D01*
G01X-500482Y-5370119D01*
G01X-500329Y-5369357D01*
G01X-500075Y-5368646D01*
G01X-499770Y-5367731D01*
G01X-499618Y-5367020D01*
G01X-499313Y-5366258D01*
G01X-499059Y-5365394D01*
G01X-498856Y-5364632D01*
G01X-497434Y-5359552D01*
G01X-496316Y-5355184D01*
G01X-495960Y-5353914D01*
G01X-495605Y-5352440D01*
G01X-494487Y-5347564D01*
G01X-494436Y-5346903D01*
G01X-494487Y-5346598D01*
G01X-494792Y-5346395D01*
G01X-495503Y-5346192D01*
G01X-497434Y-5345633D01*
G01X-498145Y-5345481D01*
G37*
G36*
G01X-445313Y-5347818D02*
G01X-445313Y-5352034D01*
G01X-444856Y-5352085D01*
G01X-441604Y-5352186D01*
G01X-438760D01*
G01Y-5364175D01*
G01X-438861Y-5376469D01*
G01X-439064Y-5377383D01*
G01X-439318Y-5378298D01*
G01X-439572Y-5378806D01*
G01X-440487Y-5380279D01*
G01X-440334Y-5380990D01*
G01X-438709Y-5383479D01*
G01X-438252Y-5384089D01*
G01X-438048Y-5384241D01*
G01X-437794Y-5384190D01*
G01X-436321Y-5383124D01*
G01X-434950Y-5382006D01*
G01X-434340Y-5381549D01*
G01X-433680Y-5380990D01*
G01X-433222Y-5380634D01*
G01X-432765Y-5380380D01*
G01X-432308Y-5380025D01*
G01X-431698Y-5379568D01*
G01X-430073Y-5378450D01*
G01X-429412Y-5377993D01*
G01X-428346Y-5377282D01*
G01X-427685Y-5376824D01*
G01X-426872Y-5376266D01*
G01X-426517Y-5375910D01*
G01X-426314Y-5375351D01*
G01Y-5374081D01*
G01X-426517Y-5373167D01*
G01X-426618Y-5372100D01*
G01X-426771Y-5371186D01*
G01X-427431Y-5371389D01*
G01X-428244Y-5371897D01*
G01X-428854Y-5372354D01*
G01X-429616Y-5372913D01*
G01X-432308Y-5374843D01*
G01X-432968Y-5375300D01*
G01X-433527Y-5375656D01*
G01X-434035Y-5375758D01*
G01X-434238Y-5361838D01*
G01Y-5348021D01*
G01X-434696Y-5347919D01*
G01X-440233Y-5347818D01*
G37*
G36*
G01X-591058Y-5351018D02*
G01X-591668Y-5351374D01*
G01X-592328Y-5351831D01*
G01X-593039Y-5352390D01*
G01X-593852Y-5352999D01*
G01X-594208Y-5353456D01*
G01X-593852Y-5354117D01*
G01X-592785Y-5355539D01*
G01X-592074Y-5356454D01*
G01X-591414Y-5357368D01*
G01X-590855Y-5358028D01*
G01X-590499Y-5358486D01*
G01X-590144Y-5359095D01*
G01X-589686Y-5359756D01*
G01X-589331Y-5360213D01*
G01X-588874Y-5360822D01*
G01X-587248Y-5363261D01*
G01X-586791Y-5364023D01*
G01X-586029Y-5365090D01*
G01X-585572Y-5365852D01*
G01X-585064Y-5366664D01*
G01X-584759Y-5366918D01*
G01X-584505D01*
G01X-583794Y-5366461D01*
G01X-581254Y-5364632D01*
G01X-580695Y-5364175D01*
G01X-580796Y-5363667D01*
G01X-581254Y-5362905D01*
G01X-581762Y-5362092D01*
G01X-582219Y-5361483D01*
G01X-582574Y-5361026D01*
G01X-584759Y-5358079D01*
G01X-588416Y-5353558D01*
G01X-588874Y-5353101D01*
G01X-589940Y-5351831D01*
G01X-590347Y-5351374D01*
G01X-590601Y-5351018D01*
G37*
G36*
G01X-423875Y-5363820D02*
G01X-423977Y-5364277D01*
G01X-424028Y-5372659D01*
G01X-419710D01*
G01Y-5367985D01*
G01X-419252Y-5367934D01*
G01X-408076Y-5367833D01*
G01X-399999Y-5367934D01*
G01X-397256Y-5368188D01*
G01Y-5368849D01*
G01X-397307Y-5373014D01*
G01X-397256Y-5377180D01*
G01Y-5377434D01*
G01X-397408Y-5377536D01*
G01X-397967D01*
G01X-408788Y-5377485D01*
G01X-419506Y-5377383D01*
G01X-419710Y-5372659D01*
G01X-424028D01*
G01Y-5374996D01*
G01X-423977Y-5382717D01*
G01X-423774Y-5385359D01*
G01X-421894Y-5385460D01*
G01X-419964Y-5385257D01*
G01X-419760Y-5384749D01*
G01X-419710Y-5383530D01*
G01Y-5382006D01*
G01X-419252Y-5381904D01*
G01X-407975Y-5381803D01*
G01X-397154D01*
G01X-397256Y-5382666D01*
G01X-397307Y-5383987D01*
G01X-397256Y-5384851D01*
G01X-396850Y-5385206D01*
G01X-396138Y-5385359D01*
G01X-394513Y-5385460D01*
G01X-393040Y-5385257D01*
G01X-392684Y-5384648D01*
G01X-392582Y-5374183D01*
G01X-392684Y-5366664D01*
G01X-392887Y-5364023D01*
G01X-408483Y-5363820D01*
G37*
G36*
G01X-587756Y-5441544D02*
G01X-589331Y-5441798D01*
G01X-590093Y-5442204D01*
G01X-590702Y-5442712D01*
G01X-591160Y-5443372D01*
G01X-591566Y-5444338D01*
G01X-591871Y-5445506D01*
G01Y-5446420D01*
G01X-591566Y-5447284D01*
G01X-591058Y-5448249D01*
G01X-590296Y-5449011D01*
G01X-588823Y-5449722D01*
G01X-587654Y-5449824D01*
G01X-586283Y-5449621D01*
G01X-585318Y-5449214D01*
G01X-584454Y-5448452D01*
G01X-583946Y-5447741D01*
G01X-583641Y-5447081D01*
G01X-583387Y-5446319D01*
G01X-583286Y-5445404D01*
G01X-583489Y-5444439D01*
G01X-583844Y-5443677D01*
G01X-584251Y-5443068D01*
G01X-584759Y-5442509D01*
G01X-585419Y-5442102D01*
G01X-586181Y-5441798D01*
G37*
G36*
G01X-395986Y-5442814D02*
G01X-397154Y-5442915D01*
G01X-397713Y-5443169D01*
G01X-398221Y-5443576D01*
G01X-398729Y-5443880D01*
G01X-399288Y-5444338D01*
G01X-400050Y-5444846D01*
G01X-401726Y-5445912D01*
G01X-402692Y-5446420D01*
G01X-404165Y-5447284D01*
G01X-407568Y-5449011D01*
G01X-408534Y-5449418D01*
G01X-410616Y-5450281D01*
G01X-412547Y-5450891D01*
G01X-413309Y-5451196D01*
G01X-413512Y-5452110D01*
G01X-413614Y-5454498D01*
G01X-413512Y-5456885D01*
G01X-413156Y-5457698D01*
G01X-412344Y-5457495D01*
G01X-410413Y-5456834D01*
G01X-409346Y-5456428D01*
G01X-408381Y-5455971D01*
G01X-405841Y-5454701D01*
G01X-404927Y-5454193D01*
G01X-403200Y-5453126D01*
G01X-402488Y-5452618D01*
G01X-401828Y-5452161D01*
G01X-401574Y-5452110D01*
G01X-401422Y-5452262D01*
G01X-401320Y-5474665D01*
G01Y-5496712D01*
G01X-394513D01*
G01Y-5442814D01*
G37*
G36*
G01X-343611Y-5443068D02*
G01X-346050Y-5443169D01*
G01X-347523Y-5443372D01*
G01X-348386Y-5443576D01*
G01X-350266Y-5444236D01*
G01X-351130Y-5444541D01*
G01X-351993Y-5444947D01*
G01X-352704Y-5445404D01*
G01X-353974Y-5446217D01*
G01X-354533Y-5446674D01*
G01X-355397Y-5447284D01*
G01X-356108Y-5448046D01*
G01X-356565Y-5448554D01*
G01X-356768Y-5451856D01*
G01X-356667Y-5454142D01*
G01X-356413Y-5454802D01*
G01X-355905Y-5454396D01*
G01X-354838Y-5453329D01*
G01X-353568Y-5452262D01*
G01X-353060Y-5451856D01*
G01X-352298Y-5451450D01*
G01X-351434Y-5450891D01*
G01X-350723Y-5450484D01*
G01X-349860Y-5450027D01*
G01X-348793Y-5449621D01*
G01X-347624Y-5449214D01*
G01X-346253Y-5448859D01*
G01X-344983Y-5448656D01*
G01X-343154Y-5448554D01*
G01X-341579Y-5448656D01*
G01X-340614Y-5448859D01*
G01X-339547Y-5449214D01*
G01X-338734Y-5449519D01*
G01X-337871Y-5449926D01*
G01X-336906Y-5450586D01*
G01X-336194Y-5451196D01*
G01X-335737Y-5451754D01*
G01X-335229Y-5452466D01*
G01X-334670Y-5453329D01*
G01X-334366Y-5454193D01*
G01X-334061Y-5455158D01*
G01X-333858Y-5456428D01*
G01X-333756Y-5457596D01*
G01Y-5458663D01*
G01X-333858Y-5459832D01*
G01X-333959Y-5460543D01*
G01X-334162Y-5461406D01*
G01X-334467Y-5462372D01*
G01X-334823Y-5463184D01*
G01X-335128Y-5463946D01*
G01X-335636Y-5464810D01*
G01X-336398Y-5465877D01*
G01X-337261Y-5466893D01*
G01X-338531Y-5468163D01*
G01X-341478Y-5470754D01*
G01X-341986Y-5471160D01*
G01X-342544Y-5471465D01*
G01X-343052Y-5471922D01*
G01X-346050Y-5474005D01*
G01X-349453Y-5476545D01*
G01X-350520Y-5477408D01*
G01X-351028Y-5477967D01*
G01X-352501Y-5479237D01*
G01X-353568Y-5480253D01*
G01X-354228Y-5481117D01*
G01X-355244Y-5482387D01*
G01X-355803Y-5483149D01*
G01X-356311Y-5484012D01*
G01X-356768Y-5484724D01*
G01X-357175Y-5485587D01*
G01X-357581Y-5486654D01*
G01X-358038Y-5487924D01*
G01X-358343Y-5489397D01*
G01X-358546Y-5490667D01*
G01X-358648Y-5491836D01*
G01X-358750Y-5492801D01*
G01X-358851Y-5494934D01*
G01Y-5496712D01*
G01X-325374D01*
G01Y-5490972D01*
G01X-351638D01*
G01Y-5489804D01*
G01X-351536Y-5488330D01*
G01X-351231Y-5487365D01*
G01X-350825Y-5486298D01*
G01X-350266Y-5485486D01*
G01X-349758Y-5484724D01*
G01X-349199Y-5484216D01*
G01X-348793Y-5483657D01*
G01X-348386Y-5483250D01*
G01X-347828Y-5482844D01*
G01X-347320Y-5482285D01*
G01X-346456Y-5481676D01*
G01X-345389Y-5480812D01*
G01X-343713Y-5479542D01*
G01X-342646Y-5478780D01*
G01X-341173Y-5477713D01*
G01X-337972Y-5475529D01*
G01X-335432Y-5473598D01*
G01X-334924Y-5473090D01*
G01X-333654Y-5472024D01*
G01X-332029Y-5470398D01*
G01X-330962Y-5469128D01*
G01X-330556Y-5468620D01*
G01X-330251Y-5468061D01*
G01X-329692Y-5467350D01*
G01X-329082Y-5466283D01*
G01X-328625Y-5465318D01*
G01X-328320Y-5464556D01*
G01X-328016Y-5463743D01*
G01X-327609Y-5462016D01*
G01X-327355Y-5461000D01*
G01X-327152Y-5459679D01*
G01X-327050Y-5456834D01*
G01X-327152Y-5454396D01*
G01X-327355Y-5453431D01*
G01X-327711Y-5452364D01*
G01X-328016Y-5451551D01*
G01X-328320Y-5450789D01*
G01X-328778Y-5449926D01*
G01X-329286Y-5449214D01*
G01X-330149Y-5448148D01*
G01X-331724Y-5446573D01*
G01X-332232Y-5446116D01*
G01X-332791Y-5445811D01*
G01X-333400Y-5445404D01*
G01X-334162Y-5444947D01*
G01X-335128Y-5444541D01*
G01X-336194Y-5444134D01*
G01X-337261Y-5443779D01*
G01X-338176Y-5443576D01*
G01X-339039Y-5443372D01*
G01X-340512Y-5443169D01*
G37*
G36*
G01X-711200Y-5443880D02*
G01X-710997Y-5444541D01*
G01X-710590Y-5445608D01*
G01X-710235Y-5446573D01*
G01X-709625Y-5448249D01*
G01X-709320Y-5449214D01*
G01X-708660Y-5450891D01*
G01X-708355Y-5451856D01*
G01X-707695Y-5453532D01*
G01X-707390Y-5454498D01*
G01X-706730Y-5456225D01*
G01X-706425Y-5457139D01*
G01X-705815Y-5458866D01*
G01X-705460Y-5459832D01*
G01X-705053Y-5460848D01*
G01X-704647Y-5462118D01*
G01X-702920Y-5466791D01*
G01X-702513Y-5468061D01*
G01X-702107Y-5469128D01*
G01X-701751Y-5470093D01*
G01X-701142Y-5471770D01*
G01X-700837Y-5472735D01*
G01X-700176Y-5474462D01*
G01X-699872Y-5475376D01*
G01X-699211Y-5477104D01*
G01X-698906Y-5478069D01*
G01X-698246Y-5479745D01*
G01X-697941Y-5480710D01*
G01X-697332Y-5482387D01*
G01X-696976Y-5483352D01*
G01X-696366Y-5485028D01*
G01X-696062Y-5485994D01*
G01X-695401Y-5487721D01*
G01X-695096Y-5488635D01*
G01X-694436Y-5490362D01*
G01X-694131Y-5491328D01*
G01X-693522Y-5493004D01*
G01X-693166Y-5493969D01*
G01X-692556Y-5495646D01*
G01X-692201Y-5496408D01*
G01X-691185Y-5496662D01*
G01X-688188Y-5496712D01*
G01X-684276D01*
G01X-684174Y-5496103D01*
G01X-683870Y-5495138D01*
G01X-682904Y-5492598D01*
G01X-682549Y-5491632D01*
G01X-682142Y-5490566D01*
G01X-679602Y-5483555D01*
G01X-679196Y-5482488D01*
G01X-678840Y-5481574D01*
G01X-677570Y-5478170D01*
G01X-677266Y-5477205D01*
G01X-676859Y-5476138D01*
G01X-676402Y-5474868D01*
G01X-675996Y-5473802D01*
G01X-675335Y-5472125D01*
G01X-675030Y-5471160D01*
G01X-673760Y-5467756D01*
G01X-673456Y-5466791D01*
G01X-673049Y-5465724D01*
G01X-672592Y-5464454D01*
G01X-672186Y-5463438D01*
G01X-671525Y-5461711D01*
G01X-671220Y-5460746D01*
G01X-669950Y-5457393D01*
G01X-669646Y-5456428D01*
G01X-669188Y-5455361D01*
G01X-668782Y-5454091D01*
G01X-668376Y-5453024D01*
G01X-667715Y-5451348D01*
G01X-667410Y-5450383D01*
G01X-666140Y-5446979D01*
G01X-665836Y-5446014D01*
G01X-665378Y-5444947D01*
G01X-665175Y-5444134D01*
G01X-668782Y-5443880D01*
G01X-671525Y-5443982D01*
G01X-672490Y-5444338D01*
G01X-672795Y-5445150D01*
G01X-673456Y-5447081D01*
G01X-674065Y-5448757D01*
G01X-675030Y-5451653D01*
G01X-675691Y-5453329D01*
G01X-676300Y-5455260D01*
G01X-676961Y-5456936D01*
G01X-677570Y-5458866D01*
G01X-678231Y-5460543D01*
G01X-679196Y-5463438D01*
G01X-679602Y-5464454D01*
G01X-680466Y-5467045D01*
G01X-680872Y-5468061D01*
G01X-681838Y-5470957D01*
G01X-682447Y-5472633D01*
G01X-683108Y-5474564D01*
G01X-683717Y-5476240D01*
G01X-684682Y-5479136D01*
G01X-685140Y-5480152D01*
G01X-685952Y-5482742D01*
G01X-686410Y-5483758D01*
G01X-687324Y-5486654D01*
G01X-687781Y-5488330D01*
G01X-688086Y-5488991D01*
G01X-688289Y-5488838D01*
G01X-688391Y-5488229D01*
G01X-688594Y-5487060D01*
G01X-690626Y-5481015D01*
G01X-691032Y-5479948D01*
G01X-692658Y-5475173D01*
G01X-693268Y-5473497D01*
G01X-694893Y-5468722D01*
G01X-695503Y-5467045D01*
G01X-697078Y-5462270D01*
G01X-697738Y-5460543D01*
G01X-699313Y-5455768D01*
G01X-699770Y-5454701D01*
G01X-701446Y-5449621D01*
G01X-702310Y-5447284D01*
G01X-703123Y-5444744D01*
G01X-703682Y-5443982D01*
G01X-707593Y-5443880D01*
G37*
G36*
G01X-555854Y-5458104D02*
G01X-557733Y-5458206D01*
G01X-559867Y-5458409D01*
G01X-560934Y-5458663D01*
G01X-562102Y-5458968D01*
G01X-563982Y-5459578D01*
G01X-564947Y-5460035D01*
G01X-565810Y-5460441D01*
G01X-566623Y-5461000D01*
G01X-567690Y-5461711D01*
G01X-568554Y-5462372D01*
G01X-570128Y-5463946D01*
G01X-570992Y-5465013D01*
G01X-571551Y-5465724D01*
G01X-572160Y-5466690D01*
G01X-573126Y-5468620D01*
G01X-573532Y-5469585D01*
G01X-573989Y-5470855D01*
G01X-574294Y-5472125D01*
G01X-574497Y-5473090D01*
G01X-574700Y-5474360D01*
G01X-574904Y-5476240D01*
G01X-574954Y-5477713D01*
G01X-568046D01*
G01X-567944Y-5474970D01*
G01X-567690Y-5473497D01*
G01X-567385Y-5472430D01*
G01X-566979Y-5471160D01*
G01X-566522Y-5470093D01*
G01X-566014Y-5469128D01*
G01X-565353Y-5468163D01*
G01X-564744Y-5467452D01*
G01X-563677Y-5466385D01*
G01X-563169Y-5465978D01*
G01X-562407Y-5465420D01*
G01X-561442Y-5464912D01*
G01X-560476Y-5464454D01*
G01X-559206Y-5464048D01*
G01X-557936Y-5463845D01*
G01X-557124Y-5463743D01*
G01X-555600Y-5463642D01*
G01X-554126Y-5463743D01*
G01X-552653Y-5463946D01*
G01X-551688Y-5464251D01*
G01X-550520Y-5464708D01*
G01X-549808Y-5465115D01*
G01X-549046Y-5465623D01*
G01X-548284Y-5466283D01*
G01X-547776Y-5466791D01*
G01X-547116Y-5467553D01*
G01X-546506Y-5468518D01*
G01X-545948Y-5469484D01*
G01X-545541Y-5470398D01*
G01X-545135Y-5471566D01*
G01X-544779Y-5473090D01*
G01X-544576Y-5474106D01*
G01X-544373Y-5475630D01*
G01X-544271Y-5478272D01*
G01X-544373Y-5480914D01*
G01X-544576Y-5482387D01*
G01X-544779Y-5483352D01*
G01X-545135Y-5484419D01*
G01X-545440Y-5485384D01*
G01X-545744Y-5486197D01*
G01X-546202Y-5486959D01*
G01X-546710Y-5487822D01*
G01X-547218Y-5488534D01*
G01X-548284Y-5489600D01*
G01X-548945Y-5490159D01*
G01X-549656Y-5490566D01*
G01X-550520Y-5490972D01*
G01X-551485Y-5491429D01*
G01X-552552Y-5491734D01*
G01X-553517Y-5491937D01*
G01X-555193Y-5492140D01*
G01X-556158Y-5492242D01*
G01X-556870Y-5492140D01*
G01X-557835Y-5492039D01*
G01X-559003Y-5491937D01*
G01X-559968Y-5491632D01*
G01X-561137Y-5491226D01*
G01X-562000Y-5490769D01*
G01X-562813Y-5490261D01*
G01X-563575Y-5489600D01*
G01X-565150Y-5488026D01*
G01X-565607Y-5487467D01*
G01X-566776Y-5485181D01*
G01X-567182Y-5484216D01*
G01X-567487Y-5482946D01*
G01X-567690Y-5481980D01*
G01X-567944Y-5480507D01*
G01X-568046Y-5477713D01*
G01X-574954D01*
G01X-575005Y-5478882D01*
G01X-574904Y-5480914D01*
G01X-574700Y-5482844D01*
G01X-574294Y-5484724D01*
G01X-573989Y-5485689D01*
G01X-573532Y-5486857D01*
G01X-573126Y-5487924D01*
G01X-572567Y-5488889D01*
G01X-572059Y-5489702D01*
G01X-571398Y-5490667D01*
G01X-570586Y-5491734D01*
G01X-568757Y-5493512D01*
G01X-567944Y-5494172D01*
G01X-566877Y-5494934D01*
G01X-565912Y-5495442D01*
G01X-565048Y-5495849D01*
G01X-564083Y-5496306D01*
G01X-562915Y-5496712D01*
G01X-561645Y-5497017D01*
G01X-560730Y-5497271D01*
G01X-559460Y-5497474D01*
G01X-557936Y-5497678D01*
G01X-556362Y-5497779D01*
G01X-554990Y-5497678D01*
G01X-552653Y-5497474D01*
G01X-550520Y-5497017D01*
G01X-549554Y-5496712D01*
G01X-548386Y-5496306D01*
G01X-547319Y-5495849D01*
G01X-546405Y-5495341D01*
G01X-545440Y-5494680D01*
G01X-544373Y-5493969D01*
G01X-543611Y-5493309D01*
G01X-543103Y-5492902D01*
G01X-541833Y-5491429D01*
G01X-541274Y-5490769D01*
G01X-540360Y-5489397D01*
G01X-538988Y-5486654D01*
G01X-538531Y-5485486D01*
G01X-538124Y-5484114D01*
G01X-537566Y-5481320D01*
G01X-537464Y-5480152D01*
G01X-537362Y-5479237D01*
G01X-537261Y-5477408D01*
G01X-537362Y-5475630D01*
G01X-537566Y-5473294D01*
G01X-538023Y-5471160D01*
G01X-538328Y-5470093D01*
G01X-538734Y-5468823D01*
G01X-539191Y-5467756D01*
G01X-539598Y-5466893D01*
G01X-540004Y-5466182D01*
G01X-540563Y-5465318D01*
G01X-541071Y-5464556D01*
G01X-541934Y-5463540D01*
G01X-543001Y-5462473D01*
G01X-544576Y-5461203D01*
G01X-545236Y-5460848D01*
G01X-546049Y-5460340D01*
G01X-547116Y-5459832D01*
G01X-548183Y-5459374D01*
G01X-549453Y-5458968D01*
G01X-550926Y-5458663D01*
G01X-551993Y-5458409D01*
G01X-553923Y-5458206D01*
G37*
G36*
G01X-648310Y-5458104D02*
G01X-649986Y-5458206D01*
G01X-651713Y-5458409D01*
G01X-652577Y-5458663D01*
G01X-653491Y-5458968D01*
G01X-655218Y-5459578D01*
G01X-656082Y-5460035D01*
G01X-656895Y-5460543D01*
G01X-657860Y-5461203D01*
G01X-658622Y-5461813D01*
G01X-659638Y-5462676D01*
G01X-660197Y-5463184D01*
G01X-661467Y-5464708D01*
G01X-661873Y-5465216D01*
G01X-662330Y-5465978D01*
G01X-662940Y-5466893D01*
G01X-663905Y-5468823D01*
G01X-664210Y-5469585D01*
G01X-664566Y-5470398D01*
G01X-664870Y-5471465D01*
G01X-665074Y-5472430D01*
G01X-665277Y-5473497D01*
G01X-665378Y-5474106D01*
G01X-658724D01*
G01X-658622Y-5473294D01*
G01X-658266Y-5472024D01*
G01X-657962Y-5471058D01*
G01X-657657Y-5470195D01*
G01X-657352Y-5469484D01*
G01X-656793Y-5468620D01*
G01X-656082Y-5467553D01*
G01X-654253Y-5465724D01*
G01X-653491Y-5465216D01*
G01X-652577Y-5464556D01*
G01X-651510Y-5464150D01*
G01X-650545Y-5463845D01*
G01X-649376Y-5463642D01*
G01X-648310Y-5463540D01*
G01X-647446D01*
G01X-646532Y-5463642D01*
G01X-645770Y-5463743D01*
G01X-644804Y-5464048D01*
G01X-643636Y-5464556D01*
G01X-642823Y-5465115D01*
G01X-641756Y-5466182D01*
G01X-641096Y-5466893D01*
G01X-640588Y-5467756D01*
G01X-640131Y-5468722D01*
G01X-639826Y-5469687D01*
G01X-639521Y-5470754D01*
G01X-639318Y-5472024D01*
G01X-639064Y-5473700D01*
G01Y-5474208D01*
G01X-648868D01*
G01X-658724Y-5474106D01*
G01X-665378D01*
G01X-665480Y-5474767D01*
G01X-665582Y-5476037D01*
G01X-665683Y-5477104D01*
G01X-665836Y-5478475D01*
G01X-665683Y-5479847D01*
G01X-665480Y-5482387D01*
G01X-665277Y-5483860D01*
G01X-664972Y-5484927D01*
G01X-664667Y-5486197D01*
G01X-664312Y-5487162D01*
G01X-663905Y-5488229D01*
G01X-663499Y-5489194D01*
G01X-662432Y-5490870D01*
G01X-661772Y-5491734D01*
G01X-660959Y-5492801D01*
G01X-660197Y-5493512D01*
G01X-659333Y-5494172D01*
G01X-658368Y-5494934D01*
G01X-657454Y-5495442D01*
G01X-655726Y-5496306D01*
G01X-654558Y-5496712D01*
G01X-653186Y-5497119D01*
G01X-652018Y-5497373D01*
G01X-651307Y-5497474D01*
G01X-650240Y-5497576D01*
G01X-649376Y-5497678D01*
G01X-648106Y-5497779D01*
G01X-646633Y-5497678D01*
G01X-643839Y-5497474D01*
G01X-642366Y-5497271D01*
G01X-641401Y-5497017D01*
G01X-640385Y-5496712D01*
G01X-638454Y-5496103D01*
G01X-637489Y-5495646D01*
G01X-636626Y-5495239D01*
G01X-635813Y-5494680D01*
G01X-635152Y-5494071D01*
G01X-635051Y-5490972D01*
G01Y-5488229D01*
G01X-635610Y-5488534D01*
G01X-637489Y-5489804D01*
G01X-638556Y-5490362D01*
G01X-639521Y-5490769D01*
G01X-640588Y-5491226D01*
G01X-641960Y-5491632D01*
G01X-643433Y-5491937D01*
G01X-644703Y-5492140D01*
G01X-647040Y-5492242D01*
G01X-649173Y-5492140D01*
G01X-650240Y-5491937D01*
G01X-651408Y-5491632D01*
G01X-652323Y-5491226D01*
G01X-653186Y-5490769D01*
G01X-654050Y-5490261D01*
G01X-654761Y-5489600D01*
G01X-655828Y-5488534D01*
G01X-656387Y-5487822D01*
G01X-656996Y-5486857D01*
G01X-657555Y-5485689D01*
G01X-657962Y-5484622D01*
G01X-658266Y-5483352D01*
G01X-658520Y-5482184D01*
G01X-658724Y-5480507D01*
G01Y-5479847D01*
G01X-655320Y-5479593D01*
G01X-645465Y-5479542D01*
G01X-632308D01*
G01Y-5476646D01*
G01X-632409Y-5473497D01*
G01X-632612Y-5471566D01*
G01X-633019Y-5469484D01*
G01X-633374Y-5468518D01*
G01X-633781Y-5467350D01*
G01X-634187Y-5466283D01*
G01X-634746Y-5465318D01*
G01X-635254Y-5464454D01*
G01X-635711Y-5463845D01*
G01X-636118Y-5463286D01*
G01X-637692Y-5461711D01*
G01X-638759Y-5460848D01*
G01X-639420Y-5460441D01*
G01X-640232Y-5459933D01*
G01X-641198Y-5459476D01*
G01X-642061Y-5459171D01*
G01X-643128Y-5458866D01*
G01X-644093Y-5458663D01*
G01X-644906Y-5458409D01*
G01X-645871Y-5458308D01*
G01X-646633Y-5458206D01*
G37*
G36*
G01X-509067Y-5458104D02*
G01X-510642Y-5458206D01*
G01X-512115Y-5458409D01*
G01X-513182Y-5458765D01*
G01X-514452Y-5459171D01*
G01X-515315Y-5459578D01*
G01X-516077Y-5460035D01*
G01X-516890Y-5460543D01*
G01X-517652Y-5461102D01*
G01X-519227Y-5462676D01*
G01X-520090Y-5463743D01*
G01X-520598Y-5464353D01*
G01X-520903Y-5464505D01*
G01X-521056Y-5464353D01*
G01X-521157Y-5461508D01*
G01Y-5458968D01*
G01X-527914D01*
G01Y-5496712D01*
G01X-521157D01*
G01Y-5484927D01*
G01X-521056Y-5472836D01*
G01X-520852Y-5471770D01*
G01X-520497Y-5470601D01*
G01X-520090Y-5469585D01*
G01X-519684Y-5468722D01*
G01X-518820Y-5467452D01*
G01X-518414Y-5466893D01*
G01X-517347Y-5465877D01*
G01X-516788Y-5465420D01*
G01X-516077Y-5465013D01*
G01X-515010Y-5464454D01*
G01X-514045Y-5464150D01*
G01X-513182Y-5463946D01*
G01X-512115Y-5463743D01*
G01X-510743Y-5463642D01*
G01X-509575Y-5463743D01*
G01X-508610Y-5463946D01*
G01X-507695Y-5464251D01*
G01X-506832Y-5464708D01*
G01X-506070Y-5465216D01*
G01X-505562Y-5465724D01*
G01X-504901Y-5466486D01*
G01X-504393Y-5467350D01*
G01X-503987Y-5468163D01*
G01X-503530Y-5469128D01*
G01X-503225Y-5470398D01*
G01X-503022Y-5471566D01*
G01X-502818Y-5473090D01*
G01X-502717Y-5485028D01*
G01Y-5496712D01*
G01X-495910D01*
G01Y-5484012D01*
G01X-496011Y-5470957D01*
G01X-496214Y-5469026D01*
G01X-496418Y-5467960D01*
G01X-496773Y-5466791D01*
G01X-497078Y-5465877D01*
G01X-497383Y-5465013D01*
G01X-497789Y-5464150D01*
G01X-498348Y-5463184D01*
G01X-498856Y-5462473D01*
G01X-499415Y-5461914D01*
G01X-499821Y-5461406D01*
G01X-500278Y-5461000D01*
G01X-501294Y-5460136D01*
G01X-502818Y-5459374D01*
G01X-503733Y-5458968D01*
G01X-504901Y-5458663D01*
G01X-505968Y-5458409D01*
G01X-507441Y-5458206D01*
G37*
G36*
G01X-611073Y-5458104D02*
G01X-612902Y-5458206D01*
G01X-614782Y-5458409D01*
G01X-615747Y-5458663D01*
G01X-616814Y-5458968D01*
G01X-617779Y-5459273D01*
G01X-618642Y-5459578D01*
G01X-619455Y-5460035D01*
G01X-620420Y-5460543D01*
G01X-621386Y-5461203D01*
G01X-622097Y-5461813D01*
G01X-623722Y-5463438D01*
G01X-624129Y-5464048D01*
G01X-624891Y-5465521D01*
G01X-625297Y-5466893D01*
G01X-625500Y-5469484D01*
G01X-625399Y-5471566D01*
G01X-625094Y-5472633D01*
G01X-624688Y-5473700D01*
G01X-624230Y-5474462D01*
G01X-623621Y-5475376D01*
G01X-622859Y-5476138D01*
G01X-621995Y-5476799D01*
G01X-620928Y-5477510D01*
G01X-619912Y-5478170D01*
G01X-617982Y-5479136D01*
G01X-615747Y-5480050D01*
G01X-614883Y-5480406D01*
G01X-612800Y-5481218D01*
G01X-611835Y-5481676D01*
G01X-610108Y-5482488D01*
G01X-609397Y-5482946D01*
G01X-608838Y-5483352D01*
G01X-607822Y-5484419D01*
G01X-607365Y-5485028D01*
G01X-607162Y-5485790D01*
G01X-606958Y-5486654D01*
G01X-606857Y-5487619D01*
G01X-606958Y-5488330D01*
G01X-607263Y-5489194D01*
G01X-607924Y-5490261D01*
G01X-608838Y-5490972D01*
G01X-609702Y-5491429D01*
G01X-610768Y-5491836D01*
G01X-612445Y-5492140D01*
G01X-615340Y-5492242D01*
G01X-617576Y-5492140D01*
G01X-619455Y-5491734D01*
G01X-620420Y-5491429D01*
G01X-621487Y-5490972D01*
G01X-622452Y-5490566D01*
G01X-623265Y-5490159D01*
G01X-624992Y-5489092D01*
G01X-625500Y-5488788D01*
G01X-625653Y-5489550D01*
G01X-625704Y-5492039D01*
G01Y-5495442D01*
G01X-624129Y-5496103D01*
G01X-622960Y-5496509D01*
G01X-621589Y-5496916D01*
G01X-620116Y-5497271D01*
G01X-618642Y-5497474D01*
G01X-617220Y-5497576D01*
G01X-616509Y-5497678D01*
G01X-615340Y-5497779D01*
G01X-613969Y-5497678D01*
G01X-611429Y-5497474D01*
G01X-610260Y-5497271D01*
G01X-608990Y-5496916D01*
G01X-607060Y-5496306D01*
G01X-606095Y-5495849D01*
G01X-605130Y-5495341D01*
G01X-604215Y-5494680D01*
G01X-603453Y-5494071D01*
G01X-602386Y-5493004D01*
G01X-601980Y-5492496D01*
G01X-601421Y-5491734D01*
G01X-600913Y-5490667D01*
G01X-600456Y-5489702D01*
G01X-600253Y-5488889D01*
G01X-600151Y-5488127D01*
G01X-600050Y-5486197D01*
G01X-600151Y-5484317D01*
G01X-600354Y-5483454D01*
G01X-600710Y-5482590D01*
G01X-601116Y-5481777D01*
G01X-601624Y-5481015D01*
G01X-602488Y-5479948D01*
G01X-603555Y-5479136D01*
G01X-604317Y-5478577D01*
G01X-605231Y-5477967D01*
G01X-608025Y-5476545D01*
G01X-609092Y-5476138D01*
G01X-610006Y-5475732D01*
G01X-611734Y-5475072D01*
G01X-612699Y-5474665D01*
G01X-613715Y-5474208D01*
G01X-615442Y-5473395D01*
G01X-616153Y-5472938D01*
G01X-616915Y-5472430D01*
G01X-617677Y-5471668D01*
G01X-618084Y-5470957D01*
G01X-618388Y-5470093D01*
G01X-618642Y-5469026D01*
G01Y-5467756D01*
G01X-618287Y-5466690D01*
G01X-617880Y-5466080D01*
G01X-617322Y-5465521D01*
G01X-616814Y-5465115D01*
G01X-616052Y-5464556D01*
G01X-615137Y-5464150D01*
G01X-614375Y-5463946D01*
G01X-613512Y-5463743D01*
G01X-612445Y-5463642D01*
G01X-611632Y-5463540D01*
G01X-610565D01*
G01X-609194Y-5463642D01*
G01X-608228Y-5463743D01*
G01X-606298Y-5464150D01*
G01X-605384Y-5464454D01*
G01X-604418Y-5464912D01*
G01X-603656Y-5465216D01*
G01X-602793Y-5465623D01*
G01X-602082Y-5466080D01*
G01X-601828Y-5465369D01*
G01X-601777Y-5462981D01*
G01X-601878Y-5460594D01*
G01X-602183Y-5459679D01*
G01X-603047Y-5459374D01*
G01X-604063Y-5459070D01*
G01X-605028Y-5458866D01*
G01X-606095Y-5458663D01*
G01X-607365Y-5458409D01*
G01X-608432Y-5458308D01*
G01X-609295Y-5458206D01*
G37*
G36*
G01X-473507Y-5458308D02*
G01X-475031Y-5458511D01*
G01X-475844Y-5459070D01*
G01X-476707Y-5459933D01*
G01X-477215Y-5460746D01*
G01X-477571Y-5462016D01*
G01Y-5463540D01*
G01X-477215Y-5464353D01*
G01X-476809Y-5465013D01*
G01X-476301Y-5465521D01*
G01X-475742Y-5465978D01*
G01X-474929Y-5466486D01*
G01X-473100Y-5466791D01*
G01X-471526Y-5466588D01*
G01X-470560Y-5466080D01*
G01X-469697Y-5465216D01*
G01X-469189Y-5464353D01*
G01X-468884Y-5463286D01*
G01X-468732Y-5461914D01*
G01X-468986Y-5461000D01*
G01X-469392Y-5460238D01*
G01X-469900Y-5459578D01*
G01X-470459Y-5459171D01*
G01X-471170Y-5458765D01*
G01X-472034Y-5458409D01*
G37*
G36*
G01X-590956Y-5458968D02*
G01X-591058Y-5459476D01*
G01X-591160Y-5478374D01*
G01X-590956Y-5496814D01*
G01X-587756Y-5496916D01*
G01X-585470Y-5496865D01*
G01X-584556Y-5496611D01*
G01X-584352Y-5477713D01*
G01Y-5459171D01*
G01X-584911Y-5459070D01*
G01X-588162Y-5458968D01*
G37*
G36*
G01X-372008Y-5488991D02*
G01X-373177Y-5489296D01*
G01X-373837Y-5489702D01*
G01X-374904Y-5490769D01*
G01X-375310Y-5491531D01*
G01X-375514Y-5492344D01*
G01X-375615Y-5493512D01*
G01X-375412Y-5494833D01*
G01X-375006Y-5495646D01*
G01X-374447Y-5496306D01*
G01X-373939Y-5496712D01*
G01X-373177Y-5497271D01*
G01X-372466Y-5497474D01*
G01X-371297Y-5497576D01*
G01X-369468Y-5497373D01*
G01X-368503Y-5496814D01*
G01X-367690Y-5495950D01*
G01X-367132Y-5495138D01*
G01X-366827Y-5493868D01*
G01Y-5492242D01*
G01X-367132Y-5491328D01*
G01X-367589Y-5490667D01*
G01X-368097Y-5490159D01*
G01X-368859Y-5489600D01*
G01X-369926Y-5489194D01*
G01X-370840Y-5488991D01*
G37*
G36*
G01X-473608Y-5489092D02*
G01X-474929Y-5489296D01*
G01X-475640Y-5489702D01*
G01X-476301Y-5490261D01*
G01X-476910Y-5491074D01*
G01X-477469Y-5492242D01*
G01X-477672Y-5493512D01*
G01X-477571Y-5494477D01*
G01X-477215Y-5495239D01*
G01X-476606Y-5496204D01*
G01X-475844Y-5496814D01*
G01X-475132Y-5497271D01*
G01X-474421Y-5497474D01*
G01X-473202Y-5497576D01*
G01X-471424Y-5497373D01*
G01X-470662Y-5496916D01*
G01X-470002Y-5496408D01*
G01X-469595Y-5495849D01*
G01X-469189Y-5495138D01*
G01X-468884Y-5494274D01*
G01X-468732Y-5493106D01*
G01X-468986Y-5491836D01*
G01X-469392Y-5490972D01*
G01X-469900Y-5490362D01*
G01X-470459Y-5489905D01*
G01X-471170Y-5489499D01*
G01X-472237Y-5489194D01*
G37*
G54D10*
G01X-421640Y-2503170D02*
G01X-421640Y-2589784D01*
G01X-421640Y-2503170D02*
G01X-384556Y-2503170D01*
G01X-372110Y-2507234D01*
G01X-368046Y-2511552D01*
G01X-363728Y-2519680D01*
G01Y-2528062D01*
G01X-368046Y-2536190D01*
G01X-372110Y-2540254D01*
G01X-384556Y-2544572D01*
G01X-421640Y-2544572D02*
G01X-384556Y-2544572D01*
G01X-372110Y-2548636D01*
G01X-368046Y-2552700D01*
G01X-363728Y-2561082D01*
G01Y-2573274D01*
G01X-368046Y-2581656D01*
G01X-372110Y-2585720D01*
G01X-384556Y-2589784D01*
G01X-421640D01*
G01X-323596Y-2532126D02*
G01X-323596Y-2573274D01*
G01X-319532Y-2585720D01*
G01X-311150Y-2589784D01*
G01X-298704D01*
G01X-290576Y-2585720D01*
G01X-278130Y-2573274D01*
G01X-278130Y-2532126D02*
G01X-278130Y-2589784D01*
G01X-237998Y-2532126D02*
G01X-237998Y-2589784D01*
G01X-237998Y-2556764D02*
G01X-233934Y-2544572D01*
G01X-225552Y-2536190D01*
G01X-217424Y-2532126D01*
G01X-204978D01*
G01X-164846Y-2532126D02*
G01X-164846Y-2589784D01*
G01X-164846Y-2548636D02*
G01X-152400Y-2536190D01*
G01X-144272Y-2532126D01*
G01X-131826D01*
G01X-123444Y-2536190D01*
G01X-119380Y-2548636D01*
G01Y-2589784D01*
G01X975360Y-2503170D02*
G01X975360Y-2589784D01*
G01X975360Y-2503170D02*
G01X1012444Y-2503170D01*
G01X1024890Y-2507234D01*
G01X1028954Y-2511552D01*
G01X1033272Y-2519680D01*
G01Y-2528062D01*
G01X1028954Y-2536190D01*
G01X1024890Y-2540254D01*
G01X1012444Y-2544572D01*
G01X975360D01*
G01X1004316Y-2544572D02*
G01X1033272Y-2589784D01*
G01X1131316Y-2515616D02*
G01X1122934Y-2507234D01*
G01X1110488Y-2503170D01*
G01X1093978D01*
G01X1081786Y-2507234D01*
G01X1073404Y-2515616D01*
G01Y-2523744D01*
G01X1077468Y-2532126D01*
G01X1081786Y-2536190D01*
G01X1089914Y-2540254D01*
G01X1114806Y-2548636D01*
G01X1122934Y-2552700D01*
G01X1126998Y-2556764D01*
G01X1131316Y-2565146D01*
G01Y-2577592D01*
G01X1122934Y-2585720D01*
G01X1110488Y-2589784D01*
G01X1093978D01*
G01X1081786Y-2585720D01*
G01X1073404Y-2577592D01*
G01X1200404Y-2503170D02*
G01X1200404Y-2589784D01*
G01X1171448Y-2503170D02*
G01X1229360Y-2503170D01*
G54D11*
G01X-924878Y-3377740D02*
G01X-924878Y-3442764D01*
G01X-924878Y-3377740D02*
G01X-896938Y-3377740D01*
G01X-887794Y-3380788D01*
G01X-884746Y-3383836D01*
G01X-881444Y-3390186D01*
G01Y-3396282D01*
G01X-884746Y-3402378D01*
G01X-887794Y-3405426D01*
G01X-896938Y-3408728D01*
G01X-924878D01*
G01X-903288Y-3408728D02*
G01X-881444Y-3442764D01*
G01X-851218Y-3390186D02*
G01X-845122Y-3386884D01*
G01X-835978Y-3377740D01*
G01Y-3442764D01*
G01X-951052Y-3549075D02*
G01X-951052Y-3614099D01*
G01X-951052Y-3549075D02*
G01X-923112Y-3549075D01*
G01X-913968Y-3552123D01*
G01X-910920Y-3555171D01*
G01X-907618Y-3561521D01*
G01Y-3567617D01*
G01X-910920Y-3573713D01*
G01X-913968Y-3576761D01*
G01X-923112Y-3580063D01*
G01X-951052D01*
G01X-929462Y-3580063D02*
G01X-907618Y-3614099D01*
G01X-874344Y-3564569D02*
G01X-874344Y-3561521D01*
G01X-871296Y-3555171D01*
G01X-868248Y-3552123D01*
G01X-862152Y-3549075D01*
G01X-849706D01*
G01X-843356Y-3552123D01*
G01X-840308Y-3555171D01*
G01X-837260Y-3561521D01*
G01Y-3567617D01*
G01X-840308Y-3573713D01*
G01X-846658Y-3583111D01*
G01X-877392Y-3614099D01*
G01X-834212D01*
G01X205422Y-2742740D02*
G01X205422Y-2789222D01*
G01X208470Y-2798366D01*
G01X214820Y-2804716D01*
G01X223964Y-2807764D01*
G01X230314D01*
G01X239458Y-2804716D01*
G01X245554Y-2798366D01*
G01X248856Y-2789222D01*
G01Y-2742740D01*
G01X279082Y-2755186D02*
G01X285178Y-2751884D01*
G01X294322Y-2742740D01*
G01Y-2807764D01*
G01X1905254Y-2950210D02*
G01X1898904Y-2944114D01*
G01X1889760Y-2941066D01*
G01X1877314D01*
G01X1867916Y-2944114D01*
G01X1861820Y-2950210D01*
G01Y-2956560D01*
G01X1864868Y-2962656D01*
G01X1867916Y-2965704D01*
G01X1874266Y-2968752D01*
G01X1892808Y-2975102D01*
G01X1898904Y-2978150D01*
G01X1901952Y-2981198D01*
G01X1905254Y-2987548D01*
G01Y-2996692D01*
G01X1898904Y-3003042D01*
G01X1889760Y-3006090D01*
G01X1877314D01*
G01X1867916Y-3003042D01*
G01X1861820Y-2996692D01*
G01X1935480Y-2941066D02*
G01X1950720Y-3006090D01*
G01X1966214Y-2941066D02*
G01X1950720Y-3006090D01*
G01X1966214Y-2941066D02*
G01X1981708Y-3006090D01*
G01X1997202Y-2941066D02*
G01X1981708Y-3006090D01*
G01X2058162Y-2941066D02*
G01X2027428Y-2984246D01*
G01X2073656D01*
G01X2058162Y-2941066D02*
G01X2058162Y-3006090D01*
G01X294322Y-4063540D02*
G01X294322Y-4110022D01*
G01X297370Y-4119166D01*
G01X303720Y-4125516D01*
G01X312864Y-4128564D01*
G01X319214D01*
G01X328358Y-4125516D01*
G01X334454Y-4119166D01*
G01X337756Y-4110022D01*
G01Y-4063540D01*
G01X398716Y-4063540D02*
G01X367982Y-4106720D01*
G01X414210D01*
G01X398716Y-4063540D02*
G01X398716Y-4128564D01*
G01X-226378Y-3949240D02*
G01X-226378Y-4014264D01*
G01X-226378Y-3949240D02*
G01X-198438Y-3949240D01*
G01X-189294Y-3952288D01*
G01X-186246Y-3955336D01*
G01X-182944Y-3961686D01*
G01Y-3967782D01*
G01X-186246Y-3973878D01*
G01X-189294Y-3976926D01*
G01X-198438Y-3980228D01*
G01X-226378D01*
G01X-204788Y-3980228D02*
G01X-182944Y-4014264D01*
G01X-115634Y-3958384D02*
G01X-118682Y-3952288D01*
G01X-128080Y-3949240D01*
G01X-134176D01*
G01X-143574Y-3952288D01*
G01X-149670Y-3961686D01*
G01X-152718Y-3976926D01*
G01Y-3992420D01*
G01X-149670Y-4004866D01*
G01X-143574Y-4011216D01*
G01X-134176Y-4014264D01*
G01X-131128D01*
G01X-121984Y-4011216D01*
G01X-115634Y-4004866D01*
G01X-112586Y-3995722D01*
G01Y-3992420D01*
G01X-115634Y-3983276D01*
G01X-121984Y-3976926D01*
G01X-131128Y-3973878D01*
G01X-134176D01*
G01X-143574Y-3976926D01*
G01X-149670Y-3983276D01*
G01X-152718Y-3992420D01*
G01X-28270Y-3831269D02*
G01X-31318Y-3824919D01*
G01X-37668Y-3818823D01*
G01X-43764Y-3815775D01*
G01X-56210D01*
G01X-62306Y-3818823D01*
G01X-68656Y-3824919D01*
G01X-71704Y-3831269D01*
G01X-74752Y-3840413D01*
G01Y-3855907D01*
G01X-71704Y-3865305D01*
G01X-68656Y-3871401D01*
G01X-62306Y-3877751D01*
G01X-56210Y-3880799D01*
G01X-43764D01*
G01X-37668Y-3877751D01*
G01X-31318Y-3871401D01*
G01X-28270Y-3865305D01*
G01X17196Y-3815775D02*
G01X8052Y-3818823D01*
G01X5004Y-3824919D01*
G01Y-3831269D01*
G01X8052Y-3837365D01*
G01X14148Y-3840413D01*
G01X26594Y-3843461D01*
G01X35992Y-3846763D01*
G01X42088Y-3852859D01*
G01X45136Y-3858955D01*
G01Y-3868353D01*
G01X42088Y-3874449D01*
G01X39040Y-3877751D01*
G01X29642Y-3880799D01*
G01X17196D01*
G01X8052Y-3877751D01*
G01X5004Y-3874449D01*
G01X1956Y-3868353D01*
G01Y-3858955D01*
G01X5004Y-3852859D01*
G01X11100Y-3846763D01*
G01X20498Y-3843461D01*
G01X32690Y-3840413D01*
G01X39040Y-3837365D01*
G01X42088Y-3831269D01*
G01Y-3824919D01*
G01X39040Y-3818823D01*
G01X29642Y-3815775D01*
G01X17196D01*
G01X-87452Y-4412675D02*
G01X-87452Y-4477699D01*
G01X-87452Y-4412675D02*
G01X-59512Y-4412675D01*
G01X-50368Y-4415723D01*
G01X-47320Y-4418771D01*
G01X-44018Y-4425121D01*
G01Y-4431217D01*
G01X-47320Y-4437313D01*
G01X-50368Y-4440361D01*
G01X-59512Y-4443663D01*
G01X-87452D01*
G01X-65862Y-4443663D02*
G01X-44018Y-4477699D01*
G01X29388Y-4412675D02*
G01X-1600Y-4477699D01*
G01X-13792Y-4412675D02*
G01X29388Y-4412675D01*
G01X1102804Y-4955334D02*
G01X1099756Y-4948984D01*
G01X1093406Y-4942888D01*
G01X1087310Y-4939840D01*
G01X1074864D01*
G01X1068768Y-4942888D01*
G01X1062418Y-4948984D01*
G01X1059370Y-4955334D01*
G01X1056322Y-4964478D01*
G01Y-4979972D01*
G01X1059370Y-4989370D01*
G01X1062418Y-4995466D01*
G01X1068768Y-5001816D01*
G01X1074864Y-5004864D01*
G01X1087310D01*
G01X1093406Y-5001816D01*
G01X1099756Y-4995466D01*
G01X1102804Y-4989370D01*
G01X1170114Y-4948984D02*
G01X1167066Y-4942888D01*
G01X1157668Y-4939840D01*
G01X1151572D01*
G01X1142174Y-4942888D01*
G01X1136078Y-4952286D01*
G01X1133030Y-4967526D01*
G01Y-4983020D01*
G01X1136078Y-4995466D01*
G01X1142174Y-5001816D01*
G01X1151572Y-5004864D01*
G01X1154620D01*
G01X1163764Y-5001816D01*
G01X1170114Y-4995466D01*
G01X1173162Y-4986322D01*
G01Y-4983020D01*
G01X1170114Y-4973876D01*
G01X1163764Y-4967526D01*
G01X1154620Y-4964478D01*
G01X1151572D01*
G01X1142174Y-4967526D01*
G01X1136078Y-4973876D01*
G01X1133030Y-4983020D01*
G01X1334948Y-5200075D02*
G01X1334948Y-5265099D01*
G01X1334948Y-5200075D02*
G01X1362888Y-5200075D01*
G01X1372032Y-5203123D01*
G01X1375080Y-5206171D01*
G01X1378382Y-5212521D01*
G01Y-5218617D01*
G01X1375080Y-5224713D01*
G01X1372032Y-5227761D01*
G01X1362888Y-5231063D01*
G01X1334948D01*
G01X1356538Y-5231063D02*
G01X1378382Y-5265099D01*
G01X1414704Y-5200075D02*
G01X1448740Y-5200075D01*
G01X1430198Y-5224713D01*
G01X1439342D01*
G01X1445692Y-5227761D01*
G01X1448740Y-5231063D01*
G01X1451788Y-5240207D01*
G01Y-5246557D01*
G01X1448740Y-5255701D01*
G01X1442644Y-5262051D01*
G01X1433246Y-5265099D01*
G01X1423848D01*
G01X1414704Y-5262051D01*
G01X1411656Y-5258749D01*
G01X1408608Y-5252653D01*
G01X1615122Y-4673140D02*
G01X1615122Y-4738164D01*
G01X1615122Y-4738164D02*
G01X1652206Y-4738164D01*
G01X1682432Y-4673140D02*
G01X1682432Y-4738164D01*
G01X1682432Y-4673140D02*
G01X1722564Y-4673140D01*
G01X1682432Y-4704128D02*
G01X1707070Y-4704128D01*
G01X1682432Y-4738164D02*
G01X1722564Y-4738164D01*
G01X1752790Y-4673140D02*
G01X1752790Y-4738164D01*
G01X1752790Y-4673140D02*
G01X1774380Y-4673140D01*
G01X1783524Y-4676188D01*
G01X1789874Y-4682284D01*
G01X1792922Y-4688634D01*
G01X1795970Y-4697778D01*
G01Y-4713272D01*
G01X1792922Y-4722670D01*
G01X1789874Y-4728766D01*
G01X1783524Y-4735116D01*
G01X1774380Y-4738164D01*
G01X1752790D01*
G01X1826196Y-4685586D02*
G01X1832292Y-4682284D01*
G01X1841436Y-4673140D01*
G01Y-4738164D01*
G01X1602422Y-4508040D02*
G01X1602422Y-4573064D01*
G01X1602422Y-4573064D02*
G01X1639506Y-4573064D01*
G01X1669732Y-4508040D02*
G01X1669732Y-4573064D01*
G01X1669732Y-4508040D02*
G01X1709864Y-4508040D01*
G01X1669732Y-4539028D02*
G01X1694370Y-4539028D01*
G01X1669732Y-4573064D02*
G01X1709864Y-4573064D01*
G01X1740090Y-4508040D02*
G01X1740090Y-4573064D01*
G01X1740090Y-4508040D02*
G01X1761680Y-4508040D01*
G01X1770824Y-4511088D01*
G01X1777174Y-4517184D01*
G01X1780222Y-4523534D01*
G01X1783270Y-4532678D01*
G01Y-4548172D01*
G01X1780222Y-4557570D01*
G01X1777174Y-4563666D01*
G01X1770824Y-4570016D01*
G01X1761680Y-4573064D01*
G01X1740090D01*
G01X1816544Y-4523534D02*
G01X1816544Y-4520486D01*
G01X1819592Y-4514136D01*
G01X1822640Y-4511088D01*
G01X1828736Y-4508040D01*
G01X1841182D01*
G01X1847532Y-4511088D01*
G01X1850580Y-4514136D01*
G01X1853628Y-4520486D01*
G01Y-4526582D01*
G01X1850580Y-4532678D01*
G01X1844230Y-4542076D01*
G01X1813496Y-4573064D01*
G01X1856676D01*
G01X1602422Y-4266740D02*
G01X1602422Y-4331764D01*
G01X1602422Y-4331764D02*
G01X1639506Y-4331764D01*
G01X1669732Y-4266740D02*
G01X1669732Y-4331764D01*
G01X1669732Y-4266740D02*
G01X1709864Y-4266740D01*
G01X1669732Y-4297728D02*
G01X1694370Y-4297728D01*
G01X1669732Y-4331764D02*
G01X1709864Y-4331764D01*
G01X1740090Y-4266740D02*
G01X1740090Y-4331764D01*
G01X1740090Y-4266740D02*
G01X1761680Y-4266740D01*
G01X1770824Y-4269788D01*
G01X1777174Y-4275884D01*
G01X1780222Y-4282234D01*
G01X1783270Y-4291378D01*
G01Y-4306872D01*
G01X1780222Y-4316270D01*
G01X1777174Y-4322366D01*
G01X1770824Y-4328716D01*
G01X1761680Y-4331764D01*
G01X1740090D01*
G01X1819592Y-4266740D02*
G01X1853628Y-4266740D01*
G01X1835086Y-4291378D01*
G01X1844230D01*
G01X1850580Y-4294426D01*
G01X1853628Y-4297728D01*
G01X1856676Y-4306872D01*
G01Y-4313222D01*
G01X1853628Y-4322366D01*
G01X1847532Y-4328716D01*
G01X1838134Y-4331764D01*
G01X1828736D01*
G01X1819592Y-4328716D01*
G01X1816544Y-4325414D01*
G01X1813496Y-4319318D01*
G01X1602422Y-4063540D02*
G01X1602422Y-4128564D01*
G01X1602422Y-4128564D02*
G01X1639506Y-4128564D01*
G01X1669732Y-4063540D02*
G01X1669732Y-4128564D01*
G01X1669732Y-4063540D02*
G01X1709864Y-4063540D01*
G01X1669732Y-4094528D02*
G01X1694370Y-4094528D01*
G01X1669732Y-4128564D02*
G01X1709864Y-4128564D01*
G01X1740090Y-4063540D02*
G01X1740090Y-4128564D01*
G01X1740090Y-4063540D02*
G01X1761680Y-4063540D01*
G01X1770824Y-4066588D01*
G01X1777174Y-4072684D01*
G01X1780222Y-4079034D01*
G01X1783270Y-4088178D01*
G01Y-4103672D01*
G01X1780222Y-4113070D01*
G01X1777174Y-4119166D01*
G01X1770824Y-4125516D01*
G01X1761680Y-4128564D01*
G01X1740090D01*
G01X1844230Y-4063540D02*
G01X1813496Y-4106720D01*
G01X1859724D01*
G01X1844230Y-4063540D02*
G01X1844230Y-4128564D01*
G01X1487348Y-4933375D02*
G01X1487348Y-4998399D01*
G01X1487348Y-4933375D02*
G01X1515288Y-4933375D01*
G01X1524432Y-4936423D01*
G01X1527480Y-4939471D01*
G01X1530782Y-4945821D01*
G01Y-4951917D01*
G01X1527480Y-4958013D01*
G01X1524432Y-4961061D01*
G01X1515288Y-4964363D01*
G01X1487348D01*
G01X1508938Y-4964363D02*
G01X1530782Y-4998399D01*
G01X1591742Y-4933375D02*
G01X1561008Y-4976555D01*
G01X1607236D01*
G01X1591742Y-4933375D02*
G01X1591742Y-4998399D01*
G01X-357696Y-3964734D02*
G01X-360744Y-3958384D01*
G01X-367094Y-3952288D01*
G01X-373190Y-3949240D01*
G01X-385636D01*
G01X-391732Y-3952288D01*
G01X-398082Y-3958384D01*
G01X-401130Y-3964734D01*
G01X-404178Y-3973878D01*
G01Y-3989372D01*
G01X-401130Y-3998770D01*
G01X-398082Y-4004866D01*
G01X-391732Y-4011216D01*
G01X-385636Y-4014264D01*
G01X-373190D01*
G01X-367094Y-4011216D01*
G01X-360744Y-4004866D01*
G01X-357696Y-3998770D01*
G01X-284290Y-3949240D02*
G01X-315278Y-4014264D01*
G01X-327470Y-3949240D02*
G01X-284290Y-3949240D01*
G01X980122Y-3936540D02*
G01X980122Y-4001564D01*
G01X980122Y-4001564D02*
G01X1017206Y-4001564D01*
G01X1050480Y-3952034D02*
G01X1050480Y-3948986D01*
G01X1053528Y-3942636D01*
G01X1056576Y-3939588D01*
G01X1062672Y-3936540D01*
G01X1075118D01*
G01X1081468Y-3939588D01*
G01X1084516Y-3942636D01*
G01X1087564Y-3948986D01*
G01Y-3955082D01*
G01X1084516Y-3961178D01*
G01X1078166Y-3970576D01*
G01X1047432Y-4001564D01*
G01X1090612D01*
G01X191948Y159325D02*
G01X191948Y94301D01*
G01X191948Y159325D02*
G01X216840Y94301D01*
G01X241478Y159325D02*
G01X216840Y94301D01*
G01X241478Y159325D02*
G01X241478Y94301D01*
G01X296342Y159325D02*
G01X271704Y94301D01*
G01X296342Y159325D02*
G01X321234Y94301D01*
G01X280848Y116145D02*
G01X311836Y116145D01*
G01X351460Y159325D02*
G01X351460Y94301D01*
G01X351460Y159325D02*
G01X379146Y159325D01*
G01X388544Y156277D01*
G01X391592Y153229D01*
G01X394640Y146879D01*
G01Y140783D01*
G01X391592Y134687D01*
G01X388544Y131639D01*
G01X379146Y128337D01*
G01X351460D01*
G01X373050Y128337D02*
G01X394640Y94301D01*
G01X424866Y159325D02*
G01X424866Y94301D01*
G01X468046Y159325D02*
G01X424866Y116145D01*
G01X440106Y131639D02*
G01X468046Y94301D01*
G01X498272Y146879D02*
G01X504368Y150181D01*
G01X513512Y159325D01*
G01Y94301D01*
G01X1779448Y-1745675D02*
G01X1779448Y-1810699D01*
G01X1779448Y-1745675D02*
G01X1804340Y-1810699D01*
G01X1828978Y-1745675D02*
G01X1804340Y-1810699D01*
G01X1828978Y-1745675D02*
G01X1828978Y-1810699D01*
G01X1883842Y-1745675D02*
G01X1859204Y-1810699D01*
G01X1883842Y-1745675D02*
G01X1908734Y-1810699D01*
G01X1868348Y-1788855D02*
G01X1899336Y-1788855D01*
G01X1938960Y-1745675D02*
G01X1938960Y-1810699D01*
G01X1938960Y-1745675D02*
G01X1966646Y-1745675D01*
G01X1976044Y-1748723D01*
G01X1979092Y-1751771D01*
G01X1982140Y-1758121D01*
G01Y-1764217D01*
G01X1979092Y-1770313D01*
G01X1976044Y-1773361D01*
G01X1966646Y-1776663D01*
G01X1938960D01*
G01X1960550Y-1776663D02*
G01X1982140Y-1810699D01*
G01X2012366Y-1745675D02*
G01X2012366Y-1810699D01*
G01X2055546Y-1745675D02*
G01X2012366Y-1788855D01*
G01X2027606Y-1773361D02*
G01X2055546Y-1810699D01*
G01X2088820Y-1761169D02*
G01X2088820Y-1758121D01*
G01X2091868Y-1751771D01*
G01X2094916Y-1748723D01*
G01X2101012Y-1745675D01*
G01X2113458D01*
G01X2119808Y-1748723D01*
G01X2122856Y-1751771D01*
G01X2125904Y-1758121D01*
G01Y-1764217D01*
G01X2122856Y-1770313D01*
G01X2116506Y-1779711D01*
G01X2085772Y-1810699D01*
G01X2128952D01*
G01X-443052Y-3549075D02*
G01X-443052Y-3614099D01*
G01X-443052Y-3549075D02*
G01X-418160Y-3614099D01*
G01X-393522Y-3549075D02*
G01X-418160Y-3614099D01*
G01X-393522Y-3549075D02*
G01X-393522Y-3614099D01*
G01X-338658Y-3549075D02*
G01X-363296Y-3614099D01*
G01X-338658Y-3549075D02*
G01X-313766Y-3614099D01*
G01X-354152Y-3592255D02*
G01X-323164Y-3592255D01*
G01X-283540Y-3549075D02*
G01X-283540Y-3614099D01*
G01X-283540Y-3549075D02*
G01X-255854Y-3549075D01*
G01X-246456Y-3552123D01*
G01X-243408Y-3555171D01*
G01X-240360Y-3561521D01*
G01Y-3567617D01*
G01X-243408Y-3573713D01*
G01X-246456Y-3576761D01*
G01X-255854Y-3580063D01*
G01X-283540D01*
G01X-261950Y-3580063D02*
G01X-240360Y-3614099D01*
G01X-210134Y-3549075D02*
G01X-210134Y-3614099D01*
G01X-166954Y-3549075D02*
G01X-210134Y-3592255D01*
G01X-194894Y-3576761D02*
G01X-166954Y-3614099D01*
G01X-130632Y-3549075D02*
G01X-96596Y-3549075D01*
G01X-115138Y-3573713D01*
G01X-105994D01*
G01X-99644Y-3576761D01*
G01X-96596Y-3580063D01*
G01X-93548Y-3589207D01*
G01Y-3595557D01*
G01X-96596Y-3604701D01*
G01X-102692Y-3611051D01*
G01X-112090Y-3614099D01*
G01X-121488D01*
G01X-130632Y-3611051D01*
G01X-133680Y-3607749D01*
G01X-136728Y-3601653D01*
G01X877748Y-5161975D02*
G01X877748Y-5226999D01*
G01X877748Y-5161975D02*
G01X902640Y-5226999D01*
G01X927278Y-5161975D02*
G01X902640Y-5226999D01*
G01X927278Y-5161975D02*
G01X927278Y-5226999D01*
G01X982142Y-5161975D02*
G01X957504Y-5226999D01*
G01X982142Y-5161975D02*
G01X1007034Y-5226999D01*
G01X966648Y-5205155D02*
G01X997636Y-5205155D01*
G01X1037260Y-5161975D02*
G01X1037260Y-5226999D01*
G01X1037260Y-5161975D02*
G01X1064946Y-5161975D01*
G01X1074344Y-5165023D01*
G01X1077392Y-5168071D01*
G01X1080440Y-5174421D01*
G01Y-5180517D01*
G01X1077392Y-5186613D01*
G01X1074344Y-5189661D01*
G01X1064946Y-5192963D01*
G01X1037260D01*
G01X1058850Y-5192963D02*
G01X1080440Y-5226999D01*
G01X1110666Y-5161975D02*
G01X1110666Y-5226999D01*
G01X1153846Y-5161975D02*
G01X1110666Y-5205155D01*
G01X1125906Y-5189661D02*
G01X1153846Y-5226999D01*
G01X1214806Y-5161975D02*
G01X1184072Y-5205155D01*
G01X1230300D01*
G01X1214806Y-5161975D02*
G01X1214806Y-5226999D01*
G01X226504Y-4878145D02*
G01X223456Y-4871795D01*
G01X217106Y-4865699D01*
G01X211010Y-4862651D01*
G01X198564D01*
G01X192468Y-4865699D01*
G01X186118Y-4871795D01*
G01X183070Y-4878145D01*
G01X180022Y-4887289D01*
G01Y-4902783D01*
G01X183070Y-4912181D01*
G01X186118Y-4918277D01*
G01X192468Y-4924627D01*
G01X198564Y-4927675D01*
G01X211010D01*
G01X217106Y-4924627D01*
G01X223456Y-4918277D01*
G01X226504Y-4912181D01*
G01X256730Y-4862651D02*
G01X256730Y-4927675D01*
G01X256730Y-4862651D02*
G01X299910Y-4927675D01*
G01X299910Y-4862651D02*
G01X299910Y-4927675D01*
G01X333184Y-4878145D02*
G01X333184Y-4875097D01*
G01X336232Y-4868747D01*
G01X339280Y-4865699D01*
G01X345376Y-4862651D01*
G01X357822D01*
G01X364172Y-4865699D01*
G01X367220Y-4868747D01*
G01X370268Y-4875097D01*
G01Y-4881193D01*
G01X367220Y-4887289D01*
G01X360870Y-4896687D01*
G01X330136Y-4927675D01*
G01X373316D01*
G54D10*
G01X-520434Y-1812313D02*
G01X-522974Y-1807233D01*
G01X-530340Y-1799867D01*
G01X-478270D01*
G01X-547002Y-512290D02*
G01X-549542Y-507210D01*
G01X-556908Y-499844D01*
G01X-504838D01*
G01X-549542Y-437614D02*
G01X-554622Y-440154D01*
G01X-556908Y-447774D01*
G01Y-452600D01*
G01X-554622Y-460220D01*
G01X-547002Y-465046D01*
G01X-534556Y-467586D01*
G01X-522110D01*
G01X-512204Y-465046D01*
G01X-507124Y-460220D01*
G01X-504838Y-452600D01*
G01Y-450060D01*
G01X-507124Y-442694D01*
G01X-512204Y-437614D01*
G01X-519570Y-435328D01*
G01X-522110D01*
G01X-529730Y-437614D01*
G01X-534556Y-442694D01*
G01X-537096Y-450060D01*
G01Y-452600D01*
G01X-534556Y-460220D01*
G01X-529730Y-465046D01*
G01X-522110Y-467586D01*
G54D11*
G01X1201420Y-70866D02*
G01X1201420Y-135890D01*
G01X1201420Y-135890D02*
G01X1238504Y-135890D01*
G01X1274826Y-70866D02*
G01X1308862Y-70866D01*
G01X1290320Y-95504D01*
G01X1299464D01*
G01X1305814Y-98552D01*
G01X1308862Y-101854D01*
G01X1311910Y-110998D01*
G01Y-117348D01*
G01X1308862Y-126492D01*
G01X1302766Y-132842D01*
G01X1293368Y-135890D01*
G01X1283970D01*
G01X1274826Y-132842D01*
G01X1271778Y-129540D01*
G01X1268730Y-123444D01*
G01X1176020Y-1988566D02*
G01X1176020Y-2053590D01*
G01X1176020Y-1988566D02*
G01X1197610Y-1988566D01*
G01X1207008Y-1991614D01*
G01X1213104Y-1997710D01*
G01X1216152Y-2004060D01*
G01X1219454Y-2013204D01*
G01Y-2028698D01*
G01X1216152Y-2038096D01*
G01X1213104Y-2044192D01*
G01X1207008Y-2050542D01*
G01X1197610Y-2053590D01*
G01X1176020D01*
G01X1249680Y-2001012D02*
G01X1255776Y-1997710D01*
G01X1264920Y-1988566D01*
G01Y-2053590D01*
G01X607504Y-2237534D02*
G01X604456Y-2231184D01*
G01X598106Y-2225088D01*
G01X592010Y-2222040D01*
G01X579564D01*
G01X573468Y-2225088D01*
G01X567118Y-2231184D01*
G01X564070Y-2237534D01*
G01X561022Y-2246678D01*
G01Y-2262172D01*
G01X564070Y-2271570D01*
G01X567118Y-2277666D01*
G01X573468Y-2284016D01*
G01X579564Y-2287064D01*
G01X592010D01*
G01X598106Y-2284016D01*
G01X604456Y-2277666D01*
G01X607504Y-2271570D01*
G01X637730Y-2234486D02*
G01X643826Y-2231184D01*
G01X652970Y-2222040D01*
G01Y-2287064D01*
G01X686244Y-2237534D02*
G01X686244Y-2234486D01*
G01X689292Y-2228136D01*
G01X692340Y-2225088D01*
G01X698436Y-2222040D01*
G01X710882D01*
G01X717232Y-2225088D01*
G01X720280Y-2228136D01*
G01X723328Y-2234486D01*
G01Y-2240582D01*
G01X720280Y-2246678D01*
G01X713930Y-2256076D01*
G01X683196Y-2287064D01*
G01X726376D01*
G01X619430Y-2065969D02*
G01X616382Y-2059619D01*
G01X610032Y-2053523D01*
G01X603936Y-2050475D01*
G01X591490D01*
G01X585394Y-2053523D01*
G01X579044Y-2059619D01*
G01X575996Y-2065969D01*
G01X572948Y-2075113D01*
G01Y-2090607D01*
G01X575996Y-2100005D01*
G01X579044Y-2106101D01*
G01X585394Y-2112451D01*
G01X591490Y-2115499D01*
G01X603936D01*
G01X610032Y-2112451D01*
G01X616382Y-2106101D01*
G01X619430Y-2100005D01*
G01X649656Y-2062921D02*
G01X655752Y-2059619D01*
G01X664896Y-2050475D01*
G01Y-2115499D01*
G01X701218Y-2050475D02*
G01X735254Y-2050475D01*
G01X716712Y-2075113D01*
G01X725856D01*
G01X732206Y-2078161D01*
G01X735254Y-2081463D01*
G01X738302Y-2090607D01*
G01Y-2096957D01*
G01X735254Y-2106101D01*
G01X729158Y-2112451D01*
G01X719760Y-2115499D01*
G01X710362D01*
G01X701218Y-2112451D01*
G01X698170Y-2109149D01*
G01X695122Y-2103053D01*
G01X-241046Y-2683510D02*
G01X-247396Y-2677414D01*
G01X-256540Y-2674366D01*
G01X-268986D01*
G01X-278384Y-2677414D01*
G01X-284480Y-2683510D01*
G01Y-2689860D01*
G01X-281432Y-2695956D01*
G01X-278384Y-2699004D01*
G01X-272034Y-2702052D01*
G01X-253492Y-2708402D01*
G01X-247396Y-2711450D01*
G01X-244348Y-2714498D01*
G01X-241046Y-2720848D01*
G01Y-2729992D01*
G01X-247396Y-2736342D01*
G01X-256540Y-2739390D01*
G01X-268986D01*
G01X-278384Y-2736342D01*
G01X-284480Y-2729992D01*
G01X-210820Y-2674366D02*
G01X-195580Y-2739390D01*
G01X-180086Y-2674366D02*
G01X-195580Y-2739390D01*
G01X-180086Y-2674366D02*
G01X-164592Y-2739390D01*
G01X-149098Y-2674366D02*
G01X-164592Y-2739390D01*
G01X-118872Y-2686812D02*
G01X-112776Y-2683510D01*
G01X-103632Y-2674366D01*
G01Y-2739390D01*
G01X1143254Y-2696210D02*
G01X1136904Y-2690114D01*
G01X1127760Y-2687066D01*
G01X1115314D01*
G01X1105916Y-2690114D01*
G01X1099820Y-2696210D01*
G01Y-2702560D01*
G01X1102868Y-2708656D01*
G01X1105916Y-2711704D01*
G01X1112266Y-2714752D01*
G01X1130808Y-2721102D01*
G01X1136904Y-2724150D01*
G01X1139952Y-2727198D01*
G01X1143254Y-2733548D01*
G01Y-2742692D01*
G01X1136904Y-2749042D01*
G01X1127760Y-2752090D01*
G01X1115314D01*
G01X1105916Y-2749042D01*
G01X1099820Y-2742692D01*
G01X1173480Y-2687066D02*
G01X1188720Y-2752090D01*
G01X1204214Y-2687066D02*
G01X1188720Y-2752090D01*
G01X1204214Y-2687066D02*
G01X1219708Y-2752090D01*
G01X1235202Y-2687066D02*
G01X1219708Y-2752090D01*
G01X1268476Y-2702560D02*
G01X1268476Y-2699512D01*
G01X1271524Y-2693162D01*
G01X1274572Y-2690114D01*
G01X1280668Y-2687066D01*
G01X1293114D01*
G01X1299464Y-2690114D01*
G01X1302512Y-2693162D01*
G01X1305560Y-2699512D01*
G01Y-2705608D01*
G01X1302512Y-2711704D01*
G01X1296162Y-2721102D01*
G01X1265428Y-2752090D01*
G01X1308608D01*
G01X1610804Y-2745534D02*
G01X1607756Y-2739184D01*
G01X1601406Y-2733088D01*
G01X1595310Y-2730040D01*
G01X1582864D01*
G01X1576768Y-2733088D01*
G01X1570418Y-2739184D01*
G01X1567370Y-2745534D01*
G01X1564322Y-2754678D01*
G01Y-2770172D01*
G01X1567370Y-2779570D01*
G01X1570418Y-2785666D01*
G01X1576768Y-2792016D01*
G01X1582864Y-2795064D01*
G01X1595310D01*
G01X1601406Y-2792016D01*
G01X1607756Y-2785666D01*
G01X1610804Y-2779570D01*
G01X1641030Y-2742486D02*
G01X1647126Y-2739184D01*
G01X1656270Y-2730040D01*
G01Y-2795064D01*
G01X1717230Y-2730040D02*
G01X1686496Y-2773220D01*
G01X1732724D01*
G01X1717230Y-2730040D02*
G01X1717230Y-2795064D01*
G01X1284148Y-678875D02*
G01X1284148Y-725357D01*
G01X1287196Y-734501D01*
G01X1293546Y-740851D01*
G01X1302690Y-743899D01*
G01X1309040D01*
G01X1318184Y-740851D01*
G01X1324280Y-734501D01*
G01X1327582Y-725357D01*
G01Y-678875D01*
G01X1394892Y-678875D02*
G01X1363904Y-678875D01*
G01X1360856Y-706561D01*
G01X1363904Y-703513D01*
G01X1373048Y-700465D01*
G01X1382446D01*
G01X1391844Y-703513D01*
G01X1397940Y-709863D01*
G01X1400988Y-719007D01*
G01Y-725357D01*
G01X1397940Y-734501D01*
G01X1391844Y-740851D01*
G01X1382446Y-743899D01*
G01X1373048D01*
G01X1363904Y-740851D01*
G01X1360856Y-737549D01*
G01X1357808Y-731453D01*
G01X-443052Y-4399975D02*
G01X-443052Y-4464999D01*
G01X-443052Y-4399975D02*
G01X-421462Y-4399975D01*
G01X-412064Y-4403023D01*
G01X-405968Y-4409119D01*
G01X-402920Y-4415469D01*
G01X-399618Y-4424613D01*
G01Y-4440107D01*
G01X-402920Y-4449505D01*
G01X-405968Y-4455601D01*
G01X-412064Y-4461951D01*
G01X-421462Y-4464999D01*
G01X-443052D01*
G01X-366344Y-4415469D02*
G01X-366344Y-4412421D01*
G01X-363296Y-4406071D01*
G01X-360248Y-4403023D01*
G01X-354152Y-4399975D01*
G01X-341706D01*
G01X-335356Y-4403023D01*
G01X-332308Y-4406071D01*
G01X-329260Y-4412421D01*
G01Y-4418517D01*
G01X-332308Y-4424613D01*
G01X-338658Y-4434011D01*
G01X-369392Y-4464999D01*
G01X-326212D01*
G01X183513Y-3113636D02*
G01X180465Y-3107286D01*
G01X174115Y-3101190D01*
G01X168019Y-3098142D01*
G01X155573D01*
G01X149477Y-3101190D01*
G01X143127Y-3107286D01*
G01X140079Y-3113636D01*
G01X137031Y-3122780D01*
G01Y-3138274D01*
G01X140079Y-3147672D01*
G01X143127Y-3153768D01*
G01X149477Y-3160118D01*
G01X155573Y-3163166D01*
G01X168019D01*
G01X174115Y-3160118D01*
G01X180465Y-3153768D01*
G01X183513Y-3147672D01*
G01X213739Y-3110588D02*
G01X219835Y-3107286D01*
G01X228979Y-3098142D01*
G01Y-3163166D01*
G01X296289Y-3098142D02*
G01X265301Y-3098142D01*
G01X262253Y-3125828D01*
G01X265301Y-3122780D01*
G01X274445Y-3119732D01*
G01X283843D01*
G01X293241Y-3122780D01*
G01X299337Y-3129130D01*
G01X302385Y-3138274D01*
G01Y-3144624D01*
G01X299337Y-3153768D01*
G01X293241Y-3160118D01*
G01X283843Y-3163166D01*
G01X274445D01*
G01X265301Y-3160118D01*
G01X262253Y-3156816D01*
G01X259205Y-3150720D01*
G01X226504Y-2428034D02*
G01X223456Y-2421684D01*
G01X217106Y-2415588D01*
G01X211010Y-2412540D01*
G01X198564D01*
G01X192468Y-2415588D01*
G01X186118Y-2421684D01*
G01X183070Y-2428034D01*
G01X180022Y-2437178D01*
G01Y-2452672D01*
G01X183070Y-2462070D01*
G01X186118Y-2468166D01*
G01X192468Y-2474516D01*
G01X198564Y-2477564D01*
G01X211010D01*
G01X217106Y-2474516D01*
G01X223456Y-2468166D01*
G01X226504Y-2462070D01*
G01X256730Y-2424986D02*
G01X262826Y-2421684D01*
G01X271970Y-2412540D01*
G01Y-2477564D01*
G01X339280Y-2421684D02*
G01X336232Y-2415588D01*
G01X326834Y-2412540D01*
G01X320738D01*
G01X311340Y-2415588D01*
G01X305244Y-2424986D01*
G01X302196Y-2440226D01*
G01Y-2455720D01*
G01X305244Y-2468166D01*
G01X311340Y-2474516D01*
G01X320738Y-2477564D01*
G01X323786D01*
G01X332930Y-2474516D01*
G01X339280Y-2468166D01*
G01X342328Y-2459022D01*
G01Y-2455720D01*
G01X339280Y-2446576D01*
G01X332930Y-2440226D01*
G01X323786Y-2437178D01*
G01X320738D01*
G01X311340Y-2440226D01*
G01X305244Y-2446576D01*
G01X302196Y-2455720D01*
G01X353504Y-3482134D02*
G01X350456Y-3475784D01*
G01X344106Y-3469688D01*
G01X338010Y-3466640D01*
G01X325564D01*
G01X319468Y-3469688D01*
G01X313118Y-3475784D01*
G01X310070Y-3482134D01*
G01X307022Y-3491278D01*
G01Y-3506772D01*
G01X310070Y-3516170D01*
G01X313118Y-3522266D01*
G01X319468Y-3528616D01*
G01X325564Y-3531664D01*
G01X338010D01*
G01X344106Y-3528616D01*
G01X350456Y-3522266D01*
G01X353504Y-3516170D01*
G01X383730Y-3479086D02*
G01X389826Y-3475784D01*
G01X398970Y-3466640D01*
G01Y-3531664D01*
G01X472376Y-3466640D02*
G01X441388Y-3531664D01*
G01X429196Y-3466640D02*
G01X472376Y-3466640D01*
G01X378904Y-3952034D02*
G01X375856Y-3945684D01*
G01X369506Y-3939588D01*
G01X363410Y-3936540D01*
G01X350964D01*
G01X344868Y-3939588D01*
G01X338518Y-3945684D01*
G01X335470Y-3952034D01*
G01X332422Y-3961178D01*
G01Y-3976672D01*
G01X335470Y-3986070D01*
G01X338518Y-3992166D01*
G01X344868Y-3998516D01*
G01X350964Y-4001564D01*
G01X363410D01*
G01X369506Y-3998516D01*
G01X375856Y-3992166D01*
G01X378904Y-3986070D01*
G01X409130Y-3948986D02*
G01X415226Y-3945684D01*
G01X424370Y-3936540D01*
G01Y-4001564D01*
G01X469836Y-3936540D02*
G01X460692Y-3939588D01*
G01X457644Y-3945684D01*
G01Y-3952034D01*
G01X460692Y-3958130D01*
G01X466788Y-3961178D01*
G01X479234Y-3964226D01*
G01X488632Y-3967528D01*
G01X494728Y-3973624D01*
G01X497776Y-3979720D01*
G01Y-3989118D01*
G01X494728Y-3995214D01*
G01X491680Y-3998516D01*
G01X482282Y-4001564D01*
G01X469836D01*
G01X460692Y-3998516D01*
G01X457644Y-3995214D01*
G01X454596Y-3989118D01*
G01Y-3979720D01*
G01X457644Y-3973624D01*
G01X463740Y-3967528D01*
G01X473138Y-3964226D01*
G01X485330Y-3961178D01*
G01X491680Y-3958130D01*
G01X494728Y-3952034D01*
G01Y-3945684D01*
G01X491680Y-3939588D01*
G01X482282Y-3936540D01*
G01X469836D01*
G01X353504Y-3710734D02*
G01X350456Y-3704384D01*
G01X344106Y-3698288D01*
G01X338010Y-3695240D01*
G01X325564D01*
G01X319468Y-3698288D01*
G01X313118Y-3704384D01*
G01X310070Y-3710734D01*
G01X307022Y-3719878D01*
G01Y-3735372D01*
G01X310070Y-3744770D01*
G01X313118Y-3750866D01*
G01X319468Y-3757216D01*
G01X325564Y-3760264D01*
G01X338010D01*
G01X344106Y-3757216D01*
G01X350456Y-3750866D01*
G01X353504Y-3744770D01*
G01X383730Y-3707686D02*
G01X389826Y-3704384D01*
G01X398970Y-3695240D01*
G01Y-3760264D01*
G01X469328Y-3716830D02*
G01X466280Y-3726228D01*
G01X459930Y-3732324D01*
G01X450786Y-3735372D01*
G01X447738D01*
G01X438340Y-3732324D01*
G01X432244Y-3726228D01*
G01X429196Y-3716830D01*
G01Y-3713782D01*
G01X432244Y-3704384D01*
G01X438340Y-3698288D01*
G01X447738Y-3695240D01*
G01X450786D01*
G01X459930Y-3698288D01*
G01X466280Y-3704384D01*
G01X469328Y-3716830D01*
G01Y-3732324D01*
G01X466280Y-3747818D01*
G01X459930Y-3757216D01*
G01X450786Y-3760264D01*
G01X444436D01*
G01X435292Y-3757216D01*
G01X432244Y-3750866D01*
G01X-1211580Y-3677666D02*
G01X-1211580Y-3724148D01*
G01X-1208532Y-3733292D01*
G01X-1202182Y-3739642D01*
G01X-1193038Y-3742690D01*
G01X-1186688D01*
G01X-1177544Y-3739642D01*
G01X-1171448Y-3733292D01*
G01X-1168146Y-3724148D01*
G01Y-3677666D01*
G01X-1094740Y-3686810D02*
G01X-1100836Y-3680714D01*
G01X-1110234Y-3677666D01*
G01X-1122680D01*
G01X-1131824Y-3680714D01*
G01X-1137920Y-3686810D01*
G01Y-3693160D01*
G01X-1134872Y-3699256D01*
G01X-1131824Y-3702304D01*
G01X-1125728Y-3705352D01*
G01X-1107186Y-3711702D01*
G01X-1100836Y-3714750D01*
G01X-1097788Y-3717798D01*
G01X-1094740Y-3724148D01*
G01Y-3733292D01*
G01X-1100836Y-3739642D01*
G01X-1110234Y-3742690D01*
G01X-1122680D01*
G01X-1131824Y-3739642D01*
G01X-1137920Y-3733292D01*
G01X-1064514Y-3677666D02*
G01X-1064514Y-3742690D01*
G01X-1064514Y-3677666D02*
G01X-1036828Y-3677666D01*
G01X-1027430Y-3680714D01*
G01X-1024382Y-3683762D01*
G01X-1021334Y-3690112D01*
G01Y-3696208D01*
G01X-1024382Y-3702304D01*
G01X-1027430Y-3705352D01*
G01X-1036828Y-3708654D01*
G01X-1064514Y-3708654D02*
G01X-1036828Y-3708654D01*
G01X-1027430Y-3711702D01*
G01X-1024382Y-3714750D01*
G01X-1021334Y-3720846D01*
G01Y-3730244D01*
G01X-1024382Y-3736340D01*
G01X-1027430Y-3739642D01*
G01X-1036828Y-3742690D01*
G01X-1064514D01*
G01X-991108Y-3690112D02*
G01X-985012Y-3686810D01*
G01X-975868Y-3677666D01*
G01Y-3742690D01*
G01X1315720Y-210566D02*
G01X1315720Y-275590D01*
G01X1315720Y-210566D02*
G01X1343660Y-210566D01*
G01X1352804Y-213614D01*
G01X1355852Y-216662D01*
G01X1359154Y-223012D01*
G01Y-229108D01*
G01X1355852Y-235204D01*
G01X1352804Y-238252D01*
G01X1343660Y-241554D01*
G01X1315720D01*
G01X1337310Y-241554D02*
G01X1359154Y-275590D01*
G01X1389380Y-223012D02*
G01X1395476Y-219710D01*
G01X1404620Y-210566D01*
G01Y-275590D01*
G01X1437894Y-226060D02*
G01X1437894Y-223012D01*
G01X1440942Y-216662D01*
G01X1443990Y-213614D01*
G01X1450086Y-210566D01*
G01X1462532D01*
G01X1468882Y-213614D01*
G01X1471930Y-216662D01*
G01X1474978Y-223012D01*
G01Y-229108D01*
G01X1471930Y-235204D01*
G01X1465580Y-244602D01*
G01X1434846Y-275590D01*
G01X1478026D01*
G01X1772920Y-197866D02*
G01X1772920Y-262890D01*
G01X1772920Y-197866D02*
G01X1800860Y-197866D01*
G01X1810004Y-200914D01*
G01X1813052Y-203962D01*
G01X1816354Y-210312D01*
G01Y-216408D01*
G01X1813052Y-222504D01*
G01X1810004Y-225552D01*
G01X1800860Y-228854D01*
G01X1772920D01*
G01X1794510Y-228854D02*
G01X1816354Y-262890D01*
G01X1846580Y-210312D02*
G01X1852676Y-207010D01*
G01X1861820Y-197866D01*
G01Y-262890D01*
G01X1922780Y-197866D02*
G01X1892046Y-241046D01*
G01X1938274D01*
G01X1922780Y-197866D02*
G01X1922780Y-262890D01*
G01X-193314Y-2559027D02*
G01X-128290Y-2559027D01*
G01X-193314Y-2559027D02*
G01X-193314Y-2531087D01*
G01X-190266Y-2521943D01*
G01X-187218Y-2518895D01*
G01X-180868Y-2515593D01*
G01X-174772D01*
G01X-168676Y-2518895D01*
G01X-165628Y-2521943D01*
G01X-162326Y-2531087D01*
G01Y-2559027D01*
G01X-162326Y-2537437D02*
G01X-128290Y-2515593D01*
G01X-180868Y-2485367D02*
G01X-184170Y-2479271D01*
G01X-193314Y-2470127D01*
G01X-128290D01*
G01X-193314Y-2402817D02*
G01X-193314Y-2433805D01*
G01X-165628Y-2436853D01*
G01X-168676Y-2433805D01*
G01X-171724Y-2424661D01*
G01Y-2415263D01*
G01X-168676Y-2405865D01*
G01X-162326Y-2399769D01*
G01X-153182Y-2396721D01*
G01X-146832D01*
G01X-137688Y-2399769D01*
G01X-131338Y-2405865D01*
G01X-128290Y-2415263D01*
G01Y-2424661D01*
G01X-131338Y-2433805D01*
G01X-134640Y-2436853D01*
G01X-140736Y-2439901D01*
G01X1557020Y-197866D02*
G01X1557020Y-262890D01*
G01X1557020Y-197866D02*
G01X1584960Y-197866D01*
G01X1594104Y-200914D01*
G01X1597152Y-203962D01*
G01X1600454Y-210312D01*
G01Y-216408D01*
G01X1597152Y-222504D01*
G01X1594104Y-225552D01*
G01X1584960Y-228854D01*
G01X1557020D01*
G01X1578610Y-228854D02*
G01X1600454Y-262890D01*
G01X1630680Y-210312D02*
G01X1636776Y-207010D01*
G01X1645920Y-197866D01*
G01Y-262890D01*
G01X1682242Y-197866D02*
G01X1716278Y-197866D01*
G01X1697736Y-222504D01*
G01X1706880D01*
G01X1713230Y-225552D01*
G01X1716278Y-228854D01*
G01X1719326Y-237998D01*
G01Y-244348D01*
G01X1716278Y-253492D01*
G01X1710182Y-259842D01*
G01X1700784Y-262890D01*
G01X1691386D01*
G01X1682242Y-259842D01*
G01X1679194Y-256540D01*
G01X1676146Y-250444D01*
G04 Text End*

G04 PolygonModel Start*
G01X-708419Y-3431314D02*
G01X-804306Y-3431314D01*
G01X-804306Y-3431314D02*
G01X-804306Y-3563435D01*
G01X-804306Y-3563435D02*
G01X-708419Y-3563435D01*
G01X-623177Y-3431314D02*
G01X-527289Y-3431314D01*
G01X-527289Y-3431314D02*
G01X-527289Y-3563435D01*
G01X-527289Y-3563435D02*
G01X-623177Y-3563435D01*
G01X-708419Y-3621814D02*
G01X-804306Y-3621814D01*
G01X-804306Y-3621814D02*
G01X-804306Y-3753935D01*
G01X-804306Y-3753935D02*
G01X-708419Y-3753935D01*
G01X-623177Y-3621814D02*
G01X-527289Y-3621814D01*
G01X-527289Y-3621814D02*
G01X-527289Y-3753935D01*
G01X-527289Y-3753935D02*
G01X-623177Y-3753935D01*
G54D12*
G01X572549Y-2778135D02*
G01X432851Y-2778130D01*
G01X544944Y-3070230D02*
G01X460466Y-3070230D01*
G01X591601Y-2892435D02*
G01X591601Y-2968630D01*
G01X2185627Y-3742506D02*
G01X2585626Y-3742506D01*
G01X2585626Y-3742506D02*
G01X2585626Y-3592107D01*
G01X2585626Y-3592107D02*
G01X2185627Y-3592107D01*
G01X1830629Y-4022107D02*
G01X1830629Y-3112108D01*
G01X1830629Y-3112108D02*
G01X2185627Y-3112108D01*
G01X2185627Y-3112108D02*
G01X2185627Y-4022107D01*
G01X2185627Y-4022107D02*
G01X1830629Y-4022107D01*
G01X771106Y-4220284D02*
G01X771106Y-4730290D01*
G01X771106Y-4730265D02*
G01X361099Y-4730265D01*
G01X361099Y-4730265D02*
G01X361099Y-4220258D01*
G01X646112Y-4220284D02*
G01X771106Y-4220284D01*
G01X486092Y-4220284D02*
G01X361099Y-4220284D01*
G01X646112Y-4225287D02*
G02X486092Y-4225287I-80010J37529D01*
G54D11*
G01X-173058Y-4276595D02*
G01X-173058Y-4372483D01*
G01X-173058Y-4372483D02*
G01X-40937Y-4372483D01*
G01X-40937Y-4372483D02*
G01X-40937Y-4276595D01*
G01X-173058Y-4191353D02*
G01X-173058Y-4095466D01*
G01X-173058Y-4095466D02*
G01X-40937Y-4095466D01*
G01X-40937Y-4095466D02*
G01X-40937Y-4191353D01*
G54D12*
G01X123479Y-4220576D02*
G01X43477Y-4220576D01*
G01X154465Y-4109601D02*
G01X154465Y-4189598D01*
G01X12499Y-4109601D02*
G01X12499Y-4189598D01*
G01X155046Y-4052011D02*
G01X155046Y-3972011D01*
G01X124064Y-3941028D02*
G01X44066Y-3941028D01*
G01X13086Y-4052011D02*
G01X13086Y-3972011D01*
G01X124064Y-3941023D02*
G02X155046Y-3972006I0J-30983D01*
G01X13081Y-3972006D02*
G02X44066Y-3941023I30983J0D01*
G01X154465Y-4189593D02*
G02X123479Y-4220576I-30983J0D01*
G01X43482Y-4220576D02*
G02X12499Y-4189593I0J30983D01*
G54D11*
G01X162263Y-4572353D02*
G01X162263Y-4476466D01*
G01X162263Y-4476466D02*
G01X30142Y-4476466D01*
G01X30142Y-4476466D02*
G01X30142Y-4572353D01*
G01X162263Y-4657595D02*
G01X162263Y-4753483D01*
G01X162263Y-4753483D02*
G01X30142Y-4753483D01*
G01X30142Y-4753483D02*
G01X30142Y-4657595D01*
G54D12*
G01X1201801Y-5112151D02*
G01X1201801Y-5032149D01*
G01X1312776Y-5143137D02*
G01X1232779Y-5143137D01*
G01X1312776Y-5001171D02*
G01X1232779Y-5001171D01*
G01X1370365Y-5143718D02*
G01X1450365Y-5143718D01*
G01X1481348Y-5112736D02*
G01X1481348Y-5032738D01*
G01X1370365Y-5001758D02*
G01X1450365Y-5001758D01*
G01X1481353Y-5112736D02*
G02X1450370Y-5143718I-30983J0D01*
G01X1450370Y-5001753D02*
G02X1481353Y-5032738I0J-30983D01*
G01X1232784Y-5143137D02*
G02X1201801Y-5112151I0J30983D01*
G01X1201801Y-5032154D02*
G02X1232784Y-5001171I30983J0D01*
G54D11*
G01X1576806Y-5291748D02*
G01X1480919Y-5291748D01*
G01X1480919Y-5291748D02*
G01X1480919Y-5423869D01*
G01X1480919Y-5423869D02*
G01X1576806Y-5423869D01*
G01X1662049Y-5291748D02*
G01X1757936Y-5291748D01*
G01X1757936Y-5291748D02*
G01X1757936Y-5423869D01*
G01X1757936Y-5423869D02*
G01X1662049Y-5423869D01*
G54D13*
G01X2056320Y-4876594D02*
G01X2055304Y-4876594D01*
G01X2055304Y-4876594D02*
G01X2022284Y-4843574D01*
G01X2056320Y-4808776D02*
G01X2056320Y-4809792D01*
G01X2056320Y-4809792D02*
G01X2022284Y-4843574D01*
G01X2056320Y-4808776D02*
G01X2056320Y-4876594D01*
G01X2058352Y-4768644D02*
G01X2173160Y-4768644D01*
G01X2058352Y-4918758D02*
G01X2173160Y-4918758D01*
G01X2173160Y-4768644D02*
G01X2173160Y-4916726D01*
G01X2020252Y-4919012D02*
G01X1915350Y-4919012D01*
G01X1885378Y-4878880D02*
G01X1885378Y-4889040D01*
G01X1885378Y-4889040D02*
G01X1915350Y-4919012D01*
G01X1885378Y-4809030D02*
G01X1885378Y-4878880D01*
G01X1885378Y-4809030D02*
G01X1885378Y-4798870D01*
G01X1885378Y-4798870D02*
G01X1915350Y-4768898D01*
G01X2020252Y-4768898D02*
G01X1915350Y-4768898D01*
G01X2056320Y-4843574D02*
G01X2022284Y-4843574D01*
G01X2056320Y-4673394D02*
G01X2055304Y-4673394D01*
G01X2055304Y-4673394D02*
G01X2022284Y-4640374D01*
G01X2056320Y-4605576D02*
G01X2056320Y-4606592D01*
G01X2056320Y-4606592D02*
G01X2022284Y-4640374D01*
G01X2056320Y-4605576D02*
G01X2056320Y-4673394D01*
G01X2058352Y-4565444D02*
G01X2173160Y-4565444D01*
G01X2058352Y-4715558D02*
G01X2173160Y-4715558D01*
G01X2173160Y-4565444D02*
G01X2173160Y-4713526D01*
G01X2020252Y-4715812D02*
G01X1915350Y-4715812D01*
G01X1885378Y-4675680D02*
G01X1885378Y-4685840D01*
G01X1885378Y-4685840D02*
G01X1915350Y-4715812D01*
G01X1885378Y-4605830D02*
G01X1885378Y-4675680D01*
G01X1885378Y-4605830D02*
G01X1885378Y-4595670D01*
G01X1885378Y-4595670D02*
G01X1915350Y-4565698D01*
G01X2020252Y-4565698D02*
G01X1915350Y-4565698D01*
G01X2056320Y-4640374D02*
G01X2022284Y-4640374D01*
G01X2056320Y-4457494D02*
G01X2055304Y-4457494D01*
G01X2055304Y-4457494D02*
G01X2022284Y-4424474D01*
G01X2056320Y-4389676D02*
G01X2056320Y-4390692D01*
G01X2056320Y-4390692D02*
G01X2022284Y-4424474D01*
G01X2056320Y-4389676D02*
G01X2056320Y-4457494D01*
G01X2058352Y-4349544D02*
G01X2173160Y-4349544D01*
G01X2058352Y-4499658D02*
G01X2173160Y-4499658D01*
G01X2173160Y-4349544D02*
G01X2173160Y-4497626D01*
G01X2020252Y-4499912D02*
G01X1915350Y-4499912D01*
G01X1885378Y-4459780D02*
G01X1885378Y-4469940D01*
G01X1885378Y-4469940D02*
G01X1915350Y-4499912D01*
G01X1885378Y-4389930D02*
G01X1885378Y-4459780D01*
G01X1885378Y-4389930D02*
G01X1885378Y-4379770D01*
G01X1885378Y-4379770D02*
G01X1915350Y-4349798D01*
G01X2020252Y-4349798D02*
G01X1915350Y-4349798D01*
G01X2056320Y-4424474D02*
G01X2022284Y-4424474D01*
G01X2056320Y-4241594D02*
G01X2055304Y-4241594D01*
G01X2055304Y-4241594D02*
G01X2022284Y-4208574D01*
G01X2056320Y-4173776D02*
G01X2056320Y-4174792D01*
G01X2056320Y-4174792D02*
G01X2022284Y-4208574D01*
G01X2056320Y-4173776D02*
G01X2056320Y-4241594D01*
G01X2058352Y-4133644D02*
G01X2173160Y-4133644D01*
G01X2058352Y-4283758D02*
G01X2173160Y-4283758D01*
G01X2173160Y-4133644D02*
G01X2173160Y-4281726D01*
G01X2020252Y-4284012D02*
G01X1915350Y-4284012D01*
G01X1885378Y-4243880D02*
G01X1885378Y-4254040D01*
G01X1885378Y-4254040D02*
G01X1915350Y-4284012D01*
G01X1885378Y-4174030D02*
G01X1885378Y-4243880D01*
G01X1885378Y-4174030D02*
G01X1885378Y-4163870D01*
G01X1885378Y-4163870D02*
G01X1915350Y-4133898D01*
G01X2020252Y-4133898D02*
G01X1915350Y-4133898D01*
G01X2056320Y-4208574D02*
G01X2022284Y-4208574D01*
G54D11*
G01X1654967Y-5095630D02*
G01X1654967Y-5191517D01*
G01X1654967Y-5191517D02*
G01X1787088Y-5191517D01*
G01X1787088Y-5191517D02*
G01X1787088Y-5095630D01*
G01X1654967Y-5010387D02*
G01X1654967Y-4914500D01*
G01X1654967Y-4914500D02*
G01X1787088Y-4914500D01*
G01X1787088Y-4914500D02*
G01X1787088Y-5010387D01*
G54D12*
G01X-257521Y-4372976D02*
G01X-337523Y-4372976D01*
G01X-226535Y-4262001D02*
G01X-226535Y-4341998D01*
G01X-368501Y-4262001D02*
G01X-368501Y-4341998D01*
G01X-225954Y-4204411D02*
G01X-225954Y-4124411D01*
G01X-256936Y-4093428D02*
G01X-336934Y-4093428D01*
G01X-367914Y-4204411D02*
G01X-367914Y-4124411D01*
G01X-256936Y-4093423D02*
G02X-225954Y-4124406I0J-30983D01*
G01X-367919Y-4124406D02*
G02X-336934Y-4093423I30983J0D01*
G01X-226535Y-4341993D02*
G02X-257521Y-4372976I-30983J0D01*
G01X-337518Y-4372976D02*
G02X-368501Y-4341993I0J30983D01*
G01X1536217Y-4125275D02*
G01X1658102Y-4125275D01*
G01X1658102Y-4125275D02*
G01X1658102Y-4823275D01*
G01X1658102Y-4823275D02*
G01X1656103Y-4825274D01*
G01X1119987Y-4825274D02*
G01X998103Y-4825274D01*
G01X998103Y-4825274D02*
G01X998103Y-4126276D01*
G01X998103Y-4126276D02*
G01X998103Y-4125275D01*
G01X998103Y-4125275D02*
G01X1119987Y-4125275D01*
G01X1658102Y-4825274D02*
G01X1536217Y-4825274D01*
G01X325717Y-5519572D02*
G01X679488Y-5519572D01*
G01X700715Y-5089576D02*
G01X820102Y-5089576D01*
G01X820102Y-5089576D02*
G01X820102Y-5246461D01*
G01X304490Y-5089576D02*
G01X185102Y-5089576D01*
G01X185102Y-5089576D02*
G01X185102Y-5246461D01*
G01X404490Y-5089576D02*
G01X400718Y-5089576D01*
G01X504487Y-5089576D02*
G01X500715Y-5089576D01*
G01X604487Y-5089576D02*
G01X600715Y-5089576D01*
G01X-488005Y-1922574D02*
G01X-1192891Y-1922473D01*
G01X-483718Y-322473D02*
G01X-1200704Y-322273D01*
G01X1149398Y-322473D02*
G01X1199395Y-322473D01*
G01X1149398Y-1922475D02*
G01X1199395Y-1922475D01*
G01X1199395Y-1922475D02*
G01X1199395Y-322473D01*
G01X-1200605Y-1922475D02*
G01X-1200605Y-322473D01*
G01X1149398Y-322473D02*
G01X1082512Y-322473D01*
G01X916284Y-322473D02*
G01X882513Y-322473D01*
G01X716285Y-322473D02*
G01X682518Y-322473D01*
G01X516283Y-322473D02*
G01X482511Y-322473D01*
G01X316283Y-322473D02*
G01X282511Y-322473D01*
G01X116289Y-322473D02*
G01X82512Y-322473D01*
G01X-83716Y-322473D02*
G01X-117488Y-322473D01*
G01X-283718Y-322473D02*
G01X-317488Y-322473D01*
G01X1149398Y-1922475D02*
G01X1082512Y-1922475D01*
G01X916284Y-1922475D02*
G01X882513Y-1922475D01*
G01X716285Y-1922475D02*
G01X682518Y-1922475D01*
G01X516283Y-1922475D02*
G01X482511Y-1922475D01*
G01X316283Y-1922475D02*
G01X282511Y-1922475D01*
G01X116289Y-1922475D02*
G01X82512Y-1922475D01*
G01X-83716Y-1922475D02*
G01X-117488Y-1922475D01*
G01X-283718Y-1922475D02*
G01X-317488Y-1922475D01*
G54D14*
G01X-650703Y-1772463D02*
G01X-1100537Y-1772463D01*
G01X-1100537Y-1772463D02*
G01X-1100537Y-1422451D01*
G01X-1100537Y-1422451D02*
G01X-800560Y-1422451D01*
G01X-800560Y-1422451D02*
G01X-800560Y-1172512D01*
G01X-800560Y-1172512D02*
G01X-1100537Y-1172512D01*
G01X-1100537Y-1172512D02*
G01X-1100537Y-922574D01*
G01X-1100537Y-922574D02*
G01X-800560Y-922574D01*
G01X-800560Y-922574D02*
G01X-800560Y-672386D01*
G01X-800560Y-672386D02*
G01X-1100537Y-672386D01*
G01X-1100603Y-672473D02*
G01X-1100603Y-422473D01*
G01X-1100603Y-422473D02*
G01X-750603Y-422473D01*
G01X-1100537Y-1615511D02*
G01X-600604Y-1615511D01*
G54D11*
G01X1162782Y-2441321D02*
G01X1162111Y-2417397D01*
G54D15*
G01X1475199Y-2267600D02*
G01X1422400Y-2298700D01*
G54D11*
G01X1682018Y-2156079D02*
G01X1682689Y-2180003D01*
G01X1681726Y-2416261D02*
G01X1682397Y-2440186D01*
G54D15*
G01X1498199Y-2297600D02*
G01X1349200Y-2297600D01*
G54D11*
G01X1163074Y-2181139D02*
G01X1162403Y-2157214D01*
G54D15*
G01X1365199Y-2328598D02*
G01X1422400Y-2298700D01*
G01X1422400Y-2298700D02*
G01X1422400Y-2336800D01*
G01X1481198Y-2327600D02*
G01X1422400Y-2298700D01*
G01X1422400Y-2298700D02*
G01X1422400Y-2260600D01*
G01X1368199Y-2268598D02*
G01X1422400Y-2298700D01*
G01X1481198Y-2327600D02*
G01X1481198Y-2267600D01*
G01X1365199Y-2328598D02*
G01X1365199Y-2268598D01*
G54D11*
G01X1682018Y-2441321D02*
G01X1162782Y-2441321D01*
G01X1682018Y-2156079D02*
G01X1162782Y-2156079D01*
G54D12*
G01X1048004Y-2314397D02*
G01X1048004Y-2394400D01*
G01X937029Y-2283412D02*
G01X1017026Y-2283412D01*
G01X937029Y-2425377D02*
G01X1017026Y-2425377D01*
G01X879439Y-2282830D02*
G01X799439Y-2282830D01*
G01X768456Y-2313813D02*
G01X768456Y-2393810D01*
G01X879439Y-2424791D02*
G01X799439Y-2424791D01*
G01X768451Y-2313813D02*
G02X799434Y-2282830I30983J0D01*
G01X799434Y-2424796D02*
G02X768451Y-2393810I0J30983D01*
G01X1017021Y-2283412D02*
G02X1048004Y-2314397I0J-30983D01*
G01X1048004Y-2394394D02*
G02X1017021Y-2425377I-30983J0D01*
G01X1048004Y-2111197D02*
G01X1048004Y-2191200D01*
G01X937029Y-2080212D02*
G01X1017026Y-2080212D01*
G01X937029Y-2222177D02*
G01X1017026Y-2222177D01*
G01X879439Y-2079630D02*
G01X799439Y-2079630D01*
G01X768456Y-2110613D02*
G01X768456Y-2190610D01*
G01X879439Y-2221591D02*
G01X799439Y-2221591D01*
G01X768451Y-2110613D02*
G02X799434Y-2079630I30983J0D01*
G01X799434Y-2221596D02*
G02X768451Y-2190610I0J30983D01*
G01X1017021Y-2080212D02*
G02X1048004Y-2111197I0J-30983D01*
G01X1048004Y-2191194D02*
G02X1017021Y-2222177I-30983J0D01*
G01X-376758Y-3171885D02*
G01X-376758Y-2981893D01*
G01X-376758Y-2981893D02*
G01X-286588Y-2891723D01*
G01X-286588Y-2891723D02*
G01X-106756Y-2891723D01*
G01X-106756Y-2891723D02*
G01X-6680Y-2991799D01*
G01X-6680Y-2991799D02*
G01X-6680Y-3161725D01*
G01X-6680Y-3161725D02*
G01X-96850Y-3251895D01*
G01X-96850Y-3251895D02*
G01X-296748Y-3251895D01*
G01X-296748Y-3251895D02*
G01X-376758Y-3171885D01*
G01X-451688Y-2944301D02*
G01X-362181Y-2854794D01*
G01X-313512Y-2816793D02*
G01X-79832Y-2816793D01*
G01X-31164Y-2854794D02*
G01X58344Y-2944301D01*
G01X-313512Y-3326825D02*
G01X-79832Y-3326825D01*
G01X-31164Y-3288824D02*
G01X58344Y-3199317D01*
G01X-451688Y-3199317D02*
G01X-362181Y-3288824D01*
G01X58344Y-3199317D02*
G01X58344Y-2944301D01*
G01X-451688Y-3199317D02*
G01X-451688Y-2944301D01*
G01X1380414Y-2971733D02*
G01X1380414Y-3161725D01*
G01X1380414Y-3161725D02*
G01X1290244Y-3251895D01*
G01X1290244Y-3251895D02*
G01X1110412Y-3251895D01*
G01X1110412Y-3251895D02*
G01X1010336Y-3151819D01*
G01X1010336Y-3151819D02*
G01X1010336Y-2981893D01*
G01X1010336Y-2981893D02*
G01X1100506Y-2891723D01*
G01X1100506Y-2891723D02*
G01X1300404Y-2891723D01*
G01X1300404Y-2891723D02*
G01X1380414Y-2971733D01*
G01X1455344Y-3199317D02*
G01X1365836Y-3288824D01*
G01X1317168Y-3326825D02*
G01X1083488Y-3326825D01*
G01X1034819Y-3288824D02*
G01X945312Y-3199317D01*
G01X1317168Y-2816793D02*
G01X1083488Y-2816793D01*
G01X1034819Y-2854794D02*
G01X945312Y-2944301D01*
G01X1455344Y-2944301D02*
G01X1365836Y-2854794D01*
G01X945312Y-2944301D02*
G01X945312Y-3199317D01*
G01X1455344Y-2944301D02*
G01X1455344Y-3199317D01*
G01X1631025Y-2850373D02*
G01X1711028Y-2850373D01*
G01X1600040Y-2961348D02*
G01X1600040Y-2881351D01*
G01X1742005Y-2961348D02*
G01X1742005Y-2881351D01*
G01X1599458Y-3018937D02*
G01X1599458Y-3098937D01*
G01X1630441Y-3129920D02*
G01X1710438Y-3129920D01*
G01X1741419Y-3018937D02*
G01X1741419Y-3098937D01*
G01X1630441Y-3129925D02*
G02X1599458Y-3098942I0J30983D01*
G01X1741424Y-3098942D02*
G02X1710438Y-3129925I-30983J0D01*
G01X1600040Y-2881356D02*
G02X1631025Y-2850373I30983J0D01*
G01X1711022Y-2850373D02*
G02X1742005Y-2881356I0J-30983D01*
G54D17*
G01X1446408Y-1120140D02*
G01X1446408Y-1126482D01*
G01X1446408Y-1126482D02*
G01X1556707Y-1236782D01*
G01X1556707Y-1236782D02*
G01X1446408Y-1236782D01*
G01X1460990Y-1359781D02*
G01X1446408Y-1359781D01*
G01X1446408Y-1359781D02*
G01X1446408Y-859782D01*
G01X1446408Y-859782D02*
G01X1460990Y-859782D01*
G01X1931820Y-859782D02*
G01X1946407Y-859782D01*
G01X1771845Y-859782D02*
G01X1780989Y-859782D01*
G01X1611820Y-859782D02*
G01X1621015Y-859782D01*
G01X1621015Y-1359781D02*
G01X1611820Y-1359781D01*
G01X1780989Y-1359781D02*
G01X1771845Y-1359781D01*
G01X1946407Y-859782D02*
G01X1946407Y-1359781D01*
G01X1946407Y-1359781D02*
G01X1931820Y-1359781D01*
G36*
G01X1556707Y-1236782D02*
G01X1446408Y-1236782D01*
G01Y-1135182D01*
G01X1556707Y-1236782D01*
G37*
G54D11*
G01X-377393Y-4564790D02*
G01X-353469Y-4564120D01*
G54D15*
G01X-203673Y-4877208D02*
G01X-234772Y-4824409D01*
G54D11*
G01X-92151Y-5084027D02*
G01X-116076Y-5084698D01*
G01X-352334Y-5083735D02*
G01X-376258Y-5084406D01*
G54D15*
G01X-233673Y-4900207D02*
G01X-233673Y-4751208D01*
G54D11*
G01X-117211Y-4565082D02*
G01X-93287Y-4564412D01*
G54D15*
G01X-264671Y-4767208D02*
G01X-234772Y-4824409D01*
G01X-234772Y-4824409D02*
G01X-272872Y-4824409D01*
G01X-263673Y-4883207D02*
G01X-234772Y-4824409D01*
G01X-234772Y-4824409D02*
G01X-196672Y-4824409D01*
G01X-204671Y-4770208D02*
G01X-234772Y-4824409D01*
G01X-263673Y-4883207D02*
G01X-203673Y-4883207D01*
G01X-264671Y-4767208D02*
G01X-204671Y-4767208D01*
G54D11*
G01X-377393Y-5084027D02*
G01X-377393Y-4564790D01*
G01X-92151Y-5084027D02*
G01X-92151Y-4564790D01*
G54D12*
G01X363601Y-3283351D02*
G01X363601Y-3203349D01*
G01X474576Y-3314337D02*
G01X394579Y-3314337D01*
G01X474576Y-3172371D02*
G01X394579Y-3172371D01*
G01X532165Y-3314918D02*
G01X612165Y-3314918D01*
G01X643148Y-3283936D02*
G01X643148Y-3203938D01*
G01X532165Y-3172958D02*
G01X612165Y-3172958D01*
G01X643153Y-3283936D02*
G02X612170Y-3314918I-30983J0D01*
G01X612170Y-3172953D02*
G02X643153Y-3203938I0J-30983D01*
G01X394584Y-3314337D02*
G02X363601Y-3283351I0J30983D01*
G01X363601Y-3203354D02*
G02X394584Y-3172371I30983J0D01*
G01X641604Y-2555697D02*
G01X641604Y-2635700D01*
G01X530629Y-2524712D02*
G01X610626Y-2524712D01*
G01X530629Y-2666677D02*
G01X610626Y-2666677D01*
G01X473039Y-2524130D02*
G01X393039Y-2524130D01*
G01X362056Y-2555113D02*
G01X362056Y-2635110D01*
G01X473039Y-2666091D02*
G01X393039Y-2666091D01*
G01X362051Y-2555113D02*
G02X393034Y-2524130I30983J0D01*
G01X393034Y-2666096D02*
G02X362051Y-2635110I0J30983D01*
G01X610621Y-2524712D02*
G02X641604Y-2555697I0J-30983D01*
G01X641604Y-2635694D02*
G02X610621Y-2666677I-30983J0D01*
G54D18*
G01X863282Y-3584707D02*
G01X548322Y-3584707D01*
G01X865822Y-3744727D02*
G01X545782Y-3744727D01*
G01X738152Y-3584707D02*
G01X737778Y-3744727D01*
G01X863282Y-3991107D02*
G01X548322Y-3991107D01*
G01X865822Y-4151127D02*
G01X545782Y-4151127D01*
G01X738152Y-3991107D02*
G01X737778Y-4151127D01*
G01X863282Y-3787907D02*
G01X548322Y-3787907D01*
G01X865822Y-3947927D02*
G01X545782Y-3947927D01*
G01X738152Y-3787907D02*
G01X737778Y-3947927D01*
G54D12*
G01X-1229899Y-4012575D02*
G01X-1229899Y-4912573D01*
G01X-546799Y-4805690D02*
G01X-546799Y-4871461D01*
G01X-546799Y-4053688D02*
G01X-546799Y-4119461D01*
G01X-856783Y-4912573D02*
G01X-663011Y-4912573D01*
G01X-1229899Y-4912573D02*
G01X-1043011Y-4912573D01*
G01X-856783Y-4012575D02*
G01X-663011Y-4012575D01*
G01X-1229899Y-4012575D02*
G01X-1043011Y-4012575D01*
G54D11*
G01X1602760Y-427279D02*
G01X1602760Y-331391D01*
G01X1602760Y-331391D02*
G01X1470640Y-331391D01*
G01X1470640Y-331391D02*
G01X1470640Y-427279D01*
G01X1602760Y-512521D02*
G01X1602760Y-608409D01*
G01X1602760Y-608409D02*
G01X1470640Y-608409D01*
G01X1470640Y-608409D02*
G01X1470640Y-512521D01*
G01X1767860Y-427279D02*
G01X1767860Y-331391D01*
G01X1767860Y-331391D02*
G01X1635740Y-331391D01*
G01X1635740Y-331391D02*
G01X1635740Y-427279D01*
G01X1767860Y-512521D02*
G01X1767860Y-608409D01*
G01X1767860Y-608409D02*
G01X1635740Y-608409D01*
G01X1635740Y-608409D02*
G01X1635740Y-512521D01*
G01X1920260Y-427279D02*
G01X1920260Y-331391D01*
G01X1920260Y-331391D02*
G01X1788140Y-331391D01*
G01X1788140Y-331391D02*
G01X1788140Y-427279D01*
G01X1920260Y-512521D02*
G01X1920260Y-608409D01*
G01X1920260Y-608409D02*
G01X1788140Y-608409D01*
G01X1788140Y-608409D02*
G01X1788140Y-512521D01*
G01X53360Y-2377897D02*
G01X53360Y-2282010D01*
G01X53360Y-2282010D02*
G01X-78760Y-2282010D01*
G01X-78760Y-2282010D02*
G01X-78760Y-2377897D01*
G01X53360Y-2463140D02*
G01X53360Y-2559027D01*
G01X53360Y-2559027D02*
G01X-78760Y-2559027D01*
G01X-78760Y-2559027D02*
G01X-78760Y-2463140D01*
G04 PolygonModel End*

G04 Rect Start*
G54D12*
G01X-500596Y-1672460D02*
G01X999401Y-1672460D01*
G01Y-572463D01*
G01X-500596D01*
G01Y-1672460D01*
G04 Rect End*

G04 Circle Start*
G01X299072Y-4172278D02*
G03X333108Y-4172278I17018J0D01*
G03X299072I-17018J0D01*
G01X236898Y-5019584D02*
G03X291305Y-5019584I27203J0D01*
G03X236898I-27203J0D01*
G01X-324180Y-3071809D02*
G03X-69164Y-3071809I127508J0D01*
G03X-324180I-127508J0D01*
G01X1072820Y-3071809D02*
G03X1327836Y-3071809I127508J0D01*
G03X1072820I-127508J0D01*
G54D17*
G01X1566430Y-1109787D02*
G03X1826425Y-1109787I129997J0D01*
G03X1566430I-129997J0D01*
G04 Circle End*

M02*
