G04 Layer: TopSolderMaskLayer*
G04 EasyEDA Pro v2.1.64.d1969c9c.217bcf, 2024-11-09 23:40:01*
G04 Gerber Generator version 0.3*
G04 Scale: 100 percent, Rotated: No, Reflected: No*
G04 Dimensions in millimeters*
G04 Leading zeros omitted, absolute positions, 3 integers and 5 decimals*
%FSLAX35Y35*%
%MOMM*%
%AMRoundRect*1,1,$1,$2,$3*1,1,$1,$4,$5*1,1,$1,0-$2,0-$3*1,1,$1,0-$4,0-$5*20,1,$1,$2,$3,$4,$5,0*20,1,$1,$4,$5,0-$2,0-$3,0*20,1,$1,0-$2,0-$3,0-$4,0-$5,0*20,1,$1,0-$4,0-$5,$2,$3,0*4,1,4,$2,$3,$4,$5,0-$2,0-$3,0-$4,0-$5,$2,$3,0*%
%ADD10RoundRect,0.09138X0.40835X-0.43712X-0.40835X-0.43712*%
%ADD11RoundRect,0.08752X0.50625X0.30625X0.50625X-0.30625*%
%ADD12RoundRect,0.09302X-0.95429X-0.50429X-0.95429X0.50429*%
%ADD13RoundRect,0.08875X0.60642X0.30643X0.60642X-0.30643*%
%ADD14RoundRect,0.09691X-1.00234X-1.00234X-1.00234X1.00234*%
%ADD15RoundRect,0.09138X0.43712X0.40835X0.43712X-0.40835*%
%ADD16RoundRect,0.09131X0.45514X0.40514X0.45514X-0.40514*%
%ADD17RoundRect,0.09138X-0.43712X-0.40835X-0.43712X0.40835*%
%ADD18RoundRect,0.09131X0.40514X-0.45514X-0.40514X-0.45514*%
%ADD19RoundRect,0.09131X-0.40519X-0.40519X-0.40519X0.40519*%
%ADD20RoundRect,0.09763X1.60198X1.20198X1.60198X-1.20198*%
%ADD21C,2.0*%
%ADD22RoundRect,0.09286X-0.60357X1.25357X0.60357X1.25357*%
%ADD23RoundRect,0.08571X-0.25714X0.85714X0.25714X0.85714*%
%ADD24RoundRect,0.09288X0.60357X-1.00357X-0.60357X-1.00357*%
%ADD25RoundRect,0.09288X-0.60357X1.00357X0.60357X1.00357*%
%ADD26RoundRect,0.09802X-2.401X2.401X2.401X2.401*%
%ADD27RoundRect,0.09691X-1.00234X1.00234X1.00234X1.00234*%
%ADD28RoundRect,0.09131X-0.40514X0.45514X0.40514X0.45514*%
%ADD29RoundRect,0.09302X-0.50429X-0.85429X-0.50429X0.85429*%
%ADD30RoundRect,0.09302X0.50429X0.85429X0.50429X-0.85429*%
%ADD31RoundRect,0.09131X-0.45514X-0.40514X-0.45514X0.40514*%
%ADD32RoundRect,0.09368X0.55396X0.85396X0.55396X-0.85396*%
%ADD33RoundRect,0.09691X1.00234X1.00234X1.00234X-1.00234*%
%ADD34RoundRect,0.09499X0.7533X-0.68275X-0.7533X-0.68275*%
%ADD35RoundRect,0.09224X0.75468X0.45468X0.75468X-0.45468*%
%ADD36RoundRect,0.09131X0.75514X0.40514X0.75514X-0.40514*%
%ADD37RoundRect,0.09017X0.75571X0.35571X0.75571X-0.35571*%
%ADD38RoundRect,0.09302X0.50429X1.10429X0.50429X-1.10429*%
%ADD39RoundRect,0.09516X-0.70322X1.00322X0.70322X1.00322*%
G75*


G04 Pad Start*
G54D10*
G01X-741134Y-3497374D03*
G01X-590461Y-3497374D03*
G01X-741134Y-3687874D03*
G01X-590461Y-3687874D03*
G54D11*
G01X392699Y-2930520D03*
G01X392699Y-3025516D03*
G01X392699Y-2835549D03*
G01X612714Y-3025541D03*
G01X612714Y-2835524D03*
G54D12*
G01X1695628Y-3317109D03*
G01X1695628Y-3567121D03*
G01X1695628Y-3817108D03*
G54D13*
G01X275272Y-4284774D03*
G01X275272Y-4411774D03*
G01X275272Y-4538774D03*
G01X275272Y-4665774D03*
G01X856932Y-4665774D03*
G01X856932Y-4538774D03*
G01X856932Y-4411774D03*
G01X856932Y-4284774D03*
G54D14*
G01X566102Y-4475274D03*
G54D15*
G01X-106998Y-4309311D03*
G01X-106998Y-4158638D03*
G54D16*
G01X83502Y-4151577D03*
G01X83502Y-4011572D03*
G54D17*
G01X96202Y-4539638D03*
G01X96202Y-4690311D03*
G54D18*
G01X1270800Y-5072174D03*
G01X1410805Y-5072174D03*
G54D10*
G01X1544091Y-5357809D03*
G01X1694764Y-5357809D03*
G54D19*
G01X1954212Y-4844590D03*
G01X2114232Y-4844082D03*
G01X1954212Y-4641390D03*
G01X2114232Y-4640882D03*
G01X1954212Y-4425490D03*
G01X2114232Y-4424982D03*
G01X1954212Y-4209590D03*
G01X2114232Y-4209082D03*
G54D15*
G01X1721028Y-5128345D03*
G01X1721028Y-4977672D03*
G54D16*
G01X-297498Y-4303977D03*
G01X-297498Y-4163972D03*
G54D20*
G01X1328102Y-4175285D03*
G01X1328102Y-4775284D03*
G54D21*
G01X0Y0D03*
G01X1929651Y-1993900D03*
G01X-288021Y-3759200D03*
G01X1055779Y-5372100D03*
G54D22*
G01X242613Y-5394564D03*
G54D23*
G01X652594Y-5054585D03*
G01X552595Y-5054585D03*
G01X452595Y-5054585D03*
G01X352595Y-5054585D03*
G54D22*
G01X762602Y-5394564D03*
G54D24*
G01X-400596Y-1922473D03*
G01X-200597Y-1922473D03*
G01X-597Y-1922473D03*
G01X199402Y-1922473D03*
G01X399402Y-1922473D03*
G01X599402Y-1922473D03*
G01X799401Y-1922473D03*
G01X999401Y-1922473D03*
G54D25*
G01X999401Y-322476D03*
G01X799401Y-322476D03*
G01X599402Y-322476D03*
G01X399402Y-322476D03*
G01X199402Y-322476D03*
G01X-597Y-322476D03*
G01X-200597Y-322476D03*
G01X-400596Y-322476D03*
G54D26*
G01X174401Y-1257483D03*
G54D27*
G01X1202411Y-2298700D03*
G01X1642389Y-2298700D03*
G54D28*
G01X979005Y-2354374D03*
G01X839000Y-2354374D03*
G01X979005Y-2151174D03*
G01X839000Y-2151174D03*
G54D29*
G01X-381691Y-3401805D03*
G01X-381694Y-2741812D03*
G01X-11651Y-3401805D03*
G01X-11654Y-2741812D03*
G54D30*
G01X1385346Y-2741812D03*
G01X1385349Y-3401805D03*
G01X1015306Y-2741812D03*
G01X1015309Y-3401805D03*
G54D31*
G01X1671002Y-2919372D03*
G01X1671002Y-3059377D03*
G54D32*
G01X1856397Y-859775D03*
G01X1696428Y-859775D03*
G01X1536408Y-859775D03*
G01X1856397Y-1359774D03*
G01X1696428Y-1359774D03*
G01X1536408Y-1359774D03*
G54D33*
G01X-234772Y-4604419D03*
G01X-234772Y-5044398D03*
G54D18*
G01X432600Y-3243374D03*
G01X572605Y-3243374D03*
G54D28*
G01X572605Y-2595674D03*
G01X432600Y-2595674D03*
G54D34*
G01X825792Y-3664717D03*
G01X585813Y-3664717D03*
G01X825792Y-4071117D03*
G01X585813Y-4071117D03*
G01X825792Y-3867917D03*
G01X585813Y-3867917D03*
G54D35*
G01X-536639Y-4187568D03*
G01X-536639Y-4737580D03*
G54D36*
G01X-536639Y-4310581D03*
G01X-536639Y-4614568D03*
G54D37*
G01X-536639Y-4412562D03*
G01X-536639Y-4512587D03*
G54D38*
G01X-589903Y-3935651D03*
G01X-589903Y-4989497D03*
G54D39*
G01X-949897Y-3930571D03*
G01X-949897Y-4994577D03*
G54D17*
G01X1536700Y-394564D03*
G01X1536700Y-545236D03*
G01X1701800Y-394564D03*
G01X1701800Y-545236D03*
G01X1854200Y-394564D03*
G01X1854200Y-545236D03*
G01X-12700Y-2345182D03*
G01X-12700Y-2495855D03*
G04 Pad End*

M02*
