G04 Layer: TopLayer*
G04 EasyEDA Pro v2.1.64.d1969c9c.217bcf, 2024-11-09 23:40:01*
G04 Gerber Generator version 0.3*
G04 Scale: 100 percent, Rotated: No, Reflected: No*
G04 Dimensions in millimeters*
G04 Leading zeros omitted, absolute positions, 3 integers and 5 decimals*
%FSLAX35Y35*%
%MOMM*%
%ADD8191C,0.2032*%
%ADD10C,0.254*%
%ADD11R,0.80648X0.86401*%
%ADD12R,1.0X0.6*%
%ADD13R,1.9X1.0*%
%ADD14R,1.2X0.6*%
%ADD15R,2.0X2.0*%
%ADD16R,0.86401X0.80648*%
%ADD17R,0.9X0.8*%
%ADD18R,0.8631X0.80648*%
%ADD19R,0.86401X0.80648*%
%ADD20R,0.8X0.9*%
%ADD21R,0.8001X0.8001*%
%ADD22R,3.19999X2.4*%
%ADD23C,1.0*%
%ADD24R,1.2X2.49999*%
%ADD25R,0.5X1.7*%
%ADD26R,1.2X2.0*%
%ADD27R,1.2X2.0*%
%ADD28R,4.79999X4.79999*%
%ADD29R,2.0X2.0*%
%ADD30R,0.8X0.9*%
%ADD31R,1.0X1.7*%
%ADD32R,1.0X1.7*%
%ADD33R,0.9X0.8*%
%ADD34R,1.1X1.7*%
%ADD35R,2.0X2.0*%
%ADD36R,1.5X1.3589*%
%ADD37R,1.5X0.9*%
%ADD38R,1.5X0.8*%
%ADD39R,1.5X0.7*%
%ADD40R,1.0X2.2*%
%ADD41R,1.4X2.0*%
%ADD42C,0.61*%
%ADD43C,0.8*%
%ADD44C,0.6096*%
%ADD45C,0.5*%
%ADD46C,0.2554*%
%ADD47C,0.3*%
G75*


G04 Copper Start*
G36*
G01X666788Y-5519564D02*
G03X666940Y-5522860I35814J0D01*
G01X338275D01*
G03X338427Y-5519564I-35662J3297D01*
G01Y-5269564D01*
G03X302613Y-5233750I-35814J0D01*
G01X182613D01*
G03X146799Y-5269564I0J-35814D01*
G01Y-5519564D01*
G03X146951Y-5522860I35814J0D01*
G01X-1049998D01*
G02X-1214184Y-5358674I0J164186D01*
G01Y-5358660D01*
G01X-1214945Y-3348923D01*
G01X-590372D01*
G03X-554558Y-3313109I0J35814D01*
G01Y-287262D01*
G01Y25117D01*
G03X-553784Y32526I-35039J7409D01*
G02X-389598Y196712I164186J0D01*
G01X2050002D01*
G02X2214188Y32526I0J-164186D01*
G01Y-4105861D01*
G01X2174482Y-4066155D01*
G03X2140128Y-4051925I-34354J-34354D01*
G01X1987728D01*
G03X1953373Y-4066155I0J-48584D01*
G01X1915273Y-4104255D01*
G03X1901101Y-4136256I34354J-34354D01*
G03X1885554Y-4148099I13107J-33330D01*
G03X1860728Y-4143276I-24827J-61491D01*
G03X1794413Y-4209590I0J-66314D01*
G03X1860728Y-4275904I66314J0D01*
G03X1885554Y-4271082I0J66314D01*
G03X1914207Y-4285409I28653J21486D01*
G01X1989944D01*
G01Y-4321051D01*
G01X1977923Y-4333072D01*
G02X1946225Y-4349671I-42399J42399D01*
G01X1914207D01*
G03X1878393Y-4385485I0J-35814D01*
G01Y-4465495D01*
G03X1905052Y-4500119I35814J0D01*
G02X1905628Y-4503805I-11497J-3686D01*
G01Y-4563075D01*
G02X1905052Y-4566761I-12073J0D01*
G03X1885554Y-4579899I9155J-34624D01*
G03X1860728Y-4575076I-24827J-61491D01*
G03X1794413Y-4641390I0J-66314D01*
G03X1860728Y-4707704I66314J0D01*
G03X1885554Y-4702882I0J66314D01*
G03X1914207Y-4717209I28653J21486D01*
G01X1977244D01*
G01Y-4768771D01*
G01X1914207D01*
G03X1879583Y-4795430I0J-35814D01*
G02X1875897Y-4796006I-3686J11497D01*
G01X1764346D01*
G03X1729992Y-4810236I0J-48584D01*
G01X1686673Y-4853555D01*
G03X1672444Y-4887909I34354J-34354D01*
G01Y-4899039D01*
G02X1672075Y-4902000I-12073J0D01*
G03X1642013Y-4937349I5752J-35349D01*
G01Y-5017996D01*
G03X1670293Y-5053009I35814J0D01*
G03X1642013Y-5088021I7534J-35013D01*
G01Y-5168669D01*
G03X1677827Y-5204483I35814J0D01*
G01X1764228D01*
G03X1800042Y-5168669I0J35814D01*
G01Y-5088021D01*
G03X1771762Y-5053009I-35814J0D01*
G03X1800042Y-5017996I-7534J35013D01*
G01Y-4937349D01*
G03X1774581Y-4903064I-35814J0D01*
G01X1784470Y-4893174D01*
G01X1875897D01*
G02X1879583Y-4893751I0J-12073D01*
G03X1914207Y-4920409I34624J9155D01*
G01X1977244D01*
G01Y-5006621D01*
G01X1721670Y-5262195D01*
G02X1689972Y-5278794I-42399J42399D01*
G01X1654440D01*
G03X1619428Y-5307075I0J-35814D01*
G03X1584415Y-5278794I-35013J-7534D01*
G01X1503767D01*
G03X1468418Y-5308856I0J-35814D01*
G02X1465457Y-5309225I-2961J11705D01*
G01X1360937D01*
G03X1364691Y-5287315I-62060J21910D01*
G01Y-5152462D01*
G03X1370805Y-5152988I6114J35288D01*
G01X1450805D01*
G03X1486619Y-5117174I0J35814D01*
G01Y-5027174D01*
G03X1450805Y-4991360I-35814J0D01*
G01X1391923D01*
G01X1446861Y-4936423D01*
G01X1462428D01*
G03X1488364Y-4931097I0J65814D01*
G03X1523916Y-4895284I-262J35813D01*
G01Y-4894075D01*
G03X1528242Y-4870609I-61488J23466D01*
G01Y-4835464D01*
G01X1656107D01*
G03X1666293Y-4825279I0J10185D01*
G01Y-4125279D01*
G03X1656107Y-4115093I-10185J0D01*
G01X1528242D01*
G01Y-4074457D01*
G03X1523521Y-4049981I-65814J0D01*
G03X1503247Y-4022831I-35419J-5304D01*
G03X1462428Y-4008643I-40820J-51626D01*
G01X1192227D01*
G03X1148319Y-4025431I0J-65814D01*
G03X1134552Y-4042755I19783J-29854D01*
G03X1126414Y-4074457I57676J-31702D01*
G01Y-4115093D01*
G01X998107D01*
G03X994388Y-4115797I0J-10185D01*
G01X1164362Y-3945823D01*
G01X1800629D01*
G03X1866443Y-3880009I0J65814D01*
G01Y-3768821D01*
G03X1800629Y-3703007I-65814J0D01*
G01X1170975D01*
G01X1005839Y-3537871D01*
G03X981963Y-3522619I-46537J-46538D01*
G01X1065309D01*
G03X1101123Y-3486805I0J35814D01*
G01Y-3316806D01*
G03X1100842Y-3312327I-35814J0D01*
G01X1152214Y-3363699D01*
G01Y-3490909D01*
G03X1170026Y-3533911I60814J0D01*
G01X1246238Y-3610123D01*
G03X1289240Y-3627935I43002J43002D01*
G01X1525628D01*
G02X1567079Y-3629656I0J-500155D01*
G03X1600628Y-3652935I33549J12535D01*
G01X1790627D01*
G03X1826441Y-3617121I0J35814D01*
G01Y-3517121D01*
G03X1790627Y-3481307I-35814J0D01*
G01X1600628D01*
G03X1567079Y-3504587I0J-35814D01*
G02X1525628Y-3506307I-41451J498434D01*
G01X1465387D01*
G03X1471163Y-3486805I-30038J19502D01*
G01Y-3316806D01*
G03X1435349Y-3280992I-35814J0D01*
G01X1335349D01*
G03X1299535Y-3316806I0J-35814D01*
G01Y-3486805D01*
G03X1299879Y-3491756I35814J0D01*
G01X1273841Y-3465719D01*
G01Y-3338509D01*
G03X1256030Y-3295507I-60814J0D01*
G01X1040130Y-3079607D01*
G03X997128Y-3061795I-43002J-43002D01*
G01X697978D01*
G03X698528Y-3055541I-35264J6253D01*
G01Y-2995541D01*
G03X662714Y-2959727I-35814J0D01*
G01X575341D01*
G01Y-2901338D01*
G01X662714D01*
G03X698528Y-2865524I0J35814D01*
G01Y-2805524D01*
G03X679742Y-2774017I-35814J0D01*
G02X673528Y-2763595I5633J10422D01*
G03X655716Y-2720593I-60814J0D01*
G01X633711Y-2698588D01*
G02X635691Y-2668054I499863J-17086D01*
G03X643714Y-2658418I-23086J27380D01*
G02X687604Y-2656488I43890J-498226D01*
G01X765758D01*
G03X774700Y-2657094I8942J65688D01*
G03X783642Y-2656488I0J66294D01*
G01X846026D01*
G03X889028Y-2638676I0J60814D01*
G01X1022007Y-2505697D01*
G03X1039819Y-2462695I-43002J43002D01*
G02X1040096Y-2448814I346990J0D01*
G01X1309296D01*
G03X1375110Y-2383000I0J65814D01*
G01Y-2187214D01*
G03X1309296Y-2121400I-65814J0D01*
G01X1177238D01*
G01X1128014Y-2072177D01*
G01Y-1828800D01*
G03X1117524Y-1803476I-35814J0D01*
G01X1101569Y-1787521D01*
G03X1076245Y-1777031I-25324J-25324D01*
G01X947313D01*
G03X900775Y-1796307I0J-65814D01*
G01Y-1796308D01*
G01X891690Y-1805393D01*
G01X891163Y-1805926D01*
G03X859401Y-1786659I-31762J-16547D01*
G01X739401D01*
G03X703587Y-1822473I0J-35814D01*
G01Y-2022472D01*
G03X739401Y-2058286I35814J0D01*
G01X859401D01*
G03X872414Y-2055839I0J35814D01*
G01Y-2070360D01*
G01X799000D01*
G03X763186Y-2106174I0J-35814D01*
G01Y-2196174D01*
G03X799000Y-2231988I35814J0D01*
G01X872414D01*
G01Y-2273560D01*
G01X799000D01*
G03X763186Y-2309374I0J-35814D01*
G01Y-2399374D01*
G03X799000Y-2435188I35814J0D01*
G01X879000D01*
G03X894115Y-2431842I0J35814D01*
G03X912233Y-2443463I44113J48842D01*
G01X820836Y-2534860D01*
G01X810276D01*
G03X774700Y-2524506I-35576J-55940D01*
G03X739124Y-2534860I0J-66294D01*
G01X687604D01*
G02X643714Y-2532931I0J500155D01*
G03X612605Y-2514860I-31110J-17744D01*
G01X532605D01*
G03X502602Y-2531117I0J-35814D01*
G03X472600Y-2514860I-30002J-19557D01*
G01X392600D01*
G03X356786Y-2550674I0J-35814D01*
G01Y-2640674D01*
G03X392600Y-2676488I35814J0D01*
G01X472600D01*
G03X502602Y-2660232I0J35814D01*
G03X509519Y-2668054I30002J19557D01*
G02X511791Y-2715674I-497883J-47620D01*
G01Y-2723486D01*
G03X529603Y-2766488I60814J0D01*
G01X540526Y-2777411D01*
G03X526900Y-2805524I22188J-28113D01*
G01Y-2807677D01*
G01X511770Y-2792547D01*
G03X468768Y-2774735I-43002J-43002D01*
G02X455949Y-2772277I0J34647D01*
G03X442699Y-2769735I-13251J-33273D01*
G01X342699D01*
G03X306885Y-2805549I0J-35814D01*
G01Y-2865549D01*
G03X311444Y-2883035I35814J0D01*
G03X306885Y-2900520I31255J-17485D01*
G01Y-2960520D01*
G03X311451Y-2978018I35814J0D01*
G03X306885Y-2995516I31248J-17498D01*
G01Y-3055516D01*
G03X331864Y-3089652I35814J0D01*
G01X331885Y-3089680D01*
G03X349193Y-3132172I60814J0D01*
G01X351166Y-3134279D01*
G01X352539Y-3135951D01*
G01X353829Y-3137741D01*
G01X355047Y-3139667D01*
G01X356200Y-3141749D01*
G01X357227Y-3143868D01*
G01X358641Y-3147292D01*
G01X359871Y-3150888D01*
G01X360939Y-3154701D01*
G01X362117Y-3160047D01*
G01X362448Y-3162124D01*
G02X357597Y-3190794I-316184J38750D01*
G03X356786Y-3198374I35003J-7580D01*
G01Y-3288374D01*
G03X392600Y-3324188I35814J0D01*
G01X472600D01*
G03X502602Y-3307932I0J35814D01*
G03X532605Y-3324188I30002J19557D01*
G01X612605D01*
G03X648419Y-3288374I0J35814D01*
G01Y-3198374D01*
G03X645148Y-3183423I-35814J0D01*
G01X971938D01*
G01X1069788Y-3281273D01*
G03X1065309Y-3280992I-4479J-35533D01*
G01X965309D01*
G03X929495Y-3316806I0J-35814D01*
G01Y-3353068D01*
G01X927209Y-3353291D01*
G01X305820D01*
G01X194742Y-3242214D01*
G01Y-2229028D01*
G03X180532Y-2194723I-48514J0D01*
G01X47917Y-2062108D01*
G01Y-2060572D01*
G01X48140Y-2058286D01*
G01X59403D01*
G03X95217Y-2022472I0J35814D01*
G01Y-1822473D01*
G03X59403Y-1786659I-35814J0D01*
G01X-60597D01*
G03X-96411Y-1822473I0J-35814D01*
G01Y-2022472D01*
G03X-60597Y-2058286I35814J0D01*
G01X-49334D01*
G01X-49111Y-2060572D01*
G01Y-2082203D01*
G03X-34902Y-2116507I48514J0D01*
G01X8166Y-2159576D01*
G03X-12700Y-2156206I-20866J-62924D01*
G03X-78994Y-2222500I0J-66294D01*
G03X-62936Y-2265758I66294J0D01*
G01X-61260Y-2267805D01*
G01X-61534Y-2269490D01*
G03X-91714Y-2304858I5634J-35368D01*
G01Y-2385506D01*
G03X-63434Y-2420518I35814J0D01*
G03X-91714Y-2455531I7534J-35013D01*
G01Y-2536179D01*
G03X-61534Y-2571547I35814J0D01*
G02X-61214Y-2574279I-11491J-2732D01*
G01Y-2618712D01*
G01X-61437Y-2620998D01*
G01X-61654D01*
G03X-97468Y-2656812I0J-35814D01*
G01Y-2826812D01*
G03X-61654Y-2862626I35814J0D01*
G01X38346D01*
G03X74160Y-2826812I0J35814D01*
G01Y-2656812D01*
G03X38346Y-2620998I-35814J0D01*
G01X36037D01*
G01X35814Y-2618712D01*
G01Y-2574279D01*
G02X36134Y-2571547I11811J0D01*
G03X66314Y-2536179I-5634J35368D01*
G01Y-2455531D01*
G03X38034Y-2420518I-35814J0D01*
G03X66314Y-2385506I-7534J35013D01*
G01Y-2304858D01*
G03X36134Y-2269490I-35814J0D01*
G01X35860Y-2267805D01*
G01X37536Y-2265758D01*
G03X53594Y-2222500I-50236J43258D01*
G03X50224Y-2201634I-66294J0D01*
G01X97714Y-2249123D01*
G01Y-3262309D01*
G03X111923Y-3296613I48514J0D01*
G01X251420Y-3436110D01*
G03X285724Y-3450319I34305J34305D01*
G01X927209D01*
G01X929495Y-3450543D01*
G01Y-3486805D01*
G03X948814Y-3518595I35814J0D01*
G01X740938D01*
G03X677951Y-3565325I0J-65814D01*
G03X660812Y-3560958I-17139J-31447D01*
G01X510813D01*
G03X474999Y-3596772I0J-35814D01*
G01Y-3732662D01*
G03X498566Y-3766317I35814J0D01*
G03X474999Y-3799972I12247J-33655D01*
G01Y-3935862D01*
G03X498566Y-3969517I35814J0D01*
G03X474999Y-4003172I12247J-33655D01*
G01Y-4139062D01*
G03X510813Y-4174876I35814J0D01*
G01X660812D01*
G03X675124Y-4171892I0J35814D01*
G01Y-4299109D01*
G03X738290Y-4364869I65814J0D01*
G03X735292Y-4384509I62815J-19639D01*
G01Y-4432587D01*
G03X751023Y-4475286I65814J0D01*
G03X735292Y-4517984I50083J-42699D01*
G01Y-4559783D01*
G03X767019Y-4616082I65814J0D01*
G03X761118Y-4635774I29914J-19693D01*
G01Y-4695774D01*
G03X793279Y-4731401I35814J0D01*
G03X791113Y-4748209I64149J-16807D01*
G03X793330Y-4765211I66314J0D01*
G03X774700Y-4762886I-18630J-73489D01*
G03X698886Y-4838700I0J-75814D01*
G03X717610Y-4888585I75814J0D01*
G01X723417Y-4895396D01*
G01X723886Y-4896033D01*
G01Y-5160552D01*
G01X715552Y-5168886D01*
G01X698187D01*
G03X713408Y-5139585I-20593J29301D01*
G01Y-4969585D01*
G03X677594Y-4933771I-35814J0D01*
G01X627594D01*
G03X602594Y-4943940I0J-35814D01*
G03X598177Y-4940276I-25000J-25645D01*
G03X586899Y-4922580I-45582J-16609D01*
G01X571429Y-4907110D01*
G01Y-4895304D01*
G01X574999Y-4891733D01*
G03X585642Y-4875686I-34305J34305D01*
G03X607009Y-4826928I-44948J48757D01*
G03X540695Y-4760614I-66314J0D01*
G03X502595Y-4772652I0J-66314D01*
G03X464495Y-4760614I-38100J-54276D01*
G03X398181Y-4826928I0J-66314D01*
G03X419547Y-4875686I66314J0D01*
G03X430190Y-4891733I44948J18257D01*
G01X433761Y-4895304D01*
G01Y-4907110D01*
G01X418290Y-4922580D01*
G03X407012Y-4940276I34305J-34305D01*
G03X402595Y-4943940I20582J-29309D01*
G03X377595Y-4933771I-25000J-25645D01*
G01X327595D01*
G03X291781Y-4969585I0J-35814D01*
G01Y-5139585D01*
G03X301126Y-5163710I35814J0D01*
G02X301781Y-5181600I-244074J-17890D01*
G03X316664Y-5217531I50814J0D01*
G01X354764Y-5255631D01*
G03X390695Y-5270514I35931J35931D01*
G01X666788D01*
G01Y-5519564D01*
G37*
%LPC*%
G36*
G01X-496410Y-2022472D02*
G03X-460596Y-2058286I35814J0D01*
G01X-340596D01*
G03X-304782Y-2022472I0J35814D01*
G01Y-1822473D01*
G03X-340596Y-1786659I-35814J0D01*
G01X-351859D01*
G01X-352082Y-1784373D01*
G01Y-1766892D01*
G01X-310105Y-1724914D01*
G01X495300D01*
G03X529605Y-1710705I0J48514D01*
G01X1163095Y-1077214D01*
G01X1917700D01*
G03X1952005Y-1063005I0J48514D01*
G01X2015505Y-999505D01*
G03X2029714Y-965200I-34305J34305D01*
G01Y-431800D01*
G03X2015505Y-397495I-48514J0D01*
G01X1978268Y-360259D01*
G03X1943964Y-346050I-34305J-34305D01*
G01X1935500D01*
G02X1932148Y-345564I0J11811D01*
G03X1897400Y-318426I-34747J-8676D01*
G01X1811000D01*
G03X1778000Y-340324I0J-35814D01*
G03X1750634Y-318872I-33000J-13916D01*
G02X1750314Y-316140I11491J2732D01*
G01Y-266700D01*
G03X1736105Y-232395I-48514J0D01*
G01X1558305Y-54595D01*
G03X1524000Y-40386I-34305J-34305D01*
G01X355600D01*
G03X321295Y-54595I0J-48514D01*
G01X272005Y-103886D01*
G01X38100D01*
G01X36662Y-103907D01*
G03X110185Y0I-36662J103907D01*
G03X0Y110185I-110185J0D01*
G03X-110185Y0I0J-110185D01*
G03X0Y-110185I110185J0D01*
G03X16549Y-108936I0J110185D01*
G03X3795Y-118095I21551J-43464D01*
G01X-34902Y-156793D01*
G03X-48908Y-186662I34305J-34305D01*
G01X-60597D01*
G03X-96411Y-222476I0J-35814D01*
G01Y-422476D01*
G03X-60597Y-458290I35814J0D01*
G01X59403D01*
G03X95217Y-422476I0J35814D01*
G01Y-222476D01*
G03X87999Y-200914I-35814J0D01*
G01X110807D01*
G03X103589Y-222476I28596J-21562D01*
G01Y-422476D01*
G03X139403Y-458290I35814J0D01*
G01X259402D01*
G03X295216Y-422476I0J35814D01*
G01Y-222476D01*
G03X287998Y-200914I-35814J0D01*
G01X292100D01*
G03X326405Y-186705I0J48514D01*
G01X375695Y-137414D01*
G01X390877D01*
G01X365097Y-163193D01*
G03X352114Y-186662I34305J-34305D01*
G01X339402D01*
G03X303588Y-222476I0J-35814D01*
G01Y-422476D01*
G03X339402Y-458290I35814J0D01*
G01X459402D01*
G03X495216Y-422476I0J35814D01*
G01Y-222476D01*
G03X475183Y-190326I-35814J0D01*
G01X477295Y-188214D01*
G01X528973D01*
G03X503588Y-222476I10429J-34262D01*
G01Y-422476D01*
G03X539402Y-458290I35814J0D01*
G01X548163D01*
G01X548386Y-460576D01*
G01Y-475308D01*
G01X546652Y-477425D01*
G03X530586Y-520700I50248J-43275D01*
G03X596900Y-587014I66314J0D01*
G03X663214Y-520700I0J66314D01*
G03X647148Y-477425I-66314J0D01*
G01X645414Y-475308D01*
G01Y-460576D01*
G01X645637Y-458290D01*
G01X659402D01*
G03X695216Y-422476I0J35814D01*
G01Y-222476D01*
G03X669830Y-188214I-35814J0D01*
G01X728973D01*
G03X703587Y-222476I10429J-34262D01*
G01Y-422476D01*
G03X739401Y-458290I35814J0D01*
G01X859401D01*
G03X895215Y-422476I0J35814D01*
G01Y-222476D01*
G03X869830Y-188214I-35814J0D01*
G01X928972D01*
G03X903587Y-222476I10429J-34262D01*
G01Y-422476D01*
G03X939401Y-458290I35814J0D01*
G01X1059401D01*
G03X1095215Y-422476I0J35814D01*
G01Y-222476D01*
G03X1069829Y-188214I-35814J0D01*
G01X1427705D01*
G01X1488186Y-248695D01*
G01Y-316140D01*
G02X1487866Y-318872I-11811J0D01*
G03X1457686Y-354240I5634J-35368D01*
G01Y-434887D01*
G03X1485966Y-469900I35814J0D01*
G03X1457686Y-504913I7534J-35013D01*
G01Y-585560D01*
G03X1487561Y-620878I35814J0D01*
G02X1487894Y-623660I-11479J-2782D01*
G01Y-659244D01*
G01Y-736675D01*
G01X1487670Y-738961D01*
G01X1481408D01*
G03X1445594Y-774775I0J-35814D01*
G01Y-944775D01*
G03X1476053Y-980186I35814J0D01*
G01X1143000D01*
G03X1108695Y-994395I0J-48514D01*
G01X475205Y-1627886D01*
G01X-330200D01*
G03X-364505Y-1642095I0J-48514D01*
G01X-434901Y-1712492D01*
G03X-449110Y-1746796I34305J-34305D01*
G01Y-1784373D01*
G01X-449334Y-1786659D01*
G01X-460596D01*
G03X-496410Y-1822473I0J-35814D01*
G01Y-2022472D01*
G37*
G36*
G01X-647453Y-4782580D02*
G03X-611639Y-4818394I35814J0D01*
G01X-461639D01*
G03X-425825Y-4782580I0J35814D01*
G01Y-4695123D01*
G01X-402007D01*
G01X-370484Y-4726646D01*
G03X-323946Y-4745923I46538J46538D01*
G01X-132899D01*
G03X-86361Y-4726646I0J65814D01*
G01X10365Y-4629920D01*
G03X26362Y-4603898I-46537J46538D01*
G03X45468Y-4614974I26640J23937D01*
G03X17188Y-4649987I7534J-35013D01*
G01Y-4730634D01*
G03X53002Y-4766448I35814J0D01*
G01X139403D01*
G03X175217Y-4730634I0J35814D01*
G01Y-4649987D01*
G03X146936Y-4614974I-35814J0D01*
G03X174340Y-4587839I-7534J35013D01*
G02X177575Y-4587359I3373J-11593D01*
G02X184735Y-4587485I-612J-237958D01*
G03X202608Y-4602274I30538J18711D01*
G03X179458Y-4635774I12664J-33500D01*
G01Y-4695774D01*
G03X209168Y-4731064I35814J0D01*
G03X206913Y-4748209I64060J-17145D01*
G03X273228Y-4814523I66314J0D01*
G03X339542Y-4748209I0J66314D01*
G03X337408Y-4731524I-66314J0D01*
G03X371086Y-4695774I-2136J35750D01*
G01Y-4635774D01*
G03X347937Y-4602274I-35814J0D01*
G03X371086Y-4568774I-12664J33500D01*
G01Y-4508774D01*
G03X347937Y-4475274I-35814J0D01*
G03X371086Y-4441774I-12664J33500D01*
G01Y-4381774D01*
G03X367725Y-4366626I-35814J0D01*
G03X396913Y-4311944I-36626J54681D01*
G01Y-4227509D01*
G03X361099Y-4191695I-35814J0D01*
G01X180417D01*
G03X181211Y-4181499I-65019J10196D01*
G01Y-4110799D01*
G03X161977Y-4064303I-65814J0D01*
G03X164316Y-4051572I-33475J12731D01*
G01Y-3971572D01*
G03X128502Y-3935758I-35814J0D01*
G01X38502D01*
G03X2688Y-3971572I0J-35814D01*
G01Y-4044985D01*
G01X-137963D01*
G03X-203777Y-4110799I0J-65814D01*
G01Y-4181499D01*
G03X-202982Y-4191695I65814J0D01*
G01X-216684D01*
G01Y-4123972D01*
G03X-252498Y-4088158I-35814J0D01*
G01X-342498D01*
G03X-378312Y-4123972I0J-35814D01*
G01Y-4191791D01*
G03X-421283Y-4210971I3565J-65717D01*
G01X-421284D01*
G01X-425825Y-4215512D01*
G01Y-4142569D01*
G03X-461639Y-4106755I-35814J0D01*
G01X-611639D01*
G03X-630758Y-4112285I0J-35814D01*
G01Y-4081465D01*
G01X-539903D01*
G03X-504089Y-4045651I0J35814D01*
G01Y-3825651D01*
G03X-539903Y-3789837I-35814J0D01*
G01X-622163D01*
G03X-618058Y-3770309I-44410J19529D01*
G01Y-3766889D01*
G01X-550138D01*
G03X-514324Y-3731075I0J35814D01*
G01Y-3644674D01*
G03X-550138Y-3608860I-35814J0D01*
G01X-618058D01*
G01Y-3576389D01*
G01X-550138D01*
G03X-514324Y-3540575I0J35814D01*
G01Y-3454174D01*
G03X-550138Y-3418360I-35814J0D01*
G01X-630785D01*
G03X-665798Y-3446640I0J-35814D01*
G03X-700810Y-3418360I-35013J-7534D01*
G01X-781458D01*
G03X-817272Y-3454174I0J-35814D01*
G01Y-3540575D01*
G03X-781458Y-3576389I35814J0D01*
G01X-715086D01*
G01Y-3608860D01*
G01X-781458D01*
G03X-817272Y-3644674I0J-35814D01*
G01Y-3731075D01*
G03X-790134Y-3765822I35814J0D01*
G02X-789648Y-3769175I-11325J-3353D01*
G01Y-4445047D01*
G03X-775439Y-4479352I48514J0D01*
G01X-707899Y-4546891D01*
G03X-673594Y-4561101I34305J34305D01*
G01X-649739D01*
G02X-645181Y-4562016I0J-11811D01*
G03X-647453Y-4574568I33542J-12552D01*
G01Y-4577452D01*
G03X-651586Y-4600409I61680J-22957D01*
G01Y-4629309D01*
G03X-647453Y-4652266I65814J0D01*
G01Y-4654568D01*
G03X-641993Y-4673574I35814J0D01*
G03X-647453Y-4692580I30355J-19006D01*
G01Y-4782580D01*
G37*
G36*
G01X1591345Y-3108403D02*
G03X1626002Y-3135191I34658J9027D01*
G01X1716002D01*
G03X1751816Y-3099377I0J35814D01*
G01Y-3019377D01*
G03X1735560Y-2989374I-35814J0D01*
G03X1751816Y-2959372I-19557J30002D01*
G01Y-2879372D01*
G03X1719781Y-2843758I-35814J0D01*
G01X1719516Y-2841272D01*
G01Y-2653483D01*
G03X1705307Y-2619179I-48514J0D01*
G01X1653732Y-2567604D01*
G03X1619428Y-2553395I-34305J-34305D01*
G01X1289228D01*
G03X1254923Y-2567604I0J-48514D01*
G01X1204123Y-2618404D01*
G03X1189914Y-2652709I34305J-34305D01*
G01Y-2683414D01*
G01X1180029Y-2693298D01*
G01X1103406D01*
G01X1101120Y-2693075D01*
G01Y-2656812D01*
G03X1065306Y-2620998I-35814J0D01*
G01X965306D01*
G03X929492Y-2656812I0J-35814D01*
G01Y-2826812D01*
G03X965306Y-2862626I35814J0D01*
G01X1065306D01*
G03X1101120Y-2826812I0J35814D01*
G01Y-2790549D01*
G01X1103406Y-2790326D01*
G01X1200124D01*
G03X1234429Y-2776116I0J48514D01*
G01X1272732Y-2737813D01*
G03X1286942Y-2703509I-34305J34305D01*
G01Y-2672804D01*
G01X1299532Y-2660213D01*
G01Y-2826812D01*
G03X1335346Y-2862626I35814J0D01*
G01X1435346D01*
G03X1471160Y-2826812I0J35814D01*
G01Y-2801650D01*
G01X1482014Y-2812504D01*
G01Y-3021009D01*
G03X1496223Y-3055313I48514J0D01*
G01X1534591Y-3093681D01*
G03X1568896Y-3107891I34305J34305D01*
G01X1587902D01*
G02X1591345Y-3108403I0J-11811D01*
G37*
G36*
G01X414401Y-1533296D02*
G03X450215Y-1497482I0J35814D01*
G01Y-1017483D01*
G03X414401Y-981669I-35814J0D01*
G01X-65598D01*
G03X-101412Y-1017483I0J-35814D01*
G01Y-1497482D01*
G03X-65598Y-1533296I35814J0D01*
G01X414401D01*
G37*
G36*
G01X1776412Y-1470433D02*
G03X1801397Y-1480588I24985J25659D01*
G01X1911397D01*
G03X1947211Y-1444774I0J35814D01*
G01Y-1274774D01*
G03X1911397Y-1238960I-35814J0D01*
G01X1801397D01*
G03X1776412Y-1249114I0J-35814D01*
G03X1751428Y-1238960I-24985J-25659D01*
G01X1641428D01*
G03X1616418Y-1249139I0J-35814D01*
G03X1591408Y-1238960I-25010J-25635D01*
G01X1481408D01*
G03X1445594Y-1274774I0J-35814D01*
G01Y-1444774D01*
G03X1481408Y-1480588I35814J0D01*
G01X1591408D01*
G03X1616418Y-1470408I0J35814D01*
G03X1641428Y-1480588I25010J25635D01*
G01X1751428D01*
G03X1776412Y-1470433I0J35814D01*
G37*
G36*
G01X-999998Y-5458288D02*
G03X-859184Y-5317474I0J140814D01*
G03X-999998Y-5176660I-140814J0D01*
G03X-1140812Y-5317474I0J-140814D01*
G03X-999998Y-5458288I140814J0D01*
G37*
G36*
G01X2005202Y-167088D02*
G03X2146016Y-26274I0J140814D01*
G03X2005202Y114540I-140814J0D01*
G03X1864388Y-26274I0J-140814D01*
G03X2005202Y-167088I140814J0D01*
G37*
G36*
G01X-338098Y-167088D02*
G03X-197284Y-26274I0J140814D01*
G03X-338098Y114540I-140814J0D01*
G03X-478912Y-26274I0J-140814D01*
G03X-338098Y-167088I140814J0D01*
G37*
G36*
G01X340086Y-2108200D02*
G03X406400Y-2174514I66314J0D01*
G03X472714Y-2108200I0J66314D01*
G03X456136Y-2064337I-66314J0D01*
G03X453488Y-2061506I-49736J-43863D01*
G01X452013Y-2060058D01*
G01X450418Y-2058580D01*
G01X450098Y-2058286D01*
G01X459402D01*
G03X495216Y-2022472I0J35814D01*
G01Y-1822473D01*
G03X459402Y-1786659I-35814J0D01*
G01X339402D01*
G03X303588Y-1822473I0J-35814D01*
G01Y-2022472D01*
G03X339402Y-2058286I35814J0D01*
G01X350665D01*
G01X350888Y-2060572D01*
G01Y-2066676D01*
G01Y-2071924D01*
G03X340086Y-2108200I55512J-36276D01*
G37*
G36*
G01X1506576Y-2398700D02*
G03X1542390Y-2434514I35814J0D01*
G01X1742389D01*
G03X1778203Y-2398700I0J35814D01*
G01Y-2198700D01*
G03X1742389Y-2162886I-35814J0D01*
G01X1542390D01*
G03X1506576Y-2198700I0J-35814D01*
G01Y-2398700D01*
G37*
G36*
G01X430288Y-4575274D02*
G03X466102Y-4611088I35814J0D01*
G01X666102D01*
G03X701916Y-4575274I0J35814D01*
G01Y-4375274D01*
G03X666102Y-4339460I-35814J0D01*
G01X466102D01*
G03X430288Y-4375274I0J-35814D01*
G01Y-4575274D01*
G37*
G36*
G01X-134773Y-5180212D02*
G03X-98959Y-5144398I0J35814D01*
G01Y-4944398D01*
G03X-134773Y-4908584I-35814J0D01*
G01X-334772D01*
G03X-370586Y-4944398I0J-35814D01*
G01Y-5144398D01*
G03X-334772Y-5180212I35814J0D01*
G01X-134773D01*
G37*
G36*
G01X-879897Y-4066385D02*
G03X-844083Y-4030571I0J35814D01*
G01Y-3830571D01*
G03X-879897Y-3794757I-35814J0D01*
G01X-1019897D01*
G03X-1055711Y-3830571I0J-35814D01*
G01Y-4030571D01*
G03X-1019897Y-4066385I35814J0D01*
G01X-879897D01*
G37*
G36*
G01X-879897Y-5130391D02*
G03X-844083Y-5094577I0J35814D01*
G01Y-4894577D01*
G03X-879897Y-4858763I-35814J0D01*
G01X-1019897D01*
G03X-1055711Y-4894577I0J-35814D01*
G01Y-5094577D01*
G03X-1019897Y-5130391I35814J0D01*
G01X-879897D01*
G37*
G36*
G01X-140597Y-2058286D02*
G03X-104783Y-2022472I0J35814D01*
G01Y-1822473D01*
G03X-140597Y-1786659I-35814J0D01*
G01X-260597D01*
G03X-296411Y-1822473I0J-35814D01*
G01Y-2022472D01*
G03X-260597Y-2058286I35814J0D01*
G01X-140597D01*
G37*
G36*
G01X503588Y-2022472D02*
G03X539402Y-2058286I35814J0D01*
G01X659402D01*
G03X695216Y-2022472I0J35814D01*
G01Y-1822473D01*
G03X659402Y-1786659I-35814J0D01*
G01X539402D01*
G03X503588Y-1822473I0J-35814D01*
G01Y-2022472D01*
G37*
G36*
G01X259402Y-2058286D02*
G03X295216Y-2022472I0J35814D01*
G01Y-1822473D01*
G03X259402Y-1786659I-35814J0D01*
G01X139403D01*
G03X103589Y-1822473I0J-35814D01*
G01Y-2022472D01*
G03X139403Y-2058286I35814J0D01*
G01X259402D01*
G37*
G36*
G01X-140597Y-458290D02*
G03X-104783Y-422476I0J35814D01*
G01Y-222476D01*
G03X-140597Y-186662I-35814J0D01*
G01X-260597D01*
G03X-296411Y-222476I0J-35814D01*
G01Y-422476D01*
G03X-260597Y-458290I35814J0D01*
G01X-140597D01*
G37*
G36*
G01X-496410Y-422476D02*
G03X-460596Y-458290I35814J0D01*
G01X-340596D01*
G03X-304782Y-422476I0J35814D01*
G01Y-222476D01*
G03X-340596Y-186662I-35814J0D01*
G01X-460596D01*
G03X-496410Y-222476I0J-35814D01*
G01Y-422476D01*
G37*
G36*
G01X-675716Y-5099497D02*
G03X-639902Y-5135311I35814J0D01*
G01X-539903D01*
G03X-504089Y-5099497I0J35814D01*
G01Y-4879497D01*
G03X-539903Y-4843683I-35814J0D01*
G01X-639902D01*
G03X-675716Y-4879497I0J-35814D01*
G01Y-5099497D01*
G37*
G36*
G01X-288020Y-3869385D02*
G03X-177835Y-3759200I0J110185D01*
G03X-288020Y-3649015I-110185J0D01*
G03X-398205Y-3759200I0J-110185D01*
G03X-288020Y-3869385I110185J0D01*
G37*
G36*
G01X1929650Y-2104085D02*
G03X2039835Y-1993900I0J110185D01*
G03X1929650Y-1883715I-110185J0D01*
G03X1819464Y-1993900I0J-110185D01*
G03X1929650Y-2104085I110185J0D01*
G37*
G36*
G01X1790627Y-3402923D02*
G03X1826441Y-3367109I0J35814D01*
G01Y-3267109D01*
G03X1790627Y-3231295I-35814J0D01*
G01X1600628D01*
G03X1564814Y-3267109I0J-35814D01*
G01Y-3367109D01*
G03X1600628Y-3402923I35814J0D01*
G01X1790627D01*
G37*
G36*
G01X-467505Y-3486805D02*
G03X-431691Y-3522619I35814J0D01*
G01X-331691D01*
G03X-295877Y-3486805I0J35814D01*
G01Y-3316806D01*
G03X-331691Y-3280992I-35814J0D01*
G01X-431691D01*
G03X-467505Y-3316806I0J-35814D01*
G01Y-3486805D01*
G37*
G36*
G01X-97465Y-3486805D02*
G03X-61651Y-3522619I35814J0D01*
G01X38349D01*
G03X74163Y-3486805I0J35814D01*
G01Y-3316806D01*
G03X38349Y-3280992I-35814J0D01*
G01X-61651D01*
G03X-97465Y-3316806I0J-35814D01*
G01Y-3486805D01*
G37*
G36*
G01X-467508Y-2826812D02*
G03X-431694Y-2862626I35814J0D01*
G01X-331694D01*
G03X-295880Y-2826812I0J35814D01*
G01Y-2656812D01*
G03X-331694Y-2620998I-35814J0D01*
G01X-431694D01*
G03X-467508Y-2656812I0J-35814D01*
G01Y-2826812D01*
G37*
%LPD*%
G36*
G01X2214188Y-5358674D02*
G02X2050002Y-5522860I-164186J0D01*
G01X858264D01*
G03X858416Y-5519564I-35662J3297D01*
G01Y-5269564D01*
G03X822602Y-5233750I-35814J0D01*
G01X794412D01*
G01X810631Y-5217531D01*
G03X825514Y-5181600I-35931J35931D01*
G01Y-4896033D01*
G01X825983Y-4895396D01*
G01X831790Y-4888585D01*
G03X850514Y-4838700I-57090J49885D01*
G03X846228Y-4813570I-75814J0D01*
G03X857428Y-4814523I11200J65361D01*
G03X923742Y-4748209I0J66314D01*
G03X921547Y-4731290I-66314J0D01*
G03X952746Y-4695774I-4615J35515D01*
G01Y-4635774D01*
G03X951270Y-4625597I-35814J0D01*
G01X987922D01*
G01Y-4825279D01*
G03X998107Y-4835464I10185J0D01*
G01X1126414D01*
G01Y-5287315D01*
G01Y-5287532D01*
G03X1055780Y-5261915I-70634J-84568D01*
G03X945595Y-5372100I0J-110185D01*
G03X1055780Y-5482285I110185J0D01*
G03X1165965Y-5372100I0J110185D01*
G03X1162884Y-5346225I-110185J0D01*
G03X1192227Y-5353128I29343J58910D01*
G01X1198901D01*
G03X1206500Y-5353510I7599J75432D01*
G03X1214099Y-5353128I0J75814D01*
G01X1241264D01*
G01X1242173Y-5354063D01*
G01X1280273Y-5392163D01*
G03X1314628Y-5406393I34354J34354D01*
G01X1465457D01*
G02X1468418Y-5406761I0J-12073D01*
G03X1503767Y-5436823I35349J5752D01*
G01X1584415D01*
G03X1619428Y-5408543I0J35814D01*
G03X1654440Y-5436823I35013J7534D01*
G01X1735088D01*
G03X1770902Y-5401009I0J35814D01*
G01Y-5365477D01*
G02X1787501Y-5333780I58998J-10701D01*
G01X2060182Y-5061099D01*
G03X2074412Y-5026745I-34354J34354D01*
G01Y-4919901D01*
G01X2154237D01*
G03X2190051Y-4884087I0J35814D01*
G01Y-4852070D01*
G02X2206651Y-4820372I58998J-10701D01*
G01X2214188Y-4812834D01*
G01Y-5358674D01*
G37*
%LPC*%
G36*
G01X1864388Y-5317474D02*
G03X2005202Y-5458288I140814J0D01*
G03X2146016Y-5317474I0J140814D01*
G03X2005202Y-5176660I-140814J0D01*
G03X1864388Y-5317474I0J-140814D01*
G37*
%LPD*%
G36*
G01X966460Y-4318695D02*
G03X969442Y-4299109I-62832J19586D01*
G01Y-4140743D01*
G01X988625Y-4121559D01*
G03X987922Y-4125279I9482J-3719D01*
G01Y-4318695D01*
G01X966460D01*
G37*
G54D8191*
G01X666788Y-5519564D02*
G03X666940Y-5522860I35814J0D01*
G01X338275D01*
G03X338427Y-5519564I-35662J3297D01*
G01Y-5269564D01*
G03X302613Y-5233750I-35814J0D01*
G01X182613D01*
G03X146799Y-5269564I0J-35814D01*
G01Y-5519564D01*
G03X146951Y-5522860I35814J0D01*
G01X-1049998D01*
G02X-1214184Y-5358674I0J164186D01*
G01Y-5358660D01*
G01X-1214945Y-3348923D01*
G01X-590372D01*
G03X-554558Y-3313109I0J35814D01*
G01Y-287262D01*
G01Y25117D01*
G03X-553784Y32526I-35039J7409D01*
G02X-389598Y196712I164186J0D01*
G01X2050002D01*
G02X2214188Y32526I0J-164186D01*
G01Y-4105861D01*
G01X2174482Y-4066155D01*
G03X2140128Y-4051925I-34354J-34354D01*
G01X1987728D01*
G03X1953373Y-4066155I0J-48584D01*
G01X1915273Y-4104255D01*
G03X1901101Y-4136256I34354J-34354D01*
G03X1885554Y-4148099I13107J-33330D01*
G03X1860728Y-4143276I-24827J-61491D01*
G03X1794413Y-4209590I0J-66314D01*
G03X1860728Y-4275904I66314J0D01*
G03X1885554Y-4271082I0J66314D01*
G03X1914207Y-4285409I28653J21486D01*
G01X1989944D01*
G01Y-4321051D01*
G01X1977923Y-4333072D01*
G02X1946225Y-4349671I-42399J42399D01*
G01X1914207D01*
G03X1878393Y-4385485I0J-35814D01*
G01Y-4465495D01*
G03X1905052Y-4500119I35814J0D01*
G02X1905628Y-4503805I-11497J-3686D01*
G01Y-4563075D01*
G02X1905052Y-4566761I-12073J0D01*
G03X1885554Y-4579899I9155J-34624D01*
G03X1860728Y-4575076I-24827J-61491D01*
G03X1794413Y-4641390I0J-66314D01*
G03X1860728Y-4707704I66314J0D01*
G03X1885554Y-4702882I0J66314D01*
G03X1914207Y-4717209I28653J21486D01*
G01X1977244D01*
G01Y-4768771D01*
G01X1914207D01*
G03X1879583Y-4795430I0J-35814D01*
G02X1875897Y-4796006I-3686J11497D01*
G01X1764346D01*
G03X1729992Y-4810236I0J-48584D01*
G01X1686673Y-4853555D01*
G03X1672444Y-4887909I34354J-34354D01*
G01Y-4899039D01*
G02X1672075Y-4902000I-12073J0D01*
G03X1642013Y-4937349I5752J-35349D01*
G01Y-5017996D01*
G03X1670293Y-5053009I35814J0D01*
G03X1642013Y-5088021I7534J-35013D01*
G01Y-5168669D01*
G03X1677827Y-5204483I35814J0D01*
G01X1764228D01*
G03X1800042Y-5168669I0J35814D01*
G01Y-5088021D01*
G03X1771762Y-5053009I-35814J0D01*
G03X1800042Y-5017996I-7534J35013D01*
G01Y-4937349D01*
G03X1774581Y-4903064I-35814J0D01*
G01X1784470Y-4893174D01*
G01X1875897D01*
G02X1879583Y-4893751I0J-12073D01*
G03X1914207Y-4920409I34624J9155D01*
G01X1977244D01*
G01Y-5006621D01*
G01X1721670Y-5262195D01*
G02X1689972Y-5278794I-42399J42399D01*
G01X1654440D01*
G03X1619428Y-5307075I0J-35814D01*
G03X1584415Y-5278794I-35013J-7534D01*
G01X1503767D01*
G03X1468418Y-5308856I0J-35814D01*
G02X1465457Y-5309225I-2961J11705D01*
G01X1360937D01*
G03X1364691Y-5287315I-62060J21910D01*
G01Y-5152462D01*
G03X1370805Y-5152988I6114J35288D01*
G01X1450805D01*
G03X1486619Y-5117174I0J35814D01*
G01Y-5027174D01*
G03X1450805Y-4991360I-35814J0D01*
G01X1391923D01*
G01X1446861Y-4936423D01*
G01X1462428D01*
G03X1488364Y-4931097I0J65814D01*
G03X1523916Y-4895284I-262J35813D01*
G01Y-4894075D01*
G03X1528242Y-4870609I-61488J23466D01*
G01Y-4835464D01*
G01X1656107D01*
G03X1666293Y-4825279I0J10185D01*
G01Y-4125279D01*
G03X1656107Y-4115093I-10185J0D01*
G01X1528242D01*
G01Y-4074457D01*
G03X1523521Y-4049981I-65814J0D01*
G03X1503247Y-4022831I-35419J-5304D01*
G03X1462428Y-4008643I-40820J-51626D01*
G01X1192227D01*
G03X1148319Y-4025431I0J-65814D01*
G03X1134552Y-4042755I19783J-29854D01*
G03X1126414Y-4074457I57676J-31702D01*
G01Y-4115093D01*
G01X998107D01*
G03X994388Y-4115797I0J-10185D01*
G01X1164362Y-3945823D01*
G01X1800629D01*
G03X1866443Y-3880009I0J65814D01*
G01Y-3768821D01*
G03X1800629Y-3703007I-65814J0D01*
G01X1170975D01*
G01X1005839Y-3537871D01*
G03X981963Y-3522619I-46537J-46538D01*
G01X1065309D01*
G03X1101123Y-3486805I0J35814D01*
G01Y-3316806D01*
G03X1100842Y-3312327I-35814J0D01*
G01X1152214Y-3363699D01*
G01Y-3490909D01*
G03X1170026Y-3533911I60814J0D01*
G01X1246238Y-3610123D01*
G03X1289240Y-3627935I43002J43002D01*
G01X1525628D01*
G02X1567079Y-3629656I0J-500155D01*
G03X1600628Y-3652935I33549J12535D01*
G01X1790627D01*
G03X1826441Y-3617121I0J35814D01*
G01Y-3517121D01*
G03X1790627Y-3481307I-35814J0D01*
G01X1600628D01*
G03X1567079Y-3504587I0J-35814D01*
G02X1525628Y-3506307I-41451J498434D01*
G01X1465387D01*
G03X1471163Y-3486805I-30038J19502D01*
G01Y-3316806D01*
G03X1435349Y-3280992I-35814J0D01*
G01X1335349D01*
G03X1299535Y-3316806I0J-35814D01*
G01Y-3486805D01*
G03X1299879Y-3491756I35814J0D01*
G01X1273841Y-3465719D01*
G01Y-3338509D01*
G03X1256030Y-3295507I-60814J0D01*
G01X1040130Y-3079607D01*
G03X997128Y-3061795I-43002J-43002D01*
G01X697978D01*
G03X698528Y-3055541I-35264J6253D01*
G01Y-2995541D01*
G03X662714Y-2959727I-35814J0D01*
G01X575341D01*
G01Y-2901338D01*
G01X662714D01*
G03X698528Y-2865524I0J35814D01*
G01Y-2805524D01*
G03X679742Y-2774017I-35814J0D01*
G02X673528Y-2763595I5633J10422D01*
G03X655716Y-2720593I-60814J0D01*
G01X633711Y-2698588D01*
G02X635691Y-2668054I499863J-17086D01*
G03X643714Y-2658418I-23086J27380D01*
G02X687604Y-2656488I43890J-498226D01*
G01X765758D01*
G03X774700Y-2657094I8942J65688D01*
G03X783642Y-2656488I0J66294D01*
G01X846026D01*
G03X889028Y-2638676I0J60814D01*
G01X1022007Y-2505697D01*
G03X1039819Y-2462695I-43002J43002D01*
G02X1040096Y-2448814I346990J0D01*
G01X1309296D01*
G03X1375110Y-2383000I0J65814D01*
G01Y-2187214D01*
G03X1309296Y-2121400I-65814J0D01*
G01X1177238D01*
G01X1128014Y-2072177D01*
G01Y-1828800D01*
G03X1117524Y-1803476I-35814J0D01*
G01X1101569Y-1787521D01*
G03X1076245Y-1777031I-25324J-25324D01*
G01X947313D01*
G03X900775Y-1796307I0J-65814D01*
G01Y-1796308D01*
G01X891690Y-1805393D01*
G01X891163Y-1805926D01*
G03X859401Y-1786659I-31762J-16547D01*
G01X739401D01*
G03X703587Y-1822473I0J-35814D01*
G01Y-2022472D01*
G03X739401Y-2058286I35814J0D01*
G01X859401D01*
G03X872414Y-2055839I0J35814D01*
G01Y-2070360D01*
G01X799000D01*
G03X763186Y-2106174I0J-35814D01*
G01Y-2196174D01*
G03X799000Y-2231988I35814J0D01*
G01X872414D01*
G01Y-2273560D01*
G01X799000D01*
G03X763186Y-2309374I0J-35814D01*
G01Y-2399374D01*
G03X799000Y-2435188I35814J0D01*
G01X879000D01*
G03X894115Y-2431842I0J35814D01*
G03X912233Y-2443463I44113J48842D01*
G01X820836Y-2534860D01*
G01X810276D01*
G03X774700Y-2524506I-35576J-55940D01*
G03X739124Y-2534860I0J-66294D01*
G01X687604D01*
G02X643714Y-2532931I0J500155D01*
G03X612605Y-2514860I-31110J-17744D01*
G01X532605D01*
G03X502602Y-2531117I0J-35814D01*
G03X472600Y-2514860I-30002J-19557D01*
G01X392600D01*
G03X356786Y-2550674I0J-35814D01*
G01Y-2640674D01*
G03X392600Y-2676488I35814J0D01*
G01X472600D01*
G03X502602Y-2660232I0J35814D01*
G03X509519Y-2668054I30002J19557D01*
G02X511791Y-2715674I-497883J-47620D01*
G01Y-2723486D01*
G03X529603Y-2766488I60814J0D01*
G01X540526Y-2777411D01*
G03X526900Y-2805524I22188J-28113D01*
G01Y-2807677D01*
G01X511770Y-2792547D01*
G03X468768Y-2774735I-43002J-43002D01*
G02X455949Y-2772277I0J34647D01*
G03X442699Y-2769735I-13251J-33273D01*
G01X342699D01*
G03X306885Y-2805549I0J-35814D01*
G01Y-2865549D01*
G03X311444Y-2883035I35814J0D01*
G03X306885Y-2900520I31255J-17485D01*
G01Y-2960520D01*
G03X311451Y-2978018I35814J0D01*
G03X306885Y-2995516I31248J-17498D01*
G01Y-3055516D01*
G03X331864Y-3089652I35814J0D01*
G01X331885Y-3089680D01*
G03X349193Y-3132172I60814J0D01*
G01X351166Y-3134279D01*
G01X352539Y-3135951D01*
G01X353829Y-3137741D01*
G01X355047Y-3139667D01*
G01X356200Y-3141749D01*
G01X357227Y-3143868D01*
G01X358641Y-3147292D01*
G01X359871Y-3150888D01*
G01X360939Y-3154701D01*
G01X362117Y-3160047D01*
G01X362448Y-3162124D01*
G02X357597Y-3190794I-316184J38750D01*
G03X356786Y-3198374I35003J-7580D01*
G01Y-3288374D01*
G03X392600Y-3324188I35814J0D01*
G01X472600D01*
G03X502602Y-3307932I0J35814D01*
G03X532605Y-3324188I30002J19557D01*
G01X612605D01*
G03X648419Y-3288374I0J35814D01*
G01Y-3198374D01*
G03X645148Y-3183423I-35814J0D01*
G01X971938D01*
G01X1069788Y-3281273D01*
G03X1065309Y-3280992I-4479J-35533D01*
G01X965309D01*
G03X929495Y-3316806I0J-35814D01*
G01Y-3353068D01*
G01X927209Y-3353291D01*
G01X305820D01*
G01X194742Y-3242214D01*
G01Y-2229028D01*
G03X180532Y-2194723I-48514J0D01*
G01X47917Y-2062108D01*
G01Y-2060572D01*
G01X48140Y-2058286D01*
G01X59403D01*
G03X95217Y-2022472I0J35814D01*
G01Y-1822473D01*
G03X59403Y-1786659I-35814J0D01*
G01X-60597D01*
G03X-96411Y-1822473I0J-35814D01*
G01Y-2022472D01*
G03X-60597Y-2058286I35814J0D01*
G01X-49334D01*
G01X-49111Y-2060572D01*
G01Y-2082203D01*
G03X-34902Y-2116507I48514J0D01*
G01X8166Y-2159576D01*
G03X-12700Y-2156206I-20866J-62924D01*
G03X-78994Y-2222500I0J-66294D01*
G03X-62936Y-2265758I66294J0D01*
G01X-61260Y-2267805D01*
G01X-61534Y-2269490D01*
G03X-91714Y-2304858I5634J-35368D01*
G01Y-2385506D01*
G03X-63434Y-2420518I35814J0D01*
G03X-91714Y-2455531I7534J-35013D01*
G01Y-2536179D01*
G03X-61534Y-2571547I35814J0D01*
G02X-61214Y-2574279I-11491J-2732D01*
G01Y-2618712D01*
G01X-61437Y-2620998D01*
G01X-61654D01*
G03X-97468Y-2656812I0J-35814D01*
G01Y-2826812D01*
G03X-61654Y-2862626I35814J0D01*
G01X38346D01*
G03X74160Y-2826812I0J35814D01*
G01Y-2656812D01*
G03X38346Y-2620998I-35814J0D01*
G01X36037D01*
G01X35814Y-2618712D01*
G01Y-2574279D01*
G02X36134Y-2571547I11811J0D01*
G03X66314Y-2536179I-5634J35368D01*
G01Y-2455531D01*
G03X38034Y-2420518I-35814J0D01*
G03X66314Y-2385506I-7534J35013D01*
G01Y-2304858D01*
G03X36134Y-2269490I-35814J0D01*
G01X35860Y-2267805D01*
G01X37536Y-2265758D01*
G03X53594Y-2222500I-50236J43258D01*
G03X50224Y-2201634I-66294J0D01*
G01X97714Y-2249123D01*
G01Y-3262309D01*
G03X111923Y-3296613I48514J0D01*
G01X251420Y-3436110D01*
G03X285724Y-3450319I34305J34305D01*
G01X927209D01*
G01X929495Y-3450543D01*
G01Y-3486805D01*
G03X948814Y-3518595I35814J0D01*
G01X740938D01*
G03X677951Y-3565325I0J-65814D01*
G03X660812Y-3560958I-17139J-31447D01*
G01X510813D01*
G03X474999Y-3596772I0J-35814D01*
G01Y-3732662D01*
G03X498566Y-3766317I35814J0D01*
G03X474999Y-3799972I12247J-33655D01*
G01Y-3935862D01*
G03X498566Y-3969517I35814J0D01*
G03X474999Y-4003172I12247J-33655D01*
G01Y-4139062D01*
G03X510813Y-4174876I35814J0D01*
G01X660812D01*
G03X675124Y-4171892I0J35814D01*
G01Y-4299109D01*
G03X738290Y-4364869I65814J0D01*
G03X735292Y-4384509I62815J-19639D01*
G01Y-4432587D01*
G03X751023Y-4475286I65814J0D01*
G03X735292Y-4517984I50083J-42699D01*
G01Y-4559783D01*
G03X767019Y-4616082I65814J0D01*
G03X761118Y-4635774I29914J-19693D01*
G01Y-4695774D01*
G03X793279Y-4731401I35814J0D01*
G03X791113Y-4748209I64149J-16807D01*
G03X793330Y-4765211I66314J0D01*
G03X774700Y-4762886I-18630J-73489D01*
G03X698886Y-4838700I0J-75814D01*
G03X717610Y-4888585I75814J0D01*
G01X723417Y-4895396D01*
G01X723886Y-4896033D01*
G01Y-5160552D01*
G01X715552Y-5168886D01*
G01X698187D01*
G03X713408Y-5139585I-20593J29301D01*
G01Y-4969585D01*
G03X677594Y-4933771I-35814J0D01*
G01X627594D01*
G03X602594Y-4943940I0J-35814D01*
G03X598177Y-4940276I-25000J-25645D01*
G03X586899Y-4922580I-45582J-16609D01*
G01X571429Y-4907110D01*
G01Y-4895304D01*
G01X574999Y-4891733D01*
G03X585642Y-4875686I-34305J34305D01*
G03X607009Y-4826928I-44948J48757D01*
G03X540695Y-4760614I-66314J0D01*
G03X502595Y-4772652I0J-66314D01*
G03X464495Y-4760614I-38100J-54276D01*
G03X398181Y-4826928I0J-66314D01*
G03X419547Y-4875686I66314J0D01*
G03X430190Y-4891733I44948J18257D01*
G01X433761Y-4895304D01*
G01Y-4907110D01*
G01X418290Y-4922580D01*
G03X407012Y-4940276I34305J-34305D01*
G03X402595Y-4943940I20582J-29309D01*
G03X377595Y-4933771I-25000J-25645D01*
G01X327595D01*
G03X291781Y-4969585I0J-35814D01*
G01Y-5139585D01*
G03X301126Y-5163710I35814J0D01*
G02X301781Y-5181600I-244074J-17890D01*
G03X316664Y-5217531I50814J0D01*
G01X354764Y-5255631D01*
G03X390695Y-5270514I35931J35931D01*
G01X666788D01*
G01Y-5519564D01*
G01X-496410Y-2022472D02*
G03X-460596Y-2058286I35814J0D01*
G01X-340596D01*
G03X-304782Y-2022472I0J35814D01*
G01Y-1822473D01*
G03X-340596Y-1786659I-35814J0D01*
G01X-351859D01*
G01X-352082Y-1784373D01*
G01Y-1766892D01*
G01X-310105Y-1724914D01*
G01X495300D01*
G03X529605Y-1710705I0J48514D01*
G01X1163095Y-1077214D01*
G01X1917700D01*
G03X1952005Y-1063005I0J48514D01*
G01X2015505Y-999505D01*
G03X2029714Y-965200I-34305J34305D01*
G01Y-431800D01*
G03X2015505Y-397495I-48514J0D01*
G01X1978268Y-360259D01*
G03X1943964Y-346050I-34305J-34305D01*
G01X1935500D01*
G02X1932148Y-345564I0J11811D01*
G03X1897400Y-318426I-34747J-8676D01*
G01X1811000D01*
G03X1778000Y-340324I0J-35814D01*
G03X1750634Y-318872I-33000J-13916D01*
G02X1750314Y-316140I11491J2732D01*
G01Y-266700D01*
G03X1736105Y-232395I-48514J0D01*
G01X1558305Y-54595D01*
G03X1524000Y-40386I-34305J-34305D01*
G01X355600D01*
G03X321295Y-54595I0J-48514D01*
G01X272005Y-103886D01*
G01X38100D01*
G01X36662Y-103907D01*
G03X110185Y0I-36662J103907D01*
G03X0Y110185I-110185J0D01*
G03X-110185Y0I0J-110185D01*
G03X0Y-110185I110185J0D01*
G03X16549Y-108936I0J110185D01*
G03X3795Y-118095I21551J-43464D01*
G01X-34902Y-156793D01*
G03X-48908Y-186662I34305J-34305D01*
G01X-60597D01*
G03X-96411Y-222476I0J-35814D01*
G01Y-422476D01*
G03X-60597Y-458290I35814J0D01*
G01X59403D01*
G03X95217Y-422476I0J35814D01*
G01Y-222476D01*
G03X87999Y-200914I-35814J0D01*
G01X110807D01*
G03X103589Y-222476I28596J-21562D01*
G01Y-422476D01*
G03X139403Y-458290I35814J0D01*
G01X259402D01*
G03X295216Y-422476I0J35814D01*
G01Y-222476D01*
G03X287998Y-200914I-35814J0D01*
G01X292100D01*
G03X326405Y-186705I0J48514D01*
G01X375695Y-137414D01*
G01X390877D01*
G01X365097Y-163193D01*
G03X352114Y-186662I34305J-34305D01*
G01X339402D01*
G03X303588Y-222476I0J-35814D01*
G01Y-422476D01*
G03X339402Y-458290I35814J0D01*
G01X459402D01*
G03X495216Y-422476I0J35814D01*
G01Y-222476D01*
G03X475183Y-190326I-35814J0D01*
G01X477295Y-188214D01*
G01X528973D01*
G03X503588Y-222476I10429J-34262D01*
G01Y-422476D01*
G03X539402Y-458290I35814J0D01*
G01X548163D01*
G01X548386Y-460576D01*
G01Y-475308D01*
G01X546652Y-477425D01*
G03X530586Y-520700I50248J-43275D01*
G03X596900Y-587014I66314J0D01*
G03X663214Y-520700I0J66314D01*
G03X647148Y-477425I-66314J0D01*
G01X645414Y-475308D01*
G01Y-460576D01*
G01X645637Y-458290D01*
G01X659402D01*
G03X695216Y-422476I0J35814D01*
G01Y-222476D01*
G03X669830Y-188214I-35814J0D01*
G01X728973D01*
G03X703587Y-222476I10429J-34262D01*
G01Y-422476D01*
G03X739401Y-458290I35814J0D01*
G01X859401D01*
G03X895215Y-422476I0J35814D01*
G01Y-222476D01*
G03X869830Y-188214I-35814J0D01*
G01X928972D01*
G03X903587Y-222476I10429J-34262D01*
G01Y-422476D01*
G03X939401Y-458290I35814J0D01*
G01X1059401D01*
G03X1095215Y-422476I0J35814D01*
G01Y-222476D01*
G03X1069829Y-188214I-35814J0D01*
G01X1427705D01*
G01X1488186Y-248695D01*
G01Y-316140D01*
G02X1487866Y-318872I-11811J0D01*
G03X1457686Y-354240I5634J-35368D01*
G01Y-434887D01*
G03X1485966Y-469900I35814J0D01*
G03X1457686Y-504913I7534J-35013D01*
G01Y-585560D01*
G03X1487561Y-620878I35814J0D01*
G02X1487894Y-623660I-11479J-2782D01*
G01Y-659244D01*
G01Y-736675D01*
G01X1487670Y-738961D01*
G01X1481408D01*
G03X1445594Y-774775I0J-35814D01*
G01Y-944775D01*
G03X1476053Y-980186I35814J0D01*
G01X1143000D01*
G03X1108695Y-994395I0J-48514D01*
G01X475205Y-1627886D01*
G01X-330200D01*
G03X-364505Y-1642095I0J-48514D01*
G01X-434901Y-1712492D01*
G03X-449110Y-1746796I34305J-34305D01*
G01Y-1784373D01*
G01X-449334Y-1786659D01*
G01X-460596D01*
G03X-496410Y-1822473I0J-35814D01*
G01Y-2022472D01*
G01X-647453Y-4782580D02*
G03X-611639Y-4818394I35814J0D01*
G01X-461639D01*
G03X-425825Y-4782580I0J35814D01*
G01Y-4695123D01*
G01X-402007D01*
G01X-370484Y-4726646D01*
G03X-323946Y-4745923I46538J46538D01*
G01X-132899D01*
G03X-86361Y-4726646I0J65814D01*
G01X10365Y-4629920D01*
G03X26362Y-4603898I-46537J46538D01*
G03X45468Y-4614974I26640J23937D01*
G03X17188Y-4649987I7534J-35013D01*
G01Y-4730634D01*
G03X53002Y-4766448I35814J0D01*
G01X139403D01*
G03X175217Y-4730634I0J35814D01*
G01Y-4649987D01*
G03X146936Y-4614974I-35814J0D01*
G03X174340Y-4587839I-7534J35013D01*
G02X177575Y-4587359I3373J-11593D01*
G02X184735Y-4587485I-612J-237958D01*
G03X202608Y-4602274I30538J18711D01*
G03X179458Y-4635774I12664J-33500D01*
G01Y-4695774D01*
G03X209168Y-4731064I35814J0D01*
G03X206913Y-4748209I64060J-17145D01*
G03X273228Y-4814523I66314J0D01*
G03X339542Y-4748209I0J66314D01*
G03X337408Y-4731524I-66314J0D01*
G03X371086Y-4695774I-2136J35750D01*
G01Y-4635774D01*
G03X347937Y-4602274I-35814J0D01*
G03X371086Y-4568774I-12664J33500D01*
G01Y-4508774D01*
G03X347937Y-4475274I-35814J0D01*
G03X371086Y-4441774I-12664J33500D01*
G01Y-4381774D01*
G03X367725Y-4366626I-35814J0D01*
G03X396913Y-4311944I-36626J54681D01*
G01Y-4227509D01*
G03X361099Y-4191695I-35814J0D01*
G01X180417D01*
G03X181211Y-4181499I-65019J10196D01*
G01Y-4110799D01*
G03X161977Y-4064303I-65814J0D01*
G03X164316Y-4051572I-33475J12731D01*
G01Y-3971572D01*
G03X128502Y-3935758I-35814J0D01*
G01X38502D01*
G03X2688Y-3971572I0J-35814D01*
G01Y-4044985D01*
G01X-137963D01*
G03X-203777Y-4110799I0J-65814D01*
G01Y-4181499D01*
G03X-202982Y-4191695I65814J0D01*
G01X-216684D01*
G01Y-4123972D01*
G03X-252498Y-4088158I-35814J0D01*
G01X-342498D01*
G03X-378312Y-4123972I0J-35814D01*
G01Y-4191791D01*
G03X-421283Y-4210971I3565J-65717D01*
G01X-421284D01*
G01X-425825Y-4215512D01*
G01Y-4142569D01*
G03X-461639Y-4106755I-35814J0D01*
G01X-611639D01*
G03X-630758Y-4112285I0J-35814D01*
G01Y-4081465D01*
G01X-539903D01*
G03X-504089Y-4045651I0J35814D01*
G01Y-3825651D01*
G03X-539903Y-3789837I-35814J0D01*
G01X-622163D01*
G03X-618058Y-3770309I-44410J19529D01*
G01Y-3766889D01*
G01X-550138D01*
G03X-514324Y-3731075I0J35814D01*
G01Y-3644674D01*
G03X-550138Y-3608860I-35814J0D01*
G01X-618058D01*
G01Y-3576389D01*
G01X-550138D01*
G03X-514324Y-3540575I0J35814D01*
G01Y-3454174D01*
G03X-550138Y-3418360I-35814J0D01*
G01X-630785D01*
G03X-665798Y-3446640I0J-35814D01*
G03X-700810Y-3418360I-35013J-7534D01*
G01X-781458D01*
G03X-817272Y-3454174I0J-35814D01*
G01Y-3540575D01*
G03X-781458Y-3576389I35814J0D01*
G01X-715086D01*
G01Y-3608860D01*
G01X-781458D01*
G03X-817272Y-3644674I0J-35814D01*
G01Y-3731075D01*
G03X-790134Y-3765822I35814J0D01*
G02X-789648Y-3769175I-11325J-3353D01*
G01Y-4445047D01*
G03X-775439Y-4479352I48514J0D01*
G01X-707899Y-4546891D01*
G03X-673594Y-4561101I34305J34305D01*
G01X-649739D01*
G02X-645181Y-4562016I0J-11811D01*
G03X-647453Y-4574568I33542J-12552D01*
G01Y-4577452D01*
G03X-651586Y-4600409I61680J-22957D01*
G01Y-4629309D01*
G03X-647453Y-4652266I65814J0D01*
G01Y-4654568D01*
G03X-641993Y-4673574I35814J0D01*
G03X-647453Y-4692580I30355J-19006D01*
G01Y-4782580D01*
G01X1591345Y-3108403D02*
G03X1626002Y-3135191I34658J9027D01*
G01X1716002D01*
G03X1751816Y-3099377I0J35814D01*
G01Y-3019377D01*
G03X1735560Y-2989374I-35814J0D01*
G03X1751816Y-2959372I-19557J30002D01*
G01Y-2879372D01*
G03X1719781Y-2843758I-35814J0D01*
G01X1719516Y-2841272D01*
G01Y-2653483D01*
G03X1705307Y-2619179I-48514J0D01*
G01X1653732Y-2567604D01*
G03X1619428Y-2553395I-34305J-34305D01*
G01X1289228D01*
G03X1254923Y-2567604I0J-48514D01*
G01X1204123Y-2618404D01*
G03X1189914Y-2652709I34305J-34305D01*
G01Y-2683414D01*
G01X1180029Y-2693298D01*
G01X1103406D01*
G01X1101120Y-2693075D01*
G01Y-2656812D01*
G03X1065306Y-2620998I-35814J0D01*
G01X965306D01*
G03X929492Y-2656812I0J-35814D01*
G01Y-2826812D01*
G03X965306Y-2862626I35814J0D01*
G01X1065306D01*
G03X1101120Y-2826812I0J35814D01*
G01Y-2790549D01*
G01X1103406Y-2790326D01*
G01X1200124D01*
G03X1234429Y-2776116I0J48514D01*
G01X1272732Y-2737813D01*
G03X1286942Y-2703509I-34305J34305D01*
G01Y-2672804D01*
G01X1299532Y-2660213D01*
G01Y-2826812D01*
G03X1335346Y-2862626I35814J0D01*
G01X1435346D01*
G03X1471160Y-2826812I0J35814D01*
G01Y-2801650D01*
G01X1482014Y-2812504D01*
G01Y-3021009D01*
G03X1496223Y-3055313I48514J0D01*
G01X1534591Y-3093681D01*
G03X1568896Y-3107891I34305J34305D01*
G01X1587902D01*
G02X1591345Y-3108403I0J-11811D01*
G01X414401Y-1533296D02*
G03X450215Y-1497482I0J35814D01*
G01Y-1017483D01*
G03X414401Y-981669I-35814J0D01*
G01X-65598D01*
G03X-101412Y-1017483I0J-35814D01*
G01Y-1497482D01*
G03X-65598Y-1533296I35814J0D01*
G01X414401D01*
G01X1776412Y-1470433D02*
G03X1801397Y-1480588I24985J25659D01*
G01X1911397D01*
G03X1947211Y-1444774I0J35814D01*
G01Y-1274774D01*
G03X1911397Y-1238960I-35814J0D01*
G01X1801397D01*
G03X1776412Y-1249114I0J-35814D01*
G03X1751428Y-1238960I-24985J-25659D01*
G01X1641428D01*
G03X1616418Y-1249139I0J-35814D01*
G03X1591408Y-1238960I-25010J-25635D01*
G01X1481408D01*
G03X1445594Y-1274774I0J-35814D01*
G01Y-1444774D01*
G03X1481408Y-1480588I35814J0D01*
G01X1591408D01*
G03X1616418Y-1470408I0J35814D01*
G03X1641428Y-1480588I25010J25635D01*
G01X1751428D01*
G03X1776412Y-1470433I0J35814D01*
G01X-999998Y-5458288D02*
G03X-859184Y-5317474I0J140814D01*
G03X-999998Y-5176660I-140814J0D01*
G03X-1140812Y-5317474I0J-140814D01*
G03X-999998Y-5458288I140814J0D01*
G01X2005202Y-167088D02*
G03X2146016Y-26274I0J140814D01*
G03X2005202Y114540I-140814J0D01*
G03X1864388Y-26274I0J-140814D01*
G03X2005202Y-167088I140814J0D01*
G01X-338098Y-167088D02*
G03X-197284Y-26274I0J140814D01*
G03X-338098Y114540I-140814J0D01*
G03X-478912Y-26274I0J-140814D01*
G03X-338098Y-167088I140814J0D01*
G01X340086Y-2108200D02*
G03X406400Y-2174514I66314J0D01*
G03X472714Y-2108200I0J66314D01*
G03X456136Y-2064337I-66314J0D01*
G03X453488Y-2061506I-49736J-43863D01*
G01X452013Y-2060058D01*
G01X450418Y-2058580D01*
G01X450098Y-2058286D01*
G01X459402D01*
G03X495216Y-2022472I0J35814D01*
G01Y-1822473D01*
G03X459402Y-1786659I-35814J0D01*
G01X339402D01*
G03X303588Y-1822473I0J-35814D01*
G01Y-2022472D01*
G03X339402Y-2058286I35814J0D01*
G01X350665D01*
G01X350888Y-2060572D01*
G01Y-2066676D01*
G01Y-2071924D01*
G03X340086Y-2108200I55512J-36276D01*
G01X1506576Y-2398700D02*
G03X1542390Y-2434514I35814J0D01*
G01X1742389D01*
G03X1778203Y-2398700I0J35814D01*
G01Y-2198700D01*
G03X1742389Y-2162886I-35814J0D01*
G01X1542390D01*
G03X1506576Y-2198700I0J-35814D01*
G01Y-2398700D01*
G01X430288Y-4575274D02*
G03X466102Y-4611088I35814J0D01*
G01X666102D01*
G03X701916Y-4575274I0J35814D01*
G01Y-4375274D01*
G03X666102Y-4339460I-35814J0D01*
G01X466102D01*
G03X430288Y-4375274I0J-35814D01*
G01Y-4575274D01*
G01X-134773Y-5180212D02*
G03X-98959Y-5144398I0J35814D01*
G01Y-4944398D01*
G03X-134773Y-4908584I-35814J0D01*
G01X-334772D01*
G03X-370586Y-4944398I0J-35814D01*
G01Y-5144398D01*
G03X-334772Y-5180212I35814J0D01*
G01X-134773D01*
G01X-879897Y-4066385D02*
G03X-844083Y-4030571I0J35814D01*
G01Y-3830571D01*
G03X-879897Y-3794757I-35814J0D01*
G01X-1019897D01*
G03X-1055711Y-3830571I0J-35814D01*
G01Y-4030571D01*
G03X-1019897Y-4066385I35814J0D01*
G01X-879897D01*
G01X-879897Y-5130391D02*
G03X-844083Y-5094577I0J35814D01*
G01Y-4894577D01*
G03X-879897Y-4858763I-35814J0D01*
G01X-1019897D01*
G03X-1055711Y-4894577I0J-35814D01*
G01Y-5094577D01*
G03X-1019897Y-5130391I35814J0D01*
G01X-879897D01*
G01X-140597Y-2058286D02*
G03X-104783Y-2022472I0J35814D01*
G01Y-1822473D01*
G03X-140597Y-1786659I-35814J0D01*
G01X-260597D01*
G03X-296411Y-1822473I0J-35814D01*
G01Y-2022472D01*
G03X-260597Y-2058286I35814J0D01*
G01X-140597D01*
G01X503588Y-2022472D02*
G03X539402Y-2058286I35814J0D01*
G01X659402D01*
G03X695216Y-2022472I0J35814D01*
G01Y-1822473D01*
G03X659402Y-1786659I-35814J0D01*
G01X539402D01*
G03X503588Y-1822473I0J-35814D01*
G01Y-2022472D01*
G01X259402Y-2058286D02*
G03X295216Y-2022472I0J35814D01*
G01Y-1822473D01*
G03X259402Y-1786659I-35814J0D01*
G01X139403D01*
G03X103589Y-1822473I0J-35814D01*
G01Y-2022472D01*
G03X139403Y-2058286I35814J0D01*
G01X259402D01*
G01X-140597Y-458290D02*
G03X-104783Y-422476I0J35814D01*
G01Y-222476D01*
G03X-140597Y-186662I-35814J0D01*
G01X-260597D01*
G03X-296411Y-222476I0J-35814D01*
G01Y-422476D01*
G03X-260597Y-458290I35814J0D01*
G01X-140597D01*
G01X-496410Y-422476D02*
G03X-460596Y-458290I35814J0D01*
G01X-340596D01*
G03X-304782Y-422476I0J35814D01*
G01Y-222476D01*
G03X-340596Y-186662I-35814J0D01*
G01X-460596D01*
G03X-496410Y-222476I0J-35814D01*
G01Y-422476D01*
G01X-675716Y-5099497D02*
G03X-639902Y-5135311I35814J0D01*
G01X-539903D01*
G03X-504089Y-5099497I0J35814D01*
G01Y-4879497D01*
G03X-539903Y-4843683I-35814J0D01*
G01X-639902D01*
G03X-675716Y-4879497I0J-35814D01*
G01Y-5099497D01*
G01X-288020Y-3869385D02*
G03X-177835Y-3759200I0J110185D01*
G03X-288020Y-3649015I-110185J0D01*
G03X-398205Y-3759200I0J-110185D01*
G03X-288020Y-3869385I110185J0D01*
G01X1929650Y-2104085D02*
G03X2039835Y-1993900I0J110185D01*
G03X1929650Y-1883715I-110185J0D01*
G03X1819464Y-1993900I0J-110185D01*
G03X1929650Y-2104085I110185J0D01*
G01X1790627Y-3402923D02*
G03X1826441Y-3367109I0J35814D01*
G01Y-3267109D01*
G03X1790627Y-3231295I-35814J0D01*
G01X1600628D01*
G03X1564814Y-3267109I0J-35814D01*
G01Y-3367109D01*
G03X1600628Y-3402923I35814J0D01*
G01X1790627D01*
G01X-467505Y-3486805D02*
G03X-431691Y-3522619I35814J0D01*
G01X-331691D01*
G03X-295877Y-3486805I0J35814D01*
G01Y-3316806D01*
G03X-331691Y-3280992I-35814J0D01*
G01X-431691D01*
G03X-467505Y-3316806I0J-35814D01*
G01Y-3486805D01*
G01X-97465Y-3486805D02*
G03X-61651Y-3522619I35814J0D01*
G01X38349D01*
G03X74163Y-3486805I0J35814D01*
G01Y-3316806D01*
G03X38349Y-3280992I-35814J0D01*
G01X-61651D01*
G03X-97465Y-3316806I0J-35814D01*
G01Y-3486805D01*
G01X-467508Y-2826812D02*
G03X-431694Y-2862626I35814J0D01*
G01X-331694D01*
G03X-295880Y-2826812I0J35814D01*
G01Y-2656812D01*
G03X-331694Y-2620998I-35814J0D01*
G01X-431694D01*
G03X-467508Y-2656812I0J-35814D01*
G01Y-2826812D01*
G01X2214188Y-5358674D02*
G02X2050002Y-5522860I-164186J0D01*
G01X858264D01*
G03X858416Y-5519564I-35662J3297D01*
G01Y-5269564D01*
G03X822602Y-5233750I-35814J0D01*
G01X794412D01*
G01X810631Y-5217531D01*
G03X825514Y-5181600I-35931J35931D01*
G01Y-4896033D01*
G01X825983Y-4895396D01*
G01X831790Y-4888585D01*
G03X850514Y-4838700I-57090J49885D01*
G03X846228Y-4813570I-75814J0D01*
G03X857428Y-4814523I11200J65361D01*
G03X923742Y-4748209I0J66314D01*
G03X921547Y-4731290I-66314J0D01*
G03X952746Y-4695774I-4615J35515D01*
G01Y-4635774D01*
G03X951270Y-4625597I-35814J0D01*
G01X987922D01*
G01Y-4825279D01*
G03X998107Y-4835464I10185J0D01*
G01X1126414D01*
G01Y-5287315D01*
G01Y-5287532D01*
G03X1055780Y-5261915I-70634J-84568D01*
G03X945595Y-5372100I0J-110185D01*
G03X1055780Y-5482285I110185J0D01*
G03X1165965Y-5372100I0J110185D01*
G03X1162884Y-5346225I-110185J0D01*
G03X1192227Y-5353128I29343J58910D01*
G01X1198901D01*
G03X1206500Y-5353510I7599J75432D01*
G03X1214099Y-5353128I0J75814D01*
G01X1241264D01*
G01X1242173Y-5354063D01*
G01X1280273Y-5392163D01*
G03X1314628Y-5406393I34354J34354D01*
G01X1465457D01*
G02X1468418Y-5406761I0J-12073D01*
G03X1503767Y-5436823I35349J5752D01*
G01X1584415D01*
G03X1619428Y-5408543I0J35814D01*
G03X1654440Y-5436823I35013J7534D01*
G01X1735088D01*
G03X1770902Y-5401009I0J35814D01*
G01Y-5365477D01*
G02X1787501Y-5333780I58998J-10701D01*
G01X2060182Y-5061099D01*
G03X2074412Y-5026745I-34354J34354D01*
G01Y-4919901D01*
G01X2154237D01*
G03X2190051Y-4884087I0J35814D01*
G01Y-4852070D01*
G02X2206651Y-4820372I58998J-10701D01*
G01X2214188Y-4812834D01*
G01Y-5358674D01*
G01X1864388Y-5317474D02*
G03X2005202Y-5458288I140814J0D01*
G03X2146016Y-5317474I0J140814D01*
G03X2005202Y-5176660I-140814J0D01*
G03X1864388Y-5317474I0J-140814D01*
G01X966460Y-4318695D02*
G03X969442Y-4299109I-62832J19586D01*
G01Y-4140743D01*
G01X988625Y-4121559D01*
G03X987922Y-4125279I9482J-3719D01*
G01Y-4318695D01*
G01X966460D01*
G54D10*
G01X-590461Y-3497374D02*
G01X-524230Y-3497374D01*
G01X-590461Y-3497374D02*
G01X-590461Y-3566483D01*
G01X-590461Y-3497374D02*
G01X-590461Y-3428266D01*
G01X83502Y-4011572D02*
G01X83502Y-3945664D01*
G01X83502Y-4011572D02*
G01X154410Y-4011572D01*
G01X83502Y-4011572D02*
G01X12594Y-4011572D01*
G01X-589903Y-3935651D02*
G01X-589903Y-3799743D01*
G01X-589903Y-3935651D02*
G01X-589903Y-4071559D01*
G01X-589903Y-3935651D02*
G01X-513995Y-3935651D01*
G01X-949897Y-3930571D02*
G01X-1045805Y-3930571D01*
G01X-949897Y-3930571D02*
G01X-853989Y-3930571D01*
G01X-949897Y-3930571D02*
G01X-949897Y-3804663D01*
G01X-949897Y-3930571D02*
G01X-949897Y-4056479D01*
G01X-590461Y-3687874D02*
G01X-524230Y-3687874D01*
G01X-590461Y-3687874D02*
G01X-590461Y-3756983D01*
G01X-590461Y-3687874D02*
G01X-590461Y-3618766D01*
G01X242613Y-5394564D02*
G01X156705Y-5394564D01*
G01X242613Y-5394564D02*
G01X328521Y-5394564D01*
G01X242613Y-5394564D02*
G01X242613Y-5243656D01*
G01X-234772Y-5044398D02*
G01X-234772Y-4918490D01*
G01X-234772Y-5044398D02*
G01X-234772Y-5170306D01*
G01X-234772Y-5044398D02*
G01X-108865Y-5044398D01*
G01X-234772Y-5044398D02*
G01X-360680Y-5044398D01*
G01X-949897Y-4994577D02*
G01X-1045805Y-4994577D01*
G01X-949897Y-4994577D02*
G01X-853989Y-4994577D01*
G01X-949897Y-4994577D02*
G01X-949897Y-4868669D01*
G01X-949897Y-4994577D02*
G01X-949897Y-5120485D01*
G01X-589903Y-4989497D02*
G01X-589903Y-4853589D01*
G01X-589903Y-4989497D02*
G01X-589903Y-5125405D01*
G01X-589903Y-4989497D02*
G01X-513995Y-4989497D01*
G01X-589903Y-4989497D02*
G01X-665810Y-4989497D01*
G01X-536639Y-4737580D02*
G01X-536639Y-4808488D01*
G01X-536639Y-4737580D02*
G01X-435731Y-4737580D01*
G01X-536639Y-4737580D02*
G01X-637547Y-4737580D01*
G01X96202Y-4690311D02*
G01X96202Y-4756542D01*
G01X96202Y-4690311D02*
G01X27094Y-4690311D01*
G01X96202Y-4690311D02*
G01X165311Y-4690311D01*
G01X-536639Y-4187568D02*
G01X-536639Y-4116661D01*
G01X-536639Y-4187568D02*
G01X-435731Y-4187568D01*
G01X-297498Y-4163972D02*
G01X-297498Y-4098064D01*
G01X-297498Y-4163972D02*
G01X-226590Y-4163972D01*
G01X-297498Y-4163972D02*
G01X-368406Y-4163972D01*
G01X-381694Y-2741812D02*
G01X-381694Y-2852720D01*
G01X-381694Y-2741812D02*
G01X-381694Y-2630904D01*
G01X-381694Y-2741812D02*
G01X-457602Y-2741812D01*
G01X-381694Y-2741812D02*
G01X-305786Y-2741812D01*
G01X174401Y-1257483D02*
G01X-91506Y-1257483D01*
G01X174401Y-1257483D02*
G01X440309Y-1257483D01*
G01X174401Y-1257483D02*
G01X174401Y-991575D01*
G01X174401Y-1257483D02*
G01X174401Y-1523390D01*
G01X392699Y-2930520D02*
G01X316791Y-2930520D01*
G01X432600Y-2595674D02*
G01X366692Y-2595674D01*
G01X432600Y-2595674D02*
G01X432600Y-2524766D01*
G01X432600Y-2595674D02*
G01X432600Y-2666582D01*
G01X762602Y-5394564D02*
G01X676694Y-5394564D01*
G01X762602Y-5394564D02*
G01X848510Y-5394564D01*
G01X652594Y-5054585D02*
G01X703502Y-5054585D01*
G01X652594Y-5054585D02*
G01X652594Y-4943677D01*
G01X566102Y-4475274D02*
G01X566102Y-4601182D01*
G01X566102Y-4475274D02*
G01X566102Y-4349366D01*
G01X566102Y-4475274D02*
G01X440194Y-4475274D01*
G01X566102Y-4475274D02*
G01X692010Y-4475274D01*
G01X585813Y-4071117D02*
G01X484905Y-4071117D01*
G01X585813Y-4071117D02*
G01X585813Y-4164970D01*
G01X585813Y-3867917D02*
G01X484905Y-3867917D01*
G01X585813Y-3664717D02*
G01X484905Y-3664717D01*
G01X585813Y-3664717D02*
G01X585813Y-3570864D01*
G01X572605Y-3243374D02*
G01X638513Y-3243374D01*
G01X572605Y-3243374D02*
G01X572605Y-3314282D01*
G01X999401Y-322476D02*
G01X913493Y-322476D01*
G01X999401Y-322476D02*
G01X1085309Y-322476D01*
G01X999401Y-322476D02*
G01X999401Y-448384D01*
G01X1410805Y-5072174D02*
G01X1476713Y-5072174D01*
G01X1410805Y-5072174D02*
G01X1410805Y-5143082D01*
G01X1410805Y-5072174D02*
G01X1410805Y-5001266D01*
G01X1642389Y-2298700D02*
G01X1516482Y-2298700D01*
G01X1642389Y-2298700D02*
G01X1768297Y-2298700D01*
G01X1642389Y-2298700D02*
G01X1642389Y-2172792D01*
G01X1642389Y-2298700D02*
G01X1642389Y-2424608D01*
G01X839000Y-2151174D02*
G01X773092Y-2151174D01*
G01X839000Y-2151174D02*
G01X839000Y-2080266D01*
G01X839000Y-2151174D02*
G01X839000Y-2222082D01*
G01X1536408Y-1359774D02*
G01X1536408Y-1248866D01*
G01X1536408Y-1359774D02*
G01X1536408Y-1470682D01*
G01X1536408Y-1359774D02*
G01X1455500Y-1359774D01*
G01X839000Y-2354374D02*
G01X773092Y-2354374D01*
G01X839000Y-2354374D02*
G01X839000Y-2283466D01*
G01X839000Y-2354374D02*
G01X839000Y-2425282D01*
G01X1385349Y-3401805D02*
G01X1385349Y-3290898D01*
G01X1385349Y-3401805D02*
G01X1461257Y-3401805D01*
G01X1385349Y-3401805D02*
G01X1309441Y-3401805D01*
G01X1856397Y-1359774D02*
G01X1856397Y-1248866D01*
G01X1856397Y-1359774D02*
G01X1856397Y-1470682D01*
G01X1856397Y-1359774D02*
G01X1937305Y-1359774D01*
G01X1696428Y-1359774D02*
G01X1696428Y-1248866D01*
G01X1696428Y-1359774D02*
G01X1696428Y-1470682D01*
G01X1721028Y-5128345D02*
G01X1721028Y-5194577D01*
G01X1721028Y-5128345D02*
G01X1790136Y-5128345D01*
G01X1721028Y-5128345D02*
G01X1651919Y-5128345D01*
G04 Copper End*

G04 PolygonModel Start*
G36*
G01X-585773Y-4659309D02*
G01X-399599Y-4659309D01*
G02X-378386Y-4668095I0J-30000D01*
G01X-345159Y-4701322D01*
G03X-323946Y-4710109I21213J21213D01*
G01X-132899D01*
G03X-111686Y-4701322I0J30000D01*
G01X-14959Y-4604595D01*
G03X-6172Y-4583382I-21213J21213D01*
G01Y-4468535D01*
G02X2614Y-4447322I30000J-0D01*
G01X99205Y-4350731D01*
G02X120418Y-4341944I21213J-21213D01*
G01X331099D01*
G03X361099Y-4311944I0J30000D01*
G01Y-4227509D01*
G01X-374746D01*
G03X-395959Y-4236295I-0J-30000D01*
G01X-416486Y-4256822D01*
G02X-437699Y-4265609I-21213J21213D01*
G01X-585550D01*
G03X-615550Y-4295609I0J-30000D01*
G01Y-4324509D01*
G03X-585550Y-4354509I30000J0D01*
G01X-463099D01*
G02X-441886Y-4363295I0J-30000D01*
G01X-434059Y-4371122D01*
G02X-425272Y-4392335I-21213J-21213D01*
G01Y-4532582D01*
G02X-434059Y-4553795I-30000J0D01*
G01X-441886Y-4561622D01*
G02X-463099Y-4570409I-21213J21213D01*
G01X-585773D01*
G03X-615772Y-4600409I0J-30000D01*
G01Y-4629309D01*
G03X-585773Y-4659309I30000J0D01*
G37*
G36*
G01X933628Y-4299109D02*
G01X933628Y-4138335D01*
G02X942414Y-4117122I30000J-0D01*
G01X1140741Y-3918795D01*
G02X1161954Y-3910009I21213J-21213D01*
G01X1800629D01*
G03X1830629Y-3880009I0J30000D01*
G01Y-3768821D01*
G03X1800629Y-3738821I-30000J0D01*
G01X1168567D01*
G02X1147354Y-3730035I-0J30000D01*
G01X980514Y-3563195D01*
G03X959301Y-3554409I-21213J-21213D01*
G01X740938D01*
G03X710938Y-3584409I0J-30000D01*
G01Y-4299109D01*
G03X740938Y-4329109I30000J0D01*
G01X903628D01*
G03X933628Y-4299109I0J30000D01*
G37*
G36*
G01X801106Y-4589783D02*
G01X1054875Y-4589783D01*
G02X1076089Y-4598569I0J-30000D01*
G01X1153441Y-4675922D01*
G02X1162228Y-4697135I-21213J-21213D01*
G01Y-5287315D01*
G03X1192227Y-5317314I30000J0D01*
G01X1298877D01*
G03X1328877Y-5287315I0J30000D01*
G01Y-5016184D01*
G02X1337664Y-4994971I30000J-0D01*
G01X1423239Y-4909395D01*
G02X1444453Y-4900609I21213J-21213D01*
G01X1462428D01*
G03X1492428Y-4870609I0J30000D01*
G01Y-4668979D01*
G03X1483641Y-4647766I-30000J-0D01*
G01X1332646Y-4496771D01*
G03X1311432Y-4487984I-21213J-21213D01*
G01X801106D01*
G03X771106Y-4517984I0J-30000D01*
G01Y-4559783D01*
G03X801106Y-4589783I30000J0D01*
G37*
G36*
G01X801106Y-4462587D02*
G01X1321123Y-4462587D01*
G03X1342336Y-4453800I-0J30000D01*
G01X1483641Y-4312495D01*
G03X1492428Y-4291282I-21213J21213D01*
G01Y-4074457D01*
G03X1462428Y-4044457I-30000J0D01*
G01X1192227D01*
G03X1162228Y-4074457I0J-30000D01*
G01Y-4227782D01*
G02X1153441Y-4248995I-30000J0D01*
G01X1056714Y-4345722D01*
G02X1035501Y-4354509I-21213J21213D01*
G01X801106D01*
G03X771106Y-4384509I0J-30000D01*
G01Y-4432587D01*
G03X801106Y-4462587I30000J0D01*
G37*
G36*
G01X947313Y-1812845D02*
G01X1076245Y-1812845D01*
G01X1092200Y-1828800D01*
G01Y-2074585D01*
G03X1100987Y-2095798I30000J0D01*
G01X1153616Y-2148428D01*
G03X1174830Y-2157214I21213J21213D01*
G01X1309296D01*
G02X1339296Y-2187214I0J-30000D01*
G01Y-2383000D01*
G02X1309296Y-2413000I-30000J0D01*
G01X938227D01*
G02X908228Y-2383000I0J30000D01*
G01Y-1851930D01*
G02X917014Y-1830717I30000J0D01*
G01X926099Y-1821632D01*
G02X947313Y-1812845I21213J-21213D01*
G37*
G04 PolygonModel End*

G04 Rect Start*
G36*
G01X-167963Y-4110799D02*
G01X-167963Y-4181499D01*
G03X-137963Y-4211499I30000J0D01*
G01X115398D01*
G03X145397Y-4181499I0J30000D01*
G01Y-4110799D01*
G03X115398Y-4080799I-30000J0D01*
G01X-137963D01*
G03X-167963Y-4110799I0J-30000D01*
G37*
G36*
G01X431800Y-4305300D02*
G01X431800Y-4699000D01*
G01X685800D01*
G01Y-4305300D01*
G01X431800D01*
G37*
G36*
G01X254000Y-2895600D02*
G01X254000Y-2959100D01*
G01X444500D01*
G01Y-2895600D01*
G01X254000D01*
G37*
G36*
G01X-609600Y-4699000D02*
G01X-609600Y-4787900D01*
G01X-406400D01*
G01Y-4699000D01*
G01X-609600D01*
G37*
G36*
G01X-558800Y-4089400D02*
G01X-558800Y-4229100D01*
G01X-457200D01*
G01Y-4089400D01*
G01X-558800D01*
G37*
G04 Rect End*

G04 Tear Start*
G36*
G01X-753834Y-3769175D02*
G01X-728434Y-3769175D01*
G02X-709384Y-3731075I47625J0D01*
G01X-772884D01*
G02X-753834Y-3769175I-28575J-38100D01*
G37*
G36*
G01X367699Y-3089680D02*
G01X417699Y-3089680D01*
G02X442699Y-3055516I35844J0D01*
G01X342699D01*
G02X367699Y-3089680I-10844J-34164D01*
G37*
G36*
G01X471920Y-3050516D02*
G01X471920Y-3000516D01*
G02X442699Y-2996219I0J101511D01*
G01Y-3054813D01*
G02X471920Y-3050516I29221J-97214D01*
G37*
G36*
G01X468768Y-2860549D02*
G01X468768Y-2810549D01*
G02X442699Y-2805549I0J70461D01*
G01Y-2865549D01*
G02X468768Y-2860549I26069J-65461D01*
G37*
G36*
G01X637714Y-2763595D02*
G01X587714Y-2763595D01*
G02X562714Y-2805524I-47661J0D01*
G01X662714D01*
G02X637714Y-2763595I22661J41929D01*
G37*
G36*
G01X1525628Y-3542121D02*
G01X1525628Y-3592121D01*
G02X1600628Y-3597395I0J-535969D01*
G01Y-3536848D01*
G02X1525628Y-3542121I-75000J530696D01*
G37*
G36*
G01X176962Y-4526004D02*
G01X176962Y-4551544D01*
G02X215272Y-4554238I0J-273773D01*
G01Y-4523311D01*
G02X176962Y-4526004I-38310J271079D01*
G37*
G36*
G01X260458Y-4734084D02*
G01X285998Y-4734084D01*
G02X305152Y-4695774I47887J0D01*
G01X241303D01*
G02X260458Y-4734084I-28732J-38310D01*
G37*
G36*
G01X844658Y-4734084D02*
G01X870198Y-4734084D01*
G02X889352Y-4695774I47887J0D01*
G01X825503D01*
G02X844658Y-4734084I-28732J-38310D01*
G37*
G36*
G01X177712Y-4551544D02*
G01X177712Y-4526004D01*
G02X139403Y-4506849I0J47887D01*
G01Y-4570699D01*
G02X177712Y-4551544I38310J-28732D01*
G37*
G36*
G01X1465457Y-5345039D02*
G01X1465457Y-5370579D01*
G02X1503767Y-5389734I0J-47887D01*
G01Y-5325884D01*
G02X1465457Y-5345039I-38310J28732D01*
G37*
G36*
G01X1762177Y-5308455D02*
G01X1746994Y-5287519D01*
G02X1692816Y-5314608I-67723J67723D01*
G01X1735088Y-5362634D01*
G02X1762177Y-5308455I94812J-13545D01*
G37*
G36*
G01X1875897Y-4831820D02*
G01X1875897Y-4857360D01*
G02X1914207Y-4876515I0J-47887D01*
G01Y-4812665D01*
G02X1875897Y-4831820I-38310J28732D01*
G37*
G36*
G01X2181326Y-4795048D02*
G01X2163267Y-4776988D01*
G02X2109089Y-4804077I-67723J67723D01*
G01X2154237Y-4849226D01*
G02X2181326Y-4795048I94812J-13545D01*
G37*
G36*
G01X1875897Y-4628620D02*
G01X1875897Y-4654160D01*
G02X1914207Y-4673315I0J-47887D01*
G01Y-4609465D01*
G02X1875897Y-4628620I-38310J28732D01*
G37*
G36*
G01X1966982Y-4563075D02*
G01X1941442Y-4563075D01*
G02X1922287Y-4601385I-47887J0D01*
G01X1986137D01*
G02X1966982Y-4563075I28732J38310D01*
G37*
G36*
G01X1941442Y-4503805D02*
G01X1966982Y-4503805D01*
G02X1986137Y-4465495I47887J0D01*
G01X1922287D01*
G02X1941442Y-4503805I-28732J-38310D01*
G37*
G36*
G01X2021306Y-4376456D02*
G01X2003247Y-4358396D01*
G02X1949069Y-4385485I-67723J67723D01*
G01X1994217Y-4430634D01*
G02X2021306Y-4376456I94812J-13545D01*
G37*
G36*
G01X2181326Y-4375948D02*
G01X2163267Y-4357888D01*
G02X2109089Y-4384977I-67723J67723D01*
G01X2154237Y-4430126D01*
G02X2181326Y-4375948I94812J-13545D01*
G37*
G36*
G01X2163267Y-4492076D02*
G01X2181326Y-4474017D01*
G02X2154237Y-4419839I67723J67723D01*
G01X2109089Y-4464987D01*
G02X2163267Y-4492076I-13545J-94812D01*
G37*
G36*
G01X1962398Y-4138609D02*
G01X1936858Y-4138609D01*
G02X1917703Y-4169585I-34624J0D01*
G01X1981552D01*
G02X1962398Y-4138609I15469J30977D01*
G37*
G36*
G01X1875897Y-4196820D02*
G01X1875897Y-4222360D01*
G02X1914207Y-4241515I0J-47887D01*
G01Y-4177665D01*
G02X1875897Y-4196820I-38310J28732D01*
G37*
G36*
G01X2047138Y-4258117D02*
G01X2065198Y-4276176D01*
G02X2119376Y-4249087I67723J-67723D01*
G01X2074227Y-4203939D01*
G02X2047138Y-4258117I-94812J13545D01*
G37*
G36*
G01X1733798Y-4899039D02*
G01X1708258Y-4899039D01*
G02X1689103Y-4937349I-47887J0D01*
G01X1752952D01*
G02X1733798Y-4899039I28732J38310D01*
G37*
G36*
G01X565295Y-4956885D02*
G01X539895Y-4956885D01*
G02X537216Y-4969585I-31443J0D01*
G01X567973D01*
G02X565295Y-4956885I28764J12700D01*
G37*
G36*
G01X465295Y-4956885D02*
G01X439895Y-4956885D01*
G02X437216Y-4969585I-31443J0D01*
G01X467974D01*
G02X465295Y-4956885I28764J12700D01*
G37*
G36*
G01X337595Y-5181600D02*
G01X367595Y-5181600D01*
G02X370759Y-5139585I280543J0D01*
G01X334431D01*
G02X337595Y-5181600I-277379J-42015D01*
G37*
G36*
G01X-387896Y-1784373D02*
G01X-413296Y-1784373D01*
G02X-432346Y-1822473I-47625J0D01*
G01X-368846D01*
G02X-387896Y-1784373I28575J38100D01*
G37*
G36*
G01X-13297Y-2060572D02*
G01X12103Y-2060572D01*
G02X31153Y-2022472I47625J0D01*
G01X-32347D01*
G02X-13297Y-2060572I-28575J-38100D01*
G37*
G36*
G01X386702Y-2060572D02*
G01X412102Y-2060572D01*
G02X431152Y-2022472I47625J0D01*
G01X367652D01*
G02X386702Y-2060572I-28575J-38100D01*
G37*
G36*
G01X584200Y-460576D02*
G01X609600Y-460576D01*
G02X628650Y-422476I47625J0D01*
G01X565150D01*
G02X584200Y-460576I-28575J-38100D01*
G37*
G36*
G01X412102Y-197498D02*
G01X386702Y-197498D01*
G02X367652Y-222476I-25900J0D01*
G01X431152D01*
G02X412102Y-197498I6850J24978D01*
G37*
G36*
G01X12103Y-191097D02*
G01X-13297Y-191097D01*
G02X-32347Y-222476I-35368J0D01*
G01X31153D01*
G02X12103Y-191097I16318J31379D01*
G37*
G36*
G01X954005Y-2462695D02*
G01X1004005Y-2462695D01*
G02X1009278Y-2399374I382804J0D01*
G01X948731D01*
G02X954005Y-2462695I-377531J-63321D01*
G37*
G36*
G01X0Y-2618712D02*
G01X-25400Y-2618712D01*
G02X-44450Y-2656812I-47625J0D01*
G01X19050D01*
G02X0Y-2618712I28575J38100D01*
G37*
G36*
G01X1473446Y-2754512D02*
G01X1473446Y-2729112D01*
G02X1435346Y-2710062I0J47625D01*
G01Y-2773562D01*
G02X1473446Y-2754512I38100J-28575D01*
G37*
G36*
G01X1103406Y-2754512D02*
G01X1103406Y-2729112D01*
G02X1065306Y-2710062I0J47625D01*
G01Y-2773562D01*
G02X1103406Y-2754512I38100J-28575D01*
G37*
G36*
G01X927209Y-3389105D02*
G01X927209Y-3414505D01*
G02X965309Y-3433555I0J-47625D01*
G01Y-3370055D01*
G02X927209Y-3389105I-38100J28575D01*
G37*
G36*
G01X1683702Y-2841272D02*
G01X1658302Y-2841272D01*
G02X1639252Y-2879372I-47625J0D01*
G01X1702752D01*
G02X1683702Y-2841272I28575J38100D01*
G37*
G36*
G01X1587902Y-3046677D02*
G01X1587902Y-3072077D01*
G02X1626002Y-3091127I0J-47625D01*
G01Y-3027627D01*
G02X1587902Y-3046677I-38100J28575D01*
G37*
G36*
G01X1866900Y-736675D02*
G01X1841500Y-736675D01*
G02X1822450Y-774775I-47625J0D01*
G01X1885950D01*
G02X1866900Y-736675I28575J38100D01*
G37*
G36*
G01X1714500Y-736675D02*
G01X1689100Y-736675D01*
G02X1670050Y-774775I-47625J0D01*
G01X1733550D01*
G02X1714500Y-736675I28575J38100D01*
G37*
G36*
G01X1549108Y-736675D02*
G01X1523708Y-736675D01*
G02X1504658Y-774775I-47625J0D01*
G01X1568158D01*
G02X1549108Y-736675I28575J38100D01*
G37*
G36*
G01X450627Y-3123374D02*
G01X400628Y-3123374D01*
G02X392600Y-3198374I-354363J0D01*
G01X472600D01*
G02X450627Y-3123374I117016J75000D01*
G37*
G36*
G01X547605Y-2715674D02*
G01X597605Y-2715674D01*
G02X602878Y-2640674I535969J0D01*
G01X542331D01*
G02X547605Y-2715674I-530696J-75000D01*
G37*
G36*
G01X687604Y-2620674D02*
G01X687604Y-2570674D01*
G02X612605Y-2565401I0J535969D01*
G01Y-2625948D01*
G02X687604Y-2620674I75000J-530696D01*
G37*
G36*
G01X-649739Y-4499887D02*
G01X-649739Y-4525287D01*
G02X-611639Y-4544337I0J-47625D01*
G01Y-4480837D01*
G02X-649739Y-4499887I-38100J28575D01*
G37*
G36*
G01X1549400Y-316140D02*
G01X1524000Y-316140D01*
G02X1504950Y-354240I-47625J0D01*
G01X1568450D01*
G02X1549400Y-316140I28575J38100D01*
G37*
G36*
G01X1523708Y-623660D02*
G01X1549108Y-623660D01*
G02X1568158Y-585560I47625J0D01*
G01X1504658D01*
G02X1523708Y-623660I-28575J-38100D01*
G37*
G36*
G01X1714500Y-316140D02*
G01X1689100Y-316140D01*
G02X1670050Y-354240I-47625J0D01*
G01X1733550D01*
G02X1714500Y-316140I28575J38100D01*
G37*
G36*
G01X1689100Y-623660D02*
G01X1714500Y-623660D01*
G02X1733550Y-585560I47625J0D01*
G01X1670050D01*
G02X1689100Y-623660I-28575J-38100D01*
G37*
G36*
G01X1935500Y-407264D02*
G01X1935500Y-381864D01*
G02X1897400Y-362814I0J47625D01*
G01Y-426314D01*
G02X1935500Y-407264I38100J-28575D01*
G37*
G36*
G01X1841500Y-623660D02*
G01X1866900Y-623660D01*
G02X1885950Y-585560I47625J0D01*
G01X1822450D01*
G02X1841500Y-623660I-28575J-38100D01*
G37*
G36*
G01X0Y-2266758D02*
G01X-25400Y-2266758D01*
G02X-44450Y-2304858I-47625J0D01*
G01X19050D01*
G02X0Y-2266758I28575J38100D01*
G37*
G36*
G01X-25400Y-2574279D02*
G01X0Y-2574279D01*
G02X19050Y-2536179I47625J0D01*
G01X-44450D01*
G02X-25400Y-2574279I-28575J-38100D01*
G37*
G36*
G01X517603Y-4862560D02*
G01X535563Y-4880521D01*
G01X536547Y-4879268D01*
G01X537254Y-4877809D01*
G01X537730Y-4876180D01*
G01X538017Y-4874423D01*
G01X538159Y-4872575D01*
G01X538149Y-4866874D01*
G01X538217Y-4863333D01*
G01X538403Y-4861756D01*
G01X538749Y-4860361D01*
G01X539299Y-4859185D01*
G01X540096Y-4858269D01*
G01X541183Y-4857650D01*
G01X542605Y-4857369D01*
G01X510255Y-4825018D01*
G01X510307Y-4827320D01*
G01X510703Y-4829721D01*
G01X511381Y-4832202D01*
G01X513335Y-4837323D01*
G01X517894Y-4847635D01*
G01X518808Y-4850111D01*
G01X519506Y-4852505D01*
G01X519928Y-4854799D01*
G01X520010Y-4856971D01*
G01X519692Y-4859002D01*
G01X518910Y-4860872D01*
G01X517603Y-4862560D01*
G37*
G36*
G01X469626Y-4880520D02*
G01X487587Y-4862560D01*
G01X486279Y-4860872D01*
G01X485497Y-4859002D01*
G01X485179Y-4856971D01*
G01X485261Y-4854799D01*
G01X485683Y-4852506D01*
G01X486382Y-4850111D01*
G01X488361Y-4845098D01*
G01X492911Y-4834743D01*
G01X493809Y-4832202D01*
G01X494487Y-4829722D01*
G01X494883Y-4827320D01*
G01X494935Y-4825019D01*
G01X462584Y-4857369D01*
G01X464006Y-4857650D01*
G01X465093Y-4858269D01*
G01X465890Y-4859185D01*
G01X466440Y-4860361D01*
G01X466786Y-4861756D01*
G01X466972Y-4863333D01*
G01X467040Y-4866874D01*
G01X467031Y-4872575D01*
G01X467172Y-4874423D01*
G01X467459Y-4876180D01*
G01X467935Y-4877808D01*
G01X468643Y-4879268D01*
G01X469626Y-4880520D01*
G37*
G36*
G01X412102Y-2066676D02*
G01X386702Y-2066676D01*
G01X386806Y-2069868D01*
G01X387306Y-2076895D01*
G01X387315Y-2078183D01*
G01X387255Y-2079445D01*
G01X387110Y-2080686D01*
G01X386863Y-2081913D01*
G01X386498Y-2083130D01*
G01X385998Y-2084345D01*
G01X385347Y-2085562D01*
G01X384528Y-2086787D01*
G01X383525Y-2088026D01*
G01X429275D01*
G01X427667Y-2086324D01*
G01X426072Y-2084846D01*
G01X422969Y-2082408D01*
G01X418724Y-2079492D01*
G01X417469Y-2078568D01*
G01X416314Y-2077606D01*
G01X415272Y-2076569D01*
G01X414356Y-2075419D01*
G01X413578Y-2074119D01*
G01X412951Y-2072633D01*
G01X412488Y-2070921D01*
G01X412201Y-2068948D01*
G01X412102Y-2066676D01*
G37*
G36*
G01X609600Y-479176D02*
G01X584200Y-479176D01*
G01X584142Y-480620D01*
G01X583971Y-482065D01*
G01X583697Y-483508D01*
G01X583326Y-484946D01*
G01X582865Y-486374D01*
G01X581705Y-489191D01*
G01X580276Y-491931D01*
G01X578639Y-494567D01*
G01X576853Y-497073D01*
G01X574025Y-500526D01*
G01X619775D01*
G01X616947Y-497073D01*
G01X615161Y-494567D01*
G01X613524Y-491931D01*
G01X612095Y-489191D01*
G01X610935Y-486374D01*
G01X610474Y-484946D01*
G01X610103Y-483508D01*
G01X609829Y-482065D01*
G01X609658Y-480620D01*
G01X609600Y-479176D01*
G37*
G36*
G01X1902251Y-4654160D02*
G01X1902251Y-4628620D01*
G01X1900816Y-4628562D01*
G01X1899376Y-4628393D01*
G01X1897936Y-4628121D01*
G01X1896499Y-4627752D01*
G01X1895069Y-4627294D01*
G01X1892246Y-4626142D01*
G01X1889497Y-4624724D01*
G01X1886853Y-4623098D01*
G01X1884345Y-4621324D01*
G01X1882001Y-4619461D01*
G01X1880901Y-4618515D01*
G01Y-4664265D01*
G01X1883150Y-4662380D01*
G01X1885580Y-4660555D01*
G01X1888160Y-4658848D01*
G01X1890860Y-4657318D01*
G01X1893650Y-4656025D01*
G01X1895069Y-4655486D01*
G01X1896499Y-4655029D01*
G01X1897936Y-4654660D01*
G01X1899376Y-4654387D01*
G01X1900816Y-4654218D01*
G01X1902251Y-4654160D01*
G37*
G36*
G01X870198Y-4706685D02*
G01X844658Y-4706685D01*
G01X844600Y-4708120D01*
G01X844431Y-4709560D01*
G01X844158Y-4711001D01*
G01X843789Y-4712438D01*
G01X843332Y-4713867D01*
G01X842179Y-4716690D01*
G01X840761Y-4719439D01*
G01X839135Y-4722083D01*
G01X837361Y-4724592D01*
G01X835499Y-4726935D01*
G01X834552Y-4728035D01*
G01X880303D01*
G01X878418Y-4725786D01*
G01X876592Y-4723356D01*
G01X874885Y-4720776D01*
G01X873355Y-4718076D01*
G01X872063Y-4715286D01*
G01X871524Y-4713867D01*
G01X871066Y-4712438D01*
G01X870697Y-4711001D01*
G01X870424Y-4709560D01*
G01X870255Y-4708120D01*
G01X870198Y-4706685D01*
G37*
G36*
G01X1902251Y-4222360D02*
G01X1902251Y-4196820D01*
G01X1900816Y-4196762D01*
G01X1899376Y-4196593D01*
G01X1897936Y-4196321D01*
G01X1896499Y-4195952D01*
G01X1895069Y-4195494D01*
G01X1892246Y-4194342D01*
G01X1889497Y-4192924D01*
G01X1886853Y-4191298D01*
G01X1884345Y-4189524D01*
G01X1882001Y-4187661D01*
G01X1880901Y-4186715D01*
G01Y-4232465D01*
G01X1883150Y-4230580D01*
G01X1885580Y-4228755D01*
G01X1888160Y-4227048D01*
G01X1890860Y-4225518D01*
G01X1893650Y-4224225D01*
G01X1895069Y-4223686D01*
G01X1896499Y-4223229D01*
G01X1897936Y-4222860D01*
G01X1899376Y-4222587D01*
G01X1900816Y-4222418D01*
G01X1902251Y-4222360D01*
G37*
G36*
G01X285998Y-4706685D02*
G01X260458Y-4706685D01*
G01X260400Y-4708120D01*
G01X260231Y-4709560D01*
G01X259958Y-4711001D01*
G01X259589Y-4712438D01*
G01X259132Y-4713867D01*
G01X257979Y-4716690D01*
G01X256561Y-4719439D01*
G01X254935Y-4722083D01*
G01X253161Y-4724592D01*
G01X251299Y-4726935D01*
G01X250352Y-4728035D01*
G01X296103D01*
G01X294218Y-4725786D01*
G01X292392Y-4723356D01*
G01X290685Y-4720776D01*
G01X289155Y-4718076D01*
G01X287863Y-4715286D01*
G01X287324Y-4713867D01*
G01X286866Y-4712438D01*
G01X286497Y-4711001D01*
G01X286224Y-4709560D01*
G01X286055Y-4708120D01*
G01X285998Y-4706685D01*
G37*
G36*
G01X759700Y-4893157D02*
G01X789700Y-4893157D01*
G01X789786Y-4891068D01*
G01X790037Y-4889048D01*
G01X790442Y-4887092D01*
G01X790989Y-4885195D01*
G01X791668Y-4883352D01*
G01X792469Y-4881557D01*
G01X793379Y-4879807D01*
G01X795484Y-4876415D01*
G01X797898Y-4873136D01*
G01X804700Y-4865157D01*
G01X744700D01*
G01X751502Y-4873136D01*
G01X753916Y-4876415D01*
G01X756021Y-4879807D01*
G01X756931Y-4881557D01*
G01X757732Y-4883352D01*
G01X758411Y-4885195D01*
G01X758958Y-4887092D01*
G01X759363Y-4889048D01*
G01X759614Y-4891068D01*
G01X759700Y-4893157D01*
G37*
G36*
G01X-25400Y-2263997D02*
G01X0Y-2263997D01*
G01X58Y-2262555D01*
G01X228Y-2261111D01*
G01X502Y-2259669D01*
G01X873Y-2258233D01*
G01X1333Y-2256805D01*
G01X2492Y-2253990D01*
G01X3918Y-2251250D01*
G01X5553Y-2248615D01*
G01X7336Y-2246110D01*
G01X10160Y-2242661D01*
G01X-35560D01*
G01X-32736Y-2246110D01*
G01X-30953Y-2248615D01*
G01X-29318Y-2251250D01*
G01X-27892Y-2253990D01*
G01X-26733Y-2256805D01*
G01X-26273Y-2258233D01*
G01X-25902Y-2259669D01*
G01X-25628Y-2261111D01*
G01X-25458Y-2262555D01*
G01X-25400Y-2263997D01*
G37*
G36*
G01X450627Y-3197609D02*
G01X450700Y-3195266D01*
G01X450914Y-3192927D01*
G01X451266Y-3190598D01*
G01X451751Y-3188282D01*
G01X452363Y-3185985D01*
G01X453099Y-3183711D01*
G01X454924Y-3179249D01*
G01X457189Y-3174934D01*
G01X459856Y-3170802D01*
G01X462889Y-3166890D01*
G01X466252Y-3163234D01*
G01X469908Y-3159871D01*
G01X473821Y-3156837D01*
G01X477953Y-3154170D01*
G01X482268Y-3151906D01*
G01X486730Y-3150081D01*
G01X489004Y-3149344D01*
G01X491301Y-3148732D01*
G01X493617Y-3148247D01*
G01X495946Y-3147896D01*
G01X498284Y-3147681D01*
G01X500627Y-3147609D01*
G01Y-3097609D01*
G01X482255Y-3097204D01*
G01X469976Y-3096273D01*
G01X460876Y-3095083D01*
G01X453424Y-3093700D01*
G01X446136Y-3091909D01*
G01X440454Y-3090148D01*
G01X434926Y-3088069D01*
G01X430895Y-3086285D01*
G01X426973Y-3084297D01*
G01X423168Y-3082094D01*
G01X419491Y-3079665D01*
G01X415950Y-3076999D01*
G01X412555Y-3074087D01*
G01X410377Y-3072002D01*
G01X375021Y-3107358D01*
G01X378105Y-3110651D01*
G01X380934Y-3114096D01*
G01X383519Y-3117683D01*
G01X385871Y-3121404D01*
G01X388002Y-3125249D01*
G01X389921Y-3129208D01*
G01X392169Y-3134650D01*
G01X394086Y-3140258D01*
G01X395697Y-3146010D01*
G01X397319Y-3153369D01*
G01X398756Y-3162390D01*
G01X399841Y-3173085D01*
G01X400541Y-3188458D01*
G01X400628Y-3197609D01*
G01X450627D01*
G37*
G04 Tear End*

G04 Pad Start*
G54D11*
G01X-741134Y-3497374D03*
G01X-590461Y-3497374D03*
G01X-741134Y-3687874D03*
G01X-590461Y-3687874D03*
G54D12*
G01X392699Y-2930520D03*
G01X392699Y-3025516D03*
G01X392699Y-2835549D03*
G01X612714Y-3025541D03*
G01X612714Y-2835524D03*
G54D13*
G01X1695628Y-3317109D03*
G01X1695628Y-3567121D03*
G01X1695628Y-3817108D03*
G54D14*
G01X275272Y-4284774D03*
G01X275272Y-4411774D03*
G01X275272Y-4538774D03*
G01X275272Y-4665774D03*
G01X856932Y-4665774D03*
G01X856932Y-4538774D03*
G01X856932Y-4411774D03*
G01X856932Y-4284774D03*
G54D15*
G01X566102Y-4475274D03*
G54D16*
G01X-106998Y-4309311D03*
G01X-106998Y-4158638D03*
G54D17*
G01X83502Y-4151577D03*
G01X83502Y-4011572D03*
G54D19*
G01X96202Y-4539638D03*
G01X96202Y-4690311D03*
G54D20*
G01X1270800Y-5072174D03*
G01X1410805Y-5072174D03*
G54D11*
G01X1544091Y-5357809D03*
G01X1694764Y-5357809D03*
G54D21*
G01X1954212Y-4844590D03*
G01X2114232Y-4844082D03*
G01X1954212Y-4641390D03*
G01X2114232Y-4640882D03*
G01X1954212Y-4425490D03*
G01X2114232Y-4424982D03*
G01X1954212Y-4209590D03*
G01X2114232Y-4209082D03*
G54D16*
G01X1721028Y-5128345D03*
G01X1721028Y-4977672D03*
G54D17*
G01X-297498Y-4303977D03*
G01X-297498Y-4163972D03*
G54D22*
G01X1328102Y-4175285D03*
G01X1328102Y-4775284D03*
G54D23*
G01X0Y0D03*
G01X1929651Y-1993900D03*
G01X-288021Y-3759200D03*
G01X1055779Y-5372100D03*
G54D24*
G01X242613Y-5394564D03*
G54D25*
G01X652594Y-5054585D03*
G01X552595Y-5054585D03*
G01X452595Y-5054585D03*
G01X352595Y-5054585D03*
G54D24*
G01X762602Y-5394564D03*
G54D26*
G01X-400596Y-1922473D03*
G01X-200597Y-1922473D03*
G01X-597Y-1922473D03*
G01X199402Y-1922473D03*
G01X399402Y-1922473D03*
G01X599402Y-1922473D03*
G01X799401Y-1922473D03*
G01X999401Y-1922473D03*
G54D27*
G01X999401Y-322476D03*
G01X799401Y-322476D03*
G01X599402Y-322476D03*
G01X399402Y-322476D03*
G01X199402Y-322476D03*
G01X-597Y-322476D03*
G01X-200597Y-322476D03*
G01X-400596Y-322476D03*
G54D28*
G01X174401Y-1257483D03*
G54D29*
G01X1202411Y-2298700D03*
G01X1642389Y-2298700D03*
G54D30*
G01X979005Y-2354374D03*
G01X839000Y-2354374D03*
G01X979005Y-2151174D03*
G01X839000Y-2151174D03*
G54D31*
G01X-381691Y-3401805D03*
G01X-381694Y-2741812D03*
G01X-11651Y-3401805D03*
G01X-11654Y-2741812D03*
G54D32*
G01X1385346Y-2741812D03*
G01X1385349Y-3401805D03*
G01X1015306Y-2741812D03*
G01X1015309Y-3401805D03*
G54D33*
G01X1671002Y-2919372D03*
G01X1671002Y-3059377D03*
G54D34*
G01X1856397Y-859775D03*
G01X1696428Y-859775D03*
G01X1536408Y-859775D03*
G01X1856397Y-1359774D03*
G01X1696428Y-1359774D03*
G01X1536408Y-1359774D03*
G54D35*
G01X-234772Y-4604419D03*
G01X-234772Y-5044398D03*
G54D20*
G01X432600Y-3243374D03*
G01X572605Y-3243374D03*
G54D30*
G01X572605Y-2595674D03*
G01X432600Y-2595674D03*
G54D36*
G01X825792Y-3664717D03*
G01X585813Y-3664717D03*
G01X825792Y-4071117D03*
G01X585813Y-4071117D03*
G01X825792Y-3867917D03*
G01X585813Y-3867917D03*
G54D37*
G01X-536639Y-4187568D03*
G01X-536639Y-4737580D03*
G54D38*
G01X-536639Y-4310581D03*
G01X-536639Y-4614568D03*
G54D39*
G01X-536639Y-4412562D03*
G01X-536639Y-4512587D03*
G54D40*
G01X-589903Y-3935651D03*
G01X-589903Y-4989497D03*
G54D41*
G01X-949897Y-3930571D03*
G01X-949897Y-4994577D03*
G54D19*
G01X1536700Y-394564D03*
G01X1536700Y-545236D03*
G01X1701800Y-394564D03*
G01X1701800Y-545236D03*
G01X1854200Y-394564D03*
G01X1854200Y-545236D03*
G01X-12700Y-2345182D03*
G01X-12700Y-2495855D03*
G04 Pad End*

G04 Via Start*
G54D42*
G01X540695Y-4826928D03*
G01X464495Y-4826928D03*
G01X406400Y-2108200D03*
G01X596900Y-520700D03*
G01X1860728Y-4641390D03*
G01X857428Y-4748209D03*
G01X1860728Y-4209590D03*
G01X273228Y-4748209D03*
G54D43*
G01X1206500Y-5194300D03*
G01X1206500Y-5277696D03*
G01X774700Y-4838700D03*
G54D44*
G01X774700Y-2590800D03*
G01X-736600Y-5194300D03*
G01X190500Y-4762500D03*
G01X685800Y-4635500D03*
G01X605519Y-4635500D03*
G01X685800Y-4699000D03*
G01X647700Y-4305300D03*
G01X1092200Y-4064000D03*
G01X1117600Y-3530600D03*
G01X876300Y-482600D03*
G01X901700Y-3479800D03*
G01X255009Y-2924180D03*
G01X1879600Y-4965700D03*
G01X977900Y-4699000D03*
G01X687339Y-2924180D03*
G01X1016000Y-3251200D03*
G01X-469900Y-4064000D03*
G01X-393700Y-4800600D03*
G01X-12700Y-2222500D03*
G04 Via End*

G04 Track Start*
G54D10*
G01X-741134Y-3687874D02*
G01X-741134Y-4445047D01*
G01X-536639Y-4412562D02*
G01X-624339Y-4412562D01*
G01X-666572Y-3770309D02*
G01X-666572Y-3516309D01*
G01X-691972Y-3490909D01*
G01X-734669D01*
G01X-741134Y-3497374D01*
G01X-624339Y-4412562D02*
G01X-679272Y-4357628D01*
G01Y-3783009D01*
G01X-666572Y-3770309D01*
G01X285724Y-3401805D02*
G01X1015309Y-3401805D01*
G01X146228Y-3262309D02*
G01X285724Y-3401805D01*
G01X1671002Y-3059377D02*
G01X1568896Y-3059377D01*
G01X1530528Y-3021009D01*
G01X1385346Y-2741812D02*
G01X1479931Y-2741812D01*
G01X1530528Y-2792409D01*
G01Y-3021009D01*
G01X1015306Y-2741812D02*
G01X1200124Y-2741812D01*
G01X1238428Y-2703509D01*
G01X1619428Y-2601909D02*
G01X1671002Y-2653483D01*
G01Y-2919372D01*
G01X1238428Y-2703509D02*
G01X1238428Y-2652709D01*
G01X1289228Y-2601909D01*
G01X1619428D01*
G54D45*
G01X1695628Y-3567121D02*
G01X1289240Y-3567121D01*
G01X1213028Y-3490909D01*
G01Y-3338509D01*
G01X425628Y-3122609D02*
G01X425628Y-3236402D01*
G01X432600Y-3243374D01*
G01X1213028Y-3338509D02*
G01X997128Y-3122609D01*
G01X425628D01*
G01X392699Y-3025516D02*
G01X471920Y-3025516D01*
G01X514528Y-2982909D01*
G01Y-2881309D01*
G01X468768Y-2835549D01*
G01X392699D01*
G01X392699Y-3089680D02*
G01X392699Y-3025516D01*
G01X392699Y-3089680D02*
G01X425628Y-3122609D01*
G01X572605Y-2595674D02*
G01X572605Y-2723486D01*
G01X612714Y-2763595D01*
G01Y-2835524D01*
G54D46*
G01X275272Y-4538774D02*
G01X97066Y-4538774D01*
G01X96202Y-4539638D01*
G01X1544091Y-5357809D02*
G01X1314628Y-5357809D01*
G01X1276528Y-5319709D01*
G01Y-5154609D01*
G01X1721028Y-4977672D02*
G01X1721028Y-4887909D01*
G01X1764346Y-4844590D01*
G01X1954212D01*
G01X2114232Y-4844082D02*
G01X2203628Y-4754687D01*
G01X2203628Y-4514378D02*
G01X2114232Y-4424982D01*
G01X2203628Y-4754687D02*
G01X2203628Y-4514378D01*
G01X2114232Y-4640882D02*
G01X2056954Y-4640882D01*
G01X2025828Y-4672009D01*
G01Y-5026745D01*
G01X1694764Y-5357809D01*
G01X1954212Y-4425490D02*
G01X2038528Y-4341175D01*
G01X2038528Y-4284787D02*
G01X2114232Y-4209082D01*
G01X2038528Y-4341175D02*
G01X2038528Y-4284787D01*
G01X1954212Y-4425490D02*
G01X1954212Y-4641390D01*
G01X1860728D01*
G01X857428Y-4748209D02*
G01X857428Y-4666270D01*
G01X856932Y-4665774D01*
G01X2114232Y-4424982D02*
G01X2190928Y-4348287D01*
G01X2190928Y-4151309D02*
G01X2140128Y-4100509D01*
G01X1987728D01*
G01X1949628Y-4138609D01*
G01Y-4205006D01*
G01X1954212Y-4209590D01*
G01X2190928Y-4348287D02*
G01X2190928Y-4151309D01*
G01X1954212Y-4209590D02*
G01X1860728Y-4209590D01*
G01X273228Y-4748209D02*
G01X273228Y-4667819D01*
G01X275272Y-4665774D01*
G54D47*
G01X352595Y-5054585D02*
G01X352595Y-5181600D01*
G01X390695Y-5219700D01*
G01X736600D01*
G01X774700Y-5181600D01*
G01Y-4838700D01*
G01X774700Y-2590800D02*
G01X774700Y-2595129D01*
G01X775245Y-2595674D01*
G54D45*
G01X572605Y-2595674D02*
G01X775245Y-2595674D01*
G54D10*
G01X1854200Y-857578D02*
G01X1856397Y-859775D01*
G01X1701800Y-854402D02*
G01X1696428Y-859775D01*
G01X1981200Y-965200D02*
G01X1917700Y-1028700D01*
G01X1143000D01*
G01X495300Y-1676400D01*
G01X-12700Y-2507082D02*
G01X-12700Y-2740766D01*
G01X-11654Y-2741812D01*
G01X-597Y-191097D02*
G01X-597Y-322476D01*
G01X38100Y-152400D02*
G01X-597Y-191097D01*
G01X292100Y-152400D02*
G01X38100Y-152400D01*
G01X355600Y-88900D02*
G01X292100Y-152400D01*
G01X399402Y-197498D02*
G01X399402Y-322476D01*
G01X457200Y-139700D02*
G01X399402Y-197498D01*
G01X596900Y-520700D02*
G01X596900Y-324978D01*
G01X599402Y-322476D01*
G01X-400596Y-1746796D02*
G01X-400596Y-1922473D01*
G01X-330200Y-1676400D02*
G01X-400596Y-1746796D01*
G01X495300Y-1676400D02*
G01X-330200Y-1676400D01*
G01X406400Y-2108200D02*
G01X399402Y-2101202D01*
G01Y-1922473D01*
G54D45*
G01X979005Y-2354374D02*
G01X979005Y-2462695D01*
G01X846026Y-2595674D01*
G01X775245D01*
G54D10*
G01X-536639Y-4512587D02*
G01X-673594Y-4512587D01*
G01X-741134Y-4445047D01*
G01X452595Y-5054585D02*
G01X452595Y-4956885D01*
G01X464495Y-4857428D02*
G01X464495Y-4826928D01*
G01X482275Y-4875209D02*
G01X464495Y-4857428D01*
G01X482275Y-4927205D02*
G01X482275Y-4875209D01*
G01X452595Y-4956885D02*
G01X482275Y-4927205D01*
G01X552595Y-5054585D02*
G01X552595Y-4956885D01*
G01X540695Y-4857428D02*
G01X540695Y-4826928D01*
G01X522915Y-4875209D02*
G01X540695Y-4857428D01*
G01X522915Y-4927205D02*
G01X522915Y-4875209D01*
G01X552595Y-4956885D02*
G01X522915Y-4927205D01*
G01X-597Y-1922473D02*
G01X-597Y-2082203D01*
G01X146228Y-2229028D01*
G01Y-3262309D01*
G01X-12700Y-2345182D02*
G01X-12700Y-2222500D01*
G01X1536700Y-659536D02*
G01X1536408Y-659244D01*
G01Y-859775D01*
G01X1536408Y-659244D02*
G01X1536408Y-545529D01*
G01X1536700Y-545236D01*
G01X1701800Y-545236D02*
G01X1701800Y-854402D01*
G01X1854200Y-545236D02*
G01X1854200Y-857578D01*
G01X1701800Y-394564D02*
G01X1701800Y-266700D01*
G01X1524000Y-88900D01*
G01X355600D01*
G01X1536700Y-394564D02*
G01X1536700Y-228600D01*
G01X1447800Y-139700D01*
G01X457200D01*
G01X1854200Y-394564D02*
G01X1943964Y-394564D01*
G01X1981200Y-431800D01*
G01Y-965200D01*
G04 Track End*

M02*
