G04 Layer: TopPasteMaskLayer*
G04 EasyEDA Pro v2.1.64.d1969c9c.217bcf, 2024-11-09 23:40:01*
G04 Gerber Generator version 0.3*
G04 Scale: 100 percent, Rotated: No, Reflected: No*
G04 Dimensions in millimeters*
G04 Leading zeros omitted, absolute positions, 3 integers and 5 decimals*
%FSLAX35Y35*%
%MOMM*%
%ADD10R,1.0X0.6*%
%ADD11R,1.9X1.0*%
%ADD12R,1.2X0.6*%
%ADD13R,2.0X2.0*%
%ADD14R,0.9X0.8*%
%ADD15R,0.8X0.9*%
%ADD16R,0.8001X0.8001*%
%ADD17R,3.19999X2.4*%
%ADD18R,1.2X2.49999*%
%ADD19R,0.5X1.7*%
%ADD20R,1.2X2.0*%
%ADD21R,1.2X2.0*%
%ADD22R,4.79999X4.79999*%
%ADD23R,2.0X2.0*%
%ADD24R,0.8X0.9*%
%ADD25R,1.0X1.7*%
%ADD26R,1.0X1.7*%
%ADD27R,0.9X0.8*%
%ADD28R,1.1X1.7*%
%ADD29R,2.0X2.0*%
%ADD30R,1.5X1.3589*%
%ADD31R,1.5X0.9*%
%ADD32R,1.5X0.8*%
%ADD33R,1.5X0.7*%
%ADD34R,1.0X2.2*%
%ADD35R,1.4X2.0*%
G75*


G04 PolygonModel Start*
G36*
G01X-785300Y-3542373D02*
G01X-705300Y-3542373D01*
G01X-700299Y-3537372D01*
G01Y-3514575D01*
G01X-737299D01*
G01Y-3481575D01*
G01X-700299D01*
G01Y-3457372D01*
G01X-705300Y-3452373D01*
G01X-785300D01*
G01X-790298Y-3457372D01*
G01Y-3537372D01*
G01X-785300Y-3542373D01*
G37*
G36*
G01X-630299Y-3537372D02*
G01X-630299Y-3514575D01*
G01X-592300D01*
G01Y-3481575D01*
G01X-630299D01*
G01Y-3457372D01*
G01X-625300Y-3452373D01*
G01X-546301D01*
G01X-541300Y-3457372D01*
G01Y-3537372D01*
G01X-546301Y-3542373D01*
G01X-625300D01*
G01X-630299Y-3537372D01*
G37*
G36*
G01X-785300Y-3732873D02*
G01X-705300Y-3732873D01*
G01X-700299Y-3727872D01*
G01Y-3705075D01*
G01X-737299D01*
G01Y-3672075D01*
G01X-700299D01*
G01Y-3647872D01*
G01X-705300Y-3642873D01*
G01X-785300D01*
G01X-790298Y-3647872D01*
G01Y-3727872D01*
G01X-785300Y-3732873D01*
G37*
G36*
G01X-630299Y-3727872D02*
G01X-630299Y-3705075D01*
G01X-592300D01*
G01Y-3672075D01*
G01X-630299D01*
G01Y-3647872D01*
G01X-625300Y-3642873D01*
G01X-546301D01*
G01X-541300Y-3647872D01*
G01Y-3727872D01*
G01X-546301Y-3732873D01*
G01X-625300D01*
G01X-630299Y-3727872D01*
G37*
G36*
G01X-61999Y-4353476D02*
G01X-61999Y-4273476D01*
G01X-67000Y-4268475D01*
G01X-89797D01*
G01Y-4305475D01*
G01X-122797D01*
G01Y-4268475D01*
G01X-147000D01*
G01X-151999Y-4273476D01*
G01Y-4353476D01*
G01X-147000Y-4358475D01*
G01X-67000D01*
G01X-61999Y-4353476D01*
G37*
G36*
G01X-67000Y-4198475D02*
G01X-89797Y-4198475D01*
G01Y-4160477D01*
G01X-122797D01*
G01Y-4198475D01*
G01X-147000D01*
G01X-151999Y-4193476D01*
G01Y-4114477D01*
G01X-147000Y-4109476D01*
G01X-67000D01*
G01X-61999Y-4114477D01*
G01Y-4193476D01*
G01X-67000Y-4198475D01*
G37*
G36*
G01X51204Y-4495472D02*
G01X51204Y-4575472D01*
G01X56205Y-4580473D01*
G01X79001D01*
G01Y-4543473D01*
G01X112001D01*
G01Y-4580473D01*
G01X136205D01*
G01X141203Y-4575472D01*
G01Y-4495472D01*
G01X136205Y-4490474D01*
G01X56205D01*
G01X51204Y-4495472D01*
G37*
G36*
G01X56205Y-4650473D02*
G01X79001Y-4650473D01*
G01Y-4688472D01*
G01X112001D01*
G01Y-4650473D01*
G01X136205D01*
G01X141203Y-4655472D01*
G01Y-4734471D01*
G01X136205Y-4739472D01*
G01X56205D01*
G01X51204Y-4734471D01*
G01Y-4655472D01*
G01X56205Y-4650473D01*
G37*
G36*
G01X1499926Y-5402807D02*
G01X1579925Y-5402807D01*
G01X1584927Y-5397806D01*
G01Y-5375010D01*
G01X1547927D01*
G01Y-5342010D01*
G01X1584927D01*
G01Y-5317806D01*
G01X1579925Y-5312808D01*
G01X1499926D01*
G01X1494927Y-5317806D01*
G01Y-5397806D01*
G01X1499926Y-5402807D01*
G37*
G36*
G01X1654927Y-5397806D02*
G01X1654927Y-5375010D01*
G01X1692925D01*
G01Y-5342010D01*
G01X1654927D01*
G01Y-5317806D01*
G01X1659925Y-5312808D01*
G01X1738924D01*
G01X1743926Y-5317806D01*
G01Y-5397806D01*
G01X1738924Y-5402807D01*
G01X1659925D01*
G01X1654927Y-5397806D01*
G37*
G36*
G01X1766026Y-5172511D02*
G01X1766026Y-5092511D01*
G01X1761025Y-5087510D01*
G01X1738228D01*
G01Y-5124510D01*
G01X1705229D01*
G01Y-5087510D01*
G01X1681025D01*
G01X1676026Y-5092511D01*
G01Y-5172511D01*
G01X1681025Y-5177509D01*
G01X1761025D01*
G01X1766026Y-5172511D01*
G37*
G36*
G01X1761025Y-5017510D02*
G01X1738228Y-5017510D01*
G01Y-4979511D01*
G01X1705229D01*
G01Y-5017510D01*
G01X1681025D01*
G01X1676026Y-5012511D01*
G01Y-4933512D01*
G01X1681025Y-4928511D01*
G01X1761025D01*
G01X1766026Y-4933512D01*
G01Y-5012511D01*
G01X1761025Y-5017510D01*
G37*
G36*
G01X1491701Y-350398D02*
G01X1491701Y-430398D01*
G01X1496703Y-435399D01*
G01X1519499D01*
G01Y-398399D01*
G01X1552499D01*
G01Y-435399D01*
G01X1576702D01*
G01X1581701Y-430398D01*
G01Y-350398D01*
G01X1576702Y-345399D01*
G01X1496703D01*
G01X1491701Y-350398D01*
G37*
G36*
G01X1496703Y-505399D02*
G01X1519499Y-505399D01*
G01Y-543397D01*
G01X1552499D01*
G01Y-505399D01*
G01X1576702D01*
G01X1581701Y-510398D01*
G01Y-589397D01*
G01X1576702Y-594398D01*
G01X1496703D01*
G01X1491701Y-589397D01*
G01Y-510398D01*
G01X1496703Y-505399D01*
G37*
G36*
G01X1656801Y-350398D02*
G01X1656801Y-430398D01*
G01X1661803Y-435399D01*
G01X1684599D01*
G01Y-398399D01*
G01X1717599D01*
G01Y-435399D01*
G01X1741802D01*
G01X1746801Y-430398D01*
G01Y-350398D01*
G01X1741802Y-345399D01*
G01X1661803D01*
G01X1656801Y-350398D01*
G37*
G36*
G01X1661803Y-505399D02*
G01X1684599Y-505399D01*
G01Y-543397D01*
G01X1717599D01*
G01Y-505399D01*
G01X1741802D01*
G01X1746801Y-510398D01*
G01Y-589397D01*
G01X1741802Y-594398D01*
G01X1661803D01*
G01X1656801Y-589397D01*
G01Y-510398D01*
G01X1661803Y-505399D01*
G37*
G36*
G01X1809201Y-350398D02*
G01X1809201Y-430398D01*
G01X1814203Y-435399D01*
G01X1836999D01*
G01Y-398399D01*
G01X1869999D01*
G01Y-435399D01*
G01X1894202D01*
G01X1899201Y-430398D01*
G01Y-350398D01*
G01X1894202Y-345399D01*
G01X1814203D01*
G01X1809201Y-350398D01*
G37*
G36*
G01X1814203Y-505399D02*
G01X1836999Y-505399D01*
G01Y-543397D01*
G01X1869999D01*
G01Y-505399D01*
G01X1894202D01*
G01X1899201Y-510398D01*
G01Y-589397D01*
G01X1894202Y-594398D01*
G01X1814203D01*
G01X1809201Y-589397D01*
G01Y-510398D01*
G01X1814203Y-505399D01*
G37*
G36*
G01X-57699Y-2301016D02*
G01X-57699Y-2381016D01*
G01X-52697Y-2386018D01*
G01X-29901D01*
G01Y-2349017D01*
G01X3099D01*
G01Y-2386018D01*
G01X27302D01*
G01X32301Y-2381016D01*
G01Y-2301016D01*
G01X27302Y-2296018D01*
G01X-52697D01*
G01X-57699Y-2301016D01*
G37*
G36*
G01X-52697Y-2456017D02*
G01X-29901Y-2456017D01*
G01Y-2494016D01*
G01X3099D01*
G01Y-2456017D01*
G01X27302D01*
G01X32301Y-2461016D01*
G01Y-2540015D01*
G01X27302Y-2545016D01*
G01X-52697D01*
G01X-57699Y-2540015D01*
G01Y-2461016D01*
G01X-52697Y-2456017D01*
G37*
G04 PolygonModel End*

G04 Pad Start*
G54D10*
G01X392699Y-2930520D03*
G01X392699Y-3025516D03*
G01X392699Y-2835549D03*
G01X612714Y-3025541D03*
G01X612714Y-2835524D03*
G54D11*
G01X1695628Y-3317109D03*
G01X1695628Y-3567121D03*
G01X1695628Y-3817108D03*
G54D12*
G01X275272Y-4284774D03*
G01X275272Y-4411774D03*
G01X275272Y-4538774D03*
G01X275272Y-4665774D03*
G01X856932Y-4665774D03*
G01X856932Y-4538774D03*
G01X856932Y-4411774D03*
G01X856932Y-4284774D03*
G54D13*
G01X566102Y-4475274D03*
G54D14*
G01X83502Y-4151577D03*
G01X83502Y-4011572D03*
G54D15*
G01X1270800Y-5072174D03*
G01X1410805Y-5072174D03*
G54D16*
G01X1954212Y-4844590D03*
G01X2114232Y-4844082D03*
G01X1954212Y-4641390D03*
G01X2114232Y-4640882D03*
G01X1954212Y-4425490D03*
G01X2114232Y-4424982D03*
G01X1954212Y-4209590D03*
G01X2114232Y-4209082D03*
G54D14*
G01X-297498Y-4303977D03*
G01X-297498Y-4163972D03*
G54D17*
G01X1328102Y-4175285D03*
G01X1328102Y-4775284D03*
G54D18*
G01X242613Y-5394564D03*
G54D19*
G01X652594Y-5054585D03*
G01X552595Y-5054585D03*
G01X452595Y-5054585D03*
G01X352595Y-5054585D03*
G54D18*
G01X762602Y-5394564D03*
G54D20*
G01X-400596Y-1922473D03*
G01X-200597Y-1922473D03*
G01X-597Y-1922473D03*
G01X199402Y-1922473D03*
G01X399402Y-1922473D03*
G01X599402Y-1922473D03*
G01X799401Y-1922473D03*
G01X999401Y-1922473D03*
G54D21*
G01X999401Y-322476D03*
G01X799401Y-322476D03*
G01X599402Y-322476D03*
G01X399402Y-322476D03*
G01X199402Y-322476D03*
G01X-597Y-322476D03*
G01X-200597Y-322476D03*
G01X-400596Y-322476D03*
G54D22*
G01X174401Y-1257483D03*
G54D23*
G01X1202411Y-2298700D03*
G01X1642389Y-2298700D03*
G54D24*
G01X979005Y-2354374D03*
G01X839000Y-2354374D03*
G01X979005Y-2151174D03*
G01X839000Y-2151174D03*
G54D25*
G01X-381691Y-3401805D03*
G01X-381694Y-2741812D03*
G01X-11651Y-3401805D03*
G01X-11654Y-2741812D03*
G54D26*
G01X1385346Y-2741812D03*
G01X1385349Y-3401805D03*
G01X1015306Y-2741812D03*
G01X1015309Y-3401805D03*
G54D27*
G01X1671002Y-2919372D03*
G01X1671002Y-3059377D03*
G54D28*
G01X1856397Y-859775D03*
G01X1696428Y-859775D03*
G01X1536408Y-859775D03*
G01X1856397Y-1359774D03*
G01X1696428Y-1359774D03*
G01X1536408Y-1359774D03*
G54D29*
G01X-234772Y-4604419D03*
G01X-234772Y-5044398D03*
G54D15*
G01X432600Y-3243374D03*
G01X572605Y-3243374D03*
G54D24*
G01X572605Y-2595674D03*
G01X432600Y-2595674D03*
G54D30*
G01X825792Y-3664717D03*
G01X585813Y-3664717D03*
G01X825792Y-4071117D03*
G01X585813Y-4071117D03*
G01X825792Y-3867917D03*
G01X585813Y-3867917D03*
G54D31*
G01X-536639Y-4187568D03*
G01X-536639Y-4737580D03*
G54D32*
G01X-536639Y-4310581D03*
G01X-536639Y-4614568D03*
G54D33*
G01X-536639Y-4412562D03*
G01X-536639Y-4512587D03*
G54D34*
G01X-589903Y-3935651D03*
G01X-589903Y-4989497D03*
G54D35*
G01X-949897Y-3930571D03*
G01X-949897Y-4994577D03*
G04 Pad End*

M02*
