G04 Layer: BottomSilkscreenLayer*
G04 EasyEDA Pro v2.1.64.d1969c9c.217bcf, 2024-11-09 23:40:01*
G04 Gerber Generator version 0.3*
G04 Scale: 100 percent, Rotated: No, Reflected: No*
G04 Dimensions in millimeters*
G04 Leading zeros omitted, absolute positions, 3 integers and 5 decimals*
%FSLAX35Y35*%
%MOMM*%
%ADD10C,0.1524*%
%ADD11C,0.254*%
G75*


G04 Text Start*
G54D10*
G01X-530860Y-4962398D02*
G01X-524510Y-4965446D01*
G01X-518414Y-4971796D01*
G01X-515366Y-4977892D01*
G01Y-4990338D01*
G01X-518414Y-4996434D01*
G01X-524510Y-5002784D01*
G01X-530860Y-5005832D01*
G01X-540004Y-5008880D01*
G01X-555498D01*
G01X-564896Y-5005832D01*
G01X-570992Y-5002784D01*
G01X-577342Y-4996434D01*
G01X-580390Y-4990338D01*
G01Y-4977892D01*
G01X-577342Y-4971796D01*
G01X-570992Y-4965446D01*
G01X-564896Y-4962398D01*
G01X-515366Y-4932172D02*
G01X-580390Y-4932172D01*
G01X-515366Y-4932172D02*
G01X-580390Y-4888992D01*
G01X-515366Y-4888992D02*
G01X-580390Y-4888992D01*
G01X-527812Y-4858766D02*
G01X-524510Y-4852670D01*
G01X-515366Y-4843526D01*
G01X-580390D01*
G04 Text End*

G04 PolygonModel Start*
G54D11*
G01X-1070600Y-4659511D02*
G01X-1070600Y-4673900D01*
G01X-1018718Y-4318902D02*
G01X-1070600Y-4318902D01*
G01X-1070600Y-4318902D02*
G01X-1070600Y-4408284D01*
G01X-672490Y-4748901D02*
G01X-650601Y-4748901D01*
G01X-650601Y-4748901D02*
G01X-650601Y-4318902D01*
G01X-650601Y-4318902D02*
G01X-672490Y-4318902D01*
G01X-1070600Y-4659511D02*
G01X-1070600Y-4748901D01*
G01X-1070600Y-4748901D02*
G01X-1018718Y-4748901D01*
G01X-1183607Y-4354893D02*
G01X-1124671Y-4354947D01*
G01X-1124671Y-4354947D02*
G01X-1124671Y-4356979D01*
G01X-1124671Y-4356979D02*
G01X-1153627Y-4385935D01*
G01X-1153627Y-4385935D02*
G01X-1180551Y-4359011D01*
G01X-1180551Y-4359011D02*
G01X-1184605Y-4354893D01*
G04 PolygonModel End*

G04 Rect Start*
G36*
G01X1176400Y101600D02*
G01X1176400Y-398400D01*
G01X1676400D01*
G01Y101600D01*
G01X1176400D01*
G37*
G04 Rect End*

M02*
