G04 Layer: DrillDrawingLayer*
G04 EasyEDA Pro v2.1.64.d1969c9c.217bcf, 2024-11-09 23:40:01*
G04 Gerber Generator version 0.3*
G04 Scale: 100 percent, Rotated: No, Reflected: No*
G04 Dimensions in millimeters*
G04 Leading zeros omitted, absolute positions, 3 integers and 5 decimals*
%FSLAX35Y35*%
%MOMM*%
%ADD10C,0.254*%
G75*


G04 Image Start*
G36*
G01X1186536Y-5174336D02*
G01X1186536Y-5177993D01*
G01X1190193D01*
G01X1222807D01*
G01Y-5210607D01*
G01X1190193D01*
G01Y-5177993D01*
G01X1186536D01*
G01Y-5214214D01*
G01X1226464D01*
G01Y-5174336D01*
G37*
G36*
G01X1186536Y-5257749D02*
G01X1186536Y-5261407D01*
G01X1190193D01*
G01X1222807D01*
G01Y-5294020D01*
G01X1190193D01*
G01Y-5261407D01*
G01X1186536D01*
G01Y-5297627D01*
G01X1226464D01*
G01Y-5257749D01*
G37*
G36*
G01X754736Y-4818736D02*
G01X754736Y-4822393D01*
G01X758393D01*
G01X791007D01*
G01Y-4855007D01*
G01X758393D01*
G01Y-4822393D01*
G01X754736D01*
G01Y-4858614D01*
G01X794614D01*
G01Y-4818736D01*
G37*
G36*
G01X540715Y-4807001D02*
G01X538632Y-4807102D01*
G01X536651Y-4807407D01*
G01X534772Y-4807864D01*
G01X532943Y-4808576D01*
G01X531216Y-4809388D01*
G01X529539Y-4810404D01*
G01X528015Y-4811522D01*
G01X526593Y-4812843D01*
G01X525323Y-4814265D01*
G01X524154Y-4815789D01*
G01X523138Y-4817415D01*
G01X522326Y-4819142D01*
G01X521665Y-4821022D01*
G01X521157Y-4822901D01*
G01X520852Y-4824882D01*
G01X520751Y-4826914D01*
G01X524104D01*
G01X524154Y-4825238D01*
G01X524408Y-4823562D01*
G01X524815Y-4821987D01*
G01X525374Y-4820463D01*
G01X526085Y-4818990D01*
G01X526898Y-4817669D01*
G01X527863Y-4816348D01*
G01X528930Y-4815180D01*
G01X530149Y-4814113D01*
G01X531419Y-4813148D01*
G01X532790Y-4812335D01*
G01X534213Y-4811624D01*
G01X535737Y-4811065D01*
G01X537362Y-4810658D01*
G01X538988Y-4810404D01*
G01X540715Y-4810303D01*
G01X542392Y-4810404D01*
G01X544017Y-4810658D01*
G01X545643Y-4811065D01*
G01X547167Y-4811624D01*
G01X548589Y-4812335D01*
G01X549961Y-4813148D01*
G01X551282Y-4814113D01*
G01X552450Y-4815180D01*
G01X553517Y-4816348D01*
G01X554482Y-4817669D01*
G01X555295Y-4818990D01*
G01X556006Y-4820463D01*
G01X556565Y-4821987D01*
G01X556971Y-4823562D01*
G01X557225Y-4825238D01*
G01X557327Y-4826914D01*
G01X557225Y-4828642D01*
G01X556971Y-4830267D01*
G01X556565Y-4831842D01*
G01X556006Y-4833366D01*
G01X555295Y-4834839D01*
G01X554482Y-4836211D01*
G01X553517Y-4837481D01*
G01X552450Y-4838649D01*
G01X551282Y-4839767D01*
G01X549961Y-4840681D01*
G01X548589Y-4841545D01*
G01X547167Y-4842256D01*
G01X545643Y-4842815D01*
G01X544017Y-4843221D01*
G01X542392Y-4843475D01*
G01X540715Y-4843526D01*
G01X538988Y-4843475D01*
G01X537362Y-4843221D01*
G01X535737Y-4842815D01*
G01X534213Y-4842256D01*
G01X532790Y-4841545D01*
G01X531419Y-4840681D01*
G01X530149Y-4839767D01*
G01X528930Y-4838649D01*
G01X527863Y-4837481D01*
G01X526898Y-4836211D01*
G01X526085Y-4834839D01*
G01X525374Y-4833366D01*
G01X524815Y-4831842D01*
G01X524408Y-4830267D01*
G01X524154Y-4828642D01*
G01X524104Y-4826914D01*
G01X520751D01*
G01X520852Y-4828946D01*
G01X521157Y-4830928D01*
G01X521665Y-4832858D01*
G01X522326Y-4834687D01*
G01X523138Y-4836414D01*
G01X524154Y-4838090D01*
G01X525323Y-4839614D01*
G01X526593Y-4841037D01*
G01X528015Y-4842307D01*
G01X529539Y-4843475D01*
G01X531216Y-4844440D01*
G01X532943Y-4845304D01*
G01X534772Y-4845964D01*
G01X536651Y-4846472D01*
G01X538632Y-4846777D01*
G01X540715Y-4846879D01*
G01X542747Y-4846777D01*
G01X544728Y-4846472D01*
G01X546608Y-4845964D01*
G01X548437Y-4845304D01*
G01X550215Y-4844440D01*
G01X551840Y-4843475D01*
G01X553364Y-4842307D01*
G01X554787Y-4841037D01*
G01X556057Y-4839614D01*
G01X557225Y-4838090D01*
G01X558241Y-4836414D01*
G01X559054Y-4834687D01*
G01X559714Y-4832858D01*
G01X560222Y-4830928D01*
G01X560527Y-4828946D01*
G01X560629Y-4826914D01*
G01X560527Y-4824882D01*
G01X560222Y-4822901D01*
G01X559714Y-4821022D01*
G01X559054Y-4819142D01*
G01X558241Y-4817415D01*
G01X557225Y-4815789D01*
G01X556057Y-4814265D01*
G01X554787Y-4812843D01*
G01X553364Y-4811522D01*
G01X551840Y-4810404D01*
G01X550215Y-4809388D01*
G01X548437Y-4808576D01*
G01X546608Y-4807864D01*
G01X544728Y-4807407D01*
G01X542747Y-4807102D01*
G37*
G36*
G01X464515Y-4807001D02*
G01X462432Y-4807102D01*
G01X460451Y-4807407D01*
G01X458572Y-4807864D01*
G01X456743Y-4808576D01*
G01X454965Y-4809388D01*
G01X453339Y-4810404D01*
G01X451815Y-4811522D01*
G01X450393Y-4812843D01*
G01X449123Y-4814265D01*
G01X447954Y-4815789D01*
G01X446938Y-4817415D01*
G01X446126Y-4819142D01*
G01X445465Y-4821022D01*
G01X444957Y-4822901D01*
G01X444652Y-4824882D01*
G01X444551Y-4826914D01*
G01X447904D01*
G01X447954Y-4825238D01*
G01X448208Y-4823562D01*
G01X448615Y-4821987D01*
G01X449174Y-4820463D01*
G01X449885Y-4818990D01*
G01X450698Y-4817669D01*
G01X451663Y-4816348D01*
G01X452730Y-4815180D01*
G01X453949Y-4814113D01*
G01X455219Y-4813148D01*
G01X456590Y-4812335D01*
G01X458013Y-4811624D01*
G01X459537Y-4811065D01*
G01X461162Y-4810658D01*
G01X462788Y-4810404D01*
G01X464515Y-4810303D01*
G01X466192Y-4810404D01*
G01X467817Y-4810658D01*
G01X469443Y-4811065D01*
G01X470967Y-4811624D01*
G01X472389Y-4812335D01*
G01X473761Y-4813148D01*
G01X475082Y-4814113D01*
G01X476250Y-4815180D01*
G01X477317Y-4816348D01*
G01X478282Y-4817669D01*
G01X479095Y-4818990D01*
G01X479806Y-4820463D01*
G01X480365Y-4821987D01*
G01X480771Y-4823562D01*
G01X481025Y-4825238D01*
G01X481127Y-4826914D01*
G01X481025Y-4828642D01*
G01X480771Y-4830267D01*
G01X480365Y-4831842D01*
G01X479806Y-4833366D01*
G01X479095Y-4834839D01*
G01X478282Y-4836211D01*
G01X477317Y-4837481D01*
G01X476250Y-4838649D01*
G01X475082Y-4839767D01*
G01X473761Y-4840681D01*
G01X472389Y-4841545D01*
G01X470967Y-4842256D01*
G01X469443Y-4842815D01*
G01X467817Y-4843221D01*
G01X466192Y-4843475D01*
G01X464515Y-4843526D01*
G01X462788Y-4843475D01*
G01X461162Y-4843221D01*
G01X459537Y-4842815D01*
G01X458013Y-4842256D01*
G01X456590Y-4841545D01*
G01X455219Y-4840681D01*
G01X453949Y-4839767D01*
G01X452730Y-4838649D01*
G01X451663Y-4837481D01*
G01X450698Y-4836211D01*
G01X449885Y-4834839D01*
G01X449174Y-4833366D01*
G01X448615Y-4831842D01*
G01X448208Y-4830267D01*
G01X447954Y-4828642D01*
G01X447904Y-4826914D01*
G01X444551D01*
G01X444652Y-4828946D01*
G01X444957Y-4830928D01*
G01X445465Y-4832858D01*
G01X446126Y-4834687D01*
G01X446938Y-4836414D01*
G01X447954Y-4838090D01*
G01X449123Y-4839614D01*
G01X450393Y-4841037D01*
G01X451815Y-4842307D01*
G01X453339Y-4843475D01*
G01X454965Y-4844440D01*
G01X456743Y-4845304D01*
G01X458572Y-4845964D01*
G01X460451Y-4846472D01*
G01X462432Y-4846777D01*
G01X464515Y-4846879D01*
G01X466547Y-4846777D01*
G01X468528Y-4846472D01*
G01X470408Y-4845964D01*
G01X472237Y-4845304D01*
G01X474015Y-4844440D01*
G01X475640Y-4843475D01*
G01X477164Y-4842307D01*
G01X478587Y-4841037D01*
G01X479857Y-4839614D01*
G01X481025Y-4838090D01*
G01X482041Y-4836414D01*
G01X482854Y-4834687D01*
G01X483514Y-4832858D01*
G01X484022Y-4830928D01*
G01X484327Y-4828946D01*
G01X484429Y-4826914D01*
G01X484327Y-4824882D01*
G01X484022Y-4822901D01*
G01X483514Y-4821022D01*
G01X482854Y-4819142D01*
G01X482041Y-4817415D01*
G01X481025Y-4815789D01*
G01X479857Y-4814265D01*
G01X478587Y-4812843D01*
G01X477164Y-4811522D01*
G01X475640Y-4810404D01*
G01X474015Y-4809388D01*
G01X472237Y-4808576D01*
G01X470408Y-4807864D01*
G01X468528Y-4807407D01*
G01X466547Y-4807102D01*
G37*
G36*
G01X406400Y-2088236D02*
G01X404368Y-2088388D01*
G01X402387Y-2088642D01*
G01X400456Y-2089150D01*
G01X398628Y-2089810D01*
G01X396900Y-2090674D01*
G01X395275Y-2091690D01*
G01X393700Y-2092808D01*
G01X392278Y-2094078D01*
G01X391008Y-2095500D01*
G01X389890Y-2097075D01*
G01X388874Y-2098700D01*
G01X388010Y-2100428D01*
G01X387350Y-2102256D01*
G01X386842Y-2104187D01*
G01X386588Y-2106168D01*
G01X386486Y-2108200D01*
G01X389788D01*
G01X389890Y-2106524D01*
G01X390144Y-2104847D01*
G01X390550Y-2103272D01*
G01X391109Y-2101748D01*
G01X391770Y-2100275D01*
G01X392633Y-2098904D01*
G01X393598Y-2097634D01*
G01X394665Y-2096465D01*
G01X395834Y-2095398D01*
G01X397104Y-2094433D01*
G01X398475Y-2093570D01*
G01X399948Y-2092909D01*
G01X401472Y-2092350D01*
G01X403047Y-2091944D01*
G01X404724Y-2091690D01*
G01X406400Y-2091588D01*
G01X408076Y-2091690D01*
G01X409753Y-2091944D01*
G01X411328Y-2092350D01*
G01X412852Y-2092909D01*
G01X414325Y-2093570D01*
G01X415696Y-2094433D01*
G01X416966Y-2095398D01*
G01X418135Y-2096465D01*
G01X419202Y-2097634D01*
G01X420167Y-2098904D01*
G01X421030Y-2100275D01*
G01X421691Y-2101748D01*
G01X422250Y-2103272D01*
G01X422656Y-2104847D01*
G01X422910Y-2106524D01*
G01X423012Y-2108200D01*
G01X422910Y-2109876D01*
G01X422656Y-2111553D01*
G01X422250Y-2113128D01*
G01X421691Y-2114652D01*
G01X421030Y-2116125D01*
G01X420167Y-2117496D01*
G01X419202Y-2118766D01*
G01X418135Y-2119935D01*
G01X416966Y-2121002D01*
G01X415696Y-2121967D01*
G01X414325Y-2122830D01*
G01X412852Y-2123491D01*
G01X411328Y-2124050D01*
G01X409753Y-2124456D01*
G01X408076Y-2124710D01*
G01X406400Y-2124812D01*
G01X404724Y-2124710D01*
G01X403047Y-2124456D01*
G01X401472Y-2124050D01*
G01X399948Y-2123491D01*
G01X398475Y-2122830D01*
G01X397104Y-2121967D01*
G01X395834Y-2121002D01*
G01X394665Y-2119935D01*
G01X393598Y-2118766D01*
G01X392633Y-2117496D01*
G01X391770Y-2116125D01*
G01X391109Y-2114652D01*
G01X390550Y-2113128D01*
G01X390144Y-2111553D01*
G01X389890Y-2109876D01*
G01X389788Y-2108200D01*
G01X386486D01*
G01X386588Y-2110232D01*
G01X386842Y-2112213D01*
G01X387350Y-2114144D01*
G01X388010Y-2115972D01*
G01X388874Y-2117700D01*
G01X389890Y-2119325D01*
G01X391008Y-2120900D01*
G01X392278Y-2122322D01*
G01X393700Y-2123592D01*
G01X395275Y-2124710D01*
G01X396900Y-2125726D01*
G01X398628Y-2126590D01*
G01X400456Y-2127250D01*
G01X402387Y-2127758D01*
G01X404368Y-2128012D01*
G01X406400Y-2128164D01*
G01X408432Y-2128012D01*
G01X410413Y-2127758D01*
G01X412344Y-2127250D01*
G01X414172Y-2126590D01*
G01X415900Y-2125726D01*
G01X417525Y-2124710D01*
G01X419100Y-2123592D01*
G01X420522Y-2122322D01*
G01X421792Y-2120900D01*
G01X422910Y-2119325D01*
G01X423926Y-2117700D01*
G01X424790Y-2115972D01*
G01X425450Y-2114144D01*
G01X425958Y-2112213D01*
G01X426212Y-2110232D01*
G01X426364Y-2108200D01*
G01X426212Y-2106168D01*
G01X425958Y-2104187D01*
G01X425450Y-2102256D01*
G01X424790Y-2100428D01*
G01X423926Y-2098700D01*
G01X422910Y-2097075D01*
G01X421792Y-2095500D01*
G01X420522Y-2094078D01*
G01X419100Y-2092808D01*
G01X417525Y-2091690D01*
G01X415900Y-2090674D01*
G01X414172Y-2089810D01*
G01X412344Y-2089150D01*
G01X410413Y-2088642D01*
G01X408432Y-2088388D01*
G37*
G36*
G01X596900Y-500786D02*
G01X594868Y-500888D01*
G01X592887Y-501142D01*
G01X590956Y-501650D01*
G01X589128Y-502310D01*
G01X587400Y-503174D01*
G01X585775Y-504190D01*
G01X584200Y-505308D01*
G01X582778Y-506578D01*
G01X581508Y-508000D01*
G01X580390Y-509575D01*
G01X579374Y-511200D01*
G01X578510Y-512928D01*
G01X577850Y-514756D01*
G01X577342Y-516687D01*
G01X577088Y-518668D01*
G01X576986Y-520700D01*
G01X580288D01*
G01X580390Y-519024D01*
G01X580644Y-517347D01*
G01X581050Y-515772D01*
G01X581609Y-514248D01*
G01X582270Y-512775D01*
G01X583133Y-511404D01*
G01X584098Y-510134D01*
G01X585165Y-508965D01*
G01X586334Y-507898D01*
G01X587604Y-506933D01*
G01X588975Y-506070D01*
G01X590448Y-505409D01*
G01X591972Y-504850D01*
G01X593547Y-504444D01*
G01X595224Y-504190D01*
G01X596900Y-504088D01*
G01X598576Y-504190D01*
G01X600253Y-504444D01*
G01X601828Y-504850D01*
G01X603352Y-505409D01*
G01X604825Y-506070D01*
G01X606196Y-506933D01*
G01X607466Y-507898D01*
G01X608635Y-508965D01*
G01X609702Y-510134D01*
G01X610667Y-511404D01*
G01X611530Y-512775D01*
G01X612191Y-514248D01*
G01X612750Y-515772D01*
G01X613156Y-517347D01*
G01X613410Y-519024D01*
G01X613512Y-520700D01*
G01X613410Y-522376D01*
G01X613156Y-524053D01*
G01X612750Y-525628D01*
G01X612191Y-527152D01*
G01X611530Y-528625D01*
G01X610667Y-529996D01*
G01X609702Y-531266D01*
G01X608635Y-532435D01*
G01X607466Y-533502D01*
G01X606196Y-534467D01*
G01X604825Y-535330D01*
G01X603352Y-535991D01*
G01X601828Y-536550D01*
G01X600253Y-536956D01*
G01X598576Y-537210D01*
G01X596900Y-537312D01*
G01X595224Y-537210D01*
G01X593547Y-536956D01*
G01X591972Y-536550D01*
G01X590448Y-535991D01*
G01X588975Y-535330D01*
G01X587604Y-534467D01*
G01X586334Y-533502D01*
G01X585165Y-532435D01*
G01X584098Y-531266D01*
G01X583133Y-529996D01*
G01X582270Y-528625D01*
G01X581609Y-527152D01*
G01X581050Y-525628D01*
G01X580644Y-524053D01*
G01X580390Y-522376D01*
G01X580288Y-520700D01*
G01X576986D01*
G01X577088Y-522732D01*
G01X577342Y-524713D01*
G01X577850Y-526644D01*
G01X578510Y-528472D01*
G01X579374Y-530200D01*
G01X580390Y-531825D01*
G01X581508Y-533400D01*
G01X582778Y-534822D01*
G01X584200Y-536092D01*
G01X585775Y-537210D01*
G01X587400Y-538226D01*
G01X589128Y-539090D01*
G01X590956Y-539750D01*
G01X592887Y-540258D01*
G01X594868Y-540512D01*
G01X596900Y-540614D01*
G01X598932Y-540512D01*
G01X600913Y-540258D01*
G01X602844Y-539750D01*
G01X604672Y-539090D01*
G01X606400Y-538226D01*
G01X608025Y-537210D01*
G01X609600Y-536092D01*
G01X611022Y-534822D01*
G01X612292Y-533400D01*
G01X613410Y-531825D01*
G01X614426Y-530200D01*
G01X615290Y-528472D01*
G01X615950Y-526644D01*
G01X616458Y-524713D01*
G01X616712Y-522732D01*
G01X616814Y-520700D01*
G01X616712Y-518668D01*
G01X616458Y-516687D01*
G01X615950Y-514756D01*
G01X615290Y-512928D01*
G01X614426Y-511200D01*
G01X613410Y-509575D01*
G01X612292Y-508000D01*
G01X611022Y-506578D01*
G01X609600Y-505308D01*
G01X608025Y-504190D01*
G01X606400Y-503174D01*
G01X604672Y-502310D01*
G01X602844Y-501650D01*
G01X600913Y-501142D01*
G01X598932Y-500888D01*
G37*
G36*
G01X1860702Y-4621428D02*
G01X1858670Y-4621530D01*
G01X1856689Y-4621835D01*
G01X1854810Y-4622343D01*
G01X1852981Y-4623003D01*
G01X1851203Y-4623867D01*
G01X1849577Y-4624832D01*
G01X1848053Y-4626000D01*
G01X1846631Y-4627270D01*
G01X1845361Y-4628693D01*
G01X1844192Y-4630217D01*
G01X1843176Y-4631893D01*
G01X1842364Y-4633620D01*
G01X1841703Y-4635449D01*
G01X1841195Y-4637380D01*
G01X1840890Y-4639361D01*
G01X1840789Y-4641393D01*
G01X1844091D01*
G01X1844192Y-4639716D01*
G01X1844446Y-4638040D01*
G01X1844853Y-4636465D01*
G01X1845412Y-4634941D01*
G01X1846123Y-4633468D01*
G01X1846936Y-4632096D01*
G01X1847901Y-4630826D01*
G01X1848968Y-4629658D01*
G01X1850187Y-4628591D01*
G01X1851457Y-4627626D01*
G01X1852828Y-4626762D01*
G01X1854251Y-4626102D01*
G01X1855775Y-4625543D01*
G01X1857400Y-4625137D01*
G01X1859026Y-4624883D01*
G01X1860702Y-4624781D01*
G01X1862430Y-4624883D01*
G01X1864055Y-4625137D01*
G01X1865681Y-4625543D01*
G01X1867205Y-4626102D01*
G01X1868627Y-4626762D01*
G01X1869999Y-4627626D01*
G01X1871269Y-4628591D01*
G01X1872488Y-4629658D01*
G01X1873555Y-4630826D01*
G01X1874520Y-4632096D01*
G01X1875333Y-4633468D01*
G01X1876044Y-4634941D01*
G01X1876603Y-4636465D01*
G01X1877009Y-4638040D01*
G01X1877263Y-4639716D01*
G01X1877365Y-4641393D01*
G01X1877263Y-4643069D01*
G01X1877009Y-4644746D01*
G01X1876603Y-4646320D01*
G01X1876044Y-4647844D01*
G01X1875333Y-4649318D01*
G01X1874520Y-4650689D01*
G01X1873555Y-4651959D01*
G01X1872488Y-4653128D01*
G01X1871269Y-4654194D01*
G01X1869999Y-4655160D01*
G01X1868627Y-4655972D01*
G01X1867205Y-4656684D01*
G01X1865681Y-4657242D01*
G01X1864055Y-4657649D01*
G01X1862430Y-4657903D01*
G01X1860702Y-4658004D01*
G01X1859026Y-4657903D01*
G01X1857400Y-4657649D01*
G01X1855775Y-4657242D01*
G01X1854251Y-4656684D01*
G01X1852828Y-4655972D01*
G01X1851457Y-4655160D01*
G01X1850187Y-4654194D01*
G01X1848968Y-4653128D01*
G01X1847901Y-4651959D01*
G01X1846936Y-4650689D01*
G01X1846123Y-4649318D01*
G01X1845412Y-4647844D01*
G01X1844853Y-4646320D01*
G01X1844446Y-4644746D01*
G01X1844192Y-4643069D01*
G01X1844091Y-4641393D01*
G01X1840789D01*
G01X1840890Y-4643425D01*
G01X1841195Y-4645406D01*
G01X1841703Y-4647336D01*
G01X1842364Y-4649165D01*
G01X1843176Y-4650892D01*
G01X1844192Y-4652518D01*
G01X1845361Y-4654093D01*
G01X1846631Y-4655464D01*
G01X1848053Y-4656785D01*
G01X1849577Y-4657903D01*
G01X1851203Y-4658919D01*
G01X1852981Y-4659782D01*
G01X1854810Y-4660443D01*
G01X1856689Y-4660900D01*
G01X1858670Y-4661205D01*
G01X1860702Y-4661306D01*
G01X1862785Y-4661205D01*
G01X1864766Y-4660900D01*
G01X1866646Y-4660443D01*
G01X1868475Y-4659782D01*
G01X1870253Y-4658919D01*
G01X1871878Y-4657903D01*
G01X1873402Y-4656785D01*
G01X1874825Y-4655464D01*
G01X1876095Y-4654093D01*
G01X1877263Y-4652518D01*
G01X1878279Y-4650892D01*
G01X1879092Y-4649165D01*
G01X1879752Y-4647336D01*
G01X1880260Y-4645406D01*
G01X1880565Y-4643425D01*
G01X1880667Y-4641393D01*
G01X1880565Y-4639361D01*
G01X1880260Y-4637380D01*
G01X1879752Y-4635449D01*
G01X1879092Y-4633620D01*
G01X1878279Y-4631893D01*
G01X1877263Y-4630217D01*
G01X1876095Y-4628693D01*
G01X1874825Y-4627270D01*
G01X1873402Y-4626000D01*
G01X1871878Y-4624832D01*
G01X1870253Y-4623867D01*
G01X1868475Y-4623003D01*
G01X1866646Y-4622343D01*
G01X1864766Y-4621835D01*
G01X1862785Y-4621530D01*
G37*
G36*
G01X857402Y-4728261D02*
G01X855370Y-4728362D01*
G01X853389Y-4728667D01*
G01X851510Y-4729175D01*
G01X849681Y-4729836D01*
G01X847903Y-4730699D01*
G01X846277Y-4731664D01*
G01X844753Y-4732833D01*
G01X843331Y-4734103D01*
G01X842061Y-4735525D01*
G01X840892Y-4737049D01*
G01X839876Y-4738726D01*
G01X839064Y-4740453D01*
G01X838403Y-4742282D01*
G01X837895Y-4744212D01*
G01X837590Y-4746193D01*
G01X837489Y-4748225D01*
G01X840791D01*
G01X840892Y-4746498D01*
G01X841146Y-4744872D01*
G01X841553Y-4743298D01*
G01X842112Y-4741723D01*
G01X842823Y-4740300D01*
G01X843636Y-4738929D01*
G01X844601Y-4737659D01*
G01X845668Y-4736490D01*
G01X846887Y-4735373D01*
G01X848157Y-4734458D01*
G01X849528Y-4733595D01*
G01X850951Y-4732884D01*
G01X852475Y-4732325D01*
G01X854100Y-4731918D01*
G01X855726Y-4731664D01*
G01X857402Y-4731614D01*
G01X859130Y-4731664D01*
G01X860755Y-4731918D01*
G01X862381Y-4732325D01*
G01X863905Y-4732884D01*
G01X865327Y-4733595D01*
G01X866699Y-4734458D01*
G01X867969Y-4735373D01*
G01X869188Y-4736490D01*
G01X870255Y-4737659D01*
G01X871220Y-4738929D01*
G01X872033Y-4740300D01*
G01X872744Y-4741723D01*
G01X873303Y-4743298D01*
G01X873709Y-4744872D01*
G01X873963Y-4746498D01*
G01X874065Y-4748225D01*
G01X873963Y-4749902D01*
G01X873709Y-4751578D01*
G01X873303Y-4753153D01*
G01X872744Y-4754677D01*
G01X872033Y-4756099D01*
G01X871220Y-4757471D01*
G01X870255Y-4758792D01*
G01X869188Y-4759960D01*
G01X867969Y-4761027D01*
G01X866699Y-4761992D01*
G01X865327Y-4762805D01*
G01X863905Y-4763516D01*
G01X862381Y-4764075D01*
G01X860755Y-4764481D01*
G01X859130Y-4764735D01*
G01X857402Y-4764837D01*
G01X855726Y-4764735D01*
G01X854100Y-4764481D01*
G01X852475Y-4764075D01*
G01X850951Y-4763516D01*
G01X849528Y-4762805D01*
G01X848157Y-4761992D01*
G01X846887Y-4761027D01*
G01X845668Y-4759960D01*
G01X844601Y-4758792D01*
G01X843636Y-4757471D01*
G01X842823Y-4756099D01*
G01X842112Y-4754677D01*
G01X841553Y-4753153D01*
G01X841146Y-4751578D01*
G01X840892Y-4749902D01*
G01X840791Y-4748225D01*
G01X837489D01*
G01X837590Y-4750257D01*
G01X837895Y-4752238D01*
G01X838403Y-4754118D01*
G01X839064Y-4755947D01*
G01X839876Y-4757725D01*
G01X840892Y-4759350D01*
G01X842061Y-4760874D01*
G01X843331Y-4762297D01*
G01X844753Y-4763618D01*
G01X846277Y-4764735D01*
G01X847903Y-4765751D01*
G01X849681Y-4766564D01*
G01X851510Y-4767275D01*
G01X853389Y-4767732D01*
G01X855370Y-4768037D01*
G01X857402Y-4768139D01*
G01X859485Y-4768037D01*
G01X861466Y-4767732D01*
G01X863346Y-4767275D01*
G01X865175Y-4766564D01*
G01X866953Y-4765751D01*
G01X868578Y-4764735D01*
G01X870102Y-4763618D01*
G01X871525Y-4762297D01*
G01X872795Y-4760874D01*
G01X873963Y-4759350D01*
G01X874979Y-4757725D01*
G01X875792Y-4755947D01*
G01X876452Y-4754118D01*
G01X876960Y-4752238D01*
G01X877265Y-4750257D01*
G01X877367Y-4748225D01*
G01X877265Y-4746193D01*
G01X876960Y-4744212D01*
G01X876452Y-4742282D01*
G01X875792Y-4740453D01*
G01X874979Y-4738726D01*
G01X873963Y-4737049D01*
G01X872795Y-4735525D01*
G01X871525Y-4734103D01*
G01X870102Y-4732833D01*
G01X868578Y-4731664D01*
G01X866953Y-4730699D01*
G01X865175Y-4729836D01*
G01X863346Y-4729175D01*
G01X861466Y-4728667D01*
G01X859485Y-4728362D01*
G37*
G36*
G01X1860702Y-4189628D02*
G01X1858670Y-4189730D01*
G01X1856689Y-4190035D01*
G01X1854810Y-4190543D01*
G01X1852981Y-4191203D01*
G01X1851203Y-4192067D01*
G01X1849577Y-4193032D01*
G01X1848053Y-4194200D01*
G01X1846631Y-4195470D01*
G01X1845361Y-4196893D01*
G01X1844192Y-4198417D01*
G01X1843176Y-4200093D01*
G01X1842364Y-4201820D01*
G01X1841703Y-4203649D01*
G01X1841195Y-4205580D01*
G01X1840890Y-4207561D01*
G01X1840789Y-4209593D01*
G01X1844091D01*
G01X1844192Y-4207916D01*
G01X1844446Y-4206240D01*
G01X1844853Y-4204665D01*
G01X1845412Y-4203141D01*
G01X1846123Y-4201668D01*
G01X1846936Y-4200296D01*
G01X1847901Y-4199026D01*
G01X1848968Y-4197858D01*
G01X1850187Y-4196791D01*
G01X1851457Y-4195826D01*
G01X1852828Y-4194962D01*
G01X1854251Y-4194302D01*
G01X1855775Y-4193743D01*
G01X1857400Y-4193337D01*
G01X1859026Y-4193083D01*
G01X1860702Y-4192981D01*
G01X1862430Y-4193083D01*
G01X1864055Y-4193337D01*
G01X1865681Y-4193743D01*
G01X1867205Y-4194302D01*
G01X1868627Y-4194962D01*
G01X1869999Y-4195826D01*
G01X1871269Y-4196791D01*
G01X1872488Y-4197858D01*
G01X1873555Y-4199026D01*
G01X1874520Y-4200296D01*
G01X1875333Y-4201668D01*
G01X1876044Y-4203141D01*
G01X1876603Y-4204665D01*
G01X1877009Y-4206240D01*
G01X1877263Y-4207916D01*
G01X1877365Y-4209593D01*
G01X1877263Y-4211269D01*
G01X1877009Y-4212946D01*
G01X1876603Y-4214520D01*
G01X1876044Y-4216044D01*
G01X1875333Y-4217518D01*
G01X1874520Y-4218889D01*
G01X1873555Y-4220159D01*
G01X1872488Y-4221328D01*
G01X1871269Y-4222394D01*
G01X1869999Y-4223360D01*
G01X1868627Y-4224172D01*
G01X1867205Y-4224884D01*
G01X1865681Y-4225442D01*
G01X1864055Y-4225849D01*
G01X1862430Y-4226103D01*
G01X1860702Y-4226204D01*
G01X1859026Y-4226103D01*
G01X1857400Y-4225849D01*
G01X1855775Y-4225442D01*
G01X1854251Y-4224884D01*
G01X1852828Y-4224172D01*
G01X1851457Y-4223360D01*
G01X1850187Y-4222394D01*
G01X1848968Y-4221328D01*
G01X1847901Y-4220159D01*
G01X1846936Y-4218889D01*
G01X1846123Y-4217518D01*
G01X1845412Y-4216044D01*
G01X1844853Y-4214520D01*
G01X1844446Y-4212946D01*
G01X1844192Y-4211269D01*
G01X1844091Y-4209593D01*
G01X1840789D01*
G01X1840890Y-4211625D01*
G01X1841195Y-4213606D01*
G01X1841703Y-4215536D01*
G01X1842364Y-4217365D01*
G01X1843176Y-4219092D01*
G01X1844192Y-4220718D01*
G01X1845361Y-4222293D01*
G01X1846631Y-4223664D01*
G01X1848053Y-4224985D01*
G01X1849577Y-4226103D01*
G01X1851203Y-4227119D01*
G01X1852981Y-4227982D01*
G01X1854810Y-4228643D01*
G01X1856689Y-4229100D01*
G01X1858670Y-4229405D01*
G01X1860702Y-4229506D01*
G01X1862785Y-4229405D01*
G01X1864766Y-4229100D01*
G01X1866646Y-4228643D01*
G01X1868475Y-4227982D01*
G01X1870253Y-4227119D01*
G01X1871878Y-4226103D01*
G01X1873402Y-4224985D01*
G01X1874825Y-4223664D01*
G01X1876095Y-4222293D01*
G01X1877263Y-4220718D01*
G01X1878279Y-4219092D01*
G01X1879092Y-4217365D01*
G01X1879752Y-4215536D01*
G01X1880260Y-4213606D01*
G01X1880565Y-4211625D01*
G01X1880667Y-4209593D01*
G01X1880565Y-4207561D01*
G01X1880260Y-4205580D01*
G01X1879752Y-4203649D01*
G01X1879092Y-4201820D01*
G01X1878279Y-4200093D01*
G01X1877263Y-4198417D01*
G01X1876095Y-4196893D01*
G01X1874825Y-4195470D01*
G01X1873402Y-4194200D01*
G01X1871878Y-4193032D01*
G01X1870253Y-4192067D01*
G01X1868475Y-4191203D01*
G01X1866646Y-4190543D01*
G01X1864766Y-4190035D01*
G01X1862785Y-4189730D01*
G37*
G36*
G01X273202Y-4728261D02*
G01X271170Y-4728362D01*
G01X269189Y-4728667D01*
G01X267310Y-4729175D01*
G01X265481Y-4729836D01*
G01X263703Y-4730699D01*
G01X262077Y-4731664D01*
G01X260553Y-4732833D01*
G01X259131Y-4734103D01*
G01X257861Y-4735525D01*
G01X256692Y-4737049D01*
G01X255676Y-4738726D01*
G01X254864Y-4740453D01*
G01X254203Y-4742282D01*
G01X253695Y-4744212D01*
G01X253390Y-4746193D01*
G01X253289Y-4748225D01*
G01X256591D01*
G01X256692Y-4746498D01*
G01X256946Y-4744872D01*
G01X257353Y-4743298D01*
G01X257912Y-4741723D01*
G01X258623Y-4740300D01*
G01X259436Y-4738929D01*
G01X260401Y-4737659D01*
G01X261468Y-4736490D01*
G01X262687Y-4735373D01*
G01X263957Y-4734458D01*
G01X265328Y-4733595D01*
G01X266751Y-4732884D01*
G01X268275Y-4732325D01*
G01X269900Y-4731918D01*
G01X271526Y-4731664D01*
G01X273202Y-4731614D01*
G01X274930Y-4731664D01*
G01X276555Y-4731918D01*
G01X278181Y-4732325D01*
G01X279705Y-4732884D01*
G01X281127Y-4733595D01*
G01X282499Y-4734458D01*
G01X283769Y-4735373D01*
G01X284988Y-4736490D01*
G01X286055Y-4737659D01*
G01X287020Y-4738929D01*
G01X287833Y-4740300D01*
G01X288544Y-4741723D01*
G01X289103Y-4743298D01*
G01X289509Y-4744872D01*
G01X289763Y-4746498D01*
G01X289865Y-4748225D01*
G01X289763Y-4749902D01*
G01X289509Y-4751578D01*
G01X289103Y-4753153D01*
G01X288544Y-4754677D01*
G01X287833Y-4756099D01*
G01X287020Y-4757471D01*
G01X286055Y-4758792D01*
G01X284988Y-4759960D01*
G01X283769Y-4761027D01*
G01X282499Y-4761992D01*
G01X281127Y-4762805D01*
G01X279705Y-4763516D01*
G01X278181Y-4764075D01*
G01X276555Y-4764481D01*
G01X274930Y-4764735D01*
G01X273202Y-4764837D01*
G01X271526Y-4764735D01*
G01X269900Y-4764481D01*
G01X268275Y-4764075D01*
G01X266751Y-4763516D01*
G01X265328Y-4762805D01*
G01X263957Y-4761992D01*
G01X262687Y-4761027D01*
G01X261468Y-4759960D01*
G01X260401Y-4758792D01*
G01X259436Y-4757471D01*
G01X258623Y-4756099D01*
G01X257912Y-4754677D01*
G01X257353Y-4753153D01*
G01X256946Y-4751578D01*
G01X256692Y-4749902D01*
G01X256591Y-4748225D01*
G01X253289D01*
G01X253390Y-4750257D01*
G01X253695Y-4752238D01*
G01X254203Y-4754118D01*
G01X254864Y-4755947D01*
G01X255676Y-4757725D01*
G01X256692Y-4759350D01*
G01X257861Y-4760874D01*
G01X259131Y-4762297D01*
G01X260553Y-4763618D01*
G01X262077Y-4764735D01*
G01X263703Y-4765751D01*
G01X265481Y-4766564D01*
G01X267310Y-4767275D01*
G01X269189Y-4767732D01*
G01X271170Y-4768037D01*
G01X273202Y-4768139D01*
G01X275285Y-4768037D01*
G01X277266Y-4767732D01*
G01X279146Y-4767275D01*
G01X280975Y-4766564D01*
G01X282753Y-4765751D01*
G01X284378Y-4764735D01*
G01X285902Y-4763618D01*
G01X287325Y-4762297D01*
G01X288595Y-4760874D01*
G01X289763Y-4759350D01*
G01X290779Y-4757725D01*
G01X291592Y-4755947D01*
G01X292252Y-4754118D01*
G01X292760Y-4752238D01*
G01X293065Y-4750257D01*
G01X293167Y-4748225D01*
G01X293065Y-4746193D01*
G01X292760Y-4744212D01*
G01X292252Y-4742282D01*
G01X291592Y-4740453D01*
G01X290779Y-4738726D01*
G01X289763Y-4737049D01*
G01X288595Y-4735525D01*
G01X287325Y-4734103D01*
G01X285902Y-4732833D01*
G01X284378Y-4731664D01*
G01X282753Y-4730699D01*
G01X280975Y-4729836D01*
G01X279146Y-4729175D01*
G01X277266Y-4728667D01*
G01X275285Y-4728362D01*
G37*
G36*
G01X774700Y-2570836D02*
G01X772668Y-2570988D01*
G01X770687Y-2571242D01*
G01X768756Y-2571750D01*
G01X766928Y-2572410D01*
G01X765200Y-2573274D01*
G01X763575Y-2574290D01*
G01X762000Y-2575408D01*
G01X760578Y-2576678D01*
G01X759308Y-2578100D01*
G01X758190Y-2579675D01*
G01X757174Y-2581300D01*
G01X756310Y-2583028D01*
G01X755650Y-2584856D01*
G01X755142Y-2586787D01*
G01X754888Y-2588768D01*
G01X754736Y-2590800D01*
G01X758088D01*
G01X758190Y-2589124D01*
G01X758444Y-2587447D01*
G01X758850Y-2585872D01*
G01X759409Y-2584348D01*
G01X760070Y-2582875D01*
G01X760933Y-2581504D01*
G01X761898Y-2580234D01*
G01X762965Y-2579065D01*
G01X764134Y-2577998D01*
G01X765404Y-2577033D01*
G01X766775Y-2576170D01*
G01X768248Y-2575509D01*
G01X769772Y-2574950D01*
G01X771347Y-2574544D01*
G01X773024Y-2574290D01*
G01X774700Y-2574188D01*
G01X776376Y-2574290D01*
G01X778053Y-2574544D01*
G01X779628Y-2574950D01*
G01X781152Y-2575509D01*
G01X782625Y-2576170D01*
G01X783996Y-2577033D01*
G01X785266Y-2577998D01*
G01X786435Y-2579065D01*
G01X787502Y-2580234D01*
G01X788467Y-2581504D01*
G01X789330Y-2582875D01*
G01X789991Y-2584348D01*
G01X790550Y-2585872D01*
G01X790956Y-2587447D01*
G01X791210Y-2589124D01*
G01X791312Y-2590800D01*
G01X791210Y-2592476D01*
G01X790956Y-2594153D01*
G01X790550Y-2595728D01*
G01X789991Y-2597252D01*
G01X789330Y-2598725D01*
G01X788467Y-2600096D01*
G01X787502Y-2601366D01*
G01X786435Y-2602535D01*
G01X785266Y-2603602D01*
G01X783996Y-2604567D01*
G01X782625Y-2605430D01*
G01X781152Y-2606091D01*
G01X779628Y-2606650D01*
G01X778053Y-2607056D01*
G01X776376Y-2607310D01*
G01X774700Y-2607412D01*
G01X773024Y-2607310D01*
G01X771347Y-2607056D01*
G01X769772Y-2606650D01*
G01X768248Y-2606091D01*
G01X766775Y-2605430D01*
G01X765404Y-2604567D01*
G01X764134Y-2603602D01*
G01X762965Y-2602535D01*
G01X761898Y-2601366D01*
G01X760933Y-2600096D01*
G01X760070Y-2598725D01*
G01X759409Y-2597252D01*
G01X758850Y-2595728D01*
G01X758444Y-2594153D01*
G01X758190Y-2592476D01*
G01X758088Y-2590800D01*
G01X754736D01*
G01X754888Y-2592832D01*
G01X755142Y-2594813D01*
G01X755650Y-2596744D01*
G01X756310Y-2598572D01*
G01X757174Y-2600300D01*
G01X758190Y-2601925D01*
G01X759308Y-2603500D01*
G01X760578Y-2604922D01*
G01X762000Y-2606192D01*
G01X763575Y-2607310D01*
G01X765200Y-2608326D01*
G01X766928Y-2609190D01*
G01X768756Y-2609850D01*
G01X770687Y-2610358D01*
G01X772668Y-2610612D01*
G01X774700Y-2610714D01*
G01X776732Y-2610612D01*
G01X778713Y-2610358D01*
G01X780644Y-2609850D01*
G01X782472Y-2609190D01*
G01X784200Y-2608326D01*
G01X785825Y-2607310D01*
G01X787400Y-2606192D01*
G01X788822Y-2604922D01*
G01X790092Y-2603500D01*
G01X791210Y-2601925D01*
G01X792226Y-2600300D01*
G01X793090Y-2598572D01*
G01X793750Y-2596744D01*
G01X794258Y-2594813D01*
G01X794512Y-2592832D01*
G01X794614Y-2590800D01*
G01X794512Y-2588768D01*
G01X794258Y-2586787D01*
G01X793750Y-2584856D01*
G01X793090Y-2583028D01*
G01X792226Y-2581300D01*
G01X791210Y-2579675D01*
G01X790092Y-2578100D01*
G01X788822Y-2576678D01*
G01X787400Y-2575408D01*
G01X785825Y-2574290D01*
G01X784200Y-2573274D01*
G01X782472Y-2572410D01*
G01X780644Y-2571750D01*
G01X778713Y-2571242D01*
G01X776732Y-2570988D01*
G37*
G36*
G01X-736600Y-5174336D02*
G01X-738632Y-5174488D01*
G01X-740613Y-5174742D01*
G01X-742544Y-5175250D01*
G01X-744372Y-5175910D01*
G01X-746100Y-5176774D01*
G01X-747725Y-5177790D01*
G01X-749300Y-5178908D01*
G01X-750722Y-5180178D01*
G01X-751992Y-5181600D01*
G01X-753110Y-5183175D01*
G01X-754126Y-5184800D01*
G01X-754990Y-5186528D01*
G01X-755650Y-5188356D01*
G01X-756158Y-5190287D01*
G01X-756412Y-5192268D01*
G01X-756564Y-5194300D01*
G01X-753212D01*
G01X-753110Y-5192624D01*
G01X-752856Y-5190947D01*
G01X-752450Y-5189372D01*
G01X-751891Y-5187848D01*
G01X-751230Y-5186375D01*
G01X-750367Y-5185004D01*
G01X-749402Y-5183734D01*
G01X-748335Y-5182565D01*
G01X-747166Y-5181498D01*
G01X-745896Y-5180533D01*
G01X-744525Y-5179670D01*
G01X-743052Y-5179009D01*
G01X-741528Y-5178450D01*
G01X-739953Y-5178044D01*
G01X-738276Y-5177790D01*
G01X-736600Y-5177688D01*
G01X-734924Y-5177790D01*
G01X-733247Y-5178044D01*
G01X-731672Y-5178450D01*
G01X-730148Y-5179009D01*
G01X-728675Y-5179670D01*
G01X-727304Y-5180533D01*
G01X-726034Y-5181498D01*
G01X-724865Y-5182565D01*
G01X-723798Y-5183734D01*
G01X-722833Y-5185004D01*
G01X-721970Y-5186375D01*
G01X-721309Y-5187848D01*
G01X-720750Y-5189372D01*
G01X-720344Y-5190947D01*
G01X-720090Y-5192624D01*
G01X-719988Y-5194300D01*
G01X-720090Y-5195976D01*
G01X-720344Y-5197653D01*
G01X-720750Y-5199228D01*
G01X-721309Y-5200752D01*
G01X-721970Y-5202225D01*
G01X-722833Y-5203596D01*
G01X-723798Y-5204866D01*
G01X-724865Y-5206035D01*
G01X-726034Y-5207102D01*
G01X-727304Y-5208067D01*
G01X-728675Y-5208930D01*
G01X-730148Y-5209591D01*
G01X-731672Y-5210150D01*
G01X-733247Y-5210556D01*
G01X-734924Y-5210810D01*
G01X-736600Y-5210912D01*
G01X-738276Y-5210810D01*
G01X-739953Y-5210556D01*
G01X-741528Y-5210150D01*
G01X-743052Y-5209591D01*
G01X-744525Y-5208930D01*
G01X-745896Y-5208067D01*
G01X-747166Y-5207102D01*
G01X-748335Y-5206035D01*
G01X-749402Y-5204866D01*
G01X-750367Y-5203596D01*
G01X-751230Y-5202225D01*
G01X-751891Y-5200752D01*
G01X-752450Y-5199228D01*
G01X-752856Y-5197653D01*
G01X-753110Y-5195976D01*
G01X-753212Y-5194300D01*
G01X-756564D01*
G01X-756412Y-5196332D01*
G01X-756158Y-5198313D01*
G01X-755650Y-5200244D01*
G01X-754990Y-5202072D01*
G01X-754126Y-5203800D01*
G01X-753110Y-5205425D01*
G01X-751992Y-5207000D01*
G01X-750722Y-5208422D01*
G01X-749300Y-5209692D01*
G01X-747725Y-5210810D01*
G01X-746100Y-5211826D01*
G01X-744372Y-5212690D01*
G01X-742544Y-5213350D01*
G01X-740613Y-5213858D01*
G01X-738632Y-5214112D01*
G01X-736600Y-5214214D01*
G01X-734568Y-5214112D01*
G01X-732587Y-5213858D01*
G01X-730656Y-5213350D01*
G01X-728828Y-5212690D01*
G01X-727100Y-5211826D01*
G01X-725475Y-5210810D01*
G01X-723900Y-5209692D01*
G01X-722478Y-5208422D01*
G01X-721208Y-5207000D01*
G01X-720090Y-5205425D01*
G01X-719074Y-5203800D01*
G01X-718210Y-5202072D01*
G01X-717550Y-5200244D01*
G01X-717042Y-5198313D01*
G01X-716788Y-5196332D01*
G01X-716686Y-5194300D01*
G01X-716788Y-5192268D01*
G01X-717042Y-5190287D01*
G01X-717550Y-5188356D01*
G01X-718210Y-5186528D01*
G01X-719074Y-5184800D01*
G01X-720090Y-5183175D01*
G01X-721208Y-5181600D01*
G01X-722478Y-5180178D01*
G01X-723900Y-5178908D01*
G01X-725475Y-5177790D01*
G01X-727100Y-5176774D01*
G01X-728828Y-5175910D01*
G01X-730656Y-5175250D01*
G01X-732587Y-5174742D01*
G01X-734568Y-5174488D01*
G37*
G36*
G01X190500Y-4742536D02*
G01X188468Y-4742688D01*
G01X186487Y-4742942D01*
G01X184556Y-4743450D01*
G01X182728Y-4744110D01*
G01X181000Y-4744974D01*
G01X179375Y-4745990D01*
G01X177800Y-4747108D01*
G01X176378Y-4748378D01*
G01X175108Y-4749800D01*
G01X173990Y-4751375D01*
G01X172974Y-4753000D01*
G01X172110Y-4754728D01*
G01X171450Y-4756556D01*
G01X170942Y-4758487D01*
G01X170688Y-4760468D01*
G01X170536Y-4762500D01*
G01X173888D01*
G01X173990Y-4760824D01*
G01X174244Y-4759147D01*
G01X174650Y-4757572D01*
G01X175209Y-4756048D01*
G01X175870Y-4754575D01*
G01X176733Y-4753204D01*
G01X177698Y-4751934D01*
G01X178765Y-4750765D01*
G01X179934Y-4749698D01*
G01X181204Y-4748733D01*
G01X182575Y-4747870D01*
G01X184048Y-4747209D01*
G01X185572Y-4746650D01*
G01X187147Y-4746244D01*
G01X188824Y-4745990D01*
G01X190500Y-4745888D01*
G01X192176Y-4745990D01*
G01X193853Y-4746244D01*
G01X195428Y-4746650D01*
G01X196952Y-4747209D01*
G01X198425Y-4747870D01*
G01X199796Y-4748733D01*
G01X201066Y-4749698D01*
G01X202235Y-4750765D01*
G01X203302Y-4751934D01*
G01X204267Y-4753204D01*
G01X205130Y-4754575D01*
G01X205791Y-4756048D01*
G01X206350Y-4757572D01*
G01X206756Y-4759147D01*
G01X207010Y-4760824D01*
G01X207112Y-4762500D01*
G01X207010Y-4764176D01*
G01X206756Y-4765853D01*
G01X206350Y-4767428D01*
G01X205791Y-4768952D01*
G01X205130Y-4770425D01*
G01X204267Y-4771796D01*
G01X203302Y-4773066D01*
G01X202235Y-4774235D01*
G01X201066Y-4775302D01*
G01X199796Y-4776267D01*
G01X198425Y-4777130D01*
G01X196952Y-4777791D01*
G01X195428Y-4778350D01*
G01X193853Y-4778756D01*
G01X192176Y-4779010D01*
G01X190500Y-4779112D01*
G01X188824Y-4779010D01*
G01X187147Y-4778756D01*
G01X185572Y-4778350D01*
G01X184048Y-4777791D01*
G01X182575Y-4777130D01*
G01X181204Y-4776267D01*
G01X179934Y-4775302D01*
G01X178765Y-4774235D01*
G01X177698Y-4773066D01*
G01X176733Y-4771796D01*
G01X175870Y-4770425D01*
G01X175209Y-4768952D01*
G01X174650Y-4767428D01*
G01X174244Y-4765853D01*
G01X173990Y-4764176D01*
G01X173888Y-4762500D01*
G01X170536D01*
G01X170688Y-4764532D01*
G01X170942Y-4766513D01*
G01X171450Y-4768444D01*
G01X172110Y-4770272D01*
G01X172974Y-4772000D01*
G01X173990Y-4773625D01*
G01X175108Y-4775200D01*
G01X176378Y-4776622D01*
G01X177800Y-4777892D01*
G01X179375Y-4779010D01*
G01X181000Y-4780026D01*
G01X182728Y-4780890D01*
G01X184556Y-4781550D01*
G01X186487Y-4782058D01*
G01X188468Y-4782312D01*
G01X190500Y-4782414D01*
G01X192532Y-4782312D01*
G01X194513Y-4782058D01*
G01X196444Y-4781550D01*
G01X198272Y-4780890D01*
G01X200000Y-4780026D01*
G01X201625Y-4779010D01*
G01X203200Y-4777892D01*
G01X204622Y-4776622D01*
G01X205892Y-4775200D01*
G01X207010Y-4773625D01*
G01X208026Y-4772000D01*
G01X208890Y-4770272D01*
G01X209550Y-4768444D01*
G01X210058Y-4766513D01*
G01X210312Y-4764532D01*
G01X210414Y-4762500D01*
G01X210312Y-4760468D01*
G01X210058Y-4758487D01*
G01X209550Y-4756556D01*
G01X208890Y-4754728D01*
G01X208026Y-4753000D01*
G01X207010Y-4751375D01*
G01X205892Y-4749800D01*
G01X204622Y-4748378D01*
G01X203200Y-4747108D01*
G01X201625Y-4745990D01*
G01X200000Y-4744974D01*
G01X198272Y-4744110D01*
G01X196444Y-4743450D01*
G01X194513Y-4742942D01*
G01X192532Y-4742688D01*
G37*
G36*
G01X685800Y-4615536D02*
G01X683768Y-4615688D01*
G01X681787Y-4615942D01*
G01X679856Y-4616450D01*
G01X678028Y-4617110D01*
G01X676300Y-4617974D01*
G01X674675Y-4618990D01*
G01X673100Y-4620108D01*
G01X671678Y-4621378D01*
G01X670408Y-4622800D01*
G01X669290Y-4624375D01*
G01X668274Y-4626000D01*
G01X667410Y-4627728D01*
G01X666750Y-4629556D01*
G01X666242Y-4631487D01*
G01X665988Y-4633468D01*
G01X665836Y-4635500D01*
G01X669188D01*
G01X669290Y-4633824D01*
G01X669544Y-4632147D01*
G01X669950Y-4630572D01*
G01X670509Y-4629048D01*
G01X671170Y-4627575D01*
G01X672033Y-4626204D01*
G01X672998Y-4624934D01*
G01X674065Y-4623765D01*
G01X675234Y-4622698D01*
G01X676504Y-4621733D01*
G01X677875Y-4620870D01*
G01X679348Y-4620209D01*
G01X680872Y-4619650D01*
G01X682447Y-4619244D01*
G01X684124Y-4618990D01*
G01X685800Y-4618888D01*
G01X687476Y-4618990D01*
G01X689153Y-4619244D01*
G01X690728Y-4619650D01*
G01X692252Y-4620209D01*
G01X693725Y-4620870D01*
G01X695096Y-4621733D01*
G01X696366Y-4622698D01*
G01X697535Y-4623765D01*
G01X698602Y-4624934D01*
G01X699567Y-4626204D01*
G01X700430Y-4627575D01*
G01X701091Y-4629048D01*
G01X701650Y-4630572D01*
G01X702056Y-4632147D01*
G01X702310Y-4633824D01*
G01X702412Y-4635500D01*
G01X702310Y-4637176D01*
G01X702056Y-4638853D01*
G01X701650Y-4640428D01*
G01X701091Y-4641952D01*
G01X700430Y-4643425D01*
G01X699567Y-4644796D01*
G01X698602Y-4646066D01*
G01X697535Y-4647235D01*
G01X696366Y-4648302D01*
G01X695096Y-4649267D01*
G01X693725Y-4650130D01*
G01X692252Y-4650791D01*
G01X690728Y-4651350D01*
G01X689153Y-4651756D01*
G01X687476Y-4652010D01*
G01X685800Y-4652112D01*
G01X684124Y-4652010D01*
G01X682447Y-4651756D01*
G01X680872Y-4651350D01*
G01X679348Y-4650791D01*
G01X677875Y-4650130D01*
G01X676504Y-4649267D01*
G01X675234Y-4648302D01*
G01X674065Y-4647235D01*
G01X672998Y-4646066D01*
G01X672033Y-4644796D01*
G01X671170Y-4643425D01*
G01X670509Y-4641952D01*
G01X669950Y-4640428D01*
G01X669544Y-4638853D01*
G01X669290Y-4637176D01*
G01X669188Y-4635500D01*
G01X665836D01*
G01X665988Y-4637532D01*
G01X666242Y-4639513D01*
G01X666750Y-4641444D01*
G01X667410Y-4643272D01*
G01X668274Y-4645000D01*
G01X669290Y-4646625D01*
G01X670408Y-4648200D01*
G01X671678Y-4649622D01*
G01X673100Y-4650892D01*
G01X674675Y-4652010D01*
G01X676300Y-4653026D01*
G01X678028Y-4653890D01*
G01X679856Y-4654550D01*
G01X681787Y-4655058D01*
G01X683768Y-4655312D01*
G01X685800Y-4655414D01*
G01X687832Y-4655312D01*
G01X689813Y-4655058D01*
G01X691744Y-4654550D01*
G01X693572Y-4653890D01*
G01X695300Y-4653026D01*
G01X696925Y-4652010D01*
G01X698500Y-4650892D01*
G01X699922Y-4649622D01*
G01X701192Y-4648200D01*
G01X702310Y-4646625D01*
G01X703326Y-4645000D01*
G01X704190Y-4643272D01*
G01X704850Y-4641444D01*
G01X705358Y-4639513D01*
G01X705612Y-4637532D01*
G01X705714Y-4635500D01*
G01X705612Y-4633468D01*
G01X705358Y-4631487D01*
G01X704850Y-4629556D01*
G01X704190Y-4627728D01*
G01X703326Y-4626000D01*
G01X702310Y-4624375D01*
G01X701192Y-4622800D01*
G01X699922Y-4621378D01*
G01X698500Y-4620108D01*
G01X696925Y-4618990D01*
G01X695300Y-4617974D01*
G01X693572Y-4617110D01*
G01X691744Y-4616450D01*
G01X689813Y-4615942D01*
G01X687832Y-4615688D01*
G37*
G36*
G01X605536Y-4615536D02*
G01X603504Y-4615688D01*
G01X601523Y-4615942D01*
G01X599592Y-4616450D01*
G01X597764Y-4617110D01*
G01X596036Y-4617974D01*
G01X594360Y-4618990D01*
G01X592836Y-4620108D01*
G01X591414Y-4621378D01*
G01X590144Y-4622800D01*
G01X588975Y-4624375D01*
G01X588010Y-4626000D01*
G01X587146Y-4627728D01*
G01X586486Y-4629556D01*
G01X585978Y-4631487D01*
G01X585673Y-4633468D01*
G01X585572Y-4635500D01*
G01X588924D01*
G01X588975Y-4633824D01*
G01X589229Y-4632147D01*
G01X589636Y-4630572D01*
G01X590194Y-4629048D01*
G01X590906Y-4627575D01*
G01X591769Y-4626204D01*
G01X592684Y-4624934D01*
G01X593750Y-4623765D01*
G01X594970Y-4622698D01*
G01X596240Y-4621733D01*
G01X597611Y-4620870D01*
G01X599034Y-4620209D01*
G01X600608Y-4619650D01*
G01X602183Y-4619244D01*
G01X603809Y-4618990D01*
G01X605536Y-4618888D01*
G01X607212Y-4618990D01*
G01X608889Y-4619244D01*
G01X610464Y-4619650D01*
G01X611988Y-4620209D01*
G01X613410Y-4620870D01*
G01X614782Y-4621733D01*
G01X616102Y-4622698D01*
G01X617271Y-4623765D01*
G01X618338Y-4624934D01*
G01X619303Y-4626204D01*
G01X620116Y-4627575D01*
G01X620827Y-4629048D01*
G01X621386Y-4630572D01*
G01X621792Y-4632147D01*
G01X622046Y-4633824D01*
G01X622148Y-4635500D01*
G01X622046Y-4637176D01*
G01X621792Y-4638853D01*
G01X621386Y-4640428D01*
G01X620827Y-4641952D01*
G01X620116Y-4643425D01*
G01X619303Y-4644796D01*
G01X618338Y-4646066D01*
G01X617271Y-4647235D01*
G01X616102Y-4648302D01*
G01X614782Y-4649267D01*
G01X613410Y-4650130D01*
G01X611988Y-4650791D01*
G01X610464Y-4651350D01*
G01X608889Y-4651756D01*
G01X607212Y-4652010D01*
G01X605536Y-4652112D01*
G01X603809Y-4652010D01*
G01X602183Y-4651756D01*
G01X600608Y-4651350D01*
G01X599034Y-4650791D01*
G01X597611Y-4650130D01*
G01X596240Y-4649267D01*
G01X594970Y-4648302D01*
G01X593750Y-4647235D01*
G01X592684Y-4646066D01*
G01X591769Y-4644796D01*
G01X590906Y-4643425D01*
G01X590194Y-4641952D01*
G01X589636Y-4640428D01*
G01X589229Y-4638853D01*
G01X588975Y-4637176D01*
G01X588924Y-4635500D01*
G01X585572D01*
G01X585673Y-4637532D01*
G01X585978Y-4639513D01*
G01X586486Y-4641444D01*
G01X587146Y-4643272D01*
G01X588010Y-4645000D01*
G01X588975Y-4646625D01*
G01X590144Y-4648200D01*
G01X591414Y-4649622D01*
G01X592836Y-4650892D01*
G01X594360Y-4652010D01*
G01X596036Y-4653026D01*
G01X597764Y-4653890D01*
G01X599592Y-4654550D01*
G01X601523Y-4655058D01*
G01X603504Y-4655312D01*
G01X605536Y-4655414D01*
G01X607568Y-4655312D01*
G01X609549Y-4655058D01*
G01X611429Y-4654550D01*
G01X613258Y-4653890D01*
G01X615036Y-4653026D01*
G01X616661Y-4652010D01*
G01X618185Y-4650892D01*
G01X619608Y-4649622D01*
G01X620928Y-4648200D01*
G01X622046Y-4646625D01*
G01X623062Y-4645000D01*
G01X623875Y-4643272D01*
G01X624586Y-4641444D01*
G01X625043Y-4639513D01*
G01X625348Y-4637532D01*
G01X625450Y-4635500D01*
G01X625348Y-4633468D01*
G01X625043Y-4631487D01*
G01X624586Y-4629556D01*
G01X623875Y-4627728D01*
G01X623062Y-4626000D01*
G01X622046Y-4624375D01*
G01X620928Y-4622800D01*
G01X619608Y-4621378D01*
G01X618185Y-4620108D01*
G01X616661Y-4618990D01*
G01X615036Y-4617974D01*
G01X613258Y-4617110D01*
G01X611429Y-4616450D01*
G01X609549Y-4615942D01*
G01X607568Y-4615688D01*
G37*
G36*
G01X685800Y-4679036D02*
G01X683768Y-4679188D01*
G01X681787Y-4679442D01*
G01X679856Y-4679950D01*
G01X678028Y-4680610D01*
G01X676300Y-4681474D01*
G01X674675Y-4682490D01*
G01X673100Y-4683608D01*
G01X671678Y-4684878D01*
G01X670408Y-4686300D01*
G01X669290Y-4687875D01*
G01X668274Y-4689500D01*
G01X667410Y-4691228D01*
G01X666750Y-4693056D01*
G01X666242Y-4694987D01*
G01X665988Y-4696968D01*
G01X665836Y-4699000D01*
G01X669188D01*
G01X669290Y-4697324D01*
G01X669544Y-4695647D01*
G01X669950Y-4694072D01*
G01X670509Y-4692548D01*
G01X671170Y-4691075D01*
G01X672033Y-4689704D01*
G01X672998Y-4688434D01*
G01X674065Y-4687265D01*
G01X675234Y-4686198D01*
G01X676504Y-4685233D01*
G01X677875Y-4684370D01*
G01X679348Y-4683709D01*
G01X680872Y-4683150D01*
G01X682447Y-4682744D01*
G01X684124Y-4682490D01*
G01X685800Y-4682388D01*
G01X687476Y-4682490D01*
G01X689153Y-4682744D01*
G01X690728Y-4683150D01*
G01X692252Y-4683709D01*
G01X693725Y-4684370D01*
G01X695096Y-4685233D01*
G01X696366Y-4686198D01*
G01X697535Y-4687265D01*
G01X698602Y-4688434D01*
G01X699567Y-4689704D01*
G01X700430Y-4691075D01*
G01X701091Y-4692548D01*
G01X701650Y-4694072D01*
G01X702056Y-4695647D01*
G01X702310Y-4697324D01*
G01X702412Y-4699000D01*
G01X702310Y-4700676D01*
G01X702056Y-4702353D01*
G01X701650Y-4703928D01*
G01X701091Y-4705452D01*
G01X700430Y-4706925D01*
G01X699567Y-4708296D01*
G01X698602Y-4709566D01*
G01X697535Y-4710735D01*
G01X696366Y-4711802D01*
G01X695096Y-4712767D01*
G01X693725Y-4713630D01*
G01X692252Y-4714291D01*
G01X690728Y-4714850D01*
G01X689153Y-4715256D01*
G01X687476Y-4715510D01*
G01X685800Y-4715612D01*
G01X684124Y-4715510D01*
G01X682447Y-4715256D01*
G01X680872Y-4714850D01*
G01X679348Y-4714291D01*
G01X677875Y-4713630D01*
G01X676504Y-4712767D01*
G01X675234Y-4711802D01*
G01X674065Y-4710735D01*
G01X672998Y-4709566D01*
G01X672033Y-4708296D01*
G01X671170Y-4706925D01*
G01X670509Y-4705452D01*
G01X669950Y-4703928D01*
G01X669544Y-4702353D01*
G01X669290Y-4700676D01*
G01X669188Y-4699000D01*
G01X665836D01*
G01X665988Y-4701032D01*
G01X666242Y-4703013D01*
G01X666750Y-4704944D01*
G01X667410Y-4706772D01*
G01X668274Y-4708500D01*
G01X669290Y-4710125D01*
G01X670408Y-4711700D01*
G01X671678Y-4713122D01*
G01X673100Y-4714392D01*
G01X674675Y-4715510D01*
G01X676300Y-4716526D01*
G01X678028Y-4717390D01*
G01X679856Y-4718050D01*
G01X681787Y-4718558D01*
G01X683768Y-4718812D01*
G01X685800Y-4718914D01*
G01X687832Y-4718812D01*
G01X689813Y-4718558D01*
G01X691744Y-4718050D01*
G01X693572Y-4717390D01*
G01X695300Y-4716526D01*
G01X696925Y-4715510D01*
G01X698500Y-4714392D01*
G01X699922Y-4713122D01*
G01X701192Y-4711700D01*
G01X702310Y-4710125D01*
G01X703326Y-4708500D01*
G01X704190Y-4706772D01*
G01X704850Y-4704944D01*
G01X705358Y-4703013D01*
G01X705612Y-4701032D01*
G01X705714Y-4699000D01*
G01X705612Y-4696968D01*
G01X705358Y-4694987D01*
G01X704850Y-4693056D01*
G01X704190Y-4691228D01*
G01X703326Y-4689500D01*
G01X702310Y-4687875D01*
G01X701192Y-4686300D01*
G01X699922Y-4684878D01*
G01X698500Y-4683608D01*
G01X696925Y-4682490D01*
G01X695300Y-4681474D01*
G01X693572Y-4680610D01*
G01X691744Y-4679950D01*
G01X689813Y-4679442D01*
G01X687832Y-4679188D01*
G37*
G36*
G01X647700Y-4285336D02*
G01X645668Y-4285488D01*
G01X643687Y-4285742D01*
G01X641756Y-4286250D01*
G01X639928Y-4286910D01*
G01X638200Y-4287774D01*
G01X636575Y-4288790D01*
G01X635000Y-4289908D01*
G01X633578Y-4291178D01*
G01X632308Y-4292600D01*
G01X631190Y-4294175D01*
G01X630174Y-4295800D01*
G01X629310Y-4297528D01*
G01X628650Y-4299356D01*
G01X628142Y-4301287D01*
G01X627888Y-4303268D01*
G01X627736Y-4305300D01*
G01X631088D01*
G01X631190Y-4303624D01*
G01X631444Y-4301947D01*
G01X631850Y-4300372D01*
G01X632409Y-4298848D01*
G01X633070Y-4297375D01*
G01X633933Y-4296004D01*
G01X634898Y-4294734D01*
G01X635965Y-4293565D01*
G01X637134Y-4292498D01*
G01X638404Y-4291533D01*
G01X639775Y-4290670D01*
G01X641248Y-4290009D01*
G01X642772Y-4289450D01*
G01X644347Y-4289044D01*
G01X646024Y-4288790D01*
G01X647700Y-4288688D01*
G01X649376Y-4288790D01*
G01X651053Y-4289044D01*
G01X652628Y-4289450D01*
G01X654152Y-4290009D01*
G01X655625Y-4290670D01*
G01X656996Y-4291533D01*
G01X658266Y-4292498D01*
G01X659435Y-4293565D01*
G01X660502Y-4294734D01*
G01X661467Y-4296004D01*
G01X662330Y-4297375D01*
G01X662991Y-4298848D01*
G01X663550Y-4300372D01*
G01X663956Y-4301947D01*
G01X664210Y-4303624D01*
G01X664312Y-4305300D01*
G01X664210Y-4306976D01*
G01X663956Y-4308653D01*
G01X663550Y-4310228D01*
G01X662991Y-4311752D01*
G01X662330Y-4313225D01*
G01X661467Y-4314596D01*
G01X660502Y-4315866D01*
G01X659435Y-4317035D01*
G01X658266Y-4318102D01*
G01X656996Y-4319067D01*
G01X655625Y-4319930D01*
G01X654152Y-4320591D01*
G01X652628Y-4321150D01*
G01X651053Y-4321556D01*
G01X649376Y-4321810D01*
G01X647700Y-4321912D01*
G01X646024Y-4321810D01*
G01X644347Y-4321556D01*
G01X642772Y-4321150D01*
G01X641248Y-4320591D01*
G01X639775Y-4319930D01*
G01X638404Y-4319067D01*
G01X637134Y-4318102D01*
G01X635965Y-4317035D01*
G01X634898Y-4315866D01*
G01X633933Y-4314596D01*
G01X633070Y-4313225D01*
G01X632409Y-4311752D01*
G01X631850Y-4310228D01*
G01X631444Y-4308653D01*
G01X631190Y-4306976D01*
G01X631088Y-4305300D01*
G01X627736D01*
G01X627888Y-4307332D01*
G01X628142Y-4309313D01*
G01X628650Y-4311244D01*
G01X629310Y-4313072D01*
G01X630174Y-4314800D01*
G01X631190Y-4316425D01*
G01X632308Y-4318000D01*
G01X633578Y-4319422D01*
G01X635000Y-4320692D01*
G01X636575Y-4321810D01*
G01X638200Y-4322826D01*
G01X639928Y-4323690D01*
G01X641756Y-4324350D01*
G01X643687Y-4324858D01*
G01X645668Y-4325112D01*
G01X647700Y-4325214D01*
G01X649732Y-4325112D01*
G01X651713Y-4324858D01*
G01X653644Y-4324350D01*
G01X655472Y-4323690D01*
G01X657200Y-4322826D01*
G01X658825Y-4321810D01*
G01X660400Y-4320692D01*
G01X661822Y-4319422D01*
G01X663092Y-4318000D01*
G01X664210Y-4316425D01*
G01X665226Y-4314800D01*
G01X666090Y-4313072D01*
G01X666750Y-4311244D01*
G01X667258Y-4309313D01*
G01X667512Y-4307332D01*
G01X667614Y-4305300D01*
G01X667512Y-4303268D01*
G01X667258Y-4301287D01*
G01X666750Y-4299356D01*
G01X666090Y-4297528D01*
G01X665226Y-4295800D01*
G01X664210Y-4294175D01*
G01X663092Y-4292600D01*
G01X661822Y-4291178D01*
G01X660400Y-4289908D01*
G01X658825Y-4288790D01*
G01X657200Y-4287774D01*
G01X655472Y-4286910D01*
G01X653644Y-4286250D01*
G01X651713Y-4285742D01*
G01X649732Y-4285488D01*
G37*
G36*
G01X1092200Y-4044036D02*
G01X1090168Y-4044188D01*
G01X1088187Y-4044442D01*
G01X1086256Y-4044950D01*
G01X1084428Y-4045610D01*
G01X1082700Y-4046474D01*
G01X1081075Y-4047490D01*
G01X1079500Y-4048608D01*
G01X1078078Y-4049878D01*
G01X1076808Y-4051300D01*
G01X1075690Y-4052875D01*
G01X1074674Y-4054500D01*
G01X1073810Y-4056228D01*
G01X1073150Y-4058056D01*
G01X1072642Y-4059987D01*
G01X1072388Y-4061968D01*
G01X1072286Y-4064000D01*
G01X1075588D01*
G01X1075690Y-4062324D01*
G01X1075944Y-4060647D01*
G01X1076350Y-4059072D01*
G01X1076909Y-4057548D01*
G01X1077570Y-4056075D01*
G01X1078433Y-4054704D01*
G01X1079398Y-4053434D01*
G01X1080465Y-4052265D01*
G01X1081634Y-4051198D01*
G01X1082904Y-4050233D01*
G01X1084275Y-4049370D01*
G01X1085748Y-4048709D01*
G01X1087272Y-4048150D01*
G01X1088847Y-4047744D01*
G01X1090524Y-4047490D01*
G01X1092200Y-4047388D01*
G01X1093876Y-4047490D01*
G01X1095553Y-4047744D01*
G01X1097128Y-4048150D01*
G01X1098652Y-4048709D01*
G01X1100125Y-4049370D01*
G01X1101496Y-4050233D01*
G01X1102766Y-4051198D01*
G01X1103935Y-4052265D01*
G01X1105002Y-4053434D01*
G01X1105967Y-4054704D01*
G01X1106830Y-4056075D01*
G01X1107491Y-4057548D01*
G01X1108050Y-4059072D01*
G01X1108456Y-4060647D01*
G01X1108710Y-4062324D01*
G01X1108812Y-4064000D01*
G01X1108710Y-4065676D01*
G01X1108456Y-4067353D01*
G01X1108050Y-4068928D01*
G01X1107491Y-4070452D01*
G01X1106830Y-4071925D01*
G01X1105967Y-4073296D01*
G01X1105002Y-4074566D01*
G01X1103935Y-4075735D01*
G01X1102766Y-4076802D01*
G01X1101496Y-4077767D01*
G01X1100125Y-4078630D01*
G01X1098652Y-4079291D01*
G01X1097128Y-4079850D01*
G01X1095553Y-4080256D01*
G01X1093876Y-4080510D01*
G01X1092200Y-4080612D01*
G01X1090524Y-4080510D01*
G01X1088847Y-4080256D01*
G01X1087272Y-4079850D01*
G01X1085748Y-4079291D01*
G01X1084275Y-4078630D01*
G01X1082904Y-4077767D01*
G01X1081634Y-4076802D01*
G01X1080465Y-4075735D01*
G01X1079398Y-4074566D01*
G01X1078433Y-4073296D01*
G01X1077570Y-4071925D01*
G01X1076909Y-4070452D01*
G01X1076350Y-4068928D01*
G01X1075944Y-4067353D01*
G01X1075690Y-4065676D01*
G01X1075588Y-4064000D01*
G01X1072286D01*
G01X1072388Y-4066032D01*
G01X1072642Y-4068013D01*
G01X1073150Y-4069944D01*
G01X1073810Y-4071772D01*
G01X1074674Y-4073500D01*
G01X1075690Y-4075125D01*
G01X1076808Y-4076700D01*
G01X1078078Y-4078122D01*
G01X1079500Y-4079392D01*
G01X1081075Y-4080510D01*
G01X1082700Y-4081526D01*
G01X1084428Y-4082390D01*
G01X1086256Y-4083050D01*
G01X1088187Y-4083558D01*
G01X1090168Y-4083812D01*
G01X1092200Y-4083914D01*
G01X1094232Y-4083812D01*
G01X1096213Y-4083558D01*
G01X1098144Y-4083050D01*
G01X1099972Y-4082390D01*
G01X1101700Y-4081526D01*
G01X1103325Y-4080510D01*
G01X1104900Y-4079392D01*
G01X1106322Y-4078122D01*
G01X1107592Y-4076700D01*
G01X1108710Y-4075125D01*
G01X1109726Y-4073500D01*
G01X1110590Y-4071772D01*
G01X1111250Y-4069944D01*
G01X1111758Y-4068013D01*
G01X1112012Y-4066032D01*
G01X1112164Y-4064000D01*
G01X1112012Y-4061968D01*
G01X1111758Y-4059987D01*
G01X1111250Y-4058056D01*
G01X1110590Y-4056228D01*
G01X1109726Y-4054500D01*
G01X1108710Y-4052875D01*
G01X1107592Y-4051300D01*
G01X1106322Y-4049878D01*
G01X1104900Y-4048608D01*
G01X1103325Y-4047490D01*
G01X1101700Y-4046474D01*
G01X1099972Y-4045610D01*
G01X1098144Y-4044950D01*
G01X1096213Y-4044442D01*
G01X1094232Y-4044188D01*
G37*
G36*
G01X1117600Y-3510636D02*
G01X1115568Y-3510788D01*
G01X1113587Y-3511042D01*
G01X1111656Y-3511550D01*
G01X1109828Y-3512210D01*
G01X1108100Y-3513074D01*
G01X1106475Y-3514090D01*
G01X1104900Y-3515208D01*
G01X1103478Y-3516478D01*
G01X1102208Y-3517900D01*
G01X1101090Y-3519475D01*
G01X1100074Y-3521100D01*
G01X1099210Y-3522828D01*
G01X1098550Y-3524656D01*
G01X1098042Y-3526587D01*
G01X1097788Y-3528568D01*
G01X1097686Y-3530600D01*
G01X1100988D01*
G01X1101090Y-3528924D01*
G01X1101344Y-3527247D01*
G01X1101750Y-3525672D01*
G01X1102309Y-3524148D01*
G01X1102970Y-3522675D01*
G01X1103833Y-3521304D01*
G01X1104798Y-3520034D01*
G01X1105865Y-3518865D01*
G01X1107034Y-3517798D01*
G01X1108304Y-3516833D01*
G01X1109675Y-3515970D01*
G01X1111148Y-3515309D01*
G01X1112672Y-3514750D01*
G01X1114247Y-3514344D01*
G01X1115924Y-3514090D01*
G01X1117600Y-3513988D01*
G01X1119276Y-3514090D01*
G01X1120953Y-3514344D01*
G01X1122528Y-3514750D01*
G01X1124052Y-3515309D01*
G01X1125525Y-3515970D01*
G01X1126896Y-3516833D01*
G01X1128166Y-3517798D01*
G01X1129335Y-3518865D01*
G01X1130402Y-3520034D01*
G01X1131367Y-3521304D01*
G01X1132230Y-3522675D01*
G01X1132891Y-3524148D01*
G01X1133450Y-3525672D01*
G01X1133856Y-3527247D01*
G01X1134110Y-3528924D01*
G01X1134212Y-3530600D01*
G01X1134110Y-3532276D01*
G01X1133856Y-3533953D01*
G01X1133450Y-3535528D01*
G01X1132891Y-3537052D01*
G01X1132230Y-3538525D01*
G01X1131367Y-3539896D01*
G01X1130402Y-3541166D01*
G01X1129335Y-3542335D01*
G01X1128166Y-3543402D01*
G01X1126896Y-3544367D01*
G01X1125525Y-3545230D01*
G01X1124052Y-3545891D01*
G01X1122528Y-3546450D01*
G01X1120953Y-3546856D01*
G01X1119276Y-3547110D01*
G01X1117600Y-3547212D01*
G01X1115924Y-3547110D01*
G01X1114247Y-3546856D01*
G01X1112672Y-3546450D01*
G01X1111148Y-3545891D01*
G01X1109675Y-3545230D01*
G01X1108304Y-3544367D01*
G01X1107034Y-3543402D01*
G01X1105865Y-3542335D01*
G01X1104798Y-3541166D01*
G01X1103833Y-3539896D01*
G01X1102970Y-3538525D01*
G01X1102309Y-3537052D01*
G01X1101750Y-3535528D01*
G01X1101344Y-3533953D01*
G01X1101090Y-3532276D01*
G01X1100988Y-3530600D01*
G01X1097686D01*
G01X1097788Y-3532632D01*
G01X1098042Y-3534613D01*
G01X1098550Y-3536544D01*
G01X1099210Y-3538372D01*
G01X1100074Y-3540100D01*
G01X1101090Y-3541725D01*
G01X1102208Y-3543300D01*
G01X1103478Y-3544722D01*
G01X1104900Y-3545992D01*
G01X1106475Y-3547110D01*
G01X1108100Y-3548126D01*
G01X1109828Y-3548990D01*
G01X1111656Y-3549650D01*
G01X1113587Y-3550158D01*
G01X1115568Y-3550412D01*
G01X1117600Y-3550514D01*
G01X1119632Y-3550412D01*
G01X1121613Y-3550158D01*
G01X1123544Y-3549650D01*
G01X1125372Y-3548990D01*
G01X1127100Y-3548126D01*
G01X1128725Y-3547110D01*
G01X1130300Y-3545992D01*
G01X1131722Y-3544722D01*
G01X1132992Y-3543300D01*
G01X1134110Y-3541725D01*
G01X1135126Y-3540100D01*
G01X1135990Y-3538372D01*
G01X1136650Y-3536544D01*
G01X1137158Y-3534613D01*
G01X1137412Y-3532632D01*
G01X1137564Y-3530600D01*
G01X1137412Y-3528568D01*
G01X1137158Y-3526587D01*
G01X1136650Y-3524656D01*
G01X1135990Y-3522828D01*
G01X1135126Y-3521100D01*
G01X1134110Y-3519475D01*
G01X1132992Y-3517900D01*
G01X1131722Y-3516478D01*
G01X1130300Y-3515208D01*
G01X1128725Y-3514090D01*
G01X1127100Y-3513074D01*
G01X1125372Y-3512210D01*
G01X1123544Y-3511550D01*
G01X1121613Y-3511042D01*
G01X1119632Y-3510788D01*
G37*
G36*
G01X876300Y-462686D02*
G01X874268Y-462788D01*
G01X872287Y-463042D01*
G01X870356Y-463550D01*
G01X868528Y-464210D01*
G01X866800Y-465074D01*
G01X865175Y-466090D01*
G01X863600Y-467208D01*
G01X862178Y-468478D01*
G01X860908Y-469900D01*
G01X859790Y-471475D01*
G01X858774Y-473100D01*
G01X857910Y-474828D01*
G01X857250Y-476656D01*
G01X856742Y-478587D01*
G01X856488Y-480568D01*
G01X856336Y-482600D01*
G01X859688D01*
G01X859790Y-480924D01*
G01X860044Y-479247D01*
G01X860450Y-477672D01*
G01X861009Y-476148D01*
G01X861670Y-474675D01*
G01X862533Y-473304D01*
G01X863498Y-472034D01*
G01X864565Y-470865D01*
G01X865734Y-469798D01*
G01X867004Y-468833D01*
G01X868375Y-467970D01*
G01X869848Y-467309D01*
G01X871372Y-466750D01*
G01X872947Y-466344D01*
G01X874624Y-466090D01*
G01X876300Y-465988D01*
G01X877976Y-466090D01*
G01X879653Y-466344D01*
G01X881228Y-466750D01*
G01X882752Y-467309D01*
G01X884225Y-467970D01*
G01X885596Y-468833D01*
G01X886866Y-469798D01*
G01X888035Y-470865D01*
G01X889102Y-472034D01*
G01X890067Y-473304D01*
G01X890930Y-474675D01*
G01X891591Y-476148D01*
G01X892150Y-477672D01*
G01X892556Y-479247D01*
G01X892810Y-480924D01*
G01X892912Y-482600D01*
G01X892810Y-484276D01*
G01X892556Y-485953D01*
G01X892150Y-487528D01*
G01X891591Y-489052D01*
G01X890930Y-490525D01*
G01X890067Y-491896D01*
G01X889102Y-493166D01*
G01X888035Y-494335D01*
G01X886866Y-495402D01*
G01X885596Y-496367D01*
G01X884225Y-497230D01*
G01X882752Y-497891D01*
G01X881228Y-498450D01*
G01X879653Y-498856D01*
G01X877976Y-499110D01*
G01X876300Y-499212D01*
G01X874624Y-499110D01*
G01X872947Y-498856D01*
G01X871372Y-498450D01*
G01X869848Y-497891D01*
G01X868375Y-497230D01*
G01X867004Y-496367D01*
G01X865734Y-495402D01*
G01X864565Y-494335D01*
G01X863498Y-493166D01*
G01X862533Y-491896D01*
G01X861670Y-490525D01*
G01X861009Y-489052D01*
G01X860450Y-487528D01*
G01X860044Y-485953D01*
G01X859790Y-484276D01*
G01X859688Y-482600D01*
G01X856336D01*
G01X856488Y-484632D01*
G01X856742Y-486613D01*
G01X857250Y-488544D01*
G01X857910Y-490372D01*
G01X858774Y-492100D01*
G01X859790Y-493725D01*
G01X860908Y-495300D01*
G01X862178Y-496722D01*
G01X863600Y-497992D01*
G01X865175Y-499110D01*
G01X866800Y-500126D01*
G01X868528Y-500990D01*
G01X870356Y-501650D01*
G01X872287Y-502158D01*
G01X874268Y-502412D01*
G01X876300Y-502514D01*
G01X878332Y-502412D01*
G01X880313Y-502158D01*
G01X882244Y-501650D01*
G01X884072Y-500990D01*
G01X885800Y-500126D01*
G01X887425Y-499110D01*
G01X889000Y-497992D01*
G01X890422Y-496722D01*
G01X891692Y-495300D01*
G01X892810Y-493725D01*
G01X893826Y-492100D01*
G01X894690Y-490372D01*
G01X895350Y-488544D01*
G01X895858Y-486613D01*
G01X896112Y-484632D01*
G01X896264Y-482600D01*
G01X896112Y-480568D01*
G01X895858Y-478587D01*
G01X895350Y-476656D01*
G01X894690Y-474828D01*
G01X893826Y-473100D01*
G01X892810Y-471475D01*
G01X891692Y-469900D01*
G01X890422Y-468478D01*
G01X889000Y-467208D01*
G01X887425Y-466090D01*
G01X885800Y-465074D01*
G01X884072Y-464210D01*
G01X882244Y-463550D01*
G01X880313Y-463042D01*
G01X878332Y-462788D01*
G37*
G36*
G01X901700Y-3459836D02*
G01X899668Y-3459988D01*
G01X897687Y-3460242D01*
G01X895756Y-3460750D01*
G01X893928Y-3461410D01*
G01X892200Y-3462274D01*
G01X890575Y-3463290D01*
G01X889000Y-3464408D01*
G01X887578Y-3465678D01*
G01X886308Y-3467100D01*
G01X885190Y-3468675D01*
G01X884174Y-3470300D01*
G01X883310Y-3472028D01*
G01X882650Y-3473856D01*
G01X882142Y-3475787D01*
G01X881888Y-3477768D01*
G01X881736Y-3479800D01*
G01X885088D01*
G01X885190Y-3478124D01*
G01X885444Y-3476447D01*
G01X885850Y-3474872D01*
G01X886409Y-3473348D01*
G01X887070Y-3471875D01*
G01X887933Y-3470504D01*
G01X888898Y-3469234D01*
G01X889965Y-3468065D01*
G01X891134Y-3466998D01*
G01X892404Y-3466033D01*
G01X893775Y-3465170D01*
G01X895248Y-3464509D01*
G01X896772Y-3463950D01*
G01X898347Y-3463544D01*
G01X900024Y-3463290D01*
G01X901700Y-3463188D01*
G01X903376Y-3463290D01*
G01X905053Y-3463544D01*
G01X906628Y-3463950D01*
G01X908152Y-3464509D01*
G01X909625Y-3465170D01*
G01X910996Y-3466033D01*
G01X912266Y-3466998D01*
G01X913435Y-3468065D01*
G01X914502Y-3469234D01*
G01X915467Y-3470504D01*
G01X916330Y-3471875D01*
G01X916991Y-3473348D01*
G01X917550Y-3474872D01*
G01X917956Y-3476447D01*
G01X918210Y-3478124D01*
G01X918312Y-3479800D01*
G01X918210Y-3481476D01*
G01X917956Y-3483153D01*
G01X917550Y-3484728D01*
G01X916991Y-3486252D01*
G01X916330Y-3487725D01*
G01X915467Y-3489096D01*
G01X914502Y-3490366D01*
G01X913435Y-3491535D01*
G01X912266Y-3492602D01*
G01X910996Y-3493567D01*
G01X909625Y-3494430D01*
G01X908152Y-3495091D01*
G01X906628Y-3495650D01*
G01X905053Y-3496056D01*
G01X903376Y-3496310D01*
G01X901700Y-3496412D01*
G01X900024Y-3496310D01*
G01X898347Y-3496056D01*
G01X896772Y-3495650D01*
G01X895248Y-3495091D01*
G01X893775Y-3494430D01*
G01X892404Y-3493567D01*
G01X891134Y-3492602D01*
G01X889965Y-3491535D01*
G01X888898Y-3490366D01*
G01X887933Y-3489096D01*
G01X887070Y-3487725D01*
G01X886409Y-3486252D01*
G01X885850Y-3484728D01*
G01X885444Y-3483153D01*
G01X885190Y-3481476D01*
G01X885088Y-3479800D01*
G01X881736D01*
G01X881888Y-3481832D01*
G01X882142Y-3483813D01*
G01X882650Y-3485744D01*
G01X883310Y-3487572D01*
G01X884174Y-3489300D01*
G01X885190Y-3490925D01*
G01X886308Y-3492500D01*
G01X887578Y-3493922D01*
G01X889000Y-3495192D01*
G01X890575Y-3496310D01*
G01X892200Y-3497326D01*
G01X893928Y-3498190D01*
G01X895756Y-3498850D01*
G01X897687Y-3499358D01*
G01X899668Y-3499612D01*
G01X901700Y-3499714D01*
G01X903732Y-3499612D01*
G01X905713Y-3499358D01*
G01X907644Y-3498850D01*
G01X909472Y-3498190D01*
G01X911200Y-3497326D01*
G01X912825Y-3496310D01*
G01X914400Y-3495192D01*
G01X915822Y-3493922D01*
G01X917092Y-3492500D01*
G01X918210Y-3490925D01*
G01X919226Y-3489300D01*
G01X920090Y-3487572D01*
G01X920750Y-3485744D01*
G01X921258Y-3483813D01*
G01X921512Y-3481832D01*
G01X921664Y-3479800D01*
G01X921512Y-3477768D01*
G01X921258Y-3475787D01*
G01X920750Y-3473856D01*
G01X920090Y-3472028D01*
G01X919226Y-3470300D01*
G01X918210Y-3468675D01*
G01X917092Y-3467100D01*
G01X915822Y-3465678D01*
G01X914400Y-3464408D01*
G01X912825Y-3463290D01*
G01X911200Y-3462274D01*
G01X909472Y-3461410D01*
G01X907644Y-3460750D01*
G01X905713Y-3460242D01*
G01X903732Y-3459988D01*
G37*
G36*
G01X255016Y-2904236D02*
G01X252984Y-2904338D01*
G01X251003Y-2904642D01*
G01X249072Y-2905150D01*
G01X247244Y-2905811D01*
G01X245516Y-2906624D01*
G01X243840Y-2907640D01*
G01X242316Y-2908808D01*
G01X240894Y-2910078D01*
G01X239624Y-2911500D01*
G01X238455Y-2913024D01*
G01X237490Y-2914701D01*
G01X236626Y-2916428D01*
G01X235966Y-2918257D01*
G01X235458Y-2920136D01*
G01X235153Y-2922118D01*
G01X235052Y-2924200D01*
G01X238404D01*
G01X238455Y-2922473D01*
G01X238709Y-2920848D01*
G01X239166Y-2919222D01*
G01X239725Y-2917698D01*
G01X240386Y-2916276D01*
G01X241249Y-2914904D01*
G01X242214Y-2913634D01*
G01X243281Y-2912415D01*
G01X244450Y-2911348D01*
G01X245720Y-2910383D01*
G01X247091Y-2909570D01*
G01X248564Y-2908859D01*
G01X250088Y-2908300D01*
G01X251663Y-2907894D01*
G01X253289Y-2907640D01*
G01X255016Y-2907589D01*
G01X256692Y-2907640D01*
G01X258369Y-2907894D01*
G01X259944Y-2908300D01*
G01X261468Y-2908859D01*
G01X262941Y-2909570D01*
G01X264312Y-2910383D01*
G01X265582Y-2911348D01*
G01X266751Y-2912415D01*
G01X267818Y-2913634D01*
G01X268783Y-2914904D01*
G01X269596Y-2916276D01*
G01X270307Y-2917698D01*
G01X270866Y-2919222D01*
G01X271272Y-2920848D01*
G01X271526Y-2922473D01*
G01X271628Y-2924200D01*
G01X271526Y-2925877D01*
G01X271272Y-2927502D01*
G01X270866Y-2929128D01*
G01X270307Y-2930652D01*
G01X269596Y-2932074D01*
G01X268783Y-2933446D01*
G01X267818Y-2934767D01*
G01X266751Y-2935935D01*
G01X265582Y-2937002D01*
G01X264312Y-2937967D01*
G01X262941Y-2938780D01*
G01X261468Y-2939491D01*
G01X259944Y-2940050D01*
G01X258369Y-2940456D01*
G01X256692Y-2940710D01*
G01X255016Y-2940812D01*
G01X253289Y-2940710D01*
G01X251663Y-2940456D01*
G01X250088Y-2940050D01*
G01X248564Y-2939491D01*
G01X247091Y-2938780D01*
G01X245720Y-2937967D01*
G01X244450Y-2937002D01*
G01X243281Y-2935935D01*
G01X242214Y-2934767D01*
G01X241249Y-2933446D01*
G01X240386Y-2932074D01*
G01X239725Y-2930652D01*
G01X239166Y-2929128D01*
G01X238709Y-2927502D01*
G01X238455Y-2925877D01*
G01X238404Y-2924200D01*
G01X235052D01*
G01X235153Y-2926232D01*
G01X235458Y-2928214D01*
G01X235966Y-2930093D01*
G01X236626Y-2931922D01*
G01X237490Y-2933700D01*
G01X238455Y-2935326D01*
G01X239624Y-2936850D01*
G01X240894Y-2938272D01*
G01X242316Y-2939542D01*
G01X243840Y-2940710D01*
G01X245516Y-2941726D01*
G01X247244Y-2942539D01*
G01X249072Y-2943200D01*
G01X251003Y-2943708D01*
G01X252984Y-2944012D01*
G01X255016Y-2944114D01*
G01X257048Y-2944012D01*
G01X259029Y-2943708D01*
G01X260960Y-2943200D01*
G01X262788Y-2942539D01*
G01X264516Y-2941726D01*
G01X266141Y-2940710D01*
G01X267716Y-2939542D01*
G01X269088Y-2938272D01*
G01X270408Y-2936850D01*
G01X271526Y-2935326D01*
G01X272542Y-2933700D01*
G01X273406Y-2931922D01*
G01X274066Y-2930093D01*
G01X274523Y-2928214D01*
G01X274828Y-2926232D01*
G01X274930Y-2924200D01*
G01X274828Y-2922118D01*
G01X274523Y-2920136D01*
G01X274066Y-2918257D01*
G01X273406Y-2916428D01*
G01X272542Y-2914701D01*
G01X271526Y-2913024D01*
G01X270408Y-2911500D01*
G01X269088Y-2910078D01*
G01X267716Y-2908808D01*
G01X266141Y-2907640D01*
G01X264516Y-2906624D01*
G01X262788Y-2905811D01*
G01X260960Y-2905150D01*
G01X259029Y-2904642D01*
G01X257048Y-2904338D01*
G37*
G36*
G01X1879600Y-4945736D02*
G01X1877568Y-4945888D01*
G01X1875587Y-4946142D01*
G01X1873656Y-4946650D01*
G01X1871828Y-4947310D01*
G01X1870100Y-4948174D01*
G01X1868475Y-4949190D01*
G01X1866900Y-4950308D01*
G01X1865478Y-4951578D01*
G01X1864208Y-4953000D01*
G01X1863090Y-4954575D01*
G01X1862074Y-4956200D01*
G01X1861210Y-4957928D01*
G01X1860550Y-4959756D01*
G01X1860042Y-4961687D01*
G01X1859788Y-4963668D01*
G01X1859636Y-4965700D01*
G01X1862988D01*
G01X1863090Y-4964024D01*
G01X1863344Y-4962347D01*
G01X1863750Y-4960772D01*
G01X1864309Y-4959248D01*
G01X1864970Y-4957775D01*
G01X1865833Y-4956404D01*
G01X1866798Y-4955134D01*
G01X1867865Y-4953965D01*
G01X1869034Y-4952898D01*
G01X1870304Y-4951933D01*
G01X1871675Y-4951070D01*
G01X1873148Y-4950409D01*
G01X1874672Y-4949850D01*
G01X1876247Y-4949444D01*
G01X1877924Y-4949190D01*
G01X1879600Y-4949088D01*
G01X1881276Y-4949190D01*
G01X1882953Y-4949444D01*
G01X1884528Y-4949850D01*
G01X1886052Y-4950409D01*
G01X1887525Y-4951070D01*
G01X1888896Y-4951933D01*
G01X1890166Y-4952898D01*
G01X1891335Y-4953965D01*
G01X1892402Y-4955134D01*
G01X1893367Y-4956404D01*
G01X1894230Y-4957775D01*
G01X1894891Y-4959248D01*
G01X1895450Y-4960772D01*
G01X1895856Y-4962347D01*
G01X1896110Y-4964024D01*
G01X1896212Y-4965700D01*
G01X1896110Y-4967376D01*
G01X1895856Y-4969053D01*
G01X1895450Y-4970628D01*
G01X1894891Y-4972152D01*
G01X1894230Y-4973625D01*
G01X1893367Y-4974996D01*
G01X1892402Y-4976266D01*
G01X1891335Y-4977435D01*
G01X1890166Y-4978502D01*
G01X1888896Y-4979467D01*
G01X1887525Y-4980330D01*
G01X1886052Y-4980991D01*
G01X1884528Y-4981550D01*
G01X1882953Y-4981956D01*
G01X1881276Y-4982210D01*
G01X1879600Y-4982312D01*
G01X1877924Y-4982210D01*
G01X1876247Y-4981956D01*
G01X1874672Y-4981550D01*
G01X1873148Y-4980991D01*
G01X1871675Y-4980330D01*
G01X1870304Y-4979467D01*
G01X1869034Y-4978502D01*
G01X1867865Y-4977435D01*
G01X1866798Y-4976266D01*
G01X1865833Y-4974996D01*
G01X1864970Y-4973625D01*
G01X1864309Y-4972152D01*
G01X1863750Y-4970628D01*
G01X1863344Y-4969053D01*
G01X1863090Y-4967376D01*
G01X1862988Y-4965700D01*
G01X1859636D01*
G01X1859788Y-4967732D01*
G01X1860042Y-4969713D01*
G01X1860550Y-4971644D01*
G01X1861210Y-4973472D01*
G01X1862074Y-4975200D01*
G01X1863090Y-4976825D01*
G01X1864208Y-4978400D01*
G01X1865478Y-4979822D01*
G01X1866900Y-4981092D01*
G01X1868475Y-4982210D01*
G01X1870100Y-4983226D01*
G01X1871828Y-4984090D01*
G01X1873656Y-4984750D01*
G01X1875587Y-4985258D01*
G01X1877568Y-4985512D01*
G01X1879600Y-4985614D01*
G01X1881632Y-4985512D01*
G01X1883613Y-4985258D01*
G01X1885544Y-4984750D01*
G01X1887372Y-4984090D01*
G01X1889100Y-4983226D01*
G01X1890725Y-4982210D01*
G01X1892300Y-4981092D01*
G01X1893722Y-4979822D01*
G01X1894992Y-4978400D01*
G01X1896110Y-4976825D01*
G01X1897126Y-4975200D01*
G01X1897990Y-4973472D01*
G01X1898650Y-4971644D01*
G01X1899158Y-4969713D01*
G01X1899412Y-4967732D01*
G01X1899564Y-4965700D01*
G01X1899412Y-4963668D01*
G01X1899158Y-4961687D01*
G01X1898650Y-4959756D01*
G01X1897990Y-4957928D01*
G01X1897126Y-4956200D01*
G01X1896110Y-4954575D01*
G01X1894992Y-4953000D01*
G01X1893722Y-4951578D01*
G01X1892300Y-4950308D01*
G01X1890725Y-4949190D01*
G01X1889100Y-4948174D01*
G01X1887372Y-4947310D01*
G01X1885544Y-4946650D01*
G01X1883613Y-4946142D01*
G01X1881632Y-4945888D01*
G37*
G36*
G01X977900Y-4679036D02*
G01X975868Y-4679188D01*
G01X973887Y-4679442D01*
G01X971956Y-4679950D01*
G01X970128Y-4680610D01*
G01X968400Y-4681474D01*
G01X966775Y-4682490D01*
G01X965200Y-4683608D01*
G01X963778Y-4684878D01*
G01X962508Y-4686300D01*
G01X961390Y-4687875D01*
G01X960374Y-4689500D01*
G01X959510Y-4691228D01*
G01X958850Y-4693056D01*
G01X958342Y-4694987D01*
G01X958088Y-4696968D01*
G01X957986Y-4699000D01*
G01X961288D01*
G01X961390Y-4697324D01*
G01X961644Y-4695647D01*
G01X962050Y-4694072D01*
G01X962609Y-4692548D01*
G01X963270Y-4691075D01*
G01X964133Y-4689704D01*
G01X965098Y-4688434D01*
G01X966165Y-4687265D01*
G01X967334Y-4686198D01*
G01X968604Y-4685233D01*
G01X969975Y-4684370D01*
G01X971448Y-4683709D01*
G01X972972Y-4683150D01*
G01X974547Y-4682744D01*
G01X976224Y-4682490D01*
G01X977900Y-4682388D01*
G01X979576Y-4682490D01*
G01X981253Y-4682744D01*
G01X982828Y-4683150D01*
G01X984352Y-4683709D01*
G01X985825Y-4684370D01*
G01X987196Y-4685233D01*
G01X988466Y-4686198D01*
G01X989635Y-4687265D01*
G01X990702Y-4688434D01*
G01X991667Y-4689704D01*
G01X992530Y-4691075D01*
G01X993191Y-4692548D01*
G01X993750Y-4694072D01*
G01X994156Y-4695647D01*
G01X994410Y-4697324D01*
G01X994512Y-4699000D01*
G01X994410Y-4700676D01*
G01X994156Y-4702353D01*
G01X993750Y-4703928D01*
G01X993191Y-4705452D01*
G01X992530Y-4706925D01*
G01X991667Y-4708296D01*
G01X990702Y-4709566D01*
G01X989635Y-4710735D01*
G01X988466Y-4711802D01*
G01X987196Y-4712767D01*
G01X985825Y-4713630D01*
G01X984352Y-4714291D01*
G01X982828Y-4714850D01*
G01X981253Y-4715256D01*
G01X979576Y-4715510D01*
G01X977900Y-4715612D01*
G01X976224Y-4715510D01*
G01X974547Y-4715256D01*
G01X972972Y-4714850D01*
G01X971448Y-4714291D01*
G01X969975Y-4713630D01*
G01X968604Y-4712767D01*
G01X967334Y-4711802D01*
G01X966165Y-4710735D01*
G01X965098Y-4709566D01*
G01X964133Y-4708296D01*
G01X963270Y-4706925D01*
G01X962609Y-4705452D01*
G01X962050Y-4703928D01*
G01X961644Y-4702353D01*
G01X961390Y-4700676D01*
G01X961288Y-4699000D01*
G01X957986D01*
G01X958088Y-4701032D01*
G01X958342Y-4703013D01*
G01X958850Y-4704944D01*
G01X959510Y-4706772D01*
G01X960374Y-4708500D01*
G01X961390Y-4710125D01*
G01X962508Y-4711700D01*
G01X963778Y-4713122D01*
G01X965200Y-4714392D01*
G01X966775Y-4715510D01*
G01X968400Y-4716526D01*
G01X970128Y-4717390D01*
G01X971956Y-4718050D01*
G01X973887Y-4718558D01*
G01X975868Y-4718812D01*
G01X977900Y-4718914D01*
G01X979932Y-4718812D01*
G01X981913Y-4718558D01*
G01X983844Y-4718050D01*
G01X985672Y-4717390D01*
G01X987400Y-4716526D01*
G01X989025Y-4715510D01*
G01X990600Y-4714392D01*
G01X992022Y-4713122D01*
G01X993292Y-4711700D01*
G01X994410Y-4710125D01*
G01X995426Y-4708500D01*
G01X996290Y-4706772D01*
G01X996950Y-4704944D01*
G01X997458Y-4703013D01*
G01X997712Y-4701032D01*
G01X997864Y-4699000D01*
G01X997712Y-4696968D01*
G01X997458Y-4694987D01*
G01X996950Y-4693056D01*
G01X996290Y-4691228D01*
G01X995426Y-4689500D01*
G01X994410Y-4687875D01*
G01X993292Y-4686300D01*
G01X992022Y-4684878D01*
G01X990600Y-4683608D01*
G01X989025Y-4682490D01*
G01X987400Y-4681474D01*
G01X985672Y-4680610D01*
G01X983844Y-4679950D01*
G01X981913Y-4679442D01*
G01X979932Y-4679188D01*
G37*
G36*
G01X687324Y-2904236D02*
G01X685292Y-2904338D01*
G01X683311Y-2904642D01*
G01X681431Y-2905150D01*
G01X679602Y-2905811D01*
G01X677824Y-2906624D01*
G01X676199Y-2907640D01*
G01X674675Y-2908808D01*
G01X673252Y-2910078D01*
G01X671932Y-2911500D01*
G01X670814Y-2913024D01*
G01X669798Y-2914701D01*
G01X668985Y-2916428D01*
G01X668274Y-2918257D01*
G01X667817Y-2920136D01*
G01X667512Y-2922118D01*
G01X667410Y-2924200D01*
G01X670712D01*
G01X670814Y-2922473D01*
G01X671068Y-2920848D01*
G01X671474Y-2919222D01*
G01X672033Y-2917698D01*
G01X672744Y-2916276D01*
G01X673557Y-2914904D01*
G01X674522Y-2913634D01*
G01X675589Y-2912415D01*
G01X676758Y-2911348D01*
G01X678078Y-2910383D01*
G01X679450Y-2909570D01*
G01X680872Y-2908859D01*
G01X682396Y-2908300D01*
G01X683971Y-2907894D01*
G01X685648Y-2907640D01*
G01X687324Y-2907589D01*
G01X689051Y-2907640D01*
G01X690677Y-2907894D01*
G01X692252Y-2908300D01*
G01X693776Y-2908859D01*
G01X695249Y-2909570D01*
G01X696620Y-2910383D01*
G01X697890Y-2911348D01*
G01X699059Y-2912415D01*
G01X700176Y-2913634D01*
G01X701091Y-2914904D01*
G01X701954Y-2916276D01*
G01X702666Y-2917698D01*
G01X703224Y-2919222D01*
G01X703631Y-2920848D01*
G01X703885Y-2922473D01*
G01X703936Y-2924200D01*
G01X703885Y-2925877D01*
G01X703631Y-2927502D01*
G01X703224Y-2929128D01*
G01X702666Y-2930652D01*
G01X701954Y-2932074D01*
G01X701091Y-2933446D01*
G01X700176Y-2934767D01*
G01X699059Y-2935935D01*
G01X697890Y-2937002D01*
G01X696620Y-2937967D01*
G01X695249Y-2938780D01*
G01X693776Y-2939491D01*
G01X692252Y-2940050D01*
G01X690677Y-2940456D01*
G01X689051Y-2940710D01*
G01X687324Y-2940812D01*
G01X685648Y-2940710D01*
G01X683971Y-2940456D01*
G01X682396Y-2940050D01*
G01X680872Y-2939491D01*
G01X679450Y-2938780D01*
G01X678078Y-2937967D01*
G01X676758Y-2937002D01*
G01X675589Y-2935935D01*
G01X674522Y-2934767D01*
G01X673557Y-2933446D01*
G01X672744Y-2932074D01*
G01X672033Y-2930652D01*
G01X671474Y-2929128D01*
G01X671068Y-2927502D01*
G01X670814Y-2925877D01*
G01X670712Y-2924200D01*
G01X667410D01*
G01X667512Y-2926232D01*
G01X667817Y-2928214D01*
G01X668274Y-2930093D01*
G01X668985Y-2931922D01*
G01X669798Y-2933700D01*
G01X670814Y-2935326D01*
G01X671932Y-2936850D01*
G01X673252Y-2938272D01*
G01X674675Y-2939542D01*
G01X676199Y-2940710D01*
G01X677824Y-2941726D01*
G01X679602Y-2942539D01*
G01X681431Y-2943200D01*
G01X683311Y-2943708D01*
G01X685292Y-2944012D01*
G01X687324Y-2944114D01*
G01X689356Y-2944012D01*
G01X691337Y-2943708D01*
G01X693268Y-2943200D01*
G01X695096Y-2942539D01*
G01X696824Y-2941726D01*
G01X698500Y-2940710D01*
G01X700024Y-2939542D01*
G01X701446Y-2938272D01*
G01X702716Y-2936850D01*
G01X703885Y-2935326D01*
G01X704850Y-2933700D01*
G01X705714Y-2931922D01*
G01X706374Y-2930093D01*
G01X706882Y-2928214D01*
G01X707187Y-2926232D01*
G01X707288Y-2924200D01*
G01X707187Y-2922118D01*
G01X706882Y-2920136D01*
G01X706374Y-2918257D01*
G01X705714Y-2916428D01*
G01X704850Y-2914701D01*
G01X703885Y-2913024D01*
G01X702716Y-2911500D01*
G01X701446Y-2910078D01*
G01X700024Y-2908808D01*
G01X698500Y-2907640D01*
G01X696824Y-2906624D01*
G01X695096Y-2905811D01*
G01X693268Y-2905150D01*
G01X691337Y-2904642D01*
G01X689356Y-2904338D01*
G37*
G36*
G01X1016000Y-3231236D02*
G01X1013968Y-3231388D01*
G01X1011987Y-3231642D01*
G01X1010056Y-3232150D01*
G01X1008228Y-3232810D01*
G01X1006500Y-3233674D01*
G01X1004875Y-3234690D01*
G01X1003300Y-3235808D01*
G01X1001878Y-3237078D01*
G01X1000608Y-3238500D01*
G01X999490Y-3240075D01*
G01X998474Y-3241700D01*
G01X997610Y-3243428D01*
G01X996950Y-3245256D01*
G01X996442Y-3247187D01*
G01X996188Y-3249168D01*
G01X996086Y-3251200D01*
G01X999388D01*
G01X999490Y-3249524D01*
G01X999744Y-3247847D01*
G01X1000150Y-3246272D01*
G01X1000709Y-3244748D01*
G01X1001370Y-3243275D01*
G01X1002233Y-3241904D01*
G01X1003198Y-3240634D01*
G01X1004265Y-3239465D01*
G01X1005434Y-3238398D01*
G01X1006704Y-3237433D01*
G01X1008075Y-3236570D01*
G01X1009548Y-3235909D01*
G01X1011072Y-3235350D01*
G01X1012647Y-3234944D01*
G01X1014324Y-3234690D01*
G01X1016000Y-3234588D01*
G01X1017676Y-3234690D01*
G01X1019353Y-3234944D01*
G01X1020928Y-3235350D01*
G01X1022452Y-3235909D01*
G01X1023925Y-3236570D01*
G01X1025296Y-3237433D01*
G01X1026566Y-3238398D01*
G01X1027735Y-3239465D01*
G01X1028802Y-3240634D01*
G01X1029767Y-3241904D01*
G01X1030630Y-3243275D01*
G01X1031291Y-3244748D01*
G01X1031850Y-3246272D01*
G01X1032256Y-3247847D01*
G01X1032510Y-3249524D01*
G01X1032612Y-3251200D01*
G01X1032510Y-3252876D01*
G01X1032256Y-3254553D01*
G01X1031850Y-3256128D01*
G01X1031291Y-3257652D01*
G01X1030630Y-3259125D01*
G01X1029767Y-3260496D01*
G01X1028802Y-3261766D01*
G01X1027735Y-3262935D01*
G01X1026566Y-3264002D01*
G01X1025296Y-3264967D01*
G01X1023925Y-3265830D01*
G01X1022452Y-3266491D01*
G01X1020928Y-3267050D01*
G01X1019353Y-3267456D01*
G01X1017676Y-3267710D01*
G01X1016000Y-3267812D01*
G01X1014324Y-3267710D01*
G01X1012647Y-3267456D01*
G01X1011072Y-3267050D01*
G01X1009548Y-3266491D01*
G01X1008075Y-3265830D01*
G01X1006704Y-3264967D01*
G01X1005434Y-3264002D01*
G01X1004265Y-3262935D01*
G01X1003198Y-3261766D01*
G01X1002233Y-3260496D01*
G01X1001370Y-3259125D01*
G01X1000709Y-3257652D01*
G01X1000150Y-3256128D01*
G01X999744Y-3254553D01*
G01X999490Y-3252876D01*
G01X999388Y-3251200D01*
G01X996086D01*
G01X996188Y-3253232D01*
G01X996442Y-3255213D01*
G01X996950Y-3257144D01*
G01X997610Y-3258972D01*
G01X998474Y-3260700D01*
G01X999490Y-3262325D01*
G01X1000608Y-3263900D01*
G01X1001878Y-3265322D01*
G01X1003300Y-3266592D01*
G01X1004875Y-3267710D01*
G01X1006500Y-3268726D01*
G01X1008228Y-3269590D01*
G01X1010056Y-3270250D01*
G01X1011987Y-3270758D01*
G01X1013968Y-3271012D01*
G01X1016000Y-3271114D01*
G01X1018032Y-3271012D01*
G01X1020013Y-3270758D01*
G01X1021944Y-3270250D01*
G01X1023772Y-3269590D01*
G01X1025500Y-3268726D01*
G01X1027125Y-3267710D01*
G01X1028700Y-3266592D01*
G01X1030122Y-3265322D01*
G01X1031392Y-3263900D01*
G01X1032510Y-3262325D01*
G01X1033526Y-3260700D01*
G01X1034390Y-3258972D01*
G01X1035050Y-3257144D01*
G01X1035558Y-3255213D01*
G01X1035812Y-3253232D01*
G01X1035964Y-3251200D01*
G01X1035812Y-3249168D01*
G01X1035558Y-3247187D01*
G01X1035050Y-3245256D01*
G01X1034390Y-3243428D01*
G01X1033526Y-3241700D01*
G01X1032510Y-3240075D01*
G01X1031392Y-3238500D01*
G01X1030122Y-3237078D01*
G01X1028700Y-3235808D01*
G01X1027125Y-3234690D01*
G01X1025500Y-3233674D01*
G01X1023772Y-3232810D01*
G01X1021944Y-3232150D01*
G01X1020013Y-3231642D01*
G01X1018032Y-3231388D01*
G37*
G36*
G01X-469900Y-4044036D02*
G01X-471932Y-4044188D01*
G01X-473913Y-4044442D01*
G01X-475844Y-4044950D01*
G01X-477672Y-4045610D01*
G01X-479400Y-4046474D01*
G01X-481025Y-4047490D01*
G01X-482600Y-4048608D01*
G01X-484022Y-4049878D01*
G01X-485292Y-4051300D01*
G01X-486410Y-4052875D01*
G01X-487426Y-4054500D01*
G01X-488290Y-4056228D01*
G01X-488950Y-4058056D01*
G01X-489458Y-4059987D01*
G01X-489712Y-4061968D01*
G01X-489864Y-4064000D01*
G01X-486512D01*
G01X-486410Y-4062324D01*
G01X-486156Y-4060647D01*
G01X-485750Y-4059072D01*
G01X-485191Y-4057548D01*
G01X-484530Y-4056075D01*
G01X-483667Y-4054704D01*
G01X-482702Y-4053434D01*
G01X-481635Y-4052265D01*
G01X-480466Y-4051198D01*
G01X-479196Y-4050233D01*
G01X-477825Y-4049370D01*
G01X-476352Y-4048709D01*
G01X-474828Y-4048150D01*
G01X-473253Y-4047744D01*
G01X-471576Y-4047490D01*
G01X-469900Y-4047388D01*
G01X-468224Y-4047490D01*
G01X-466547Y-4047744D01*
G01X-464972Y-4048150D01*
G01X-463448Y-4048709D01*
G01X-461975Y-4049370D01*
G01X-460604Y-4050233D01*
G01X-459334Y-4051198D01*
G01X-458165Y-4052265D01*
G01X-457098Y-4053434D01*
G01X-456133Y-4054704D01*
G01X-455270Y-4056075D01*
G01X-454609Y-4057548D01*
G01X-454050Y-4059072D01*
G01X-453644Y-4060647D01*
G01X-453390Y-4062324D01*
G01X-453288Y-4064000D01*
G01X-453390Y-4065676D01*
G01X-453644Y-4067353D01*
G01X-454050Y-4068928D01*
G01X-454609Y-4070452D01*
G01X-455270Y-4071925D01*
G01X-456133Y-4073296D01*
G01X-457098Y-4074566D01*
G01X-458165Y-4075735D01*
G01X-459334Y-4076802D01*
G01X-460604Y-4077767D01*
G01X-461975Y-4078630D01*
G01X-463448Y-4079291D01*
G01X-464972Y-4079850D01*
G01X-466547Y-4080256D01*
G01X-468224Y-4080510D01*
G01X-469900Y-4080612D01*
G01X-471576Y-4080510D01*
G01X-473253Y-4080256D01*
G01X-474828Y-4079850D01*
G01X-476352Y-4079291D01*
G01X-477825Y-4078630D01*
G01X-479196Y-4077767D01*
G01X-480466Y-4076802D01*
G01X-481635Y-4075735D01*
G01X-482702Y-4074566D01*
G01X-483667Y-4073296D01*
G01X-484530Y-4071925D01*
G01X-485191Y-4070452D01*
G01X-485750Y-4068928D01*
G01X-486156Y-4067353D01*
G01X-486410Y-4065676D01*
G01X-486512Y-4064000D01*
G01X-489864D01*
G01X-489712Y-4066032D01*
G01X-489458Y-4068013D01*
G01X-488950Y-4069944D01*
G01X-488290Y-4071772D01*
G01X-487426Y-4073500D01*
G01X-486410Y-4075125D01*
G01X-485292Y-4076700D01*
G01X-484022Y-4078122D01*
G01X-482600Y-4079392D01*
G01X-481025Y-4080510D01*
G01X-479400Y-4081526D01*
G01X-477672Y-4082390D01*
G01X-475844Y-4083050D01*
G01X-473913Y-4083558D01*
G01X-471932Y-4083812D01*
G01X-469900Y-4083914D01*
G01X-467868Y-4083812D01*
G01X-465887Y-4083558D01*
G01X-463956Y-4083050D01*
G01X-462128Y-4082390D01*
G01X-460400Y-4081526D01*
G01X-458775Y-4080510D01*
G01X-457200Y-4079392D01*
G01X-455778Y-4078122D01*
G01X-454508Y-4076700D01*
G01X-453390Y-4075125D01*
G01X-452374Y-4073500D01*
G01X-451510Y-4071772D01*
G01X-450850Y-4069944D01*
G01X-450342Y-4068013D01*
G01X-450088Y-4066032D01*
G01X-449986Y-4064000D01*
G01X-450088Y-4061968D01*
G01X-450342Y-4059987D01*
G01X-450850Y-4058056D01*
G01X-451510Y-4056228D01*
G01X-452374Y-4054500D01*
G01X-453390Y-4052875D01*
G01X-454508Y-4051300D01*
G01X-455778Y-4049878D01*
G01X-457200Y-4048608D01*
G01X-458775Y-4047490D01*
G01X-460400Y-4046474D01*
G01X-462128Y-4045610D01*
G01X-463956Y-4044950D01*
G01X-465887Y-4044442D01*
G01X-467868Y-4044188D01*
G37*
G36*
G01X-393700Y-4780636D02*
G01X-395732Y-4780788D01*
G01X-397713Y-4781042D01*
G01X-399644Y-4781550D01*
G01X-401472Y-4782210D01*
G01X-403200Y-4783074D01*
G01X-404825Y-4784090D01*
G01X-406400Y-4785208D01*
G01X-407822Y-4786478D01*
G01X-409092Y-4787900D01*
G01X-410210Y-4789475D01*
G01X-411226Y-4791100D01*
G01X-412090Y-4792828D01*
G01X-412750Y-4794656D01*
G01X-413258Y-4796587D01*
G01X-413512Y-4798568D01*
G01X-413664Y-4800600D01*
G01X-410312D01*
G01X-410210Y-4798924D01*
G01X-409956Y-4797247D01*
G01X-409550Y-4795672D01*
G01X-408991Y-4794148D01*
G01X-408330Y-4792675D01*
G01X-407467Y-4791304D01*
G01X-406502Y-4790034D01*
G01X-405435Y-4788865D01*
G01X-404266Y-4787798D01*
G01X-402996Y-4786833D01*
G01X-401625Y-4785970D01*
G01X-400152Y-4785309D01*
G01X-398628Y-4784750D01*
G01X-397053Y-4784344D01*
G01X-395376Y-4784090D01*
G01X-393700Y-4783988D01*
G01X-392024Y-4784090D01*
G01X-390347Y-4784344D01*
G01X-388772Y-4784750D01*
G01X-387248Y-4785309D01*
G01X-385775Y-4785970D01*
G01X-384404Y-4786833D01*
G01X-383134Y-4787798D01*
G01X-381965Y-4788865D01*
G01X-380898Y-4790034D01*
G01X-379933Y-4791304D01*
G01X-379070Y-4792675D01*
G01X-378409Y-4794148D01*
G01X-377850Y-4795672D01*
G01X-377444Y-4797247D01*
G01X-377190Y-4798924D01*
G01X-377088Y-4800600D01*
G01X-377190Y-4802276D01*
G01X-377444Y-4803953D01*
G01X-377850Y-4805528D01*
G01X-378409Y-4807052D01*
G01X-379070Y-4808525D01*
G01X-379933Y-4809896D01*
G01X-380898Y-4811166D01*
G01X-381965Y-4812335D01*
G01X-383134Y-4813402D01*
G01X-384404Y-4814367D01*
G01X-385775Y-4815230D01*
G01X-387248Y-4815891D01*
G01X-388772Y-4816450D01*
G01X-390347Y-4816856D01*
G01X-392024Y-4817110D01*
G01X-393700Y-4817212D01*
G01X-395376Y-4817110D01*
G01X-397053Y-4816856D01*
G01X-398628Y-4816450D01*
G01X-400152Y-4815891D01*
G01X-401625Y-4815230D01*
G01X-402996Y-4814367D01*
G01X-404266Y-4813402D01*
G01X-405435Y-4812335D01*
G01X-406502Y-4811166D01*
G01X-407467Y-4809896D01*
G01X-408330Y-4808525D01*
G01X-408991Y-4807052D01*
G01X-409550Y-4805528D01*
G01X-409956Y-4803953D01*
G01X-410210Y-4802276D01*
G01X-410312Y-4800600D01*
G01X-413664D01*
G01X-413512Y-4802632D01*
G01X-413258Y-4804613D01*
G01X-412750Y-4806544D01*
G01X-412090Y-4808372D01*
G01X-411226Y-4810100D01*
G01X-410210Y-4811725D01*
G01X-409092Y-4813300D01*
G01X-407822Y-4814722D01*
G01X-406400Y-4815992D01*
G01X-404825Y-4817110D01*
G01X-403200Y-4818126D01*
G01X-401472Y-4818990D01*
G01X-399644Y-4819650D01*
G01X-397713Y-4820158D01*
G01X-395732Y-4820412D01*
G01X-393700Y-4820514D01*
G01X-391668Y-4820412D01*
G01X-389687Y-4820158D01*
G01X-387756Y-4819650D01*
G01X-385928Y-4818990D01*
G01X-384200Y-4818126D01*
G01X-382575Y-4817110D01*
G01X-381000Y-4815992D01*
G01X-379578Y-4814722D01*
G01X-378308Y-4813300D01*
G01X-377190Y-4811725D01*
G01X-376174Y-4810100D01*
G01X-375310Y-4808372D01*
G01X-374650Y-4806544D01*
G01X-374142Y-4804613D01*
G01X-373888Y-4802632D01*
G01X-373786Y-4800600D01*
G01X-373888Y-4798568D01*
G01X-374142Y-4796587D01*
G01X-374650Y-4794656D01*
G01X-375310Y-4792828D01*
G01X-376174Y-4791100D01*
G01X-377190Y-4789475D01*
G01X-378308Y-4787900D01*
G01X-379578Y-4786478D01*
G01X-381000Y-4785208D01*
G01X-382575Y-4784090D01*
G01X-384200Y-4783074D01*
G01X-385928Y-4782210D01*
G01X-387756Y-4781550D01*
G01X-389687Y-4781042D01*
G01X-391668Y-4780788D01*
G37*
G36*
G01X-12700Y-2202536D02*
G01X-14732Y-2202688D01*
G01X-16713Y-2202942D01*
G01X-18644Y-2203450D01*
G01X-20472Y-2204110D01*
G01X-22200Y-2204974D01*
G01X-23825Y-2205990D01*
G01X-25400Y-2207108D01*
G01X-26822Y-2208378D01*
G01X-28092Y-2209800D01*
G01X-29210Y-2211375D01*
G01X-30226Y-2213000D01*
G01X-31090Y-2214728D01*
G01X-31750Y-2216556D01*
G01X-32258Y-2218487D01*
G01X-32512Y-2220468D01*
G01X-32664Y-2222500D01*
G01X-29312D01*
G01X-29210Y-2220824D01*
G01X-28956Y-2219147D01*
G01X-28550Y-2217572D01*
G01X-27991Y-2216048D01*
G01X-27330Y-2214575D01*
G01X-26467Y-2213204D01*
G01X-25502Y-2211934D01*
G01X-24435Y-2210765D01*
G01X-23266Y-2209698D01*
G01X-21996Y-2208733D01*
G01X-20625Y-2207870D01*
G01X-19152Y-2207209D01*
G01X-17628Y-2206650D01*
G01X-16053Y-2206244D01*
G01X-14376Y-2205990D01*
G01X-12700Y-2205888D01*
G01X-11024Y-2205990D01*
G01X-9347Y-2206244D01*
G01X-7772Y-2206650D01*
G01X-6248Y-2207209D01*
G01X-4775Y-2207870D01*
G01X-3404Y-2208733D01*
G01X-2134Y-2209698D01*
G01X-965Y-2210765D01*
G01X102Y-2211934D01*
G01X1067Y-2213204D01*
G01X1930Y-2214575D01*
G01X2591Y-2216048D01*
G01X3150Y-2217572D01*
G01X3556Y-2219147D01*
G01X3810Y-2220824D01*
G01X3912Y-2222500D01*
G01X3810Y-2224176D01*
G01X3556Y-2225853D01*
G01X3150Y-2227428D01*
G01X2591Y-2228952D01*
G01X1930Y-2230425D01*
G01X1067Y-2231796D01*
G01X102Y-2233066D01*
G01X-965Y-2234235D01*
G01X-2134Y-2235302D01*
G01X-3404Y-2236267D01*
G01X-4775Y-2237130D01*
G01X-6248Y-2237791D01*
G01X-7772Y-2238350D01*
G01X-9347Y-2238756D01*
G01X-11024Y-2239010D01*
G01X-12700Y-2239112D01*
G01X-14376Y-2239010D01*
G01X-16053Y-2238756D01*
G01X-17628Y-2238350D01*
G01X-19152Y-2237791D01*
G01X-20625Y-2237130D01*
G01X-21996Y-2236267D01*
G01X-23266Y-2235302D01*
G01X-24435Y-2234235D01*
G01X-25502Y-2233066D01*
G01X-26467Y-2231796D01*
G01X-27330Y-2230425D01*
G01X-27991Y-2228952D01*
G01X-28550Y-2227428D01*
G01X-28956Y-2225853D01*
G01X-29210Y-2224176D01*
G01X-29312Y-2222500D01*
G01X-32664D01*
G01X-32512Y-2224532D01*
G01X-32258Y-2226513D01*
G01X-31750Y-2228444D01*
G01X-31090Y-2230272D01*
G01X-30226Y-2232000D01*
G01X-29210Y-2233625D01*
G01X-28092Y-2235200D01*
G01X-26822Y-2236622D01*
G01X-25400Y-2237892D01*
G01X-23825Y-2239010D01*
G01X-22200Y-2240026D01*
G01X-20472Y-2240890D01*
G01X-18644Y-2241550D01*
G01X-16713Y-2242058D01*
G01X-14732Y-2242312D01*
G01X-12700Y-2242414D01*
G01X-10668Y-2242312D01*
G01X-8687Y-2242058D01*
G01X-6756Y-2241550D01*
G01X-4928Y-2240890D01*
G01X-3200Y-2240026D01*
G01X-1575Y-2239010D01*
G01X0Y-2237892D01*
G01X1422Y-2236622D01*
G01X2692Y-2235200D01*
G01X3810Y-2233625D01*
G01X4826Y-2232000D01*
G01X5690Y-2230272D01*
G01X6350Y-2228444D01*
G01X6858Y-2226513D01*
G01X7112Y-2224532D01*
G01X7264Y-2222500D01*
G01X7112Y-2220468D01*
G01X6858Y-2218487D01*
G01X6350Y-2216556D01*
G01X5690Y-2214728D01*
G01X4826Y-2213000D01*
G01X3810Y-2211375D01*
G01X2692Y-2209800D01*
G01X1422Y-2208378D01*
G01X0Y-2207108D01*
G01X-1575Y-2205990D01*
G01X-3200Y-2204974D01*
G01X-4928Y-2204110D01*
G01X-6756Y-2203450D01*
G01X-8687Y-2202942D01*
G01X-10668Y-2202688D01*
G37*
G04 Image End*
G54D10*

M02*
